<?xml version="1.0" encoding="UTF-8" standalone="no"?><svg xmlns="http://www.w3.org/2000/svg" xmlns:xlink="http://www.w3.org/1999/xlink" clip-rule="evenodd" stroke-miterlimit="10" viewBox="0 0 1024 768"><desc>SVG generated by Keynote</desc><defs></defs><g transform="matrix(1.00, 0.00, -0.00, -1.00, 0.0, 768.0)"><g><clipPath id="clip0x7f8ab7fa1730"><path d="M 0.0 768.0 L 1024.0 768.0 L 1024.0 0.0 L 0.0 0.0 Z M 0.0 768.0 "></path></clipPath><g clip-path="url(#clip0x7f8ab7fa1730)"><image xlink:href="../../99A5FB03-DE1B-4B4A-AE6D-D0C074086E95/assets/34988952894DD776A411594AF71579AA.jpeg" width="2048.00" height="1536.00" transform="matrix(0.50, 0.00, -0.00, -0.50, 0.0, 768.0)"></image></g></g><image xlink:href="002B6F4867F7A83931B77EBEE8562503.png" width="713.00" height="54.00" transform="matrix(1.00, 0.00, -0.00, -1.00, 153.0, 739.0)"></image><text xml:space="preserve" font-family="ArialMT,Arial" font-size="56.0" fill="#FBF8E6" transform="matrix(1.00, 0.00, -0.00, -1.00, 153.1, 693.7)">S</text><text xml:space="preserve" font-family="ArialMT,Arial" font-size="56.0" fill="#FBF8E6" transform="matrix(1.00, 0.00, -0.00, -1.00, 193.2, 693.7)">H</text><text xml:space="preserve" font-family="ArialMT,Arial" font-size="56.0" fill="#FBF8E6" transform="matrix(1.00, 0.00, -0.00, -1.00, 236.5, 693.7)">E</text><text xml:space="preserve" font-family="ArialMT,Arial" font-size="56.0" fill="#FBF8E6" transform="matrix(1.00, 0.00, -0.00, -1.00, 276.6, 693.7)"> </text><text xml:space="preserve" font-family="ArialMT,Arial" font-size="56.0" fill="#FBF8E6" transform="matrix(1.00, 0.00, -0.00, -1.00, 295.0, 693.7)">L</text><text xml:space="preserve" font-family="ArialMT,Arial" font-size="56.0" fill="#FBF8E6" transform="matrix(1.00, 0.00, -0.00, -1.00, 328.9, 693.7)">O</text><text xml:space="preserve" font-family="ArialMT,Arial" font-size="56.0" fill="#FBF8E6" transform="matrix(1.00, 0.00, -0.00, -1.00, 375.3, 693.7)">V</text><text xml:space="preserve" font-family="ArialMT,Arial" font-size="56.0" fill="#FBF8E6" transform="matrix(1.00, 0.00, -0.00, -1.00, 415.4, 693.7)">E</text><text xml:space="preserve" font-family="ArialMT,Arial" font-size="56.0" fill="#FBF8E6" transform="matrix(1.00, 0.00, -0.00, -1.00, 455.6, 693.7)">D</text><text xml:space="preserve" font-family="ArialMT,Arial" font-size="56.0" fill="#FBF8E6" transform="matrix(1.00, 0.00, -0.00, -1.00, 498.8, 693.7)"> </text><text xml:space="preserve" font-family="ArialMT,Arial" font-size="56.0" fill="#FBF8E6" transform="matrix(1.00, 0.00, -0.00, -1.00, 516.2, 693.7)">T</text><text xml:space="preserve" font-family="ArialMT,Arial" font-size="56.0" fill="#FBF8E6" transform="matrix(1.00, 0.00, -0.00, -1.00, 553.2, 693.7)">H</text><text xml:space="preserve" font-family="ArialMT,Arial" font-size="56.0" fill="#FBF8E6" transform="matrix(1.00, 0.00, -0.00, -1.00, 596.4, 693.7)">E</text><text xml:space="preserve" font-family="ArialMT,Arial" font-size="56.0" fill="#FBF8E6" transform="matrix(1.00, 0.00, -0.00, -1.00, 636.6, 693.7)"> </text><text xml:space="preserve" font-family="ArialMT,Arial" font-size="56.0" fill="#FBF8E6" transform="matrix(1.00, 0.00, -0.00, -1.00, 654.9, 693.7)">S</text><text xml:space="preserve" font-family="ArialMT,Arial" font-size="56.0" fill="#FBF8E6" transform="matrix(1.00, 0.00, -0.00, -1.00, 695.1, 693.7)">T</text><text xml:space="preserve" font-family="ArialMT,Arial" font-size="56.0" fill="#FBF8E6" transform="matrix(1.00, 0.00, -0.00, -1.00, 731.1, 693.7)">O</text><text xml:space="preserve" font-family="ArialMT,Arial" font-size="56.0" fill="#FBF8E6" transform="matrix(1.00, 0.00, -0.00, -1.00, 777.4, 693.7)">R</text><text xml:space="preserve" font-family="ArialMT,Arial" font-size="56.0" fill="#FBF8E6" transform="matrix(1.00, 0.00, -0.00, -1.00, 819.7, 693.7)">Y</text><text xml:space="preserve" font-family="ArialMT,Arial" font-size="56.0" fill="#FBF8E6" transform="matrix(1.00, 0.00, -0.00, -1.00, 852.6, 693.7)">,</text><text xml:space="preserve" font-family="ArialMT,Arial" font-size="56.0" fill="#FBF8E6" transform="matrix(1.00, 0.00, -0.00, -1.00, 870.9, 693.7)"> </text><image xlink:href="BB766FF975B53E1E6A63ACBF67E1AC2E.png" width="171.00" height="46.00" transform="matrix(1.00, 0.00, -0.00, -1.00, 424.0, 680.0)"></image><text xml:space="preserve" font-family="ArialMT,Arial" font-size="56.0" fill="#FBF8E6" transform="matrix(1.00, 0.00, -0.00, -1.00, 422.4, 635.0)">B</text><text xml:space="preserve" font-family="ArialMT,Arial" font-size="56.0" fill="#FBF8E6" transform="matrix(1.00, 0.00, -0.00, -1.00, 462.6, 635.0)">U</text><text xml:space="preserve" font-family="ArialMT,Arial" font-size="56.0" fill="#FBF8E6" transform="matrix(1.00, 0.00, -0.00, -1.00, 505.8, 635.0)">T</text><text xml:space="preserve" font-family="ArialMT,Arial" font-size="56.0" fill="#FBF8E6" transform="matrix(1.00, 0.00, -0.00, -1.00, 542.8, 635.0)">…</text><image xlink:href="83807D24352AA630AC63176DFACB8FA7.png" width="18.00" height="19.00" transform="matrix(1.00, 0.00, -0.00, -1.00, 68.0, 540.0)"></image><image xlink:href="../../99A5FB03-DE1B-4B4A-AE6D-D0C074086E95/assets/2EAA803481B4829669A1AED6584C7A6E.png" width="132.00" height="132.00" transform="matrix(0.10, 0.00, -0.00, -0.10, 69.0, 537.5)"></image><image xlink:href="E4BBF5C01E3EFF47C53C253A76C3408E.png" width="851.00" height="37.00" transform="matrix(1.00, 0.00, -0.00, -1.00, 102.0, 547.0)"></image><text xml:space="preserve" font-family="ArialMT,Arial" font-size="34.9" fill="#4E5B3E" transform="matrix(1.00, 0.00, -0.00, -1.00, 102.0, 519.5)">“</text><text xml:space="preserve" font-family="ArialMT,Arial" font-size="34.9" fill="#4E5B3E" transform="matrix(1.00, 0.00, -0.00, -1.00, 113.6, 519.5)">W</text><text xml:space="preserve" font-family="ArialMT,Arial" font-size="34.9" fill="#4E5B3E" transform="matrix(1.00, 0.00, -0.00, -1.00, 146.6, 519.5)">h</text><text xml:space="preserve" font-family="ArialMT,Arial" font-size="34.9" fill="#4E5B3E" transform="matrix(1.00, 0.00, -0.00, -1.00, 166.0, 519.5)">e</text><text xml:space="preserve" font-family="ArialMT,Arial" font-size="34.9" fill="#4E5B3E" transform="matrix(1.00, 0.00, -0.00, -1.00, 185.4, 519.5)">r</text><text xml:space="preserve" font-family="ArialMT,Arial" font-size="34.9" fill="#4E5B3E" transform="matrix(1.00, 0.00, -0.00, -1.00, 197.0, 519.5)">e</text><text xml:space="preserve" font-family="ArialMT,Arial" font-size="34.9" fill="#4E5B3E" transform="matrix(1.00, 0.00, -0.00, -1.00, 216.5, 519.5)"> </text><text xml:space="preserve" font-family="ArialMT,Arial" font-size="34.9" fill="#4E5B3E" transform="matrix(1.00, 0.00, -0.00, -1.00, 226.2, 519.5)">a</text><text xml:space="preserve" font-family="ArialMT,Arial" font-size="34.9" fill="#4E5B3E" transform="matrix(1.00, 0.00, -0.00, -1.00, 245.6, 519.5)">m</text><text xml:space="preserve" font-family="ArialMT,Arial" font-size="34.9" fill="#4E5B3E" transform="matrix(1.00, 0.00, -0.00, -1.00, 274.7, 519.5)"> </text><text xml:space="preserve" font-family="ArialMT,Arial" font-size="34.9" fill="#4E5B3E" transform="matrix(1.00, 0.00, -0.00, -1.00, 284.4, 519.5)">I</text><text xml:space="preserve" font-family="ArialMT,Arial" font-size="34.9" fill="#4E5B3E" transform="matrix(1.00, 0.00, -0.00, -1.00, 294.1, 519.5)"> </text><text xml:space="preserve" font-family="ArialMT,Arial" font-size="34.9" fill="#4E5B3E" transform="matrix(1.00, 0.00, -0.00, -1.00, 303.8, 519.5)">g</text><text xml:space="preserve" font-family="ArialMT,Arial" font-size="34.9" fill="#4E5B3E" transform="matrix(1.00, 0.00, -0.00, -1.00, 323.2, 519.5)">o</text><text xml:space="preserve" font-family="ArialMT,Arial" font-size="34.9" fill="#4E5B3E" transform="matrix(1.00, 0.00, -0.00, -1.00, 342.6, 519.5)">i</text><text xml:space="preserve" font-family="ArialMT,Arial" font-size="34.9" fill="#4E5B3E" transform="matrix(1.00, 0.00, -0.00, -1.00, 350.4, 519.5)">n</text><text xml:space="preserve" font-family="ArialMT,Arial" font-size="34.9" fill="#4E5B3E" transform="matrix(1.00, 0.00, -0.00, -1.00, 369.8, 519.5)">g</text><text xml:space="preserve" font-family="ArialMT,Arial" font-size="34.9" fill="#4E5B3E" transform="matrix(1.00, 0.00, -0.00, -1.00, 389.2, 519.5)"> </text><text xml:space="preserve" font-family="ArialMT,Arial" font-size="34.9" fill="#4E5B3E" transform="matrix(1.00, 0.00, -0.00, -1.00, 398.9, 519.5)">t</text><text xml:space="preserve" font-family="ArialMT,Arial" font-size="34.9" fill="#4E5B3E" transform="matrix(1.00, 0.00, -0.00, -1.00, 408.6, 519.5)">o</text><text xml:space="preserve" font-family="ArialMT,Arial" font-size="34.9" fill="#4E5B3E" transform="matrix(1.00, 0.00, -0.00, -1.00, 428.1, 519.5)"> </text><text xml:space="preserve" font-family="ArialMT,Arial" font-size="34.9" fill="#4E5B3E" transform="matrix(1.00, 0.00, -0.00, -1.00, 437.8, 519.5)">g</text><text xml:space="preserve" font-family="ArialMT,Arial" font-size="34.9" fill="#4E5B3E" transform="matrix(1.00, 0.00, -0.00, -1.00, 457.2, 519.5)">e</text><text xml:space="preserve" font-family="ArialMT,Arial" font-size="34.9" fill="#4E5B3E" transform="matrix(1.00, 0.00, -0.00, -1.00, 476.6, 519.5)">t</text><text xml:space="preserve" font-family="ArialMT,Arial" font-size="34.9" fill="#4E5B3E" transform="matrix(1.00, 0.00, -0.00, -1.00, 486.3, 519.5)"> </text><text xml:space="preserve" font-family="ArialMT,Arial" font-size="34.9" fill="#4E5B3E" transform="matrix(1.00, 0.00, -0.00, -1.00, 496.0, 519.5)">a</text><text xml:space="preserve" font-family="ArialMT,Arial" font-size="34.9" fill="#4E5B3E" transform="matrix(1.00, 0.00, -0.00, -1.00, 515.4, 519.5)">l</text><text xml:space="preserve" font-family="ArialMT,Arial" font-size="34.9" fill="#4E5B3E" transform="matrix(1.00, 0.00, -0.00, -1.00, 523.2, 519.5)">l</text><text xml:space="preserve" font-family="ArialMT,Arial" font-size="34.9" fill="#4E5B3E" transform="matrix(1.00, 0.00, -0.00, -1.00, 531.0, 519.5)"> </text><text xml:space="preserve" font-family="ArialMT,Arial" font-size="34.9" fill="#4E5B3E" transform="matrix(1.00, 0.00, -0.00, -1.00, 540.7, 519.5)">t</text><text xml:space="preserve" font-family="ArialMT,Arial" font-size="34.9" fill="#4E5B3E" transform="matrix(1.00, 0.00, -0.00, -1.00, 550.4, 519.5)">h</text><text xml:space="preserve" font-family="ArialMT,Arial" font-size="34.9" fill="#4E5B3E" transform="matrix(1.00, 0.00, -0.00, -1.00, 569.8, 519.5)">i</text><text xml:space="preserve" font-family="ArialMT,Arial" font-size="34.9" fill="#4E5B3E" transform="matrix(1.00, 0.00, -0.00, -1.00, 577.5, 519.5)">s</text><text xml:space="preserve" font-family="ArialMT,Arial" font-size="34.9" fill="#4E5B3E" transform="matrix(1.00, 0.00, -0.00, -1.00, 595.0, 519.5)"> </text><text xml:space="preserve" font-family="ArialMT,Arial" font-size="34.9" fill="#4E5B3E" transform="matrix(1.00, 0.00, -0.00, -1.00, 604.7, 519.5)">v</text><text xml:space="preserve" font-family="ArialMT,Arial" font-size="34.9" fill="#4E5B3E" transform="matrix(1.00, 0.00, -0.00, -1.00, 622.2, 519.5)">i</text><text xml:space="preserve" font-family="ArialMT,Arial" font-size="34.9" fill="#4E5B3E" transform="matrix(1.00, 0.00, -0.00, -1.00, 629.9, 519.5)">d</text><text xml:space="preserve" font-family="ArialMT,Arial" font-size="34.9" fill="#4E5B3E" transform="matrix(1.00, 0.00, -0.00, -1.00, 649.4, 519.5)">e</text><text xml:space="preserve" font-family="ArialMT,Arial" font-size="34.9" fill="#4E5B3E" transform="matrix(1.00, 0.00, -0.00, -1.00, 668.8, 519.5)">o</text><text xml:space="preserve" font-family="ArialMT,Arial" font-size="34.9" fill="#4E5B3E" transform="matrix(1.00, 0.00, -0.00, -1.00, 688.2, 519.5)"> </text><text xml:space="preserve" font-family="ArialMT,Arial" font-size="34.9" fill="#4E5B3E" transform="matrix(1.00, 0.00, -0.00, -1.00, 697.9, 519.5)">a</text><text xml:space="preserve" font-family="ArialMT,Arial" font-size="34.9" fill="#4E5B3E" transform="matrix(1.00, 0.00, -0.00, -1.00, 717.3, 519.5)">n</text><text xml:space="preserve" font-family="ArialMT,Arial" font-size="34.9" fill="#4E5B3E" transform="matrix(1.00, 0.00, -0.00, -1.00, 736.8, 519.5)">d</text><text xml:space="preserve" font-family="ArialMT,Arial" font-size="34.9" fill="#4E5B3E" transform="matrix(1.00, 0.00, -0.00, -1.00, 756.2, 519.5)"> </text><text xml:space="preserve" font-family="ArialMT,Arial" font-size="34.9" fill="#4E5B3E" transform="matrix(1.00, 0.00, -0.00, -1.00, 765.9, 519.5)">o</text><text xml:space="preserve" font-family="ArialMT,Arial" font-size="34.9" fill="#4E5B3E" transform="matrix(1.00, 0.00, -0.00, -1.00, 785.3, 519.5)">t</text><text xml:space="preserve" font-family="ArialMT,Arial" font-size="34.9" fill="#4E5B3E" transform="matrix(1.00, 0.00, -0.00, -1.00, 795.0, 519.5)">h</text><text xml:space="preserve" font-family="ArialMT,Arial" font-size="34.9" fill="#4E5B3E" transform="matrix(1.00, 0.00, -0.00, -1.00, 814.4, 519.5)">e</text><text xml:space="preserve" font-family="ArialMT,Arial" font-size="34.9" fill="#4E5B3E" transform="matrix(1.00, 0.00, -0.00, -1.00, 833.9, 519.5)">r</text><text xml:space="preserve" font-family="ArialMT,Arial" font-size="34.9" fill="#4E5B3E" transform="matrix(1.00, 0.00, -0.00, -1.00, 845.5, 519.5)"> </text><text xml:space="preserve" font-family="ArialMT,Arial" font-size="34.9" fill="#4E5B3E" transform="matrix(1.00, 0.00, -0.00, -1.00, 855.2, 519.5)">s</text><text xml:space="preserve" font-family="ArialMT,Arial" font-size="34.9" fill="#4E5B3E" transform="matrix(1.00, 0.00, -0.00, -1.00, 872.6, 519.5)">t</text><text xml:space="preserve" font-family="ArialMT,Arial" font-size="34.9" fill="#4E5B3E" transform="matrix(1.00, 0.00, -0.00, -1.00, 882.3, 519.5)">u</text><text xml:space="preserve" font-family="ArialMT,Arial" font-size="34.9" fill="#4E5B3E" transform="matrix(1.00, 0.00, -0.00, -1.00, 901.8, 519.5)">f</text><text xml:space="preserve" font-family="ArialMT,Arial" font-size="34.9" fill="#4E5B3E" transform="matrix(1.00, 0.00, -0.00, -1.00, 910.8, 519.5)">f</text><text xml:space="preserve" font-family="ArialMT,Arial" font-size="34.9" fill="#4E5B3E" transform="matrix(1.00, 0.00, -0.00, -1.00, 920.5, 519.5)">?</text><text xml:space="preserve" font-family="ArialMT,Arial" font-size="34.9" fill="#4E5B3E" transform="matrix(1.00, 0.00, -0.00, -1.00, 940.0, 519.5)">”</text><text xml:space="preserve" font-family="ArialMT,Arial" font-size="34.9" fill="#4E5B3E" transform="matrix(1.00, 0.00, -0.00, -1.00, 951.6, 519.5)"> </text><image xlink:href="EF33AD04B04763008D40F7E954D99D68.png" width="18.00" height="19.00" transform="matrix(1.00, 0.00, -0.00, -1.00, 68.0, 450.0)"></image><image xlink:href="../../99A5FB03-DE1B-4B4A-AE6D-D0C074086E95/assets/2EAA803481B4829669A1AED6584C7A6E.png" width="132.00" height="132.00" transform="matrix(0.10, 0.00, -0.00, -0.10, 69.0, 447.0)"></image><image xlink:href="BB7C98E7C86D2BBE5EC9B85F72BD5D54.png" width="259.00" height="31.00" transform="matrix(1.00, 0.00, -0.00, -1.00, 101.0, 457.0)"></image><text xml:space="preserve" font-family="ArialMT,Arial" font-size="34.9" fill="#4E5B3E" transform="matrix(1.00, 0.00, -0.00, -1.00, 102.0, 429.1)">T</text><text xml:space="preserve" font-family="ArialMT,Arial" font-size="34.9" fill="#4E5B3E" transform="matrix(1.00, 0.00, -0.00, -1.00, 119.4, 429.1)">o</text><text xml:space="preserve" font-family="ArialMT,Arial" font-size="34.9" fill="#4E5B3E" transform="matrix(1.00, 0.00, -0.00, -1.00, 138.9, 429.1)"> </text><text xml:space="preserve" font-family="ArialMT,Arial" font-size="34.9" fill="#4E5B3E" transform="matrix(1.00, 0.00, -0.00, -1.00, 148.6, 429.1)">w</text><text xml:space="preserve" font-family="ArialMT,Arial" font-size="34.9" fill="#4E5B3E" transform="matrix(1.00, 0.00, -0.00, -1.00, 173.8, 429.1)">h</text><text xml:space="preserve" font-family="ArialMT,Arial" font-size="34.9" fill="#4E5B3E" transform="matrix(1.00, 0.00, -0.00, -1.00, 193.2, 429.1)">i</text><text xml:space="preserve" font-family="ArialMT,Arial" font-size="34.9" fill="#4E5B3E" transform="matrix(1.00, 0.00, -0.00, -1.00, 201.0, 429.1)">c</text><text xml:space="preserve" font-family="ArialMT,Arial" font-size="34.9" fill="#4E5B3E" transform="matrix(1.00, 0.00, -0.00, -1.00, 218.4, 429.1)">h</text><text xml:space="preserve" font-family="ArialMT,Arial" font-size="34.9" fill="#4E5B3E" transform="matrix(1.00, 0.00, -0.00, -1.00, 237.9, 429.1)"> </text><text xml:space="preserve" font-family="ArialMT,Arial" font-size="34.9" fill="#4E5B3E" transform="matrix(1.00, 0.00, -0.00, -1.00, 247.6, 429.1)">I</text><text xml:space="preserve" font-family="ArialMT,Arial" font-size="34.9" fill="#4E5B3E" transform="matrix(1.00, 0.00, -0.00, -1.00, 257.3, 429.1)"> </text><text xml:space="preserve" font-family="ArialMT,Arial" font-size="34.9" fill="#4E5B3E" transform="matrix(1.00, 0.00, -0.00, -1.00, 266.9, 429.1)">a</text><text xml:space="preserve" font-family="ArialMT,Arial" font-size="34.9" fill="#4E5B3E" transform="matrix(1.00, 0.00, -0.00, -1.00, 286.4, 429.1)">d</text><text xml:space="preserve" font-family="ArialMT,Arial" font-size="34.9" fill="#4E5B3E" transform="matrix(1.00, 0.00, -0.00, -1.00, 305.8, 429.1)">d</text><text xml:space="preserve" font-family="ArialMT,Arial" font-size="34.9" fill="#4E5B3E" transform="matrix(1.00, 0.00, -0.00, -1.00, 325.2, 429.1)">…</text><text xml:space="preserve" font-family="ArialMT,Arial" font-size="34.9" fill="#4E5B3E" transform="matrix(1.00, 0.00, -0.00, -1.00, 360.2, 429.1)"> </text><image xlink:href="1D88325908B58F943BBC2AC15E627CBE.png" width="16.00" height="17.00" transform="matrix(1.00, 0.00, -0.00, -1.00, 102.0, 391.0)"></image><image xlink:href="../../99A5FB03-DE1B-4B4A-AE6D-D0C074086E95/assets/2EAA803481B4829669A1AED6584C7A6E.png" width="132.00" height="132.00" transform="matrix(0.09, 0.00, -0.00, -0.09, 103.0, 388.1)"></image><image xlink:href="12F70D3377C31E7739A2437938076E67.png" width="490.00" height="32.00" transform="matrix(1.00, 0.00, -0.00, -1.00, 137.0, 397.0)"></image><text xml:space="preserve" font-family="ArialMT,Arial" font-size="29.1" fill="#4E5B3E" transform="matrix(1.00, 0.00, -0.00, -1.00, 136.0, 373.3)">H</text><text xml:space="preserve" font-family="ArialMT,Arial" font-size="29.1" fill="#4E5B3E" transform="matrix(1.00, 0.00, -0.00, -1.00, 157.0, 373.3)">o</text><text xml:space="preserve" font-family="ArialMT,Arial" font-size="29.1" fill="#4E5B3E" transform="matrix(1.00, 0.00, -0.00, -1.00, 173.2, 373.3)">w</text><text xml:space="preserve" font-family="ArialMT,Arial" font-size="29.1" fill="#4E5B3E" transform="matrix(1.00, 0.00, -0.00, -1.00, 194.2, 373.3)"> </text><text xml:space="preserve" font-family="ArialMT,Arial" font-size="29.1" fill="#4E5B3E" transform="matrix(1.00, 0.00, -0.00, -1.00, 202.3, 373.3)">a</text><text xml:space="preserve" font-family="ArialMT,Arial" font-size="29.1" fill="#4E5B3E" transform="matrix(1.00, 0.00, -0.00, -1.00, 218.5, 373.3)">r</text><text xml:space="preserve" font-family="ArialMT,Arial" font-size="29.1" fill="#4E5B3E" transform="matrix(1.00, 0.00, -0.00, -1.00, 228.2, 373.3)">e</text><text xml:space="preserve" font-family="ArialMT,Arial" font-size="29.1" fill="#4E5B3E" transform="matrix(1.00, 0.00, -0.00, -1.00, 244.4, 373.3)"> </text><text xml:space="preserve" font-family="ArialMT,Arial" font-size="29.1" fill="#4E5B3E" transform="matrix(1.00, 0.00, -0.00, -1.00, 252.4, 373.3)">y</text><text xml:space="preserve" font-family="ArialMT,Arial" font-size="29.1" fill="#4E5B3E" transform="matrix(1.00, 0.00, -0.00, -1.00, 267.0, 373.3)">o</text><text xml:space="preserve" font-family="ArialMT,Arial" font-size="29.1" fill="#4E5B3E" transform="matrix(1.00, 0.00, -0.00, -1.00, 283.2, 373.3)">u</text><text xml:space="preserve" font-family="ArialMT,Arial" font-size="29.1" fill="#4E5B3E" transform="matrix(1.00, 0.00, -0.00, -1.00, 299.4, 373.3)"> </text><text xml:space="preserve" font-family="ArialMT,Arial" font-size="29.1" fill="#4E5B3E" transform="matrix(1.00, 0.00, -0.00, -1.00, 307.4, 373.3)">g</text><text xml:space="preserve" font-family="ArialMT,Arial" font-size="29.1" fill="#4E5B3E" transform="matrix(1.00, 0.00, -0.00, -1.00, 323.6, 373.3)">o</text><text xml:space="preserve" font-family="ArialMT,Arial" font-size="29.1" fill="#4E5B3E" transform="matrix(1.00, 0.00, -0.00, -1.00, 339.8, 373.3)">i</text><text xml:space="preserve" font-family="ArialMT,Arial" font-size="29.1" fill="#4E5B3E" transform="matrix(1.00, 0.00, -0.00, -1.00, 346.3, 373.3)">n</text><text xml:space="preserve" font-family="ArialMT,Arial" font-size="29.1" fill="#4E5B3E" transform="matrix(1.00, 0.00, -0.00, -1.00, 362.5, 373.3)">g</text><text xml:space="preserve" font-family="ArialMT,Arial" font-size="29.1" fill="#4E5B3E" transform="matrix(1.00, 0.00, -0.00, -1.00, 378.7, 373.3)"> </text><text xml:space="preserve" font-family="ArialMT,Arial" font-size="29.1" fill="#4E5B3E" transform="matrix(1.00, 0.00, -0.00, -1.00, 386.8, 373.3)">t</text><text xml:space="preserve" font-family="ArialMT,Arial" font-size="29.1" fill="#4E5B3E" transform="matrix(1.00, 0.00, -0.00, -1.00, 394.8, 373.3)">o</text><text xml:space="preserve" font-family="ArialMT,Arial" font-size="29.1" fill="#4E5B3E" transform="matrix(1.00, 0.00, -0.00, -1.00, 411.0, 373.3)"> </text><text xml:space="preserve" font-family="ArialMT,Arial" font-size="29.1" fill="#4E5B3E" transform="matrix(1.00, 0.00, -0.00, -1.00, 419.1, 373.3)">k</text><text xml:space="preserve" font-family="ArialMT,Arial" font-size="29.1" fill="#4E5B3E" transform="matrix(1.00, 0.00, -0.00, -1.00, 433.7, 373.3)">e</text><text xml:space="preserve" font-family="ArialMT,Arial" font-size="29.1" fill="#4E5B3E" transform="matrix(1.00, 0.00, -0.00, -1.00, 449.8, 373.3)">e</text><text xml:space="preserve" font-family="ArialMT,Arial" font-size="29.1" fill="#4E5B3E" transform="matrix(1.00, 0.00, -0.00, -1.00, 466.0, 373.3)">p</text><text xml:space="preserve" font-family="ArialMT,Arial" font-size="29.1" fill="#4E5B3E" transform="matrix(1.00, 0.00, -0.00, -1.00, 482.2, 373.3)"> </text><text xml:space="preserve" font-family="ArialMT,Arial" font-size="29.1" fill="#4E5B3E" transform="matrix(1.00, 0.00, -0.00, -1.00, 490.3, 373.3)">t</text><text xml:space="preserve" font-family="ArialMT,Arial" font-size="29.1" fill="#4E5B3E" transform="matrix(1.00, 0.00, -0.00, -1.00, 498.4, 373.3)">r</text><text xml:space="preserve" font-family="ArialMT,Arial" font-size="29.1" fill="#4E5B3E" transform="matrix(1.00, 0.00, -0.00, -1.00, 508.1, 373.3)">a</text><text xml:space="preserve" font-family="ArialMT,Arial" font-size="29.1" fill="#4E5B3E" transform="matrix(1.00, 0.00, -0.00, -1.00, 524.3, 373.3)">c</text><text xml:space="preserve" font-family="ArialMT,Arial" font-size="29.1" fill="#4E5B3E" transform="matrix(1.00, 0.00, -0.00, -1.00, 538.8, 373.3)">k</text><text xml:space="preserve" font-family="ArialMT,Arial" font-size="29.1" fill="#4E5B3E" transform="matrix(1.00, 0.00, -0.00, -1.00, 553.4, 373.3)"> </text><text xml:space="preserve" font-family="ArialMT,Arial" font-size="29.1" fill="#4E5B3E" transform="matrix(1.00, 0.00, -0.00, -1.00, 561.4, 373.3)">o</text><text xml:space="preserve" font-family="ArialMT,Arial" font-size="29.1" fill="#4E5B3E" transform="matrix(1.00, 0.00, -0.00, -1.00, 577.6, 373.3)">f</text><text xml:space="preserve" font-family="ArialMT,Arial" font-size="29.1" fill="#4E5B3E" transform="matrix(1.00, 0.00, -0.00, -1.00, 585.7, 373.3)"> </text><text xml:space="preserve" font-family="ArialMT,Arial" font-size="29.1" fill="#4E5B3E" transform="matrix(1.00, 0.00, -0.00, -1.00, 593.8, 373.3)">i</text><text xml:space="preserve" font-family="ArialMT,Arial" font-size="29.1" fill="#4E5B3E" transform="matrix(1.00, 0.00, -0.00, -1.00, 600.3, 373.3)">t</text><text xml:space="preserve" font-family="ArialMT,Arial" font-size="29.1" fill="#4E5B3E" transform="matrix(1.00, 0.00, -0.00, -1.00, 608.3, 373.3)">?</text><text xml:space="preserve" font-family="ArialMT,Arial" font-size="29.1" fill="#4E5B3E" transform="matrix(1.00, 0.00, -0.00, -1.00, 624.5, 373.3)"> </text><image xlink:href="CA26179758D5BC5614FC7460B2C5BDA7.png" width="16.00" height="16.00" transform="matrix(1.00, 0.00, -0.00, -1.00, 102.0, 336.0)"></image><image xlink:href="../../99A5FB03-DE1B-4B4A-AE6D-D0C074086E95/assets/2EAA803481B4829669A1AED6584C7A6E.png" width="132.00" height="132.00" transform="matrix(0.09, 0.00, -0.00, -0.09, 103.0, 333.8)"></image><image xlink:href="B910846DCBF14135503C0E05736C7CA7.png" width="214.00" height="33.00" transform="matrix(1.00, 0.00, -0.00, -1.00, 134.0, 343.0)"></image><text xml:space="preserve" font-family="ArialMT,Arial" font-size="29.1" fill="#4E5B3E" transform="matrix(1.00, 0.00, -0.00, -1.00, 136.0, 319.0)">A</text><text xml:space="preserve" font-family="ArialMT,Arial" font-size="29.1" fill="#4E5B3E" transform="matrix(1.00, 0.00, -0.00, -1.00, 155.4, 319.0)">n</text><text xml:space="preserve" font-family="ArialMT,Arial" font-size="29.1" fill="#4E5B3E" transform="matrix(1.00, 0.00, -0.00, -1.00, 171.6, 319.0)">d</text><text xml:space="preserve" font-family="ArialMT,Arial" font-size="29.1" fill="#4E5B3E" transform="matrix(1.00, 0.00, -0.00, -1.00, 187.8, 319.0)"> </text><text xml:space="preserve" font-family="ArialMT,Arial" font-size="29.1" fill="#4E5B3E" transform="matrix(1.00, 0.00, -0.00, -1.00, 195.8, 319.0)">o</text><text xml:space="preserve" font-family="ArialMT,Arial" font-size="29.1" fill="#4E5B3E" transform="matrix(1.00, 0.00, -0.00, -1.00, 212.0, 319.0)">r</text><text xml:space="preserve" font-family="ArialMT,Arial" font-size="29.1" fill="#4E5B3E" transform="matrix(1.00, 0.00, -0.00, -1.00, 221.7, 319.0)">g</text><text xml:space="preserve" font-family="ArialMT,Arial" font-size="29.1" fill="#4E5B3E" transform="matrix(1.00, 0.00, -0.00, -1.00, 237.9, 319.0)">a</text><text xml:space="preserve" font-family="ArialMT,Arial" font-size="29.1" fill="#4E5B3E" transform="matrix(1.00, 0.00, -0.00, -1.00, 254.1, 319.0)">n</text><text xml:space="preserve" font-family="ArialMT,Arial" font-size="29.1" fill="#4E5B3E" transform="matrix(1.00, 0.00, -0.00, -1.00, 270.3, 319.0)">i</text><text xml:space="preserve" font-family="ArialMT,Arial" font-size="29.1" fill="#4E5B3E" transform="matrix(1.00, 0.00, -0.00, -1.00, 276.8, 319.0)">z</text><text xml:space="preserve" font-family="ArialMT,Arial" font-size="29.1" fill="#4E5B3E" transform="matrix(1.00, 0.00, -0.00, -1.00, 291.3, 319.0)">e</text><text xml:space="preserve" font-family="ArialMT,Arial" font-size="29.1" fill="#4E5B3E" transform="matrix(1.00, 0.00, -0.00, -1.00, 307.5, 319.0)"> </text><text xml:space="preserve" font-family="ArialMT,Arial" font-size="29.1" fill="#4E5B3E" transform="matrix(1.00, 0.00, -0.00, -1.00, 315.6, 319.0)">i</text><text xml:space="preserve" font-family="ArialMT,Arial" font-size="29.1" fill="#4E5B3E" transform="matrix(1.00, 0.00, -0.00, -1.00, 322.1, 319.0)">t</text><text xml:space="preserve" font-family="ArialMT,Arial" font-size="29.1" fill="#4E5B3E" transform="matrix(1.00, 0.00, -0.00, -1.00, 330.1, 319.0)">?</text><text xml:space="preserve" font-family="ArialMT,Arial" font-size="29.1" fill="#4E5B3E" transform="matrix(1.00, 0.00, -0.00, -1.00, 346.3, 319.0)"> </text><image xlink:href="B24FC2B6B08648BD7DAA807CD374C368.png" width="16.00" height="16.00" transform="matrix(1.00, 0.00, -0.00, -1.00, 102.0, 282.0)"></image><image xlink:href="../../99A5FB03-DE1B-4B4A-AE6D-D0C074086E95/assets/2EAA803481B4829669A1AED6584C7A6E.png" width="132.00" height="132.00" transform="matrix(0.09, 0.00, -0.00, -0.09, 103.0, 279.4)"></image><image xlink:href="B1A3F2E129452A92DDCC3FCC9BF03F72.png" width="311.00" height="32.00" transform="matrix(1.00, 0.00, -0.00, -1.00, 134.0, 288.0)"></image><text xml:space="preserve" font-family="ArialMT,Arial" font-size="29.1" fill="#4E5B3E" transform="matrix(1.00, 0.00, -0.00, -1.00, 136.0, 264.7)">A</text><text xml:space="preserve" font-family="ArialMT,Arial" font-size="29.1" fill="#4E5B3E" transform="matrix(1.00, 0.00, -0.00, -1.00, 155.4, 264.7)">n</text><text xml:space="preserve" font-family="ArialMT,Arial" font-size="29.1" fill="#4E5B3E" transform="matrix(1.00, 0.00, -0.00, -1.00, 171.6, 264.7)">d</text><text xml:space="preserve" font-family="ArialMT,Arial" font-size="29.1" fill="#4E5B3E" transform="matrix(1.00, 0.00, -0.00, -1.00, 187.8, 264.7)"> </text><text xml:space="preserve" font-family="ArialMT,Arial" font-size="29.1" fill="#4E5B3E" transform="matrix(1.00, 0.00, -0.00, -1.00, 195.8, 264.7)">k</text><text xml:space="preserve" font-family="ArialMT,Arial" font-size="29.1" fill="#4E5B3E" transform="matrix(1.00, 0.00, -0.00, -1.00, 210.4, 264.7)">n</text><text xml:space="preserve" font-family="ArialMT,Arial" font-size="29.1" fill="#4E5B3E" transform="matrix(1.00, 0.00, -0.00, -1.00, 226.6, 264.7)">o</text><text xml:space="preserve" font-family="ArialMT,Arial" font-size="29.1" fill="#4E5B3E" transform="matrix(1.00, 0.00, -0.00, -1.00, 242.8, 264.7)">w</text><text xml:space="preserve" font-family="ArialMT,Arial" font-size="29.1" fill="#4E5B3E" transform="matrix(1.00, 0.00, -0.00, -1.00, 263.8, 264.7)"> </text><text xml:space="preserve" font-family="ArialMT,Arial" font-size="29.1" fill="#4E5B3E" transform="matrix(1.00, 0.00, -0.00, -1.00, 271.9, 264.7)">w</text><text xml:space="preserve" font-family="ArialMT,Arial" font-size="29.1" fill="#4E5B3E" transform="matrix(1.00, 0.00, -0.00, -1.00, 292.9, 264.7)">h</text><text xml:space="preserve" font-family="ArialMT,Arial" font-size="29.1" fill="#4E5B3E" transform="matrix(1.00, 0.00, -0.00, -1.00, 309.1, 264.7)">a</text><text xml:space="preserve" font-family="ArialMT,Arial" font-size="29.1" fill="#4E5B3E" transform="matrix(1.00, 0.00, -0.00, -1.00, 325.3, 264.7)">t</text><text xml:space="preserve" font-family="ArialMT,Arial" font-size="29.1" fill="#4E5B3E" transform="matrix(1.00, 0.00, -0.00, -1.00, 333.4, 264.7)">’</text><text xml:space="preserve" font-family="ArialMT,Arial" font-size="29.1" fill="#4E5B3E" transform="matrix(1.00, 0.00, -0.00, -1.00, 339.3, 264.7)">s</text><text xml:space="preserve" font-family="ArialMT,Arial" font-size="29.1" fill="#4E5B3E" transform="matrix(1.00, 0.00, -0.00, -1.00, 353.9, 264.7)"> </text><text xml:space="preserve" font-family="ArialMT,Arial" font-size="29.1" fill="#4E5B3E" transform="matrix(1.00, 0.00, -0.00, -1.00, 361.9, 264.7)">g</text><text xml:space="preserve" font-family="ArialMT,Arial" font-size="29.1" fill="#4E5B3E" transform="matrix(1.00, 0.00, -0.00, -1.00, 378.1, 264.7)">o</text><text xml:space="preserve" font-family="ArialMT,Arial" font-size="29.1" fill="#4E5B3E" transform="matrix(1.00, 0.00, -0.00, -1.00, 394.3, 264.7)">o</text><text xml:space="preserve" font-family="ArialMT,Arial" font-size="29.1" fill="#4E5B3E" transform="matrix(1.00, 0.00, -0.00, -1.00, 410.5, 264.7)">d</text><text xml:space="preserve" font-family="ArialMT,Arial" font-size="29.1" fill="#4E5B3E" transform="matrix(1.00, 0.00, -0.00, -1.00, 426.7, 264.7)">?</text><text xml:space="preserve" font-family="ArialMT,Arial" font-size="29.1" fill="#4E5B3E" transform="matrix(1.00, 0.00, -0.00, -1.00, 442.9, 264.7)"> </text><image xlink:href="4253ABDA0ED0514704EFBEA7E9C5F903.png" width="16.00" height="17.00" transform="matrix(1.00, 0.00, -0.00, -1.00, 102.0, 228.0)"></image><image xlink:href="../../99A5FB03-DE1B-4B4A-AE6D-D0C074086E95/assets/2EAA803481B4829669A1AED6584C7A6E.png" width="132.00" height="132.00" transform="matrix(0.09, 0.00, -0.00, -0.09, 103.0, 225.1)"></image><image xlink:href="1E33DA3E394482D1D8796A82DACDBEDD.png" width="337.00" height="32.00" transform="matrix(1.00, 0.00, -0.00, -1.00, 134.0, 234.0)"></image><text xml:space="preserve" font-family="ArialMT,Arial" font-size="29.1" fill="#4E5B3E" transform="matrix(1.00, 0.00, -0.00, -1.00, 136.0, 210.3)">A</text><text xml:space="preserve" font-family="ArialMT,Arial" font-size="29.1" fill="#4E5B3E" transform="matrix(1.00, 0.00, -0.00, -1.00, 155.4, 210.3)">n</text><text xml:space="preserve" font-family="ArialMT,Arial" font-size="29.1" fill="#4E5B3E" transform="matrix(1.00, 0.00, -0.00, -1.00, 171.6, 210.3)">d</text><text xml:space="preserve" font-family="ArialMT,Arial" font-size="29.1" fill="#4E5B3E" transform="matrix(1.00, 0.00, -0.00, -1.00, 187.8, 210.3)"> </text><text xml:space="preserve" font-family="ArialMT,Arial" font-size="29.1" fill="#4E5B3E" transform="matrix(1.00, 0.00, -0.00, -1.00, 195.8, 210.3)">a</text><text xml:space="preserve" font-family="ArialMT,Arial" font-size="29.1" fill="#4E5B3E" transform="matrix(1.00, 0.00, -0.00, -1.00, 212.0, 210.3)">l</text><text xml:space="preserve" font-family="ArialMT,Arial" font-size="29.1" fill="#4E5B3E" transform="matrix(1.00, 0.00, -0.00, -1.00, 218.5, 210.3)">i</text><text xml:space="preserve" font-family="ArialMT,Arial" font-size="29.1" fill="#4E5B3E" transform="matrix(1.00, 0.00, -0.00, -1.00, 225.0, 210.3)">g</text><text xml:space="preserve" font-family="ArialMT,Arial" font-size="29.1" fill="#4E5B3E" transform="matrix(1.00, 0.00, -0.00, -1.00, 241.2, 210.3)">n</text><text xml:space="preserve" font-family="ArialMT,Arial" font-size="29.1" fill="#4E5B3E" transform="matrix(1.00, 0.00, -0.00, -1.00, 257.4, 210.3)"> </text><text xml:space="preserve" font-family="ArialMT,Arial" font-size="29.1" fill="#4E5B3E" transform="matrix(1.00, 0.00, -0.00, -1.00, 265.4, 210.3)">w</text><text xml:space="preserve" font-family="ArialMT,Arial" font-size="29.1" fill="#4E5B3E" transform="matrix(1.00, 0.00, -0.00, -1.00, 286.5, 210.3)">i</text><text xml:space="preserve" font-family="ArialMT,Arial" font-size="29.1" fill="#4E5B3E" transform="matrix(1.00, 0.00, -0.00, -1.00, 292.9, 210.3)">t</text><text xml:space="preserve" font-family="ArialMT,Arial" font-size="29.1" fill="#4E5B3E" transform="matrix(1.00, 0.00, -0.00, -1.00, 301.0, 210.3)">h</text><text xml:space="preserve" font-family="ArialMT,Arial" font-size="29.1" fill="#4E5B3E" transform="matrix(1.00, 0.00, -0.00, -1.00, 317.2, 210.3)"> </text><text xml:space="preserve" font-family="ArialMT,Arial" font-size="29.1" fill="#4E5B3E" transform="matrix(1.00, 0.00, -0.00, -1.00, 325.3, 210.3)">s</text><text xml:space="preserve" font-family="ArialMT,Arial" font-size="29.1" fill="#4E5B3E" transform="matrix(1.00, 0.00, -0.00, -1.00, 339.8, 210.3)">t</text><text xml:space="preserve" font-family="ArialMT,Arial" font-size="29.1" fill="#4E5B3E" transform="matrix(1.00, 0.00, -0.00, -1.00, 347.9, 210.3)">a</text><text xml:space="preserve" font-family="ArialMT,Arial" font-size="29.1" fill="#4E5B3E" transform="matrix(1.00, 0.00, -0.00, -1.00, 364.1, 210.3)">n</text><text xml:space="preserve" font-family="ArialMT,Arial" font-size="29.1" fill="#4E5B3E" transform="matrix(1.00, 0.00, -0.00, -1.00, 380.3, 210.3)">d</text><text xml:space="preserve" font-family="ArialMT,Arial" font-size="29.1" fill="#4E5B3E" transform="matrix(1.00, 0.00, -0.00, -1.00, 396.5, 210.3)">a</text><text xml:space="preserve" font-family="ArialMT,Arial" font-size="29.1" fill="#4E5B3E" transform="matrix(1.00, 0.00, -0.00, -1.00, 412.7, 210.3)">r</text><text xml:space="preserve" font-family="ArialMT,Arial" font-size="29.1" fill="#4E5B3E" transform="matrix(1.00, 0.00, -0.00, -1.00, 422.4, 210.3)">d</text><text xml:space="preserve" font-family="ArialMT,Arial" font-size="29.1" fill="#4E5B3E" transform="matrix(1.00, 0.00, -0.00, -1.00, 438.5, 210.3)">s</text><text xml:space="preserve" font-family="ArialMT,Arial" font-size="29.1" fill="#4E5B3E" transform="matrix(1.00, 0.00, -0.00, -1.00, 453.1, 210.3)">?</text><text xml:space="preserve" font-family="ArialMT,Arial" font-size="29.1" fill="#4E5B3E" transform="matrix(1.00, 0.00, -0.00, -1.00, 469.3, 210.3)"> </text><image xlink:href="267068168CE716095E9AC4F72A513EFD.png" width="16.00" height="16.00" transform="matrix(1.00, 0.00, -0.00, -1.00, 102.0, 173.0)"></image><image xlink:href="../../99A5FB03-DE1B-4B4A-AE6D-D0C074086E95/assets/2EAA803481B4829669A1AED6584C7A6E.png" width="132.00" height="132.00" transform="matrix(0.09, 0.00, -0.00, -0.09, 103.0, 170.8)"></image><image xlink:href="38E957B7E652792E4AC1FE12595846EC.png" width="523.00" height="33.00" transform="matrix(1.00, 0.00, -0.00, -1.00, 134.0, 180.0)"></image><text xml:space="preserve" font-family="ArialMT,Arial" font-size="29.1" fill="#4E5B3E" transform="matrix(1.00, 0.00, -0.00, -1.00, 136.0, 156.0)">A</text><text xml:space="preserve" font-family="ArialMT,Arial" font-size="29.1" fill="#4E5B3E" transform="matrix(1.00, 0.00, -0.00, -1.00, 155.4, 156.0)">n</text><text xml:space="preserve" font-family="ArialMT,Arial" font-size="29.1" fill="#4E5B3E" transform="matrix(1.00, 0.00, -0.00, -1.00, 171.6, 156.0)">d</text><text xml:space="preserve" font-family="ArialMT,Arial" font-size="29.1" fill="#4E5B3E" transform="matrix(1.00, 0.00, -0.00, -1.00, 187.8, 156.0)"> </text><text xml:space="preserve" font-family="ArialMT,Arial" font-size="29.1" fill="#4E5B3E" transform="matrix(1.00, 0.00, -0.00, -1.00, 195.8, 156.0)">k</text><text xml:space="preserve" font-family="ArialMT,Arial" font-size="29.1" fill="#4E5B3E" transform="matrix(1.00, 0.00, -0.00, -1.00, 210.4, 156.0)">n</text><text xml:space="preserve" font-family="ArialMT,Arial" font-size="29.1" fill="#4E5B3E" transform="matrix(1.00, 0.00, -0.00, -1.00, 226.6, 156.0)">o</text><text xml:space="preserve" font-family="ArialMT,Arial" font-size="29.1" fill="#4E5B3E" transform="matrix(1.00, 0.00, -0.00, -1.00, 242.8, 156.0)">w</text><text xml:space="preserve" font-family="ArialMT,Arial" font-size="29.1" fill="#4E5B3E" transform="matrix(1.00, 0.00, -0.00, -1.00, 263.8, 156.0)"> </text><text xml:space="preserve" font-family="ArialMT,Arial" font-size="29.1" fill="#4E5B3E" transform="matrix(1.00, 0.00, -0.00, -1.00, 271.9, 156.0)">i</text><text xml:space="preserve" font-family="ArialMT,Arial" font-size="29.1" fill="#4E5B3E" transform="matrix(1.00, 0.00, -0.00, -1.00, 278.3, 156.0)">f</text><text xml:space="preserve" font-family="ArialMT,Arial" font-size="29.1" fill="#4E5B3E" transform="matrix(1.00, 0.00, -0.00, -1.00, 286.4, 156.0)"> </text><text xml:space="preserve" font-family="ArialMT,Arial" font-size="29.1" fill="#4E5B3E" transform="matrix(1.00, 0.00, -0.00, -1.00, 294.5, 156.0)">t</text><text xml:space="preserve" font-family="ArialMT,Arial" font-size="29.1" fill="#4E5B3E" transform="matrix(1.00, 0.00, -0.00, -1.00, 302.6, 156.0)">h</text><text xml:space="preserve" font-family="ArialMT,Arial" font-size="29.1" fill="#4E5B3E" transform="matrix(1.00, 0.00, -0.00, -1.00, 318.8, 156.0)">e</text><text xml:space="preserve" font-family="ArialMT,Arial" font-size="29.1" fill="#4E5B3E" transform="matrix(1.00, 0.00, -0.00, -1.00, 335.0, 156.0)"> </text><text xml:space="preserve" font-family="ArialMT,Arial" font-size="29.1" fill="#4E5B3E" transform="matrix(1.00, 0.00, -0.00, -1.00, 343.0, 156.0)">s</text><text xml:space="preserve" font-family="ArialMT,Arial" font-size="29.1" fill="#4E5B3E" transform="matrix(1.00, 0.00, -0.00, -1.00, 357.6, 156.0)">t</text><text xml:space="preserve" font-family="ArialMT,Arial" font-size="29.1" fill="#4E5B3E" transform="matrix(1.00, 0.00, -0.00, -1.00, 365.7, 156.0)">u</text><text xml:space="preserve" font-family="ArialMT,Arial" font-size="29.1" fill="#4E5B3E" transform="matrix(1.00, 0.00, -0.00, -1.00, 381.9, 156.0)">d</text><text xml:space="preserve" font-family="ArialMT,Arial" font-size="29.1" fill="#4E5B3E" transform="matrix(1.00, 0.00, -0.00, -1.00, 398.1, 156.0)">e</text><text xml:space="preserve" font-family="ArialMT,Arial" font-size="29.1" fill="#4E5B3E" transform="matrix(1.00, 0.00, -0.00, -1.00, 414.2, 156.0)">n</text><text xml:space="preserve" font-family="ArialMT,Arial" font-size="29.1" fill="#4E5B3E" transform="matrix(1.00, 0.00, -0.00, -1.00, 430.4, 156.0)">t</text><text xml:space="preserve" font-family="ArialMT,Arial" font-size="29.1" fill="#4E5B3E" transform="matrix(1.00, 0.00, -0.00, -1.00, 438.5, 156.0)"> </text><text xml:space="preserve" font-family="ArialMT,Arial" font-size="29.1" fill="#4E5B3E" transform="matrix(1.00, 0.00, -0.00, -1.00, 446.6, 156.0)">a</text><text xml:space="preserve" font-family="ArialMT,Arial" font-size="29.1" fill="#4E5B3E" transform="matrix(1.00, 0.00, -0.00, -1.00, 462.8, 156.0)">c</text><text xml:space="preserve" font-family="ArialMT,Arial" font-size="29.1" fill="#4E5B3E" transform="matrix(1.00, 0.00, -0.00, -1.00, 477.3, 156.0)">t</text><text xml:space="preserve" font-family="ArialMT,Arial" font-size="29.1" fill="#4E5B3E" transform="matrix(1.00, 0.00, -0.00, -1.00, 485.4, 156.0)">u</text><text xml:space="preserve" font-family="ArialMT,Arial" font-size="29.1" fill="#4E5B3E" transform="matrix(1.00, 0.00, -0.00, -1.00, 501.6, 156.0)">a</text><text xml:space="preserve" font-family="ArialMT,Arial" font-size="29.1" fill="#4E5B3E" transform="matrix(1.00, 0.00, -0.00, -1.00, 517.8, 156.0)">l</text><text xml:space="preserve" font-family="ArialMT,Arial" font-size="29.1" fill="#4E5B3E" transform="matrix(1.00, 0.00, -0.00, -1.00, 524.3, 156.0)">l</text><text xml:space="preserve" font-family="ArialMT,Arial" font-size="29.1" fill="#4E5B3E" transform="matrix(1.00, 0.00, -0.00, -1.00, 530.7, 156.0)">y</text><text xml:space="preserve" font-family="ArialMT,Arial" font-size="29.1" fill="#4E5B3E" transform="matrix(1.00, 0.00, -0.00, -1.00, 545.3, 156.0)"> </text><text xml:space="preserve" font-family="ArialMT,Arial" font-size="29.1" fill="#4E5B3E" transform="matrix(1.00, 0.00, -0.00, -1.00, 553.4, 156.0)">u</text><text xml:space="preserve" font-family="ArialMT,Arial" font-size="29.1" fill="#4E5B3E" transform="matrix(1.00, 0.00, -0.00, -1.00, 569.6, 156.0)">s</text><text xml:space="preserve" font-family="ArialMT,Arial" font-size="29.1" fill="#4E5B3E" transform="matrix(1.00, 0.00, -0.00, -1.00, 584.1, 156.0)">e</text><text xml:space="preserve" font-family="ArialMT,Arial" font-size="29.1" fill="#4E5B3E" transform="matrix(1.00, 0.00, -0.00, -1.00, 600.3, 156.0)">d</text><text xml:space="preserve" font-family="ArialMT,Arial" font-size="29.1" fill="#4E5B3E" transform="matrix(1.00, 0.00, -0.00, -1.00, 616.5, 156.0)"> </text><text xml:space="preserve" font-family="ArialMT,Arial" font-size="29.1" fill="#4E5B3E" transform="matrix(1.00, 0.00, -0.00, -1.00, 624.6, 156.0)">i</text><text xml:space="preserve" font-family="ArialMT,Arial" font-size="29.1" fill="#4E5B3E" transform="matrix(1.00, 0.00, -0.00, -1.00, 631.0, 156.0)">t</text><text xml:space="preserve" font-family="ArialMT,Arial" font-size="29.1" fill="#4E5B3E" transform="matrix(1.00, 0.00, -0.00, -1.00, 639.1, 156.0)">?</text><text xml:space="preserve" font-family="ArialMT,Arial" font-size="29.1" fill="#4E5B3E" transform="matrix(1.00, 0.00, -0.00, -1.00, 655.3, 156.0)"> </text><image xlink:href="421AFDA98A65F2C62354EDFAA84E295B.png" width="16.00" height="16.00" transform="matrix(1.00, 0.00, -0.00, -1.00, 102.0, 119.0)"></image><image xlink:href="../../99A5FB03-DE1B-4B4A-AE6D-D0C074086E95/assets/2EAA803481B4829669A1AED6584C7A6E.png" width="132.00" height="132.00" transform="matrix(0.09, 0.00, -0.00, -0.09, 103.0, 116.4)"></image><image xlink:href="ACD6DDA0F04399AB7B77F2A24F21834D.png" width="220.00" height="30.00" transform="matrix(1.00, 0.00, -0.00, -1.00, 134.0, 125.0)"></image><text xml:space="preserve" font-family="ArialMT,Arial" font-size="29.1" fill="#4E5B3E" transform="matrix(1.00, 0.00, -0.00, -1.00, 136.0, 101.6)">A</text><text xml:space="preserve" font-family="ArialMT,Arial" font-size="29.1" fill="#4E5B3E" transform="matrix(1.00, 0.00, -0.00, -1.00, 155.4, 101.6)">n</text><text xml:space="preserve" font-family="ArialMT,Arial" font-size="29.1" fill="#4E5B3E" transform="matrix(1.00, 0.00, -0.00, -1.00, 171.6, 101.6)">d</text><text xml:space="preserve" font-family="ArialMT,Arial" font-size="29.1" fill="#4E5B3E" transform="matrix(1.00, 0.00, -0.00, -1.00, 187.8, 101.6)">,</text><text xml:space="preserve" font-family="ArialMT,Arial" font-size="29.1" fill="#4E5B3E" transform="matrix(1.00, 0.00, -0.00, -1.00, 195.8, 101.6)"> </text><text xml:space="preserve" font-family="ArialMT,Arial" font-size="29.1" fill="#4E5B3E" transform="matrix(1.00, 0.00, -0.00, -1.00, 203.9, 101.6)">a</text><text xml:space="preserve" font-family="ArialMT,Arial" font-size="29.1" fill="#4E5B3E" transform="matrix(1.00, 0.00, -0.00, -1.00, 220.1, 101.6)">n</text><text xml:space="preserve" font-family="ArialMT,Arial" font-size="29.1" fill="#4E5B3E" transform="matrix(1.00, 0.00, -0.00, -1.00, 236.3, 101.6)">d</text><text xml:space="preserve" font-family="ArialMT,Arial" font-size="29.1" fill="#4E5B3E" transform="matrix(1.00, 0.00, -0.00, -1.00, 252.5, 101.6)">,</text><text xml:space="preserve" font-family="ArialMT,Arial" font-size="29.1" fill="#4E5B3E" transform="matrix(1.00, 0.00, -0.00, -1.00, 260.6, 101.6)"> </text><text xml:space="preserve" font-family="ArialMT,Arial" font-size="29.1" fill="#4E5B3E" transform="matrix(1.00, 0.00, -0.00, -1.00, 268.7, 101.6)">a</text><text xml:space="preserve" font-family="ArialMT,Arial" font-size="29.1" fill="#4E5B3E" transform="matrix(1.00, 0.00, -0.00, -1.00, 284.8, 101.6)">n</text><text xml:space="preserve" font-family="ArialMT,Arial" font-size="29.1" fill="#4E5B3E" transform="matrix(1.00, 0.00, -0.00, -1.00, 301.0, 101.6)">d</text><text xml:space="preserve" font-family="ArialMT,Arial" font-size="29.1" fill="#4E5B3E" transform="matrix(1.00, 0.00, -0.00, -1.00, 317.2, 101.6)"> </text><text xml:space="preserve" font-family="ArialMT,Arial" font-size="29.1" fill="#4E5B3E" transform="matrix(1.00, 0.00, -0.00, -1.00, 325.3, 101.6)">…</text></g></svg>