<?xml version="1.0" encoding="UTF-8" standalone="no"?><svg xmlns="http://www.w3.org/2000/svg" xmlns:xlink="http://www.w3.org/1999/xlink" clip-rule="evenodd" stroke-miterlimit="10" viewBox="0 0 1024 768"><desc>SVG generated by Keynote</desc><defs></defs><g transform="matrix(1.00, 0.00, -0.00, -1.00, 0.0, 768.0)"><g><clipPath id="clip0x7f8ab8a5da20"><path d="M 0.0 768.0 L 1024.0 768.0 L 1024.0 0.0 L 0.0 0.0 Z M 0.0 768.0 "></path></clipPath><g clip-path="url(#clip0x7f8ab8a5da20)"><image xlink:href="../../99A5FB03-DE1B-4B4A-AE6D-D0C074086E95/assets/C9BB167F6C93FC5BA14E885FDD55B4CB.jpeg" width="2048.00" height="1536.00" transform="matrix(0.50, 0.00, -0.00, -0.50, 0.0, 768.0)"></image></g></g><image xlink:href="../../CD5A25A9-6064-48B2-B8FC-0E911300FB15/assets/9CCFB8EE8FB3CDA953B714C686790DAA.png" width="482.00" height="53.00" transform="matrix(1.00, 0.00, -0.00, -1.00, 274.0, 484.0)"></image><text xml:space="preserve" font-family="ArialMT,Arial" font-size="64.0" fill="#4E5B3E" transform="matrix(1.00, 0.00, -0.00, -1.00, 271.3, 433.7)">M</text><text xml:space="preserve" font-family="ArialMT,Arial" font-size="64.0" fill="#4E5B3E" transform="matrix(1.00, 0.00, -0.00, -1.00, 327.8, 433.7)">Y</text><text xml:space="preserve" font-family="ArialMT,Arial" font-size="64.0" fill="#4E5B3E" transform="matrix(1.00, 0.00, -0.00, -1.00, 372.5, 433.7)"> </text><text xml:space="preserve" font-family="ArialMT,Arial" font-size="64.0" fill="#4E5B3E" transform="matrix(1.00, 0.00, -0.00, -1.00, 393.5, 433.7)">N</text><text xml:space="preserve" font-family="ArialMT,Arial" font-size="64.0" fill="#4E5B3E" transform="matrix(1.00, 0.00, -0.00, -1.00, 442.9, 433.7)">I</text><text xml:space="preserve" font-family="ArialMT,Arial" font-size="64.0" fill="#4E5B3E" transform="matrix(1.00, 0.00, -0.00, -1.00, 463.9, 433.7)">E</text><text xml:space="preserve" font-family="ArialMT,Arial" font-size="64.0" fill="#4E5B3E" transform="matrix(1.00, 0.00, -0.00, -1.00, 509.8, 433.7)">C</text><text xml:space="preserve" font-family="ArialMT,Arial" font-size="64.0" fill="#4E5B3E" transform="matrix(1.00, 0.00, -0.00, -1.00, 559.2, 433.7)">E</text><text xml:space="preserve" font-family="ArialMT,Arial" font-size="64.0" fill="#4E5B3E" transform="matrix(1.00, 0.00, -0.00, -1.00, 605.1, 433.7)"> </text><text xml:space="preserve" font-family="ArialMT,Arial" font-size="64.0" fill="#4E5B3E" transform="matrix(1.00, 0.00, -0.00, -1.00, 626.1, 433.7)">I</text><text xml:space="preserve" font-family="ArialMT,Arial" font-size="64.0" fill="#4E5B3E" transform="matrix(1.00, 0.00, -0.00, -1.00, 647.0, 433.7)">S</text><text xml:space="preserve" font-family="ArialMT,Arial" font-size="64.0" fill="#4E5B3E" transform="matrix(1.00, 0.00, -0.00, -1.00, 692.9, 433.7)"> </text><text xml:space="preserve" font-family="ArialMT,Arial" font-size="64.0" fill="#4E5B3E" transform="matrix(1.00, 0.00, -0.00, -1.00, 710.4, 433.7)">A</text><text xml:space="preserve" font-family="ArialMT,Arial" font-size="64.0" fill="#4E5B3E" transform="matrix(1.00, 0.00, -0.00, -1.00, 752.8, 433.7)"> </text><text xml:space="preserve" font-family="ArialMT,Arial" font-size="64.0" fill="#4E5B3E" transform="matrix(1.00, 0.00, -0.00, -1.00, 773.7, 433.7)"> </text><image xlink:href="../../CD5A25A9-6064-48B2-B8FC-0E911300FB15/assets/81FA8D48F26759F4B138429096FFC21A.png" width="808.00" height="52.00" transform="matrix(1.00, 0.00, -0.00, -1.00, 109.0, 417.0)"></image><text xml:space="preserve" font-family="ArialMT,Arial" font-size="64.0" fill="#4E5B3E" transform="matrix(1.00, 0.00, -0.00, -1.00, 105.8, 366.8)">F</text><text xml:space="preserve" font-family="ArialMT,Arial" font-size="64.0" fill="#4E5B3E" transform="matrix(1.00, 0.00, -0.00, -1.00, 148.1, 366.8)">I</text><text xml:space="preserve" font-family="ArialMT,Arial" font-size="64.0" fill="#4E5B3E" transform="matrix(1.00, 0.00, -0.00, -1.00, 169.1, 366.8)">R</text><text xml:space="preserve" font-family="ArialMT,Arial" font-size="64.0" fill="#4E5B3E" transform="matrix(1.00, 0.00, -0.00, -1.00, 218.5, 366.8)">S</text><text xml:space="preserve" font-family="ArialMT,Arial" font-size="64.0" fill="#4E5B3E" transform="matrix(1.00, 0.00, -0.00, -1.00, 264.4, 366.8)">T</text><text xml:space="preserve" font-family="ArialMT,Arial" font-size="64.0" fill="#4E5B3E" transform="matrix(1.00, 0.00, -0.00, -1.00, 305.5, 366.8)"> </text><text xml:space="preserve" font-family="ArialMT,Arial" font-size="64.0" fill="#4E5B3E" transform="matrix(1.00, 0.00, -0.00, -1.00, 326.5, 366.8)">G</text><text xml:space="preserve" font-family="ArialMT,Arial" font-size="64.0" fill="#4E5B3E" transform="matrix(1.00, 0.00, -0.00, -1.00, 379.4, 366.8)">R</text><text xml:space="preserve" font-family="ArialMT,Arial" font-size="64.0" fill="#4E5B3E" transform="matrix(1.00, 0.00, -0.00, -1.00, 428.8, 366.8)">A</text><text xml:space="preserve" font-family="ArialMT,Arial" font-size="64.0" fill="#4E5B3E" transform="matrix(1.00, 0.00, -0.00, -1.00, 474.7, 366.8)">D</text><text xml:space="preserve" font-family="ArialMT,Arial" font-size="64.0" fill="#4E5B3E" transform="matrix(1.00, 0.00, -0.00, -1.00, 524.1, 366.8)">E</text><text xml:space="preserve" font-family="ArialMT,Arial" font-size="64.0" fill="#4E5B3E" transform="matrix(1.00, 0.00, -0.00, -1.00, 570.0, 366.8)"> </text><text xml:space="preserve" font-family="ArialMT,Arial" font-size="64.0" fill="#4E5B3E" transform="matrix(1.00, 0.00, -0.00, -1.00, 589.8, 366.8)">T</text><text xml:space="preserve" font-family="ArialMT,Arial" font-size="64.0" fill="#4E5B3E" transform="matrix(1.00, 0.00, -0.00, -1.00, 632.1, 366.8)">E</text><text xml:space="preserve" font-family="ArialMT,Arial" font-size="64.0" fill="#4E5B3E" transform="matrix(1.00, 0.00, -0.00, -1.00, 678.0, 366.8)">A</text><text xml:space="preserve" font-family="ArialMT,Arial" font-size="64.0" fill="#4E5B3E" transform="matrix(1.00, 0.00, -0.00, -1.00, 723.8, 366.8)">C</text><text xml:space="preserve" font-family="ArialMT,Arial" font-size="64.0" fill="#4E5B3E" transform="matrix(1.00, 0.00, -0.00, -1.00, 773.2, 366.8)">H</text><text xml:space="preserve" font-family="ArialMT,Arial" font-size="64.0" fill="#4E5B3E" transform="matrix(1.00, 0.00, -0.00, -1.00, 822.7, 366.8)">E</text><text xml:space="preserve" font-family="ArialMT,Arial" font-size="64.0" fill="#4E5B3E" transform="matrix(1.00, 0.00, -0.00, -1.00, 868.5, 366.8)">R</text><image xlink:href="../../CD5A25A9-6064-48B2-B8FC-0E911300FB15/assets/70EB18BE13B6EB6CF3C2FA0362B2B508.png" width="596.00" height="35.00" transform="matrix(1.00, 0.00, -0.00, -1.00, 216.0, 343.0)"></image><text xml:space="preserve" font-family="Arial-ItalicMT,Arial" font-style="italic" font-size="32.0" fill="#4E5B3E" transform="matrix(1.00, 0.00, -0.00, -1.00, 215.0, 316.8)">(</text><text xml:space="preserve" font-family="Arial-ItalicMT,Arial" font-style="italic" font-size="32.0" fill="#4E5B3E" transform="matrix(1.00, 0.00, -0.00, -1.00, 225.6, 316.8)">I</text><text xml:space="preserve" font-family="Arial-ItalicMT,Arial" font-style="italic" font-size="32.0" fill="#4E5B3E" transform="matrix(1.00, 0.00, -0.00, -1.00, 234.5, 316.8)">t</text><text xml:space="preserve" font-family="Arial-ItalicMT,Arial" font-style="italic" font-size="32.0" fill="#4E5B3E" transform="matrix(1.00, 0.00, -0.00, -1.00, 243.4, 316.8)"> </text><text xml:space="preserve" font-family="Arial-ItalicMT,Arial" font-style="italic" font-size="32.0" fill="#4E5B3E" transform="matrix(1.00, 0.00, -0.00, -1.00, 252.3, 316.8)">i</text><text xml:space="preserve" font-family="Arial-ItalicMT,Arial" font-style="italic" font-size="32.0" fill="#4E5B3E" transform="matrix(1.00, 0.00, -0.00, -1.00, 259.4, 316.8)">s</text><text xml:space="preserve" font-family="Arial-ItalicMT,Arial" font-style="italic" font-size="32.0" fill="#4E5B3E" transform="matrix(1.00, 0.00, -0.00, -1.00, 275.4, 316.8)"> </text><text xml:space="preserve" font-family="Arial-ItalicMT,Arial" font-style="italic" font-size="32.0" fill="#4E5B3E" transform="matrix(1.00, 0.00, -0.00, -1.00, 284.3, 316.8)">t</text><text xml:space="preserve" font-family="Arial-ItalicMT,Arial" font-style="italic" font-size="32.0" fill="#4E5B3E" transform="matrix(1.00, 0.00, -0.00, -1.00, 293.2, 316.8)">r</text><text xml:space="preserve" font-family="Arial-ItalicMT,Arial" font-style="italic" font-size="32.0" fill="#4E5B3E" transform="matrix(1.00, 0.00, -0.00, -1.00, 303.8, 316.8)">e</text><text xml:space="preserve" font-family="Arial-ItalicMT,Arial" font-style="italic" font-size="32.0" fill="#4E5B3E" transform="matrix(1.00, 0.00, -0.00, -1.00, 321.6, 316.8)">m</text><text xml:space="preserve" font-family="Arial-ItalicMT,Arial" font-style="italic" font-size="32.0" fill="#4E5B3E" transform="matrix(1.00, 0.00, -0.00, -1.00, 348.3, 316.8)">e</text><text xml:space="preserve" font-family="Arial-ItalicMT,Arial" font-style="italic" font-size="32.0" fill="#4E5B3E" transform="matrix(1.00, 0.00, -0.00, -1.00, 366.1, 316.8)">n</text><text xml:space="preserve" font-family="Arial-ItalicMT,Arial" font-style="italic" font-size="32.0" fill="#4E5B3E" transform="matrix(1.00, 0.00, -0.00, -1.00, 383.9, 316.8)">d</text><text xml:space="preserve" font-family="Arial-ItalicMT,Arial" font-style="italic" font-size="32.0" fill="#4E5B3E" transform="matrix(1.00, 0.00, -0.00, -1.00, 401.7, 316.8)">o</text><text xml:space="preserve" font-family="Arial-ItalicMT,Arial" font-style="italic" font-size="32.0" fill="#4E5B3E" transform="matrix(1.00, 0.00, -0.00, -1.00, 419.5, 316.8)">u</text><text xml:space="preserve" font-family="Arial-ItalicMT,Arial" font-style="italic" font-size="32.0" fill="#4E5B3E" transform="matrix(1.00, 0.00, -0.00, -1.00, 437.3, 316.8)">s</text><text xml:space="preserve" font-family="Arial-ItalicMT,Arial" font-style="italic" font-size="32.0" fill="#4E5B3E" transform="matrix(1.00, 0.00, -0.00, -1.00, 453.3, 316.8)"> </text><text xml:space="preserve" font-family="Arial-ItalicMT,Arial" font-style="italic" font-size="32.0" fill="#4E5B3E" transform="matrix(1.00, 0.00, -0.00, -1.00, 462.2, 316.8)">f</text><text xml:space="preserve" font-family="Arial-ItalicMT,Arial" font-style="italic" font-size="32.0" fill="#4E5B3E" transform="matrix(1.00, 0.00, -0.00, -1.00, 471.1, 316.8)">u</text><text xml:space="preserve" font-family="Arial-ItalicMT,Arial" font-style="italic" font-size="32.0" fill="#4E5B3E" transform="matrix(1.00, 0.00, -0.00, -1.00, 488.9, 316.8)">n</text><text xml:space="preserve" font-family="Arial-ItalicMT,Arial" font-style="italic" font-size="32.0" fill="#4E5B3E" transform="matrix(1.00, 0.00, -0.00, -1.00, 506.7, 316.8)"> </text><text xml:space="preserve" font-family="Arial-ItalicMT,Arial" font-style="italic" font-size="32.0" fill="#4E5B3E" transform="matrix(1.00, 0.00, -0.00, -1.00, 515.6, 316.8)">i</text><text xml:space="preserve" font-family="Arial-ItalicMT,Arial" font-style="italic" font-size="32.0" fill="#4E5B3E" transform="matrix(1.00, 0.00, -0.00, -1.00, 522.7, 316.8)">t</text><text xml:space="preserve" font-family="Arial-ItalicMT,Arial" font-style="italic" font-size="32.0" fill="#4E5B3E" transform="matrix(1.00, 0.00, -0.00, -1.00, 531.6, 316.8)"> </text><text xml:space="preserve" font-family="Arial-ItalicMT,Arial" font-style="italic" font-size="32.0" fill="#4E5B3E" transform="matrix(1.00, 0.00, -0.00, -1.00, 540.5, 316.8)">i</text><text xml:space="preserve" font-family="Arial-ItalicMT,Arial" font-style="italic" font-size="32.0" fill="#4E5B3E" transform="matrix(1.00, 0.00, -0.00, -1.00, 547.6, 316.8)">s</text><text xml:space="preserve" font-family="Arial-ItalicMT,Arial" font-style="italic" font-size="32.0" fill="#4E5B3E" transform="matrix(1.00, 0.00, -0.00, -1.00, 563.6, 316.8)"> </text><text xml:space="preserve" font-family="Arial-ItalicMT,Arial" font-style="italic" font-size="32.0" fill="#4E5B3E" transform="matrix(1.00, 0.00, -0.00, -1.00, 572.5, 316.8)">t</text><text xml:space="preserve" font-family="Arial-ItalicMT,Arial" font-style="italic" font-size="32.0" fill="#4E5B3E" transform="matrix(1.00, 0.00, -0.00, -1.00, 581.3, 316.8)">o</text><text xml:space="preserve" font-family="Arial-ItalicMT,Arial" font-style="italic" font-size="32.0" fill="#4E5B3E" transform="matrix(1.00, 0.00, -0.00, -1.00, 599.1, 316.8)"> </text><text xml:space="preserve" font-family="Arial-ItalicMT,Arial" font-style="italic" font-size="32.0" fill="#4E5B3E" transform="matrix(1.00, 0.00, -0.00, -1.00, 608.0, 316.8)">h</text><text xml:space="preserve" font-family="Arial-ItalicMT,Arial" font-style="italic" font-size="32.0" fill="#4E5B3E" transform="matrix(1.00, 0.00, -0.00, -1.00, 625.8, 316.8)">a</text><text xml:space="preserve" font-family="Arial-ItalicMT,Arial" font-style="italic" font-size="32.0" fill="#4E5B3E" transform="matrix(1.00, 0.00, -0.00, -1.00, 643.6, 316.8)">v</text><text xml:space="preserve" font-family="Arial-ItalicMT,Arial" font-style="italic" font-size="32.0" fill="#4E5B3E" transform="matrix(1.00, 0.00, -0.00, -1.00, 659.6, 316.8)">e</text><text xml:space="preserve" font-family="Arial-ItalicMT,Arial" font-style="italic" font-size="32.0" fill="#4E5B3E" transform="matrix(1.00, 0.00, -0.00, -1.00, 677.4, 316.8)"> </text><text xml:space="preserve" font-family="Arial-ItalicMT,Arial" font-style="italic" font-size="32.0" fill="#4E5B3E" transform="matrix(1.00, 0.00, -0.00, -1.00, 686.3, 316.8)">c</text><text xml:space="preserve" font-family="Arial-ItalicMT,Arial" font-style="italic" font-size="32.0" fill="#4E5B3E" transform="matrix(1.00, 0.00, -0.00, -1.00, 702.3, 316.8)">o</text><text xml:space="preserve" font-family="Arial-ItalicMT,Arial" font-style="italic" font-size="32.0" fill="#4E5B3E" transform="matrix(1.00, 0.00, -0.00, -1.00, 720.1, 316.8)">m</text><text xml:space="preserve" font-family="Arial-ItalicMT,Arial" font-style="italic" font-size="32.0" fill="#4E5B3E" transform="matrix(1.00, 0.00, -0.00, -1.00, 746.8, 316.8)">m</text><text xml:space="preserve" font-family="Arial-ItalicMT,Arial" font-style="italic" font-size="32.0" fill="#4E5B3E" transform="matrix(1.00, 0.00, -0.00, -1.00, 773.4, 316.8)">o</text><text xml:space="preserve" font-family="Arial-ItalicMT,Arial" font-style="italic" font-size="32.0" fill="#4E5B3E" transform="matrix(1.00, 0.00, -0.00, -1.00, 791.2, 316.8)">n</text><text xml:space="preserve" font-family="Arial-ItalicMT,Arial" font-style="italic" font-size="32.0" fill="#4E5B3E" transform="matrix(1.00, 0.00, -0.00, -1.00, 809.0, 316.8)"> </text><image xlink:href="../../CD5A25A9-6064-48B2-B8FC-0E911300FB15/assets/03A8E880E97E10687A7A269116CA23D7.png" width="546.00" height="35.00" transform="matrix(1.00, 0.00, -0.00, -1.00, 239.0, 298.0)"></image><text xml:space="preserve" font-family="Arial-ItalicMT,Arial" font-style="italic" font-size="32.0" fill="#4E5B3E" transform="matrix(1.00, 0.00, -0.00, -1.00, 241.0, 272.6)">p</text><text xml:space="preserve" font-family="Arial-ItalicMT,Arial" font-style="italic" font-size="32.0" fill="#4E5B3E" transform="matrix(1.00, 0.00, -0.00, -1.00, 258.8, 272.6)">r</text><text xml:space="preserve" font-family="Arial-ItalicMT,Arial" font-style="italic" font-size="32.0" fill="#4E5B3E" transform="matrix(1.00, 0.00, -0.00, -1.00, 269.5, 272.6)">o</text><text xml:space="preserve" font-family="Arial-ItalicMT,Arial" font-style="italic" font-size="32.0" fill="#4E5B3E" transform="matrix(1.00, 0.00, -0.00, -1.00, 287.3, 272.6)">f</text><text xml:space="preserve" font-family="Arial-ItalicMT,Arial" font-style="italic" font-size="32.0" fill="#4E5B3E" transform="matrix(1.00, 0.00, -0.00, -1.00, 296.2, 272.6)">e</text><text xml:space="preserve" font-family="Arial-ItalicMT,Arial" font-style="italic" font-size="32.0" fill="#4E5B3E" transform="matrix(1.00, 0.00, -0.00, -1.00, 314.0, 272.6)">s</text><text xml:space="preserve" font-family="Arial-ItalicMT,Arial" font-style="italic" font-size="32.0" fill="#4E5B3E" transform="matrix(1.00, 0.00, -0.00, -1.00, 330.0, 272.6)">s</text><text xml:space="preserve" font-family="Arial-ItalicMT,Arial" font-style="italic" font-size="32.0" fill="#4E5B3E" transform="matrix(1.00, 0.00, -0.00, -1.00, 346.0, 272.6)">i</text><text xml:space="preserve" font-family="Arial-ItalicMT,Arial" font-style="italic" font-size="32.0" fill="#4E5B3E" transform="matrix(1.00, 0.00, -0.00, -1.00, 353.1, 272.6)">o</text><text xml:space="preserve" font-family="Arial-ItalicMT,Arial" font-style="italic" font-size="32.0" fill="#4E5B3E" transform="matrix(1.00, 0.00, -0.00, -1.00, 370.9, 272.6)">n</text><text xml:space="preserve" font-family="Arial-ItalicMT,Arial" font-style="italic" font-size="32.0" fill="#4E5B3E" transform="matrix(1.00, 0.00, -0.00, -1.00, 388.7, 272.6)">a</text><text xml:space="preserve" font-family="Arial-ItalicMT,Arial" font-style="italic" font-size="32.0" fill="#4E5B3E" transform="matrix(1.00, 0.00, -0.00, -1.00, 406.5, 272.6)">l</text><text xml:space="preserve" font-family="Arial-ItalicMT,Arial" font-style="italic" font-size="32.0" fill="#4E5B3E" transform="matrix(1.00, 0.00, -0.00, -1.00, 413.6, 272.6)"> </text><text xml:space="preserve" font-family="Arial-ItalicMT,Arial" font-style="italic" font-size="32.0" fill="#4E5B3E" transform="matrix(1.00, 0.00, -0.00, -1.00, 422.5, 272.6)">i</text><text xml:space="preserve" font-family="Arial-ItalicMT,Arial" font-style="italic" font-size="32.0" fill="#4E5B3E" transform="matrix(1.00, 0.00, -0.00, -1.00, 429.6, 272.6)">n</text><text xml:space="preserve" font-family="Arial-ItalicMT,Arial" font-style="italic" font-size="32.0" fill="#4E5B3E" transform="matrix(1.00, 0.00, -0.00, -1.00, 447.4, 272.6)">t</text><text xml:space="preserve" font-family="Arial-ItalicMT,Arial" font-style="italic" font-size="32.0" fill="#4E5B3E" transform="matrix(1.00, 0.00, -0.00, -1.00, 456.3, 272.6)">e</text><text xml:space="preserve" font-family="Arial-ItalicMT,Arial" font-style="italic" font-size="32.0" fill="#4E5B3E" transform="matrix(1.00, 0.00, -0.00, -1.00, 474.1, 272.6)">r</text><text xml:space="preserve" font-family="Arial-ItalicMT,Arial" font-style="italic" font-size="32.0" fill="#4E5B3E" transform="matrix(1.00, 0.00, -0.00, -1.00, 484.8, 272.6)">e</text><text xml:space="preserve" font-family="Arial-ItalicMT,Arial" font-style="italic" font-size="32.0" fill="#4E5B3E" transform="matrix(1.00, 0.00, -0.00, -1.00, 502.6, 272.6)">s</text><text xml:space="preserve" font-family="Arial-ItalicMT,Arial" font-style="italic" font-size="32.0" fill="#4E5B3E" transform="matrix(1.00, 0.00, -0.00, -1.00, 518.6, 272.6)">t</text><text xml:space="preserve" font-family="Arial-ItalicMT,Arial" font-style="italic" font-size="32.0" fill="#4E5B3E" transform="matrix(1.00, 0.00, -0.00, -1.00, 527.5, 272.6)"> </text><text xml:space="preserve" font-family="Arial-ItalicMT,Arial" font-style="italic" font-size="32.0" fill="#4E5B3E" transform="matrix(1.00, 0.00, -0.00, -1.00, 536.3, 272.6)">w</text><text xml:space="preserve" font-family="Arial-ItalicMT,Arial" font-style="italic" font-size="32.0" fill="#4E5B3E" transform="matrix(1.00, 0.00, -0.00, -1.00, 559.5, 272.6)">i</text><text xml:space="preserve" font-family="Arial-ItalicMT,Arial" font-style="italic" font-size="32.0" fill="#4E5B3E" transform="matrix(1.00, 0.00, -0.00, -1.00, 566.6, 272.6)">t</text><text xml:space="preserve" font-family="Arial-ItalicMT,Arial" font-style="italic" font-size="32.0" fill="#4E5B3E" transform="matrix(1.00, 0.00, -0.00, -1.00, 575.5, 272.6)">h</text><text xml:space="preserve" font-family="Arial-ItalicMT,Arial" font-style="italic" font-size="32.0" fill="#4E5B3E" transform="matrix(1.00, 0.00, -0.00, -1.00, 593.3, 272.6)"> </text><text xml:space="preserve" font-family="Arial-ItalicMT,Arial" font-style="italic" font-size="32.0" fill="#4E5B3E" transform="matrix(1.00, 0.00, -0.00, -1.00, 602.2, 272.6)">o</text><text xml:space="preserve" font-family="Arial-ItalicMT,Arial" font-style="italic" font-size="32.0" fill="#4E5B3E" transform="matrix(1.00, 0.00, -0.00, -1.00, 620.0, 272.6)">n</text><text xml:space="preserve" font-family="Arial-ItalicMT,Arial" font-style="italic" font-size="32.0" fill="#4E5B3E" transform="matrix(1.00, 0.00, -0.00, -1.00, 637.8, 272.6)">e</text><text xml:space="preserve" font-family="Arial-ItalicMT,Arial" font-style="italic" font-size="32.0" fill="#4E5B3E" transform="matrix(1.00, 0.00, -0.00, -1.00, 655.6, 272.6)">’</text><text xml:space="preserve" font-family="Arial-ItalicMT,Arial" font-style="italic" font-size="32.0" fill="#4E5B3E" transform="matrix(1.00, 0.00, -0.00, -1.00, 662.1, 272.6)">s</text><text xml:space="preserve" font-family="Arial-ItalicMT,Arial" font-style="italic" font-size="32.0" fill="#4E5B3E" transform="matrix(1.00, 0.00, -0.00, -1.00, 678.1, 272.6)"> </text><text xml:space="preserve" font-family="Arial-ItalicMT,Arial" font-style="italic" font-size="32.0" fill="#4E5B3E" transform="matrix(1.00, 0.00, -0.00, -1.00, 687.0, 272.6)">n</text><text xml:space="preserve" font-family="Arial-ItalicMT,Arial" font-style="italic" font-size="32.0" fill="#4E5B3E" transform="matrix(1.00, 0.00, -0.00, -1.00, 704.8, 272.6)">i</text><text xml:space="preserve" font-family="Arial-ItalicMT,Arial" font-style="italic" font-size="32.0" fill="#4E5B3E" transform="matrix(1.00, 0.00, -0.00, -1.00, 711.9, 272.6)">e</text><text xml:space="preserve" font-family="Arial-ItalicMT,Arial" font-style="italic" font-size="32.0" fill="#4E5B3E" transform="matrix(1.00, 0.00, -0.00, -1.00, 729.7, 272.6)">c</text><text xml:space="preserve" font-family="Arial-ItalicMT,Arial" font-style="italic" font-size="32.0" fill="#4E5B3E" transform="matrix(1.00, 0.00, -0.00, -1.00, 745.7, 272.6)">e</text><text xml:space="preserve" font-family="Arial-ItalicMT,Arial" font-style="italic" font-size="32.0" fill="#4E5B3E" transform="matrix(1.00, 0.00, -0.00, -1.00, 763.5, 272.6)">.</text><text xml:space="preserve" font-family="Arial-ItalicMT,Arial" font-style="italic" font-size="32.0" fill="#4E5B3E" transform="matrix(1.00, 0.00, -0.00, -1.00, 772.4, 272.6)">)</text></g></svg>