<?xml version="1.0" encoding="UTF-8" standalone="no"?><svg xmlns="http://www.w3.org/2000/svg" xmlns:xlink="http://www.w3.org/1999/xlink" clip-rule="evenodd" stroke-miterlimit="10" viewBox="0 0 432 228"><desc>SVG generated by Keynote</desc><defs></defs><g transform="matrix(1.00, 0.00, -0.00, -1.00, 0.0, 228.0)"><image xlink:href="89FF5480EF326F4C8472BE16010A5C86.png" width="311.00" height="31.00" transform="matrix(1.00, 0.00, -0.00, -1.00, 3.0, 227.0)"></image><text xml:space="preserve" font-family="ArialMT,Arial" font-size="28.0" fill="#4E5B3E" transform="matrix(1.00, 0.00, -0.00, -1.00, 3.9, 204.4)">W</text><text xml:space="preserve" font-family="ArialMT,Arial" font-size="28.0" fill="#4E5B3E" transform="matrix(1.00, 0.00, -0.00, -1.00, 29.8, 204.4)">o</text><text xml:space="preserve" font-family="ArialMT,Arial" font-size="28.0" fill="#4E5B3E" transform="matrix(1.00, 0.00, -0.00, -1.00, 45.4, 204.4)">u</text><text xml:space="preserve" font-family="ArialMT,Arial" font-size="28.0" fill="#4E5B3E" transform="matrix(1.00, 0.00, -0.00, -1.00, 61.0, 204.4)">l</text><text xml:space="preserve" font-family="ArialMT,Arial" font-size="28.0" fill="#4E5B3E" transform="matrix(1.00, 0.00, -0.00, -1.00, 67.2, 204.4)">d</text><text xml:space="preserve" font-family="ArialMT,Arial" font-size="28.0" fill="#4E5B3E" transform="matrix(1.00, 0.00, -0.00, -1.00, 82.8, 204.4)"> </text><text xml:space="preserve" font-family="ArialMT,Arial" font-size="28.0" fill="#4E5B3E" transform="matrix(1.00, 0.00, -0.00, -1.00, 90.5, 204.4)">y</text><text xml:space="preserve" font-family="ArialMT,Arial" font-size="28.0" fill="#4E5B3E" transform="matrix(1.00, 0.00, -0.00, -1.00, 104.5, 204.4)">o</text><text xml:space="preserve" font-family="ArialMT,Arial" font-size="28.0" fill="#4E5B3E" transform="matrix(1.00, 0.00, -0.00, -1.00, 120.1, 204.4)">u</text><text xml:space="preserve" font-family="ArialMT,Arial" font-size="28.0" fill="#4E5B3E" transform="matrix(1.00, 0.00, -0.00, -1.00, 135.7, 204.4)"> </text><text xml:space="preserve" font-family="ArialMT,Arial" font-size="28.0" fill="#4E5B3E" transform="matrix(1.00, 0.00, -0.00, -1.00, 143.5, 204.4)">l</text><text xml:space="preserve" font-family="ArialMT,Arial" font-size="28.0" fill="#4E5B3E" transform="matrix(1.00, 0.00, -0.00, -1.00, 149.7, 204.4)">i</text><text xml:space="preserve" font-family="ArialMT,Arial" font-size="28.0" fill="#4E5B3E" transform="matrix(1.00, 0.00, -0.00, -1.00, 155.9, 204.4)">k</text><text xml:space="preserve" font-family="ArialMT,Arial" font-size="28.0" fill="#4E5B3E" transform="matrix(1.00, 0.00, -0.00, -1.00, 169.9, 204.4)">e</text><text xml:space="preserve" font-family="ArialMT,Arial" font-size="28.0" fill="#4E5B3E" transform="matrix(1.00, 0.00, -0.00, -1.00, 185.5, 204.4)"> </text><text xml:space="preserve" font-family="ArialMT,Arial" font-size="28.0" fill="#4E5B3E" transform="matrix(1.00, 0.00, -0.00, -1.00, 193.3, 204.4)">t</text><text xml:space="preserve" font-family="ArialMT,Arial" font-size="28.0" fill="#4E5B3E" transform="matrix(1.00, 0.00, -0.00, -1.00, 201.0, 204.4)">o</text><text xml:space="preserve" font-family="ArialMT,Arial" font-size="28.0" fill="#4E5B3E" transform="matrix(1.00, 0.00, -0.00, -1.00, 216.6, 204.4)"> </text><text xml:space="preserve" font-family="ArialMT,Arial" font-size="28.0" fill="#4E5B3E" transform="matrix(1.00, 0.00, -0.00, -1.00, 224.4, 204.4)">a</text><text xml:space="preserve" font-family="ArialMT,Arial" font-size="28.0" fill="#4E5B3E" transform="matrix(1.00, 0.00, -0.00, -1.00, 240.0, 204.4)">s</text><text xml:space="preserve" font-family="ArialMT,Arial" font-size="28.0" fill="#4E5B3E" transform="matrix(1.00, 0.00, -0.00, -1.00, 254.0, 204.4)">s</text><text xml:space="preserve" font-family="ArialMT,Arial" font-size="28.0" fill="#4E5B3E" transform="matrix(1.00, 0.00, -0.00, -1.00, 268.0, 204.4)">i</text><text xml:space="preserve" font-family="ArialMT,Arial" font-size="28.0" fill="#4E5B3E" transform="matrix(1.00, 0.00, -0.00, -1.00, 274.2, 204.4)">g</text><text xml:space="preserve" font-family="ArialMT,Arial" font-size="28.0" fill="#4E5B3E" transform="matrix(1.00, 0.00, -0.00, -1.00, 289.8, 204.4)">n</text><text xml:space="preserve" font-family="ArialMT,Arial" font-size="28.0" fill="#4E5B3E" transform="matrix(1.00, 0.00, -0.00, -1.00, 305.4, 204.4)">:</text><text xml:space="preserve" font-family="ArialMT,Arial" font-size="28.0" fill="#4E5B3E" transform="matrix(1.00, 0.00, -0.00, -1.00, 313.1, 204.4)"> </text><image xlink:href="F4C4E4C9903E7679BEAA8EE107ED3360.png" width="14.00" height="14.00" transform="matrix(1.00, 0.00, -0.00, -1.00, 62.0, 184.0)"></image><image xlink:href="../../99A5FB03-DE1B-4B4A-AE6D-D0C074086E95/assets/2EAA803481B4829669A1AED6584C7A6E.png" width="132.00" height="132.00" transform="matrix(0.07, 0.00, -0.00, -0.07, 63.9, 181.5)"></image><image xlink:href="8AA871ED8FAE8D95064176DFC7B62274.png" width="188.00" height="26.00" transform="matrix(1.00, 0.00, -0.00, -1.00, 96.0, 189.0)"></image><text xml:space="preserve" font-family="ArialMT,Arial" font-size="23.0" fill="#4E5B3E" transform="matrix(1.00, 0.00, -0.00, -1.00, 89.6, 170.0)"> </text><text xml:space="preserve" font-family="ArialMT,Arial" font-size="23.0" fill="#4E5B3E" transform="matrix(1.00, 0.00, -0.00, -1.00, 95.9, 170.0)">l</text><text xml:space="preserve" font-family="ArialMT,Arial" font-size="23.0" fill="#4E5B3E" transform="matrix(1.00, 0.00, -0.00, -1.00, 101.0, 170.0)">e</text><text xml:space="preserve" font-family="ArialMT,Arial" font-size="23.0" fill="#4E5B3E" transform="matrix(1.00, 0.00, -0.00, -1.00, 113.8, 170.0)">a</text><text xml:space="preserve" font-family="ArialMT,Arial" font-size="23.0" fill="#4E5B3E" transform="matrix(1.00, 0.00, -0.00, -1.00, 126.6, 170.0)">r</text><text xml:space="preserve" font-family="ArialMT,Arial" font-size="23.0" fill="#4E5B3E" transform="matrix(1.00, 0.00, -0.00, -1.00, 134.3, 170.0)">n</text><text xml:space="preserve" font-family="ArialMT,Arial" font-size="23.0" fill="#4E5B3E" transform="matrix(1.00, 0.00, -0.00, -1.00, 147.0, 170.0)">i</text><text xml:space="preserve" font-family="ArialMT,Arial" font-size="23.0" fill="#4E5B3E" transform="matrix(1.00, 0.00, -0.00, -1.00, 152.2, 170.0)">n</text><text xml:space="preserve" font-family="ArialMT,Arial" font-size="23.0" fill="#4E5B3E" transform="matrix(1.00, 0.00, -0.00, -1.00, 165.0, 170.0)">g</text><text xml:space="preserve" font-family="ArialMT,Arial" font-size="23.0" fill="#4E5B3E" transform="matrix(1.00, 0.00, -0.00, -1.00, 177.8, 170.0)"> </text><text xml:space="preserve" font-family="ArialMT,Arial" font-size="23.0" fill="#4E5B3E" transform="matrix(1.00, 0.00, -0.00, -1.00, 184.1, 170.0)">m</text><text xml:space="preserve" font-family="ArialMT,Arial" font-size="23.0" fill="#4E5B3E" transform="matrix(1.00, 0.00, -0.00, -1.00, 203.3, 170.0)">o</text><text xml:space="preserve" font-family="ArialMT,Arial" font-size="23.0" fill="#4E5B3E" transform="matrix(1.00, 0.00, -0.00, -1.00, 216.1, 170.0)">d</text><text xml:space="preserve" font-family="ArialMT,Arial" font-size="23.0" fill="#4E5B3E" transform="matrix(1.00, 0.00, -0.00, -1.00, 228.9, 170.0)">u</text><text xml:space="preserve" font-family="ArialMT,Arial" font-size="23.0" fill="#4E5B3E" transform="matrix(1.00, 0.00, -0.00, -1.00, 241.7, 170.0)">l</text><text xml:space="preserve" font-family="ArialMT,Arial" font-size="23.0" fill="#4E5B3E" transform="matrix(1.00, 0.00, -0.00, -1.00, 246.8, 170.0)">e</text><text xml:space="preserve" font-family="ArialMT,Arial" font-size="23.0" fill="#4E5B3E" transform="matrix(1.00, 0.00, -0.00, -1.00, 259.6, 170.0)"> </text><text xml:space="preserve" font-family="ArialMT,Arial" font-size="23.0" fill="#4E5B3E" transform="matrix(1.00, 0.00, -0.00, -1.00, 264.7, 170.0)">A</text><text xml:space="preserve" font-family="ArialMT,Arial" font-size="23.0" fill="#4E5B3E" transform="matrix(1.00, 0.00, -0.00, -1.00, 278.8, 170.0)"> </text><image xlink:href="4E6ED980366713657FD8F772DFB2723E.png" width="14.00" height="14.00" transform="matrix(1.00, 0.00, -0.00, -1.00, 62.0, 152.0)"></image><image xlink:href="../../99A5FB03-DE1B-4B4A-AE6D-D0C074086E95/assets/2EAA803481B4829669A1AED6584C7A6E.png" width="132.00" height="132.00" transform="matrix(0.07, 0.00, -0.00, -0.07, 63.9, 149.2)"></image><image xlink:href="68D92C80813102B3682B43E15E738D3B.png" width="188.00" height="27.00" transform="matrix(1.00, 0.00, -0.00, -1.00, 96.0, 157.0)"></image><text xml:space="preserve" font-family="ArialMT,Arial" font-size="23.0" fill="#4E5B3E" transform="matrix(1.00, 0.00, -0.00, -1.00, 89.6, 137.7)"> </text><text xml:space="preserve" font-family="ArialMT,Arial" font-size="23.0" fill="#4E5B3E" transform="matrix(1.00, 0.00, -0.00, -1.00, 95.9, 137.7)">l</text><text xml:space="preserve" font-family="ArialMT,Arial" font-size="23.0" fill="#4E5B3E" transform="matrix(1.00, 0.00, -0.00, -1.00, 101.0, 137.7)">e</text><text xml:space="preserve" font-family="ArialMT,Arial" font-size="23.0" fill="#4E5B3E" transform="matrix(1.00, 0.00, -0.00, -1.00, 113.8, 137.7)">a</text><text xml:space="preserve" font-family="ArialMT,Arial" font-size="23.0" fill="#4E5B3E" transform="matrix(1.00, 0.00, -0.00, -1.00, 126.6, 137.7)">r</text><text xml:space="preserve" font-family="ArialMT,Arial" font-size="23.0" fill="#4E5B3E" transform="matrix(1.00, 0.00, -0.00, -1.00, 134.3, 137.7)">n</text><text xml:space="preserve" font-family="ArialMT,Arial" font-size="23.0" fill="#4E5B3E" transform="matrix(1.00, 0.00, -0.00, -1.00, 147.0, 137.7)">i</text><text xml:space="preserve" font-family="ArialMT,Arial" font-size="23.0" fill="#4E5B3E" transform="matrix(1.00, 0.00, -0.00, -1.00, 152.2, 137.7)">n</text><text xml:space="preserve" font-family="ArialMT,Arial" font-size="23.0" fill="#4E5B3E" transform="matrix(1.00, 0.00, -0.00, -1.00, 165.0, 137.7)">g</text><text xml:space="preserve" font-family="ArialMT,Arial" font-size="23.0" fill="#4E5B3E" transform="matrix(1.00, 0.00, -0.00, -1.00, 177.8, 137.7)"> </text><text xml:space="preserve" font-family="ArialMT,Arial" font-size="23.0" fill="#4E5B3E" transform="matrix(1.00, 0.00, -0.00, -1.00, 184.1, 137.7)">c</text><text xml:space="preserve" font-family="ArialMT,Arial" font-size="23.0" fill="#4E5B3E" transform="matrix(1.00, 0.00, -0.00, -1.00, 195.6, 137.7)">o</text><text xml:space="preserve" font-family="ArialMT,Arial" font-size="23.0" fill="#4E5B3E" transform="matrix(1.00, 0.00, -0.00, -1.00, 208.4, 137.7)">n</text><text xml:space="preserve" font-family="ArialMT,Arial" font-size="23.0" fill="#4E5B3E" transform="matrix(1.00, 0.00, -0.00, -1.00, 221.2, 137.7)">t</text><text xml:space="preserve" font-family="ArialMT,Arial" font-size="23.0" fill="#4E5B3E" transform="matrix(1.00, 0.00, -0.00, -1.00, 227.6, 137.7)">e</text><text xml:space="preserve" font-family="ArialMT,Arial" font-size="23.0" fill="#4E5B3E" transform="matrix(1.00, 0.00, -0.00, -1.00, 240.4, 137.7)">n</text><text xml:space="preserve" font-family="ArialMT,Arial" font-size="23.0" fill="#4E5B3E" transform="matrix(1.00, 0.00, -0.00, -1.00, 253.2, 137.7)">t</text><text xml:space="preserve" font-family="ArialMT,Arial" font-size="23.0" fill="#4E5B3E" transform="matrix(1.00, 0.00, -0.00, -1.00, 259.6, 137.7)"> </text><text xml:space="preserve" font-family="ArialMT,Arial" font-size="23.0" fill="#4E5B3E" transform="matrix(1.00, 0.00, -0.00, -1.00, 266.0, 137.7)">B</text><text xml:space="preserve" font-family="ArialMT,Arial" font-size="23.0" fill="#4E5B3E" transform="matrix(1.00, 0.00, -0.00, -1.00, 281.3, 137.7)"> </text><image xlink:href="12A0FEE90C557876D82D1FE064095F55.png" width="14.00" height="14.00" transform="matrix(1.00, 0.00, -0.00, -1.00, 62.0, 119.0)"></image><image xlink:href="../../99A5FB03-DE1B-4B4A-AE6D-D0C074086E95/assets/2EAA803481B4829669A1AED6584C7A6E.png" width="132.00" height="132.00" transform="matrix(0.07, 0.00, -0.00, -0.07, 63.9, 117.0)"></image><image xlink:href="C1A3C8E22B4CD9A5FC5714C23AEB6BE2.png" width="122.00" height="27.00" transform="matrix(1.00, 0.00, -0.00, -1.00, 95.0, 125.0)"></image><text xml:space="preserve" font-family="ArialMT,Arial" font-size="23.0" fill="#4E5B3E" transform="matrix(1.00, 0.00, -0.00, -1.00, 89.6, 105.5)"> </text><text xml:space="preserve" font-family="ArialMT,Arial" font-size="23.0" fill="#4E5B3E" transform="matrix(1.00, 0.00, -0.00, -1.00, 95.9, 105.5)">v</text><text xml:space="preserve" font-family="ArialMT,Arial" font-size="23.0" fill="#4E5B3E" transform="matrix(1.00, 0.00, -0.00, -1.00, 107.4, 105.5)">i</text><text xml:space="preserve" font-family="ArialMT,Arial" font-size="23.0" fill="#4E5B3E" transform="matrix(1.00, 0.00, -0.00, -1.00, 112.5, 105.5)">d</text><text xml:space="preserve" font-family="ArialMT,Arial" font-size="23.0" fill="#4E5B3E" transform="matrix(1.00, 0.00, -0.00, -1.00, 125.3, 105.5)">e</text><text xml:space="preserve" font-family="ArialMT,Arial" font-size="23.0" fill="#4E5B3E" transform="matrix(1.00, 0.00, -0.00, -1.00, 138.1, 105.5)">o</text><text xml:space="preserve" font-family="ArialMT,Arial" font-size="23.0" fill="#4E5B3E" transform="matrix(1.00, 0.00, -0.00, -1.00, 150.9, 105.5)"> </text><text xml:space="preserve" font-family="ArialMT,Arial" font-size="23.0" fill="#4E5B3E" transform="matrix(1.00, 0.00, -0.00, -1.00, 157.3, 105.5)">c</text><text xml:space="preserve" font-family="ArialMT,Arial" font-size="23.0" fill="#4E5B3E" transform="matrix(1.00, 0.00, -0.00, -1.00, 168.8, 105.5)">l</text><text xml:space="preserve" font-family="ArialMT,Arial" font-size="23.0" fill="#4E5B3E" transform="matrix(1.00, 0.00, -0.00, -1.00, 173.9, 105.5)">i</text><text xml:space="preserve" font-family="ArialMT,Arial" font-size="23.0" fill="#4E5B3E" transform="matrix(1.00, 0.00, -0.00, -1.00, 179.0, 105.5)">p</text><text xml:space="preserve" font-family="ArialMT,Arial" font-size="23.0" fill="#4E5B3E" transform="matrix(1.00, 0.00, -0.00, -1.00, 191.8, 105.5)"> </text><text xml:space="preserve" font-family="ArialMT,Arial" font-size="23.0" fill="#4E5B3E" transform="matrix(1.00, 0.00, -0.00, -1.00, 198.2, 105.5)">C</text><text xml:space="preserve" font-family="ArialMT,Arial" font-size="23.0" fill="#4E5B3E" transform="matrix(1.00, 0.00, -0.00, -1.00, 214.8, 105.5)"> </text><image xlink:href="178C7809941B4B2D1D2F1D325DE1E0FC.png" width="427.00" height="26.00" transform="matrix(1.00, 0.00, -0.00, -1.00, 2.0, 92.0)"></image><text xml:space="preserve" font-family="ArialMT,Arial" font-size="23.0" fill="#4E5B3E" transform="matrix(1.00, 0.00, -0.00, -1.00, 3.9, 73.2)">A</text><text xml:space="preserve" font-family="ArialMT,Arial" font-size="23.0" fill="#4E5B3E" transform="matrix(1.00, 0.00, -0.00, -1.00, 19.2, 73.2)">s</text><text xml:space="preserve" font-family="ArialMT,Arial" font-size="23.0" fill="#4E5B3E" transform="matrix(1.00, 0.00, -0.00, -1.00, 30.7, 73.2)">s</text><text xml:space="preserve" font-family="ArialMT,Arial" font-size="23.0" fill="#4E5B3E" transform="matrix(1.00, 0.00, -0.00, -1.00, 42.2, 73.2)">i</text><text xml:space="preserve" font-family="ArialMT,Arial" font-size="23.0" fill="#4E5B3E" transform="matrix(1.00, 0.00, -0.00, -1.00, 47.3, 73.2)">g</text><text xml:space="preserve" font-family="ArialMT,Arial" font-size="23.0" fill="#4E5B3E" transform="matrix(1.00, 0.00, -0.00, -1.00, 60.1, 73.2)">n</text><text xml:space="preserve" font-family="ArialMT,Arial" font-size="23.0" fill="#4E5B3E" transform="matrix(1.00, 0.00, -0.00, -1.00, 72.9, 73.2)"> </text><text xml:space="preserve" font-family="ArialMT,Arial" font-size="23.0" fill="#4E5B3E" transform="matrix(1.00, 0.00, -0.00, -1.00, 79.3, 73.2)">t</text><text xml:space="preserve" font-family="ArialMT,Arial" font-size="23.0" fill="#4E5B3E" transform="matrix(1.00, 0.00, -0.00, -1.00, 85.7, 73.2)">o</text><text xml:space="preserve" font-family="ArialMT,Arial" font-size="23.0" fill="#4E5B3E" transform="matrix(1.00, 0.00, -0.00, -1.00, 98.5, 73.2)"> </text><text xml:space="preserve" font-family="ArialMT,Arial" font-size="23.0" fill="#4E5B3E" transform="matrix(1.00, 0.00, -0.00, -1.00, 104.9, 73.2)">a</text><text xml:space="preserve" font-family="ArialMT,Arial" font-size="23.0" fill="#4E5B3E" transform="matrix(1.00, 0.00, -0.00, -1.00, 117.7, 73.2)">l</text><text xml:space="preserve" font-family="ArialMT,Arial" font-size="23.0" fill="#4E5B3E" transform="matrix(1.00, 0.00, -0.00, -1.00, 122.8, 73.2)">l</text><text xml:space="preserve" font-family="ArialMT,Arial" font-size="23.0" fill="#4E5B3E" transform="matrix(1.00, 0.00, -0.00, -1.00, 127.9, 73.2)"> </text><text xml:space="preserve" font-family="ArialMT,Arial" font-size="23.0" fill="#4E5B3E" transform="matrix(1.00, 0.00, -0.00, -1.00, 134.3, 73.2)">s</text><text xml:space="preserve" font-family="ArialMT,Arial" font-size="23.0" fill="#4E5B3E" transform="matrix(1.00, 0.00, -0.00, -1.00, 145.8, 73.2)">t</text><text xml:space="preserve" font-family="ArialMT,Arial" font-size="23.0" fill="#4E5B3E" transform="matrix(1.00, 0.00, -0.00, -1.00, 152.2, 73.2)">u</text><text xml:space="preserve" font-family="ArialMT,Arial" font-size="23.0" fill="#4E5B3E" transform="matrix(1.00, 0.00, -0.00, -1.00, 165.0, 73.2)">d</text><text xml:space="preserve" font-family="ArialMT,Arial" font-size="23.0" fill="#4E5B3E" transform="matrix(1.00, 0.00, -0.00, -1.00, 177.8, 73.2)">e</text><text xml:space="preserve" font-family="ArialMT,Arial" font-size="23.0" fill="#4E5B3E" transform="matrix(1.00, 0.00, -0.00, -1.00, 190.6, 73.2)">n</text><text xml:space="preserve" font-family="ArialMT,Arial" font-size="23.0" fill="#4E5B3E" transform="matrix(1.00, 0.00, -0.00, -1.00, 203.4, 73.2)">t</text><text xml:space="preserve" font-family="ArialMT,Arial" font-size="23.0" fill="#4E5B3E" transform="matrix(1.00, 0.00, -0.00, -1.00, 209.8, 73.2)">s</text><text xml:space="preserve" font-family="ArialMT,Arial" font-size="23.0" fill="#4E5B3E" transform="matrix(1.00, 0.00, -0.00, -1.00, 221.3, 73.2)"> </text><text xml:space="preserve" font-family="ArialMT,Arial" font-size="23.0" fill="#4E5B3E" transform="matrix(1.00, 0.00, -0.00, -1.00, 227.6, 73.2)">a</text><text xml:space="preserve" font-family="ArialMT,Arial" font-size="23.0" fill="#4E5B3E" transform="matrix(1.00, 0.00, -0.00, -1.00, 240.4, 73.2)">s</text><text xml:space="preserve" font-family="ArialMT,Arial" font-size="23.0" fill="#4E5B3E" transform="matrix(1.00, 0.00, -0.00, -1.00, 251.9, 73.2)">s</text><text xml:space="preserve" font-family="ArialMT,Arial" font-size="23.0" fill="#4E5B3E" transform="matrix(1.00, 0.00, -0.00, -1.00, 263.4, 73.2)">e</text><text xml:space="preserve" font-family="ArialMT,Arial" font-size="23.0" fill="#4E5B3E" transform="matrix(1.00, 0.00, -0.00, -1.00, 276.2, 73.2)">s</text><text xml:space="preserve" font-family="ArialMT,Arial" font-size="23.0" fill="#4E5B3E" transform="matrix(1.00, 0.00, -0.00, -1.00, 287.7, 73.2)">s</text><text xml:space="preserve" font-family="ArialMT,Arial" font-size="23.0" fill="#4E5B3E" transform="matrix(1.00, 0.00, -0.00, -1.00, 299.2, 73.2)">e</text><text xml:space="preserve" font-family="ArialMT,Arial" font-size="23.0" fill="#4E5B3E" transform="matrix(1.00, 0.00, -0.00, -1.00, 312.0, 73.2)">d</text><text xml:space="preserve" font-family="ArialMT,Arial" font-size="23.0" fill="#4E5B3E" transform="matrix(1.00, 0.00, -0.00, -1.00, 324.8, 73.2)"> </text><text xml:space="preserve" font-family="ArialMT,Arial" font-size="23.0" fill="#4E5B3E" transform="matrix(1.00, 0.00, -0.00, -1.00, 331.2, 73.2)">t</text><text xml:space="preserve" font-family="ArialMT,Arial" font-size="23.0" fill="#4E5B3E" transform="matrix(1.00, 0.00, -0.00, -1.00, 337.6, 73.2)">h</text><text xml:space="preserve" font-family="ArialMT,Arial" font-size="23.0" fill="#4E5B3E" transform="matrix(1.00, 0.00, -0.00, -1.00, 350.4, 73.2)">i</text><text xml:space="preserve" font-family="ArialMT,Arial" font-size="23.0" fill="#4E5B3E" transform="matrix(1.00, 0.00, -0.00, -1.00, 355.5, 73.2)">s</text><text xml:space="preserve" font-family="ArialMT,Arial" font-size="23.0" fill="#4E5B3E" transform="matrix(1.00, 0.00, -0.00, -1.00, 367.0, 73.2)"> </text><text xml:space="preserve" font-family="ArialMT,Arial" font-size="23.0" fill="#4E5B3E" transform="matrix(1.00, 0.00, -0.00, -1.00, 373.4, 73.2)">w</text><text xml:space="preserve" font-family="ArialMT,Arial" font-size="23.0" fill="#4E5B3E" transform="matrix(1.00, 0.00, -0.00, -1.00, 390.0, 73.2)">a</text><text xml:space="preserve" font-family="ArialMT,Arial" font-size="23.0" fill="#4E5B3E" transform="matrix(1.00, 0.00, -0.00, -1.00, 402.8, 73.2)">y</text><text xml:space="preserve" font-family="ArialMT,Arial" font-size="23.0" fill="#4E5B3E" transform="matrix(1.00, 0.00, -0.00, -1.00, 414.3, 73.2)">?</text><text xml:space="preserve" font-family="ArialMT,Arial" font-size="23.0" fill="#4E5B3E" transform="matrix(1.00, 0.00, -0.00, -1.00, 427.1, 73.2)"> </text><image xlink:href="../../D12A9C7C-1498-4952-BCD7-065C5DDB8AF5/assets/F4C4E4C9903E7679BEAA8EE107ED3360.png" width="14.00" height="14.00" transform="matrix(1.00, 0.00, -0.00, -1.00, 62.0, 55.0)"></image><image xlink:href="../../99A5FB03-DE1B-4B4A-AE6D-D0C074086E95/assets/2EAA803481B4829669A1AED6584C7A6E.png" width="132.00" height="132.00" transform="matrix(0.07, 0.00, -0.00, -0.07, 63.9, 52.5)"></image><image xlink:href="89D2D351340BCA4A822EF6FDC2D036CA.png" width="39.00" height="22.00" transform="matrix(1.00, 0.00, -0.00, -1.00, 95.0, 56.0)"></image><text xml:space="preserve" font-family="ArialMT,Arial" font-size="23.0" fill="#4E5B3E" transform="matrix(1.00, 0.00, -0.00, -1.00, 89.6, 41.0)"> </text><text xml:space="preserve" font-family="ArialMT,Arial" font-size="23.0" fill="#4E5B3E" transform="matrix(1.00, 0.00, -0.00, -1.00, 95.9, 41.0)">y</text><text xml:space="preserve" font-family="ArialMT,Arial" font-size="23.0" fill="#4E5B3E" transform="matrix(1.00, 0.00, -0.00, -1.00, 107.4, 41.0)">e</text><text xml:space="preserve" font-family="ArialMT,Arial" font-size="23.0" fill="#4E5B3E" transform="matrix(1.00, 0.00, -0.00, -1.00, 120.2, 41.0)">s</text><text xml:space="preserve" font-family="ArialMT,Arial" font-size="23.0" fill="#4E5B3E" transform="matrix(1.00, 0.00, -0.00, -1.00, 131.7, 41.0)"> </text><image xlink:href="../../D12A9C7C-1498-4952-BCD7-065C5DDB8AF5/assets/4E6ED980366713657FD8F772DFB2723E.png" width="14.00" height="14.00" transform="matrix(1.00, 0.00, -0.00, -1.00, 62.0, 23.0)"></image><image xlink:href="../../99A5FB03-DE1B-4B4A-AE6D-D0C074086E95/assets/2EAA803481B4829669A1AED6584C7A6E.png" width="132.00" height="132.00" transform="matrix(0.07, 0.00, -0.00, -0.07, 63.9, 20.2)"></image><image xlink:href="DA6FE4157A2E9D1D8FD52AE51C8C2B0F.png" width="40.00" height="26.00" transform="matrix(1.00, 0.00, -0.00, -1.00, 90.0, 28.0)"></image><text xml:space="preserve" font-family="ArialMT,Arial" font-size="23.0" fill="#4E5B3E" transform="matrix(1.00, 0.00, -0.00, -1.00, 89.6, 8.7)">[</text><text xml:space="preserve" font-family="ArialMT,Arial" font-size="23.0" fill="#4E5B3E" transform="matrix(1.00, 0.00, -0.00, -1.00, 96.0, 8.7)">n</text><text xml:space="preserve" font-family="ArialMT,Arial" font-size="23.0" fill="#4E5B3E" transform="matrix(1.00, 0.00, -0.00, -1.00, 108.8, 8.7)">o</text><text xml:space="preserve" font-family="ArialMT,Arial" font-size="23.0" fill="#4E5B3E" transform="matrix(1.00, 0.00, -0.00, -1.00, 121.6, 8.7)">]</text><text xml:space="preserve" font-family="ArialMT,Arial" font-size="23.0" fill="#4E5B3E" transform="matrix(1.00, 0.00, -0.00, -1.00, 128.0, 8.7)"> </text></g></svg>