<?xml version="1.0" encoding="UTF-8" standalone="no"?><svg xmlns="http://www.w3.org/2000/svg" xmlns:xlink="http://www.w3.org/1999/xlink" clip-rule="evenodd" stroke-miterlimit="10" viewBox="0 0 1024 768"><desc>SVG generated by Keynote</desc><defs></defs><g transform="matrix(1.00, 0.00, -0.00, -1.00, 0.0, 768.0)"><g><clipPath id="clip0x7f8ab8bb3090"><path d="M 0.0 768.0 L 1024.0 768.0 L 1024.0 0.0 L 0.0 0.0 Z M 0.0 768.0 "></path></clipPath><g clip-path="url(#clip0x7f8ab8bb3090)"><image xlink:href="../../99A5FB03-DE1B-4B4A-AE6D-D0C074086E95/assets/34988952894DD776A411594AF71579AA.jpeg" width="2048.00" height="1536.00" transform="matrix(0.50, 0.00, -0.00, -0.50, 0.0, 768.0)"></image></g></g><image xlink:href="3D56E482FACBCBC22F1F684F9F515425.png" width="116.00" height="46.00" transform="matrix(1.00, 0.00, -0.00, -1.00, 452.0, 710.0)"></image><text xml:space="preserve" font-family="ArialMT,Arial" font-size="56.0" fill="#FBF8E6" transform="matrix(1.00, 0.00, -0.00, -1.00, 450.4, 664.7)">E</text><text xml:space="preserve" font-family="ArialMT,Arial" font-size="56.0" fill="#FBF8E6" transform="matrix(1.00, 0.00, -0.00, -1.00, 490.5, 664.7)">.</text><text xml:space="preserve" font-family="ArialMT,Arial" font-size="56.0" fill="#FBF8E6" transform="matrix(1.00, 0.00, -0.00, -1.00, 508.9, 664.7)">G</text><text xml:space="preserve" font-family="ArialMT,Arial" font-size="56.0" fill="#FBF8E6" transform="matrix(1.00, 0.00, -0.00, -1.00, 555.3, 664.7)">.</text><image xlink:href="AF56E8ECFCDD41B07307C6FCFD2BB64B.png" width="397.00" height="34.00" transform="matrix(1.00, 0.00, -0.00, -1.00, 212.0, 497.0)"></image><text xml:space="preserve" font-family="SourceSansPro-Semibold,Source Sans Pro" font-weight="bold" font-size="32.0" fill="#AD1932" transform="matrix(1.00, 0.00, -0.00, -1.00, 212.0, 472.2)">S</text><text xml:space="preserve" font-family="SourceSansPro-Semibold,Source Sans Pro" font-weight="bold" font-size="32.0" fill="#AD1932" transform="matrix(1.00, 0.00, -0.00, -1.00, 229.4, 472.2)">e</text><text xml:space="preserve" font-family="SourceSansPro-Semibold,Source Sans Pro" font-weight="bold" font-size="32.0" fill="#AD1932" transform="matrix(1.00, 0.00, -0.00, -1.00, 245.7, 472.2)">l</text><text xml:space="preserve" font-family="SourceSansPro-Semibold,Source Sans Pro" font-weight="bold" font-size="32.0" fill="#AD1932" transform="matrix(1.00, 0.00, -0.00, -1.00, 254.3, 472.2)">e</text><text xml:space="preserve" font-family="SourceSansPro-Semibold,Source Sans Pro" font-weight="bold" font-size="32.0" fill="#AD1932" transform="matrix(1.00, 0.00, -0.00, -1.00, 270.6, 472.2)">c</text><text xml:space="preserve" font-family="SourceSansPro-Semibold,Source Sans Pro" font-weight="bold" font-size="32.0" fill="#AD1932" transform="matrix(1.00, 0.00, -0.00, -1.00, 285.3, 472.2)">t</text><text xml:space="preserve" font-family="SourceSansPro-Semibold,Source Sans Pro" font-weight="bold" font-size="32.0" fill="#AD1932" transform="matrix(1.00, 0.00, -0.00, -1.00, 296.9, 472.2)"> </text><text xml:space="preserve" font-family="SourceSansPro-Semibold,Source Sans Pro" font-weight="bold" font-size="32.0" fill="#AD1932" transform="matrix(1.00, 0.00, -0.00, -1.00, 303.5, 472.2)">L</text><text xml:space="preserve" font-family="SourceSansPro-Semibold,Source Sans Pro" font-weight="bold" font-size="32.0" fill="#AD1932" transform="matrix(1.00, 0.00, -0.00, -1.00, 319.1, 472.2)">e</text><text xml:space="preserve" font-family="SourceSansPro-Semibold,Source Sans Pro" font-weight="bold" font-size="32.0" fill="#AD1932" transform="matrix(1.00, 0.00, -0.00, -1.00, 334.9, 472.2)">a</text><text xml:space="preserve" font-family="SourceSansPro-Semibold,Source Sans Pro" font-weight="bold" font-size="32.0" fill="#AD1932" transform="matrix(1.00, 0.00, -0.00, -1.00, 351.7, 472.2)">r</text><text xml:space="preserve" font-family="SourceSansPro-Semibold,Source Sans Pro" font-weight="bold" font-size="32.0" fill="#AD1932" transform="matrix(1.00, 0.00, -0.00, -1.00, 363.6, 472.2)">n</text><text xml:space="preserve" font-family="SourceSansPro-Semibold,Source Sans Pro" font-weight="bold" font-size="32.0" fill="#AD1932" transform="matrix(1.00, 0.00, -0.00, -1.00, 381.5, 472.2)">i</text><text xml:space="preserve" font-family="SourceSansPro-Semibold,Source Sans Pro" font-weight="bold" font-size="32.0" fill="#AD1932" transform="matrix(1.00, 0.00, -0.00, -1.00, 389.9, 472.2)">n</text><text xml:space="preserve" font-family="SourceSansPro-Semibold,Source Sans Pro" font-weight="bold" font-size="32.0" fill="#AD1932" transform="matrix(1.00, 0.00, -0.00, -1.00, 407.8, 472.2)">g</text><text xml:space="preserve" font-family="SourceSansPro-Semibold,Source Sans Pro" font-weight="bold" font-size="32.0" fill="#AD1932" transform="matrix(1.00, 0.00, -0.00, -1.00, 424.5, 472.2)"> </text><text xml:space="preserve" font-family="SourceSansPro-Semibold,Source Sans Pro" font-weight="bold" font-size="32.0" fill="#AD1932" transform="matrix(1.00, 0.00, -0.00, -1.00, 431.0, 472.2)">C</text><text xml:space="preserve" font-family="SourceSansPro-Semibold,Source Sans Pro" font-weight="bold" font-size="32.0" fill="#AD1932" transform="matrix(1.00, 0.00, -0.00, -1.00, 449.5, 472.2)">o</text><text xml:space="preserve" font-family="SourceSansPro-Semibold,Source Sans Pro" font-weight="bold" font-size="32.0" fill="#AD1932" transform="matrix(1.00, 0.00, -0.00, -1.00, 467.0, 472.2)">n</text><text xml:space="preserve" font-family="SourceSansPro-Semibold,Source Sans Pro" font-weight="bold" font-size="32.0" fill="#AD1932" transform="matrix(1.00, 0.00, -0.00, -1.00, 485.0, 472.2)">t</text><text xml:space="preserve" font-family="SourceSansPro-Semibold,Source Sans Pro" font-weight="bold" font-size="32.0" fill="#AD1932" transform="matrix(1.00, 0.00, -0.00, -1.00, 496.2, 472.2)">e</text><text xml:space="preserve" font-family="SourceSansPro-Semibold,Source Sans Pro" font-weight="bold" font-size="32.0" fill="#AD1932" transform="matrix(1.00, 0.00, -0.00, -1.00, 512.4, 472.2)">n</text><text xml:space="preserve" font-family="SourceSansPro-Semibold,Source Sans Pro" font-weight="bold" font-size="32.0" fill="#AD1932" transform="matrix(1.00, 0.00, -0.00, -1.00, 530.3, 472.2)">t</text><text xml:space="preserve" font-family="SourceSansPro-Semibold,Source Sans Pro" font-weight="bold" font-size="32.0" fill="#AD1932" transform="matrix(1.00, 0.00, -0.00, -1.00, 541.9, 472.2)"> </text><text xml:space="preserve" font-family="SourceSansPro-Semibold,Source Sans Pro" font-weight="bold" font-size="32.0" fill="#AD1932" transform="matrix(1.00, 0.00, -0.00, -1.00, 548.4, 472.2)">t</text><text xml:space="preserve" font-family="SourceSansPro-Semibold,Source Sans Pro" font-weight="bold" font-size="32.0" fill="#AD1932" transform="matrix(1.00, 0.00, -0.00, -1.00, 560.0, 472.2)">h</text><text xml:space="preserve" font-family="SourceSansPro-Semibold,Source Sans Pro" font-weight="bold" font-size="32.0" fill="#AD1932" transform="matrix(1.00, 0.00, -0.00, -1.00, 577.9, 472.2)">a</text><text xml:space="preserve" font-family="SourceSansPro-Semibold,Source Sans Pro" font-weight="bold" font-size="32.0" fill="#AD1932" transform="matrix(1.00, 0.00, -0.00, -1.00, 594.6, 472.2)">t</text><text xml:space="preserve" font-family="SourceSansPro-Semibold,Source Sans Pro" font-weight="bold" font-size="32.0" fill="#AD1932" transform="matrix(1.00, 0.00, -0.00, -1.00, 606.1, 472.2)"> </text><image xlink:href="8158A18C39B237503F842099B493454F.png" width="461.00" height="35.00" transform="matrix(1.00, 0.00, -0.00, -1.00, 258.0, 450.0)"></image><text xml:space="preserve" font-family="SourceSansPro-Regular,Source Sans Pro" font-size="32.0" fill="#AD1932" transform="matrix(1.00, 0.00, -0.00, -1.00, 212.0, 424.2)"> </text><text xml:space="preserve" font-family="SourceSansPro-Regular,Source Sans Pro" font-size="32.0" fill="#AD1932" transform="matrix(1.00, 0.00, -0.00, -1.00, 258.0, 424.2)">a</text><text xml:space="preserve" font-family="SourceSansPro-Regular,Source Sans Pro" font-size="32.0" fill="#AD1932" transform="matrix(1.00, 0.00, -0.00, -1.00, 274.4, 424.2)">p</text><text xml:space="preserve" font-family="SourceSansPro-Regular,Source Sans Pro" font-size="32.0" fill="#AD1932" transform="matrix(1.00, 0.00, -0.00, -1.00, 292.1, 424.2)">p</text><text xml:space="preserve" font-family="SourceSansPro-Regular,Source Sans Pro" font-size="32.0" fill="#AD1932" transform="matrix(1.00, 0.00, -0.00, -1.00, 309.9, 424.2)">l</text><text xml:space="preserve" font-family="SourceSansPro-Regular,Source Sans Pro" font-size="32.0" fill="#AD1932" transform="matrix(1.00, 0.00, -0.00, -1.00, 318.1, 424.2)">i</text><text xml:space="preserve" font-family="SourceSansPro-Regular,Source Sans Pro" font-size="32.0" fill="#AD1932" transform="matrix(1.00, 0.00, -0.00, -1.00, 325.9, 424.2)">e</text><text xml:space="preserve" font-family="SourceSansPro-Regular,Source Sans Pro" font-size="32.0" fill="#AD1932" transform="matrix(1.00, 0.00, -0.00, -1.00, 341.8, 424.2)">s</text><text xml:space="preserve" font-family="SourceSansPro-Regular,Source Sans Pro" font-size="32.0" fill="#AD1932" transform="matrix(1.00, 0.00, -0.00, -1.00, 355.2, 424.2)"> </text><text xml:space="preserve" font-family="SourceSansPro-Regular,Source Sans Pro" font-size="32.0" fill="#AD1932" transform="matrix(1.00, 0.00, -0.00, -1.00, 361.7, 424.2)">t</text><text xml:space="preserve" font-family="SourceSansPro-Regular,Source Sans Pro" font-size="32.0" fill="#AD1932" transform="matrix(1.00, 0.00, -0.00, -1.00, 372.2, 424.2)">o</text><text xml:space="preserve" font-family="SourceSansPro-Regular,Source Sans Pro" font-size="32.0" fill="#AD1932" transform="matrix(1.00, 0.00, -0.00, -1.00, 389.5, 424.2)"> </text><text xml:space="preserve" font-family="SourceSansPro-Regular,Source Sans Pro" font-size="32.0" fill="#AD1932" transform="matrix(1.00, 0.00, -0.00, -1.00, 396.0, 424.2)">C</text><text xml:space="preserve" font-family="SourceSansPro-Regular,Source Sans Pro" font-size="32.0" fill="#AD1932" transform="matrix(1.00, 0.00, -0.00, -1.00, 414.3, 424.2)">o</text><text xml:space="preserve" font-family="SourceSansPro-Regular,Source Sans Pro" font-size="32.0" fill="#AD1932" transform="matrix(1.00, 0.00, -0.00, -1.00, 431.6, 424.2)">m</text><text xml:space="preserve" font-family="SourceSansPro-Regular,Source Sans Pro" font-size="32.0" fill="#AD1932" transform="matrix(1.00, 0.00, -0.00, -1.00, 458.1, 424.2)">m</text><text xml:space="preserve" font-family="SourceSansPro-Regular,Source Sans Pro" font-size="32.0" fill="#AD1932" transform="matrix(1.00, 0.00, -0.00, -1.00, 484.7, 424.2)">o</text><text xml:space="preserve" font-family="SourceSansPro-Regular,Source Sans Pro" font-size="32.0" fill="#AD1932" transform="matrix(1.00, 0.00, -0.00, -1.00, 502.0, 424.2)">n</text><text xml:space="preserve" font-family="SourceSansPro-Regular,Source Sans Pro" font-size="32.0" fill="#AD1932" transform="matrix(1.00, 0.00, -0.00, -1.00, 519.5, 424.2)"> </text><text xml:space="preserve" font-family="SourceSansPro-Regular,Source Sans Pro" font-size="32.0" fill="#AD1932" transform="matrix(1.00, 0.00, -0.00, -1.00, 526.0, 424.2)">C</text><text xml:space="preserve" font-family="SourceSansPro-Regular,Source Sans Pro" font-size="32.0" fill="#AD1932" transform="matrix(1.00, 0.00, -0.00, -1.00, 544.2, 424.2)">o</text><text xml:space="preserve" font-family="SourceSansPro-Regular,Source Sans Pro" font-size="32.0" fill="#AD1932" transform="matrix(1.00, 0.00, -0.00, -1.00, 561.6, 424.2)">r</text><text xml:space="preserve" font-family="SourceSansPro-Regular,Source Sans Pro" font-size="32.0" fill="#AD1932" transform="matrix(1.00, 0.00, -0.00, -1.00, 572.4, 424.2)">e</text><text xml:space="preserve" font-family="SourceSansPro-Regular,Source Sans Pro" font-size="32.0" fill="#AD1932" transform="matrix(1.00, 0.00, -0.00, -1.00, 588.2, 424.2)"> </text><text xml:space="preserve" font-family="SourceSansPro-Regular,Source Sans Pro" font-size="32.0" fill="#AD1932" transform="matrix(1.00, 0.00, -0.00, -1.00, 594.7, 424.2)">S</text><text xml:space="preserve" font-family="SourceSansPro-Regular,Source Sans Pro" font-size="32.0" fill="#AD1932" transform="matrix(1.00, 0.00, -0.00, -1.00, 611.8, 424.2)">t</text><text xml:space="preserve" font-family="SourceSansPro-Regular,Source Sans Pro" font-size="32.0" fill="#AD1932" transform="matrix(1.00, 0.00, -0.00, -1.00, 622.0, 424.2)">a</text><text xml:space="preserve" font-family="SourceSansPro-Regular,Source Sans Pro" font-size="32.0" fill="#AD1932" transform="matrix(1.00, 0.00, -0.00, -1.00, 638.4, 424.2)">n</text><text xml:space="preserve" font-family="SourceSansPro-Regular,Source Sans Pro" font-size="32.0" fill="#AD1932" transform="matrix(1.00, 0.00, -0.00, -1.00, 655.9, 424.2)">d</text><text xml:space="preserve" font-family="SourceSansPro-Regular,Source Sans Pro" font-size="32.0" fill="#AD1932" transform="matrix(1.00, 0.00, -0.00, -1.00, 673.7, 424.2)">a</text><text xml:space="preserve" font-family="SourceSansPro-Regular,Source Sans Pro" font-size="32.0" fill="#AD1932" transform="matrix(1.00, 0.00, -0.00, -1.00, 690.1, 424.2)">r</text><text xml:space="preserve" font-family="SourceSansPro-Regular,Source Sans Pro" font-size="32.0" fill="#AD1932" transform="matrix(1.00, 0.00, -0.00, -1.00, 700.8, 424.2)">d</text><text xml:space="preserve" font-family="SourceSansPro-Regular,Source Sans Pro" font-size="32.0" fill="#AD1932" transform="matrix(1.00, 0.00, -0.00, -1.00, 718.6, 424.2)"> </text><image xlink:href="D2A9E5137527393D817C858F80918D84.png" width="54.00" height="26.00" transform="matrix(1.00, 0.00, -0.00, -1.00, 722.0, 448.0)"></image><text xml:space="preserve" font-family="SourceSansPro-It,Source Sans Pro" font-style="italic" font-size="32.0" fill="#AD1932" transform="matrix(1.00, 0.00, -0.00, -1.00, 725.1, 424.2)">X</text><text xml:space="preserve" font-family="SourceSansPro-It,Source Sans Pro" font-style="italic" font-size="32.0" fill="#AD1932" transform="matrix(1.00, 0.00, -0.00, -1.00, 740.9, 424.2)">Y</text><text xml:space="preserve" font-family="SourceSansPro-It,Source Sans Pro" font-style="italic" font-size="32.0" fill="#AD1932" transform="matrix(1.00, 0.00, -0.00, -1.00, 754.9, 424.2)">Z</text><text xml:space="preserve" font-family="SourceSansPro-Regular,Source Sans Pro" font-size="32.0" fill="#AD1932" transform="matrix(1.00, 0.00, -0.00, -1.00, 771.2, 424.2)"> </text><image xlink:href="69F47D03B9EA53F7A6DAA3425BCA2071.png" width="274.00" height="35.00" transform="matrix(1.00, 0.00, -0.00, -1.00, 257.0, 402.0)"></image><text xml:space="preserve" font-family="SourceSansPro-Regular,Source Sans Pro" font-size="32.0" fill="#AD1932" transform="matrix(1.00, 0.00, -0.00, -1.00, 212.0, 376.2)"> </text><text xml:space="preserve" font-family="SourceSansPro-Regular,Source Sans Pro" font-size="32.0" fill="#AD1932" transform="matrix(1.00, 0.00, -0.00, -1.00, 258.0, 376.2)">f</text><text xml:space="preserve" font-family="SourceSansPro-Regular,Source Sans Pro" font-size="32.0" fill="#AD1932" transform="matrix(1.00, 0.00, -0.00, -1.00, 267.0, 376.2)">o</text><text xml:space="preserve" font-family="SourceSansPro-Regular,Source Sans Pro" font-size="32.0" fill="#AD1932" transform="matrix(1.00, 0.00, -0.00, -1.00, 284.4, 376.2)">c</text><text xml:space="preserve" font-family="SourceSansPro-Regular,Source Sans Pro" font-size="32.0" fill="#AD1932" transform="matrix(1.00, 0.00, -0.00, -1.00, 299.0, 376.2)">u</text><text xml:space="preserve" font-family="SourceSansPro-Regular,Source Sans Pro" font-size="32.0" fill="#AD1932" transform="matrix(1.00, 0.00, -0.00, -1.00, 316.4, 376.2)">s</text><text xml:space="preserve" font-family="SourceSansPro-Regular,Source Sans Pro" font-size="32.0" fill="#AD1932" transform="matrix(1.00, 0.00, -0.00, -1.00, 329.8, 376.2)">e</text><text xml:space="preserve" font-family="SourceSansPro-Regular,Source Sans Pro" font-size="32.0" fill="#AD1932" transform="matrix(1.00, 0.00, -0.00, -1.00, 345.6, 376.2)">d</text><text xml:space="preserve" font-family="SourceSansPro-Regular,Source Sans Pro" font-size="32.0" fill="#AD1932" transform="matrix(1.00, 0.00, -0.00, -1.00, 363.4, 376.2)"> </text><text xml:space="preserve" font-family="SourceSansPro-Regular,Source Sans Pro" font-size="32.0" fill="#AD1932" transform="matrix(1.00, 0.00, -0.00, -1.00, 369.9, 376.2)">o</text><text xml:space="preserve" font-family="SourceSansPro-Regular,Source Sans Pro" font-size="32.0" fill="#AD1932" transform="matrix(1.00, 0.00, -0.00, -1.00, 387.2, 376.2)">n</text><text xml:space="preserve" font-family="SourceSansPro-Regular,Source Sans Pro" font-size="32.0" fill="#AD1932" transform="matrix(1.00, 0.00, -0.00, -1.00, 404.7, 376.2)"> </text><text xml:space="preserve" font-family="SourceSansPro-Regular,Source Sans Pro" font-size="32.0" fill="#AD1932" transform="matrix(1.00, 0.00, -0.00, -1.00, 411.2, 376.2)">s</text><text xml:space="preserve" font-family="SourceSansPro-Regular,Source Sans Pro" font-size="32.0" fill="#AD1932" transform="matrix(1.00, 0.00, -0.00, -1.00, 424.6, 376.2)">u</text><text xml:space="preserve" font-family="SourceSansPro-Regular,Source Sans Pro" font-size="32.0" fill="#AD1932" transform="matrix(1.00, 0.00, -0.00, -1.00, 442.0, 376.2)">b</text><text xml:space="preserve" font-family="SourceSansPro-Regular,Source Sans Pro" font-size="32.0" fill="#AD1932" transform="matrix(1.00, 0.00, -0.00, -1.00, 459.8, 376.2)">t</text><text xml:space="preserve" font-family="SourceSansPro-Regular,Source Sans Pro" font-size="32.0" fill="#AD1932" transform="matrix(1.00, 0.00, -0.00, -1.00, 470.3, 376.2)">o</text><text xml:space="preserve" font-family="SourceSansPro-Regular,Source Sans Pro" font-size="32.0" fill="#AD1932" transform="matrix(1.00, 0.00, -0.00, -1.00, 487.6, 376.2)">p</text><text xml:space="preserve" font-family="SourceSansPro-Regular,Source Sans Pro" font-size="32.0" fill="#AD1932" transform="matrix(1.00, 0.00, -0.00, -1.00, 505.4, 376.2)">i</text><text xml:space="preserve" font-family="SourceSansPro-Regular,Source Sans Pro" font-size="32.0" fill="#AD1932" transform="matrix(1.00, 0.00, -0.00, -1.00, 513.2, 376.2)">c</text><text xml:space="preserve" font-family="SourceSansPro-Regular,Source Sans Pro" font-size="32.0" fill="#AD1932" transform="matrix(1.00, 0.00, -0.00, -1.00, 527.8, 376.2)"> </text><image xlink:href="67106973F6D9BA260C999A3C030BEE1A.png" width="60.00" height="27.00" transform="matrix(1.00, 0.00, -0.00, -1.00, 531.0, 400.0)"></image><text xml:space="preserve" font-family="SourceSansPro-It,Source Sans Pro" font-style="italic" font-size="32.0" fill="#AD1932" transform="matrix(1.00, 0.00, -0.00, -1.00, 534.3, 376.2)">A</text><text xml:space="preserve" font-family="SourceSansPro-It,Source Sans Pro" font-style="italic" font-size="32.0" fill="#AD1932" transform="matrix(1.00, 0.00, -0.00, -1.00, 550.6, 376.2)">B</text><text xml:space="preserve" font-family="SourceSansPro-It,Source Sans Pro" font-style="italic" font-size="32.0" fill="#AD1932" transform="matrix(1.00, 0.00, -0.00, -1.00, 569.3, 376.2)">C</text><text xml:space="preserve" font-family="SourceSansPro-Regular,Source Sans Pro" font-size="32.0" fill="#AD1932" transform="matrix(1.00, 0.00, -0.00, -1.00, 586.9, 376.2)"> </text><image xlink:href="9186A91F43E9A77B051676125F4CCA25.png" width="147.00" height="35.00" transform="matrix(1.00, 0.00, -0.00, -1.00, 258.0, 354.0)"></image><text xml:space="preserve" font-family="SourceSansPro-Regular,Source Sans Pro" font-size="32.0" fill="#AD1932" transform="matrix(1.00, 0.00, -0.00, -1.00, 212.0, 328.2)"> </text><text xml:space="preserve" font-family="SourceSansPro-Regular,Source Sans Pro" font-size="32.0" fill="#AD1932" transform="matrix(1.00, 0.00, -0.00, -1.00, 258.0, 328.2)">e</text><text xml:space="preserve" font-family="SourceSansPro-Regular,Source Sans Pro" font-size="32.0" fill="#AD1932" transform="matrix(1.00, 0.00, -0.00, -1.00, 273.9, 328.2)">m</text><text xml:space="preserve" font-family="SourceSansPro-Regular,Source Sans Pro" font-size="32.0" fill="#AD1932" transform="matrix(1.00, 0.00, -0.00, -1.00, 300.4, 328.2)">p</text><text xml:space="preserve" font-family="SourceSansPro-Regular,Source Sans Pro" font-size="32.0" fill="#AD1932" transform="matrix(1.00, 0.00, -0.00, -1.00, 318.2, 328.2)">h</text><text xml:space="preserve" font-family="SourceSansPro-Regular,Source Sans Pro" font-size="32.0" fill="#AD1932" transform="matrix(1.00, 0.00, -0.00, -1.00, 335.6, 328.2)">a</text><text xml:space="preserve" font-family="SourceSansPro-Regular,Source Sans Pro" font-size="32.0" fill="#AD1932" transform="matrix(1.00, 0.00, -0.00, -1.00, 352.0, 328.2)">s</text><text xml:space="preserve" font-family="SourceSansPro-Regular,Source Sans Pro" font-size="32.0" fill="#AD1932" transform="matrix(1.00, 0.00, -0.00, -1.00, 365.4, 328.2)">i</text><text xml:space="preserve" font-family="SourceSansPro-Regular,Source Sans Pro" font-size="32.0" fill="#AD1932" transform="matrix(1.00, 0.00, -0.00, -1.00, 373.2, 328.2)">z</text><text xml:space="preserve" font-family="SourceSansPro-Regular,Source Sans Pro" font-size="32.0" fill="#AD1932" transform="matrix(1.00, 0.00, -0.00, -1.00, 386.5, 328.2)">e</text><text xml:space="preserve" font-family="SourceSansPro-Regular,Source Sans Pro" font-size="32.0" fill="#AD1932" transform="matrix(1.00, 0.00, -0.00, -1.00, 402.4, 328.2)"> </text><image xlink:href="D1FC67069380CB6F73C63FB760474C89.png" width="301.00" height="35.00" transform="matrix(1.00, 0.00, -0.00, -1.00, 407.0, 354.0)"></image><text xml:space="preserve" font-family="SourceSansPro-It,Source Sans Pro" font-style="italic" font-size="32.0" fill="#AD1932" transform="matrix(1.00, 0.00, -0.00, -1.00, 408.8, 328.2)">g</text><text xml:space="preserve" font-family="SourceSansPro-It,Source Sans Pro" font-style="italic" font-size="32.0" fill="#AD1932" transform="matrix(1.00, 0.00, -0.00, -1.00, 425.8, 328.2)">r</text><text xml:space="preserve" font-family="SourceSansPro-It,Source Sans Pro" font-style="italic" font-size="32.0" fill="#AD1932" transform="matrix(1.00, 0.00, -0.00, -1.00, 436.5, 328.2)">a</text><text xml:space="preserve" font-family="SourceSansPro-It,Source Sans Pro" font-style="italic" font-size="32.0" fill="#AD1932" transform="matrix(1.00, 0.00, -0.00, -1.00, 453.6, 328.2)">p</text><text xml:space="preserve" font-family="SourceSansPro-It,Source Sans Pro" font-style="italic" font-size="32.0" fill="#AD1932" transform="matrix(1.00, 0.00, -0.00, -1.00, 470.8, 328.2)">h</text><text xml:space="preserve" font-family="SourceSansPro-It,Source Sans Pro" font-style="italic" font-size="32.0" fill="#AD1932" transform="matrix(1.00, 0.00, -0.00, -1.00, 487.4, 328.2)">i</text><text xml:space="preserve" font-family="SourceSansPro-It,Source Sans Pro" font-style="italic" font-size="32.0" fill="#AD1932" transform="matrix(1.00, 0.00, -0.00, -1.00, 495.0, 328.2)">c</text><text xml:space="preserve" font-family="SourceSansPro-It,Source Sans Pro" font-style="italic" font-size="32.0" fill="#AD1932" transform="matrix(1.00, 0.00, -0.00, -1.00, 508.4, 328.2)">a</text><text xml:space="preserve" font-family="SourceSansPro-It,Source Sans Pro" font-style="italic" font-size="32.0" fill="#AD1932" transform="matrix(1.00, 0.00, -0.00, -1.00, 525.6, 328.2)">l</text><text xml:space="preserve" font-family="SourceSansPro-It,Source Sans Pro" font-style="italic" font-size="32.0" fill="#AD1932" transform="matrix(1.00, 0.00, -0.00, -1.00, 533.5, 328.2)"> </text><text xml:space="preserve" font-family="SourceSansPro-It,Source Sans Pro" font-style="italic" font-size="32.0" fill="#AD1932" transform="matrix(1.00, 0.00, -0.00, -1.00, 539.7, 328.2)">p</text><text xml:space="preserve" font-family="SourceSansPro-It,Source Sans Pro" font-style="italic" font-size="32.0" fill="#AD1932" transform="matrix(1.00, 0.00, -0.00, -1.00, 556.8, 328.2)">r</text><text xml:space="preserve" font-family="SourceSansPro-It,Source Sans Pro" font-style="italic" font-size="32.0" fill="#AD1932" transform="matrix(1.00, 0.00, -0.00, -1.00, 567.4, 328.2)">e</text><text xml:space="preserve" font-family="SourceSansPro-It,Source Sans Pro" font-style="italic" font-size="32.0" fill="#AD1932" transform="matrix(1.00, 0.00, -0.00, -1.00, 582.8, 328.2)">s</text><text xml:space="preserve" font-family="SourceSansPro-It,Source Sans Pro" font-style="italic" font-size="32.0" fill="#AD1932" transform="matrix(1.00, 0.00, -0.00, -1.00, 595.7, 328.2)">e</text><text xml:space="preserve" font-family="SourceSansPro-It,Source Sans Pro" font-style="italic" font-size="32.0" fill="#AD1932" transform="matrix(1.00, 0.00, -0.00, -1.00, 611.1, 328.2)">n</text><text xml:space="preserve" font-family="SourceSansPro-It,Source Sans Pro" font-style="italic" font-size="32.0" fill="#AD1932" transform="matrix(1.00, 0.00, -0.00, -1.00, 627.9, 328.2)">t</text><text xml:space="preserve" font-family="SourceSansPro-It,Source Sans Pro" font-style="italic" font-size="32.0" fill="#AD1932" transform="matrix(1.00, 0.00, -0.00, -1.00, 637.9, 328.2)">a</text><text xml:space="preserve" font-family="SourceSansPro-It,Source Sans Pro" font-style="italic" font-size="32.0" fill="#AD1932" transform="matrix(1.00, 0.00, -0.00, -1.00, 655.1, 328.2)">t</text><text xml:space="preserve" font-family="SourceSansPro-It,Source Sans Pro" font-style="italic" font-size="32.0" fill="#AD1932" transform="matrix(1.00, 0.00, -0.00, -1.00, 665.5, 328.2)">i</text><text xml:space="preserve" font-family="SourceSansPro-It,Source Sans Pro" font-style="italic" font-size="32.0" fill="#AD1932" transform="matrix(1.00, 0.00, -0.00, -1.00, 673.1, 328.2)">o</text><text xml:space="preserve" font-family="SourceSansPro-It,Source Sans Pro" font-style="italic" font-size="32.0" fill="#AD1932" transform="matrix(1.00, 0.00, -0.00, -1.00, 689.6, 328.2)">n</text><image xlink:href="3AC504A3E5B2127C50830DD7FE95B058.png" width="20.00" height="21.00" transform="matrix(1.00, 0.00, -0.00, -1.00, 68.0, 234.0)"></image><image xlink:href="../../99A5FB03-DE1B-4B4A-AE6D-D0C074086E95/assets/2EAA803481B4829669A1AED6584C7A6E.png" width="132.00" height="132.00" transform="matrix(0.12, 0.00, -0.00, -0.12, 69.0, 231.5)"></image><image xlink:href="F342A1EC2C503D5A0B8D86CB2CC90399.png" width="721.00" height="39.00" transform="matrix(1.00, 0.00, -0.00, -1.00, 103.0, 240.0)"></image><text xml:space="preserve" font-family="SourceSansPro-Regular,Source Sans Pro" font-size="36.0" fill="#4E5B3E" transform="matrix(1.00, 0.00, -0.00, -1.00, 103.0, 211.8)">S</text><text xml:space="preserve" font-family="SourceSansPro-Regular,Source Sans Pro" font-size="36.0" fill="#4E5B3E" transform="matrix(1.00, 0.00, -0.00, -1.00, 122.2, 211.8)">m</text><text xml:space="preserve" font-family="SourceSansPro-Regular,Source Sans Pro" font-size="36.0" fill="#4E5B3E" transform="matrix(1.00, 0.00, -0.00, -1.00, 152.1, 211.8)">a</text><text xml:space="preserve" font-family="SourceSansPro-Regular,Source Sans Pro" font-size="36.0" fill="#4E5B3E" transform="matrix(1.00, 0.00, -0.00, -1.00, 170.5, 211.8)">r</text><text xml:space="preserve" font-family="SourceSansPro-Regular,Source Sans Pro" font-size="36.0" fill="#4E5B3E" transform="matrix(1.00, 0.00, -0.00, -1.00, 183.0, 211.8)">t</text><text xml:space="preserve" font-family="SourceSansPro-Regular,Source Sans Pro" font-size="36.0" fill="#4E5B3E" transform="matrix(1.00, 0.00, -0.00, -1.00, 195.2, 211.8)"> </text><text xml:space="preserve" font-family="SourceSansPro-Regular,Source Sans Pro" font-size="36.0" fill="#4E5B3E" transform="matrix(1.00, 0.00, -0.00, -1.00, 202.4, 211.8)">i</text><text xml:space="preserve" font-family="SourceSansPro-Regular,Source Sans Pro" font-size="36.0" fill="#4E5B3E" transform="matrix(1.00, 0.00, -0.00, -1.00, 211.3, 211.8)">n</text><text xml:space="preserve" font-family="SourceSansPro-Regular,Source Sans Pro" font-size="36.0" fill="#4E5B3E" transform="matrix(1.00, 0.00, -0.00, -1.00, 231.0, 211.8)">t</text><text xml:space="preserve" font-family="SourceSansPro-Regular,Source Sans Pro" font-size="36.0" fill="#4E5B3E" transform="matrix(1.00, 0.00, -0.00, -1.00, 242.8, 211.8)">e</text><text xml:space="preserve" font-family="SourceSansPro-Regular,Source Sans Pro" font-size="36.0" fill="#4E5B3E" transform="matrix(1.00, 0.00, -0.00, -1.00, 260.3, 211.8)">g</text><text xml:space="preserve" font-family="SourceSansPro-Regular,Source Sans Pro" font-size="36.0" fill="#4E5B3E" transform="matrix(1.00, 0.00, -0.00, -1.00, 278.4, 211.8)">r</text><text xml:space="preserve" font-family="SourceSansPro-Regular,Source Sans Pro" font-size="36.0" fill="#4E5B3E" transform="matrix(1.00, 0.00, -0.00, -1.00, 290.0, 211.8)">a</text><text xml:space="preserve" font-family="SourceSansPro-Regular,Source Sans Pro" font-size="36.0" fill="#4E5B3E" transform="matrix(1.00, 0.00, -0.00, -1.00, 308.5, 211.8)">t</text><text xml:space="preserve" font-family="SourceSansPro-Regular,Source Sans Pro" font-size="36.0" fill="#4E5B3E" transform="matrix(1.00, 0.00, -0.00, -1.00, 320.6, 211.8)">i</text><text xml:space="preserve" font-family="SourceSansPro-Regular,Source Sans Pro" font-size="36.0" fill="#4E5B3E" transform="matrix(1.00, 0.00, -0.00, -1.00, 329.5, 211.8)">o</text><text xml:space="preserve" font-family="SourceSansPro-Regular,Source Sans Pro" font-size="36.0" fill="#4E5B3E" transform="matrix(1.00, 0.00, -0.00, -1.00, 349.0, 211.8)">n</text><text xml:space="preserve" font-family="SourceSansPro-Regular,Source Sans Pro" font-size="36.0" fill="#4E5B3E" transform="matrix(1.00, 0.00, -0.00, -1.00, 368.7, 211.8)"> </text><text xml:space="preserve" font-family="SourceSansPro-Regular,Source Sans Pro" font-size="36.0" fill="#4E5B3E" transform="matrix(1.00, 0.00, -0.00, -1.00, 376.0, 211.8)">o</text><text xml:space="preserve" font-family="SourceSansPro-Regular,Source Sans Pro" font-size="36.0" fill="#4E5B3E" transform="matrix(1.00, 0.00, -0.00, -1.00, 395.5, 211.8)">f</text><text xml:space="preserve" font-family="SourceSansPro-Regular,Source Sans Pro" font-size="36.0" fill="#4E5B3E" transform="matrix(1.00, 0.00, -0.00, -1.00, 406.0, 211.8)"> </text><text xml:space="preserve" font-family="SourceSansPro-Regular,Source Sans Pro" font-size="36.0" fill="#4E5B3E" transform="matrix(1.00, 0.00, -0.00, -1.00, 413.2, 211.8)">i</text><text xml:space="preserve" font-family="SourceSansPro-Regular,Source Sans Pro" font-size="36.0" fill="#4E5B3E" transform="matrix(1.00, 0.00, -0.00, -1.00, 422.1, 211.8)">n</text><text xml:space="preserve" font-family="SourceSansPro-Regular,Source Sans Pro" font-size="36.0" fill="#4E5B3E" transform="matrix(1.00, 0.00, -0.00, -1.00, 441.8, 211.8)">f</text><text xml:space="preserve" font-family="SourceSansPro-Regular,Source Sans Pro" font-size="36.0" fill="#4E5B3E" transform="matrix(1.00, 0.00, -0.00, -1.00, 451.9, 211.8)">o</text><text xml:space="preserve" font-family="SourceSansPro-Regular,Source Sans Pro" font-size="36.0" fill="#4E5B3E" transform="matrix(1.00, 0.00, -0.00, -1.00, 471.5, 211.8)">r</text><text xml:space="preserve" font-family="SourceSansPro-Regular,Source Sans Pro" font-size="36.0" fill="#4E5B3E" transform="matrix(1.00, 0.00, -0.00, -1.00, 484.0, 211.8)">m</text><text xml:space="preserve" font-family="SourceSansPro-Regular,Source Sans Pro" font-size="36.0" fill="#4E5B3E" transform="matrix(1.00, 0.00, -0.00, -1.00, 513.8, 211.8)">a</text><text xml:space="preserve" font-family="SourceSansPro-Regular,Source Sans Pro" font-size="36.0" fill="#4E5B3E" transform="matrix(1.00, 0.00, -0.00, -1.00, 532.2, 211.8)">t</text><text xml:space="preserve" font-family="SourceSansPro-Regular,Source Sans Pro" font-size="36.0" fill="#4E5B3E" transform="matrix(1.00, 0.00, -0.00, -1.00, 544.4, 211.8)">i</text><text xml:space="preserve" font-family="SourceSansPro-Regular,Source Sans Pro" font-size="36.0" fill="#4E5B3E" transform="matrix(1.00, 0.00, -0.00, -1.00, 553.3, 211.8)">o</text><text xml:space="preserve" font-family="SourceSansPro-Regular,Source Sans Pro" font-size="36.0" fill="#4E5B3E" transform="matrix(1.00, 0.00, -0.00, -1.00, 572.8, 211.8)">n</text><text xml:space="preserve" font-family="SourceSansPro-Regular,Source Sans Pro" font-size="36.0" fill="#4E5B3E" transform="matrix(1.00, 0.00, -0.00, -1.00, 592.5, 211.8)"> </text><text xml:space="preserve" font-family="SourceSansPro-Regular,Source Sans Pro" font-size="36.0" fill="#4E5B3E" transform="matrix(1.00, 0.00, -0.00, -1.00, 599.7, 211.8)">a</text><text xml:space="preserve" font-family="SourceSansPro-Regular,Source Sans Pro" font-size="36.0" fill="#4E5B3E" transform="matrix(1.00, 0.00, -0.00, -1.00, 618.2, 211.8)">b</text><text xml:space="preserve" font-family="SourceSansPro-Regular,Source Sans Pro" font-size="36.0" fill="#4E5B3E" transform="matrix(1.00, 0.00, -0.00, -1.00, 638.1, 211.8)">o</text><text xml:space="preserve" font-family="SourceSansPro-Regular,Source Sans Pro" font-size="36.0" fill="#4E5B3E" transform="matrix(1.00, 0.00, -0.00, -1.00, 657.7, 211.8)">u</text><text xml:space="preserve" font-family="SourceSansPro-Regular,Source Sans Pro" font-size="36.0" fill="#4E5B3E" transform="matrix(1.00, 0.00, -0.00, -1.00, 677.2, 211.8)">t</text><text xml:space="preserve" font-family="SourceSansPro-Regular,Source Sans Pro" font-size="36.0" fill="#4E5B3E" transform="matrix(1.00, 0.00, -0.00, -1.00, 689.4, 211.8)"> </text><text xml:space="preserve" font-family="SourceSansPro-Regular,Source Sans Pro" font-size="36.0" fill="#4E5B3E" transform="matrix(1.00, 0.00, -0.00, -1.00, 696.7, 211.8)">s</text><text xml:space="preserve" font-family="SourceSansPro-Regular,Source Sans Pro" font-size="36.0" fill="#4E5B3E" transform="matrix(1.00, 0.00, -0.00, -1.00, 711.8, 211.8)">t</text><text xml:space="preserve" font-family="SourceSansPro-Regular,Source Sans Pro" font-size="36.0" fill="#4E5B3E" transform="matrix(1.00, 0.00, -0.00, -1.00, 723.7, 211.8)">u</text><text xml:space="preserve" font-family="SourceSansPro-Regular,Source Sans Pro" font-size="36.0" fill="#4E5B3E" transform="matrix(1.00, 0.00, -0.00, -1.00, 743.3, 211.8)">d</text><text xml:space="preserve" font-family="SourceSansPro-Regular,Source Sans Pro" font-size="36.0" fill="#4E5B3E" transform="matrix(1.00, 0.00, -0.00, -1.00, 763.3, 211.8)">e</text><text xml:space="preserve" font-family="SourceSansPro-Regular,Source Sans Pro" font-size="36.0" fill="#4E5B3E" transform="matrix(1.00, 0.00, -0.00, -1.00, 781.1, 211.8)">n</text><text xml:space="preserve" font-family="SourceSansPro-Regular,Source Sans Pro" font-size="36.0" fill="#4E5B3E" transform="matrix(1.00, 0.00, -0.00, -1.00, 800.8, 211.8)">t</text><text xml:space="preserve" font-family="SourceSansPro-Regular,Source Sans Pro" font-size="36.0" fill="#4E5B3E" transform="matrix(1.00, 0.00, -0.00, -1.00, 813.5, 211.8)">,</text><text xml:space="preserve" font-family="SourceSansPro-Regular,Source Sans Pro" font-size="36.0" fill="#4E5B3E" transform="matrix(1.00, 0.00, -0.00, -1.00, 822.5, 211.8)"> </text><image xlink:href="3F7D4E77C1A15B0AA1821D008B53971D.png" width="656.00" height="38.00" transform="matrix(1.00, 0.00, -0.00, -1.00, 103.0, 195.0)"></image><text xml:space="preserve" font-family="SourceSansPro-Regular,Source Sans Pro" font-size="36.0" fill="#4E5B3E" transform="matrix(1.00, 0.00, -0.00, -1.00, 103.0, 166.8)">c</text><text xml:space="preserve" font-family="SourceSansPro-Regular,Source Sans Pro" font-size="36.0" fill="#4E5B3E" transform="matrix(1.00, 0.00, -0.00, -1.00, 118.7, 166.8)">o</text><text xml:space="preserve" font-family="SourceSansPro-Regular,Source Sans Pro" font-size="36.0" fill="#4E5B3E" transform="matrix(1.00, 0.00, -0.00, -1.00, 138.2, 166.8)">n</text><text xml:space="preserve" font-family="SourceSansPro-Regular,Source Sans Pro" font-size="36.0" fill="#4E5B3E" transform="matrix(1.00, 0.00, -0.00, -1.00, 157.9, 166.8)">t</text><text xml:space="preserve" font-family="SourceSansPro-Regular,Source Sans Pro" font-size="36.0" fill="#4E5B3E" transform="matrix(1.00, 0.00, -0.00, -1.00, 169.7, 166.8)">e</text><text xml:space="preserve" font-family="SourceSansPro-Regular,Source Sans Pro" font-size="36.0" fill="#4E5B3E" transform="matrix(1.00, 0.00, -0.00, -1.00, 187.5, 166.8)">n</text><text xml:space="preserve" font-family="SourceSansPro-Regular,Source Sans Pro" font-size="36.0" fill="#4E5B3E" transform="matrix(1.00, 0.00, -0.00, -1.00, 207.2, 166.8)">t</text><text xml:space="preserve" font-family="SourceSansPro-Regular,Source Sans Pro" font-size="36.0" fill="#4E5B3E" transform="matrix(1.00, 0.00, -0.00, -1.00, 219.9, 166.8)">,</text><text xml:space="preserve" font-family="SourceSansPro-Regular,Source Sans Pro" font-size="36.0" fill="#4E5B3E" transform="matrix(1.00, 0.00, -0.00, -1.00, 228.9, 166.8)"> </text><text xml:space="preserve" font-family="SourceSansPro-Regular,Source Sans Pro" font-size="36.0" fill="#4E5B3E" transform="matrix(1.00, 0.00, -0.00, -1.00, 236.1, 166.8)">s</text><text xml:space="preserve" font-family="SourceSansPro-Regular,Source Sans Pro" font-size="36.0" fill="#4E5B3E" transform="matrix(1.00, 0.00, -0.00, -1.00, 251.2, 166.8)">t</text><text xml:space="preserve" font-family="SourceSansPro-Regular,Source Sans Pro" font-size="36.0" fill="#4E5B3E" transform="matrix(1.00, 0.00, -0.00, -1.00, 262.7, 166.8)">a</text><text xml:space="preserve" font-family="SourceSansPro-Regular,Source Sans Pro" font-size="36.0" fill="#4E5B3E" transform="matrix(1.00, 0.00, -0.00, -1.00, 281.2, 166.8)">n</text><text xml:space="preserve" font-family="SourceSansPro-Regular,Source Sans Pro" font-size="36.0" fill="#4E5B3E" transform="matrix(1.00, 0.00, -0.00, -1.00, 300.9, 166.8)">d</text><text xml:space="preserve" font-family="SourceSansPro-Regular,Source Sans Pro" font-size="36.0" fill="#4E5B3E" transform="matrix(1.00, 0.00, -0.00, -1.00, 320.8, 166.8)">a</text><text xml:space="preserve" font-family="SourceSansPro-Regular,Source Sans Pro" font-size="36.0" fill="#4E5B3E" transform="matrix(1.00, 0.00, -0.00, -1.00, 339.3, 166.8)">r</text><text xml:space="preserve" font-family="SourceSansPro-Regular,Source Sans Pro" font-size="36.0" fill="#4E5B3E" transform="matrix(1.00, 0.00, -0.00, -1.00, 351.4, 166.8)">d</text><text xml:space="preserve" font-family="SourceSansPro-Regular,Source Sans Pro" font-size="36.0" fill="#4E5B3E" transform="matrix(1.00, 0.00, -0.00, -1.00, 371.4, 166.8)">s</text><text xml:space="preserve" font-family="SourceSansPro-Regular,Source Sans Pro" font-size="36.0" fill="#4E5B3E" transform="matrix(1.00, 0.00, -0.00, -1.00, 386.5, 166.8)"> </text><text xml:space="preserve" font-family="SourceSansPro-Regular,Source Sans Pro" font-size="36.0" fill="#4E5B3E" transform="matrix(1.00, 0.00, -0.00, -1.00, 393.7, 166.8)">a</text><text xml:space="preserve" font-family="SourceSansPro-Regular,Source Sans Pro" font-size="36.0" fill="#4E5B3E" transform="matrix(1.00, 0.00, -0.00, -1.00, 412.2, 166.8)">n</text><text xml:space="preserve" font-family="SourceSansPro-Regular,Source Sans Pro" font-size="36.0" fill="#4E5B3E" transform="matrix(1.00, 0.00, -0.00, -1.00, 431.9, 166.8)">d</text><text xml:space="preserve" font-family="SourceSansPro-Regular,Source Sans Pro" font-size="36.0" fill="#4E5B3E" transform="matrix(1.00, 0.00, -0.00, -1.00, 451.8, 166.8)"> </text><text xml:space="preserve" font-family="SourceSansPro-Regular,Source Sans Pro" font-size="36.0" fill="#4E5B3E" transform="matrix(1.00, 0.00, -0.00, -1.00, 459.1, 166.8)">t</text><text xml:space="preserve" font-family="SourceSansPro-Regular,Source Sans Pro" font-size="36.0" fill="#4E5B3E" transform="matrix(1.00, 0.00, -0.00, -1.00, 470.9, 166.8)">e</text><text xml:space="preserve" font-family="SourceSansPro-Regular,Source Sans Pro" font-size="36.0" fill="#4E5B3E" transform="matrix(1.00, 0.00, -0.00, -1.00, 488.3, 166.8)">a</text><text xml:space="preserve" font-family="SourceSansPro-Regular,Source Sans Pro" font-size="36.0" fill="#4E5B3E" transform="matrix(1.00, 0.00, -0.00, -1.00, 506.7, 166.8)">c</text><text xml:space="preserve" font-family="SourceSansPro-Regular,Source Sans Pro" font-size="36.0" fill="#4E5B3E" transform="matrix(1.00, 0.00, -0.00, -1.00, 523.1, 166.8)">h</text><text xml:space="preserve" font-family="SourceSansPro-Regular,Source Sans Pro" font-size="36.0" fill="#4E5B3E" transform="matrix(1.00, 0.00, -0.00, -1.00, 542.7, 166.8)">e</text><text xml:space="preserve" font-family="SourceSansPro-Regular,Source Sans Pro" font-size="36.0" fill="#4E5B3E" transform="matrix(1.00, 0.00, -0.00, -1.00, 560.6, 166.8)">r</text><text xml:space="preserve" font-family="SourceSansPro-Regular,Source Sans Pro" font-size="36.0" fill="#4E5B3E" transform="matrix(1.00, 0.00, -0.00, -1.00, 573.1, 166.8)"> </text><text xml:space="preserve" font-family="SourceSansPro-Regular,Source Sans Pro" font-size="36.0" fill="#4E5B3E" transform="matrix(1.00, 0.00, -0.00, -1.00, 580.3, 166.8)">p</text><text xml:space="preserve" font-family="SourceSansPro-Regular,Source Sans Pro" font-size="36.0" fill="#4E5B3E" transform="matrix(1.00, 0.00, -0.00, -1.00, 600.3, 166.8)">r</text><text xml:space="preserve" font-family="SourceSansPro-Regular,Source Sans Pro" font-size="36.0" fill="#4E5B3E" transform="matrix(1.00, 0.00, -0.00, -1.00, 612.4, 166.8)">e</text><text xml:space="preserve" font-family="SourceSansPro-Regular,Source Sans Pro" font-size="36.0" fill="#4E5B3E" transform="matrix(1.00, 0.00, -0.00, -1.00, 630.3, 166.8)">f</text><text xml:space="preserve" font-family="SourceSansPro-Regular,Source Sans Pro" font-size="36.0" fill="#4E5B3E" transform="matrix(1.00, 0.00, -0.00, -1.00, 640.4, 166.8)">e</text><text xml:space="preserve" font-family="SourceSansPro-Regular,Source Sans Pro" font-size="36.0" fill="#4E5B3E" transform="matrix(1.00, 0.00, -0.00, -1.00, 658.3, 166.8)">r</text><text xml:space="preserve" font-family="SourceSansPro-Regular,Source Sans Pro" font-size="36.0" fill="#4E5B3E" transform="matrix(1.00, 0.00, -0.00, -1.00, 670.4, 166.8)">e</text><text xml:space="preserve" font-family="SourceSansPro-Regular,Source Sans Pro" font-size="36.0" fill="#4E5B3E" transform="matrix(1.00, 0.00, -0.00, -1.00, 688.3, 166.8)">n</text><text xml:space="preserve" font-family="SourceSansPro-Regular,Source Sans Pro" font-size="36.0" fill="#4E5B3E" transform="matrix(1.00, 0.00, -0.00, -1.00, 708.0, 166.8)">c</text><text xml:space="preserve" font-family="SourceSansPro-Regular,Source Sans Pro" font-size="36.0" fill="#4E5B3E" transform="matrix(1.00, 0.00, -0.00, -1.00, 723.6, 166.8)">e</text><text xml:space="preserve" font-family="SourceSansPro-Regular,Source Sans Pro" font-size="36.0" fill="#4E5B3E" transform="matrix(1.00, 0.00, -0.00, -1.00, 741.5, 166.8)">s</text></g></svg>