<?xml version="1.0" encoding="UTF-8" standalone="no"?><svg xmlns="http://www.w3.org/2000/svg" xmlns:xlink="http://www.w3.org/1999/xlink" clip-rule="evenodd" stroke-miterlimit="10" viewBox="0 0 444 36"><desc>SVG generated by Keynote</desc><defs></defs><g transform="matrix(1.00, 0.00, -0.00, -1.00, 0.0, 36.0)"><image xlink:href="39D7E23F4C2DA45D65F265941F20F0BB.png" width="18.00" height="18.00" transform="matrix(1.00, 0.00, -0.00, -1.00, 0.0, 30.0)"></image><image xlink:href="../../99A5FB03-DE1B-4B4A-AE6D-D0C074086E95/assets/2EAA803481B4829669A1AED6584C7A6E.png" width="132.00" height="132.00" transform="matrix(0.10, 0.00, -0.00, -0.10, 1.0, 27.4)"></image><image xlink:href="073BE277722DE79AE10075DBAF9B7204.png" width="409.00" height="33.00" transform="matrix(1.00, 0.00, -0.00, -1.00, 33.0, 35.0)"></image><text xml:space="preserve" font-family="SourceSansPro-Regular,Source Sans Pro" font-size="30.0" fill="#4E5B3E" transform="matrix(1.00, 0.00, -0.00, -1.00, 35.0, 11.1)">Y</text><text xml:space="preserve" font-family="SourceSansPro-Regular,Source Sans Pro" font-size="30.0" fill="#4E5B3E" transform="matrix(1.00, 0.00, -0.00, -1.00, 48.1, 11.1)">o</text><text xml:space="preserve" font-family="SourceSansPro-Regular,Source Sans Pro" font-size="30.0" fill="#4E5B3E" transform="matrix(1.00, 0.00, -0.00, -1.00, 64.3, 11.1)">u</text><text xml:space="preserve" font-family="SourceSansPro-Regular,Source Sans Pro" font-size="30.0" fill="#4E5B3E" transform="matrix(1.00, 0.00, -0.00, -1.00, 80.6, 11.1)">r</text><text xml:space="preserve" font-family="SourceSansPro-Regular,Source Sans Pro" font-size="30.0" fill="#4E5B3E" transform="matrix(1.00, 0.00, -0.00, -1.00, 91.0, 11.1)"> </text><text xml:space="preserve" font-family="SourceSansPro-Regular,Source Sans Pro" font-size="30.0" fill="#4E5B3E" transform="matrix(1.00, 0.00, -0.00, -1.00, 97.1, 11.1)">h</text><text xml:space="preserve" font-family="SourceSansPro-Regular,Source Sans Pro" font-size="30.0" fill="#4E5B3E" transform="matrix(1.00, 0.00, -0.00, -1.00, 113.4, 11.1)">o</text><text xml:space="preserve" font-family="SourceSansPro-Regular,Source Sans Pro" font-size="30.0" fill="#4E5B3E" transform="matrix(1.00, 0.00, -0.00, -1.00, 129.7, 11.1)">m</text><text xml:space="preserve" font-family="SourceSansPro-Regular,Source Sans Pro" font-size="30.0" fill="#4E5B3E" transform="matrix(1.00, 0.00, -0.00, -1.00, 154.6, 11.1)">e</text><text xml:space="preserve" font-family="SourceSansPro-Regular,Source Sans Pro" font-size="30.0" fill="#4E5B3E" transform="matrix(1.00, 0.00, -0.00, -1.00, 169.4, 11.1)"> </text><text xml:space="preserve" font-family="SourceSansPro-Regular,Source Sans Pro" font-size="30.0" fill="#4E5B3E" transform="matrix(1.00, 0.00, -0.00, -1.00, 175.5, 11.1)">d</text><text xml:space="preserve" font-family="SourceSansPro-Regular,Source Sans Pro" font-size="30.0" fill="#4E5B3E" transform="matrix(1.00, 0.00, -0.00, -1.00, 192.1, 11.1)">i</text><text xml:space="preserve" font-family="SourceSansPro-Regular,Source Sans Pro" font-size="30.0" fill="#4E5B3E" transform="matrix(1.00, 0.00, -0.00, -1.00, 199.5, 11.1)">g</text><text xml:space="preserve" font-family="SourceSansPro-Regular,Source Sans Pro" font-size="30.0" fill="#4E5B3E" transform="matrix(1.00, 0.00, -0.00, -1.00, 214.6, 11.1)">i</text><text xml:space="preserve" font-family="SourceSansPro-Regular,Source Sans Pro" font-size="30.0" fill="#4E5B3E" transform="matrix(1.00, 0.00, -0.00, -1.00, 222.0, 11.1)">t</text><text xml:space="preserve" font-family="SourceSansPro-Regular,Source Sans Pro" font-size="30.0" fill="#4E5B3E" transform="matrix(1.00, 0.00, -0.00, -1.00, 231.6, 11.1)">a</text><text xml:space="preserve" font-family="SourceSansPro-Regular,Source Sans Pro" font-size="30.0" fill="#4E5B3E" transform="matrix(1.00, 0.00, -0.00, -1.00, 247.0, 11.1)">l</text><text xml:space="preserve" font-family="SourceSansPro-Regular,Source Sans Pro" font-size="30.0" fill="#4E5B3E" transform="matrix(1.00, 0.00, -0.00, -1.00, 254.6, 11.1)"> </text><text xml:space="preserve" font-family="SourceSansPro-Regular,Source Sans Pro" font-size="30.0" fill="#4E5B3E" transform="matrix(1.00, 0.00, -0.00, -1.00, 260.7, 11.1)">p</text><text xml:space="preserve" font-family="SourceSansPro-Regular,Source Sans Pro" font-size="30.0" fill="#4E5B3E" transform="matrix(1.00, 0.00, -0.00, -1.00, 277.3, 11.1)">h</text><text xml:space="preserve" font-family="SourceSansPro-Regular,Source Sans Pro" font-size="30.0" fill="#4E5B3E" transform="matrix(1.00, 0.00, -0.00, -1.00, 293.7, 11.1)">o</text><text xml:space="preserve" font-family="SourceSansPro-Regular,Source Sans Pro" font-size="30.0" fill="#4E5B3E" transform="matrix(1.00, 0.00, -0.00, -1.00, 309.9, 11.1)">t</text><text xml:space="preserve" font-family="SourceSansPro-Regular,Source Sans Pro" font-size="30.0" fill="#4E5B3E" transform="matrix(1.00, 0.00, -0.00, -1.00, 319.8, 11.1)">o</text><text xml:space="preserve" font-family="SourceSansPro-Regular,Source Sans Pro" font-size="30.0" fill="#4E5B3E" transform="matrix(1.00, 0.00, -0.00, -1.00, 336.0, 11.1)"> </text><text xml:space="preserve" font-family="SourceSansPro-Regular,Source Sans Pro" font-size="30.0" fill="#4E5B3E" transform="matrix(1.00, 0.00, -0.00, -1.00, 342.1, 11.1)">l</text><text xml:space="preserve" font-family="SourceSansPro-Regular,Source Sans Pro" font-size="30.0" fill="#4E5B3E" transform="matrix(1.00, 0.00, -0.00, -1.00, 349.7, 11.1)">i</text><text xml:space="preserve" font-family="SourceSansPro-Regular,Source Sans Pro" font-size="30.0" fill="#4E5B3E" transform="matrix(1.00, 0.00, -0.00, -1.00, 357.1, 11.1)">b</text><text xml:space="preserve" font-family="SourceSansPro-Regular,Source Sans Pro" font-size="30.0" fill="#4E5B3E" transform="matrix(1.00, 0.00, -0.00, -1.00, 373.8, 11.1)">r</text><text xml:space="preserve" font-family="SourceSansPro-Regular,Source Sans Pro" font-size="30.0" fill="#4E5B3E" transform="matrix(1.00, 0.00, -0.00, -1.00, 383.4, 11.1)">a</text><text xml:space="preserve" font-family="SourceSansPro-Regular,Source Sans Pro" font-size="30.0" fill="#4E5B3E" transform="matrix(1.00, 0.00, -0.00, -1.00, 398.8, 11.1)">r</text><text xml:space="preserve" font-family="SourceSansPro-Regular,Source Sans Pro" font-size="30.0" fill="#4E5B3E" transform="matrix(1.00, 0.00, -0.00, -1.00, 409.8, 11.1)">y</text><text xml:space="preserve" font-family="SourceSansPro-Regular,Source Sans Pro" font-size="30.0" fill="#4E5B3E" transform="matrix(1.00, 0.00, -0.00, -1.00, 423.8, 11.1)">!</text><text xml:space="preserve" font-family="SourceSansPro-Regular,Source Sans Pro" font-size="30.0" fill="#4E5B3E" transform="matrix(1.00, 0.00, -0.00, -1.00, 432.4, 11.1)">!</text></g></svg>