<?xml version="1.0" encoding="UTF-8" standalone="no"?><svg xmlns="http://www.w3.org/2000/svg" xmlns:xlink="http://www.w3.org/1999/xlink" clip-rule="evenodd" stroke-miterlimit="10" viewBox="0 0 811 61"><desc>SVG generated by Keynote</desc><defs></defs><g transform="matrix(1.00, 0.00, -0.00, -1.00, 0.0, 61.0)"><image xlink:href="../../82430A1F-FBD8-4BC4-B9B8-D62EF3271ADF/assets/EB4B76BBD20CB6A19FEC08611CC82117.png" width="808.00" height="58.00" transform="matrix(1.00, 0.00, -0.00, -1.00, 1.0, 60.0)"></image><text xml:space="preserve" font-family="ArialMT,Arial" font-size="56.0" fill="#4E5B3E" transform="matrix(1.00, 0.00, -0.00, -1.00, 2.9, 16.4)">A</text><text xml:space="preserve" font-family="ArialMT,Arial" font-size="56.0" fill="#4E5B3E" transform="matrix(1.00, 0.00, -0.00, -1.00, 40.2, 16.4)">n</text><text xml:space="preserve" font-family="ArialMT,Arial" font-size="56.0" fill="#4E5B3E" transform="matrix(1.00, 0.00, -0.00, -1.00, 71.4, 16.4)">d</text><text xml:space="preserve" font-family="ArialMT,Arial" font-size="56.0" fill="#4E5B3E" transform="matrix(1.00, 0.00, -0.00, -1.00, 102.5, 16.4)"> </text><text xml:space="preserve" font-family="ArialMT,Arial" font-size="56.0" fill="#4E5B3E" transform="matrix(1.00, 0.00, -0.00, -1.00, 118.1, 16.4)">B</text><text xml:space="preserve" font-family="ArialMT,Arial" font-size="56.0" fill="#4E5B3E" transform="matrix(1.00, 0.00, -0.00, -1.00, 155.4, 16.4)">r</text><text xml:space="preserve" font-family="ArialMT,Arial" font-size="56.0" fill="#4E5B3E" transform="matrix(1.00, 0.00, -0.00, -1.00, 174.1, 16.4)">i</text><text xml:space="preserve" font-family="ArialMT,Arial" font-size="56.0" fill="#4E5B3E" transform="matrix(1.00, 0.00, -0.00, -1.00, 186.5, 16.4)">n</text><text xml:space="preserve" font-family="ArialMT,Arial" font-size="56.0" fill="#4E5B3E" transform="matrix(1.00, 0.00, -0.00, -1.00, 217.7, 16.4)">g</text><text xml:space="preserve" font-family="ArialMT,Arial" font-size="56.0" fill="#4E5B3E" transform="matrix(1.00, 0.00, -0.00, -1.00, 248.8, 16.4)"> </text><text xml:space="preserve" font-family="ArialMT,Arial" font-size="56.0" fill="#4E5B3E" transform="matrix(1.00, 0.00, -0.00, -1.00, 264.4, 16.4)">S</text><text xml:space="preserve" font-family="ArialMT,Arial" font-size="56.0" fill="#4E5B3E" transform="matrix(1.00, 0.00, -0.00, -1.00, 301.7, 16.4)">o</text><text xml:space="preserve" font-family="ArialMT,Arial" font-size="56.0" fill="#4E5B3E" transform="matrix(1.00, 0.00, -0.00, -1.00, 332.9, 16.4)">m</text><text xml:space="preserve" font-family="ArialMT,Arial" font-size="56.0" fill="#4E5B3E" transform="matrix(1.00, 0.00, -0.00, -1.00, 379.5, 16.4)">e</text><text xml:space="preserve" font-family="ArialMT,Arial" font-size="56.0" fill="#4E5B3E" transform="matrix(1.00, 0.00, -0.00, -1.00, 410.7, 16.4)"> </text><text xml:space="preserve" font-family="ArialMT,Arial" font-size="56.0" fill="#4E5B3E" transform="matrix(1.00, 0.00, -0.00, -1.00, 426.3, 16.4)">J</text><text xml:space="preserve" font-family="ArialMT,Arial" font-size="56.0" fill="#4E5B3E" transform="matrix(1.00, 0.00, -0.00, -1.00, 454.3, 16.4)">o</text><text xml:space="preserve" font-family="ArialMT,Arial" font-size="56.0" fill="#4E5B3E" transform="matrix(1.00, 0.00, -0.00, -1.00, 485.4, 16.4)">y</text><text xml:space="preserve" font-family="ArialMT,Arial" font-size="56.0" fill="#4E5B3E" transform="matrix(1.00, 0.00, -0.00, -1.00, 513.4, 16.4)"> </text><text xml:space="preserve" font-family="ArialMT,Arial" font-size="56.0" fill="#4E5B3E" transform="matrix(1.00, 0.00, -0.00, -1.00, 529.0, 16.4)">t</text><text xml:space="preserve" font-family="ArialMT,Arial" font-size="56.0" fill="#4E5B3E" transform="matrix(1.00, 0.00, -0.00, -1.00, 544.5, 16.4)">o</text><text xml:space="preserve" font-family="ArialMT,Arial" font-size="56.0" fill="#4E5B3E" transform="matrix(1.00, 0.00, -0.00, -1.00, 575.7, 16.4)"> </text><text xml:space="preserve" font-family="ArialMT,Arial" font-size="56.0" fill="#4E5B3E" transform="matrix(1.00, 0.00, -0.00, -1.00, 591.2, 16.4)">L</text><text xml:space="preserve" font-family="ArialMT,Arial" font-size="56.0" fill="#4E5B3E" transform="matrix(1.00, 0.00, -0.00, -1.00, 622.4, 16.4)">e</text><text xml:space="preserve" font-family="ArialMT,Arial" font-size="56.0" fill="#4E5B3E" transform="matrix(1.00, 0.00, -0.00, -1.00, 653.5, 16.4)">a</text><text xml:space="preserve" font-family="ArialMT,Arial" font-size="56.0" fill="#4E5B3E" transform="matrix(1.00, 0.00, -0.00, -1.00, 684.7, 16.4)">r</text><text xml:space="preserve" font-family="ArialMT,Arial" font-size="56.0" fill="#4E5B3E" transform="matrix(1.00, 0.00, -0.00, -1.00, 703.3, 16.4)">n</text><text xml:space="preserve" font-family="ArialMT,Arial" font-size="56.0" fill="#4E5B3E" transform="matrix(1.00, 0.00, -0.00, -1.00, 734.5, 16.4)">i</text><text xml:space="preserve" font-family="ArialMT,Arial" font-size="56.0" fill="#4E5B3E" transform="matrix(1.00, 0.00, -0.00, -1.00, 746.9, 16.4)">n</text><text xml:space="preserve" font-family="ArialMT,Arial" font-size="56.0" fill="#4E5B3E" transform="matrix(1.00, 0.00, -0.00, -1.00, 778.1, 16.4)">g</text></g></svg>