<?xml version="1.0" encoding="UTF-8" standalone="no"?><svg xmlns="http://www.w3.org/2000/svg" xmlns:xlink="http://www.w3.org/1999/xlink" clip-rule="evenodd" stroke-miterlimit="10" viewBox="0 0 1024 768"><desc>SVG generated by Keynote</desc><defs></defs><g transform="matrix(1.00, 0.00, -0.00, -1.00, 0.0, 768.0)"><g><clipPath id="clip0x7f8a9b456bc0"><path d="M 0.0 768.0 L 1024.0 768.0 L 1024.0 0.0 L 0.0 0.0 Z M 0.0 768.0 "></path></clipPath><g clip-path="url(#clip0x7f8a9b456bc0)"><image xlink:href="../../CFB973E0-1CA5-4505-A6AC-B517D18CDB5D/assets/EAEB15BD30B8B47CFBACD9348EDFD47C.jpeg" width="2048.00" height="1536.00" transform="matrix(0.50, 0.00, -0.00, -0.50, 0.0, 768.0)"></image></g></g><image xlink:href="../../11FDDE28-5BAD-4E56-9430-A68F51D99CDC/assets/6B2294771AC2FFD86B32CC3AEFB39584.png" width="19.00" height="19.00" transform="matrix(1.00, 0.00, -0.00, -1.00, 156.0, 221.0)"></image><image xlink:href="../../99A5FB03-DE1B-4B4A-AE6D-D0C074086E95/assets/2EAA803481B4829669A1AED6584C7A6E.png" width="132.00" height="132.00" transform="matrix(0.11, 0.00, -0.00, -0.11, 157.0, 218.7)"></image><image xlink:href="../../11FDDE28-5BAD-4E56-9430-A68F51D99CDC/assets/C2E7BB86C48A75E6DE6DEAC28A6006E4.png" width="26.00" height="30.00" transform="matrix(1.00, 0.00, -0.00, -1.00, 190.0, 228.0)"></image><text xml:space="preserve" font-family="ArialMT,Arial" font-size="36.0" fill="#4E5B3E" transform="matrix(1.00, 0.00, -0.00, -1.00, 191.0, 200.1)">T</text><image xlink:href="../../11FDDE28-5BAD-4E56-9430-A68F51D99CDC/assets/2C7C2EA9975081AF0D9A003B1F5D21DE.png" width="22.00" height="25.00" transform="matrix(1.00, 0.00, -0.00, -1.00, 209.0, 222.0)"></image><text xml:space="preserve" font-family="ArialMT,Arial" font-size="36.0" fill="#4E5B3E" transform="matrix(1.00, 0.00, -0.00, -1.00, 209.0, 200.1)">e</text><image xlink:href="../../11FDDE28-5BAD-4E56-9430-A68F51D99CDC/assets/25461451D5411CE47273C621E7E876A4.png" width="22.00" height="25.00" transform="matrix(1.00, 0.00, -0.00, -1.00, 229.0, 222.0)"></image><text xml:space="preserve" font-family="ArialMT,Arial" font-size="36.0" fill="#4E5B3E" transform="matrix(1.00, 0.00, -0.00, -1.00, 229.0, 200.1)">a</text><image xlink:href="../../11FDDE28-5BAD-4E56-9430-A68F51D99CDC/assets/7D25251AEE07EA43A05E044AE1C6DAF2.png" width="21.00" height="25.00" transform="matrix(1.00, 0.00, -0.00, -1.00, 249.0, 222.0)"></image><text xml:space="preserve" font-family="ArialMT,Arial" font-size="36.0" fill="#4E5B3E" transform="matrix(1.00, 0.00, -0.00, -1.00, 249.0, 200.1)">c</text><image xlink:href="../../11FDDE28-5BAD-4E56-9430-A68F51D99CDC/assets/415F2CF7B60277C7BCC5F707E18B81CA.png" width="20.00" height="30.00" transform="matrix(1.00, 0.00, -0.00, -1.00, 268.0, 228.0)"></image><text xml:space="preserve" font-family="ArialMT,Arial" font-size="36.0" fill="#4E5B3E" transform="matrix(1.00, 0.00, -0.00, -1.00, 267.0, 200.1)">h</text><image xlink:href="../../11FDDE28-5BAD-4E56-9430-A68F51D99CDC/assets/43857A1B6B72FDC3E5483217F1FC05D4.png" width="22.00" height="25.00" transform="matrix(1.00, 0.00, -0.00, -1.00, 287.0, 222.0)"></image><text xml:space="preserve" font-family="ArialMT,Arial" font-size="36.0" fill="#4E5B3E" transform="matrix(1.00, 0.00, -0.00, -1.00, 287.1, 200.1)">e</text><image xlink:href="../../11FDDE28-5BAD-4E56-9430-A68F51D99CDC/assets/142DBBAB941654CCE94F2B6FBCCD946D.png" width="15.00" height="24.00" transform="matrix(1.00, 0.00, -0.00, -1.00, 308.0, 222.0)"></image><text xml:space="preserve" font-family="ArialMT,Arial" font-size="36.0" fill="#4E5B3E" transform="matrix(1.00, 0.00, -0.00, -1.00, 307.1, 200.1)">r</text><image xlink:href="../../11FDDE28-5BAD-4E56-9430-A68F51D99CDC/assets/A78D65BB618A4D27FE6410B7515C7067.png" width="20.00" height="25.00" transform="matrix(1.00, 0.00, -0.00, -1.00, 319.0, 222.0)"></image><text xml:space="preserve" font-family="ArialMT,Arial" font-size="36.0" fill="#4E5B3E" transform="matrix(1.00, 0.00, -0.00, -1.00, 319.1, 200.1)">s</text><text xml:space="preserve" font-family="ArialMT,Arial" font-size="36.0" fill="#4E5B3E" transform="matrix(1.00, 0.00, -0.00, -1.00, 337.1, 200.1)"> </text><image xlink:href="../../11FDDE28-5BAD-4E56-9430-A68F51D99CDC/assets/A7BB32B2B363C2451744824494C73E97.png" width="21.00" height="31.00" transform="matrix(1.00, 0.00, -0.00, -1.00, 347.0, 228.0)"></image><text xml:space="preserve" font-family="ArialMT,Arial" font-size="36.0" fill="#4E5B3E" transform="matrix(1.00, 0.00, -0.00, -1.00, 347.1, 200.1)">d</text><image xlink:href="../../11FDDE28-5BAD-4E56-9430-A68F51D99CDC/assets/ED01B7E8637D3102170995BBCC256C9A.png" width="22.00" height="25.00" transform="matrix(1.00, 0.00, -0.00, -1.00, 367.0, 222.0)"></image><text xml:space="preserve" font-family="ArialMT,Arial" font-size="36.0" fill="#4E5B3E" transform="matrix(1.00, 0.00, -0.00, -1.00, 367.1, 200.1)">o</text><text xml:space="preserve" font-family="ArialMT,Arial" font-size="36.0" fill="#4E5B3E" transform="matrix(1.00, 0.00, -0.00, -1.00, 387.1, 200.1)"> </text><image xlink:href="../../11FDDE28-5BAD-4E56-9430-A68F51D99CDC/assets/FE09620A77BD9D5AD66F4B034B2D1F65.png" width="30.00" height="23.00" transform="matrix(1.00, 0.00, -0.00, -1.00, 396.0, 221.0)"></image><text xml:space="preserve" font-family="ArialMT,Arial" font-size="36.0" fill="#4E5B3E" transform="matrix(1.00, 0.00, -0.00, -1.00, 397.1, 200.1)">w</text><image xlink:href="../../11FDDE28-5BAD-4E56-9430-A68F51D99CDC/assets/95060E1D1EF31C76220F791CB8D7D87C.png" width="20.00" height="30.00" transform="matrix(1.00, 0.00, -0.00, -1.00, 424.0, 228.0)"></image><text xml:space="preserve" font-family="ArialMT,Arial" font-size="36.0" fill="#4E5B3E" transform="matrix(1.00, 0.00, -0.00, -1.00, 423.1, 200.1)">h</text><image xlink:href="../../11FDDE28-5BAD-4E56-9430-A68F51D99CDC/assets/0048EB12363504C5F89344CC79E1BA9A.png" width="22.00" height="25.00" transform="matrix(1.00, 0.00, -0.00, -1.00, 443.0, 222.0)"></image><text xml:space="preserve" font-family="ArialMT,Arial" font-size="36.0" fill="#4E5B3E" transform="matrix(1.00, 0.00, -0.00, -1.00, 443.1, 200.1)">a</text><image xlink:href="../../11FDDE28-5BAD-4E56-9430-A68F51D99CDC/assets/04AFADEE4A57D826DDCFC40CC3A57894.png" width="14.00" height="31.00" transform="matrix(1.00, 0.00, -0.00, -1.00, 462.0, 228.0)"></image><text xml:space="preserve" font-family="ArialMT,Arial" font-size="36.0" fill="#4E5B3E" transform="matrix(1.00, 0.00, -0.00, -1.00, 463.2, 200.1)">t</text><text xml:space="preserve" font-family="ArialMT,Arial" font-size="36.0" fill="#4E5B3E" transform="matrix(1.00, 0.00, -0.00, -1.00, 473.2, 200.1)"> </text><image xlink:href="../../11FDDE28-5BAD-4E56-9430-A68F51D99CDC/assets/1D33A5955D3BC7C68049FAFF56596D2E.png" width="14.00" height="31.00" transform="matrix(1.00, 0.00, -0.00, -1.00, 482.0, 228.0)"></image><text xml:space="preserve" font-family="ArialMT,Arial" font-size="36.0" fill="#4E5B3E" transform="matrix(1.00, 0.00, -0.00, -1.00, 483.2, 200.1)">t</text><image xlink:href="../../11FDDE28-5BAD-4E56-9430-A68F51D99CDC/assets/781FD445C19A7DB49C08818940A4033D.png" width="20.00" height="30.00" transform="matrix(1.00, 0.00, -0.00, -1.00, 494.0, 228.0)"></image><text xml:space="preserve" font-family="ArialMT,Arial" font-size="36.0" fill="#4E5B3E" transform="matrix(1.00, 0.00, -0.00, -1.00, 493.2, 200.1)">h</text><image xlink:href="../../11FDDE28-5BAD-4E56-9430-A68F51D99CDC/assets/A465758C8B49E097618BAAA7C85B6E42.png" width="22.00" height="25.00" transform="matrix(1.00, 0.00, -0.00, -1.00, 513.0, 222.0)"></image><text xml:space="preserve" font-family="ArialMT,Arial" font-size="36.0" fill="#4E5B3E" transform="matrix(1.00, 0.00, -0.00, -1.00, 513.2, 200.1)">e</text><image xlink:href="../../11FDDE28-5BAD-4E56-9430-A68F51D99CDC/assets/99F32D9E0178FBA2E8C63755F5812AEC.png" width="22.00" height="31.00" transform="matrix(1.00, 0.00, -0.00, -1.00, 532.0, 221.0)"></image><text xml:space="preserve" font-family="ArialMT,Arial" font-size="36.0" fill="#4E5B3E" transform="matrix(1.00, 0.00, -0.00, -1.00, 533.2, 200.1)">y</text><text xml:space="preserve" font-family="ArialMT,Arial" font-size="36.0" fill="#4E5B3E" transform="matrix(1.00, 0.00, -0.00, -1.00, 551.2, 200.1)"> </text><image xlink:href="../../11FDDE28-5BAD-4E56-9430-A68F51D99CDC/assets/28626247F52959BED1A74671850D8ED0.png" width="8.00" height="30.00" transform="matrix(1.00, 0.00, -0.00, -1.00, 562.0, 228.0)"></image><text xml:space="preserve" font-family="ArialMT,Arial" font-size="36.0" fill="#4E5B3E" transform="matrix(1.00, 0.00, -0.00, -1.00, 561.2, 200.1)">l</text><image xlink:href="../../11FDDE28-5BAD-4E56-9430-A68F51D99CDC/assets/E93A77622691CF42FB8EEB1320E237F2.png" width="22.00" height="25.00" transform="matrix(1.00, 0.00, -0.00, -1.00, 569.0, 222.0)"></image><text xml:space="preserve" font-family="ArialMT,Arial" font-size="36.0" fill="#4E5B3E" transform="matrix(1.00, 0.00, -0.00, -1.00, 569.2, 200.1)">o</text><image xlink:href="../../11FDDE28-5BAD-4E56-9430-A68F51D99CDC/assets/B3884D99313C9EAD58C8ACB0F9372BC8.png" width="22.00" height="23.00" transform="matrix(1.00, 0.00, -0.00, -1.00, 588.0, 221.0)"></image><text xml:space="preserve" font-family="ArialMT,Arial" font-size="36.0" fill="#4E5B3E" transform="matrix(1.00, 0.00, -0.00, -1.00, 589.2, 200.1)">v</text><image xlink:href="../../11FDDE28-5BAD-4E56-9430-A68F51D99CDC/assets/A5C6862F47D9BA15A81FD485E5577DA6.png" width="22.00" height="25.00" transform="matrix(1.00, 0.00, -0.00, -1.00, 607.0, 222.0)"></image><text xml:space="preserve" font-family="ArialMT,Arial" font-size="36.0" fill="#4E5B3E" transform="matrix(1.00, 0.00, -0.00, -1.00, 607.2, 200.1)">e</text><image xlink:href="../../11FDDE28-5BAD-4E56-9430-A68F51D99CDC/assets/1CF51A3A8DF70CDCA0C9FE003EB7FABF.png" width="18.00" height="18.00" transform="matrix(1.00, 0.00, -0.00, -1.00, 156.0, 156.0)"></image><image xlink:href="../../99A5FB03-DE1B-4B4A-AE6D-D0C074086E95/assets/2EAA803481B4829669A1AED6584C7A6E.png" width="132.00" height="132.00" transform="matrix(0.10, 0.00, -0.00, -0.10, 157.0, 153.5)"></image><image xlink:href="../../11FDDE28-5BAD-4E56-9430-A68F51D99CDC/assets/B5C31949E2652CA6C19D659589B7EEBA.png" width="24.00" height="30.00" transform="matrix(1.00, 0.00, -0.00, -1.00, 189.0, 163.0)"></image><text xml:space="preserve" font-family="ArialMT,Arial" font-size="33.5" fill="#4E5B3E" transform="matrix(1.00, 0.00, -0.00, -1.00, 188.6, 136.3)">S</text><image xlink:href="../../11FDDE28-5BAD-4E56-9430-A68F51D99CDC/assets/CE722C6FC23D19474C8036C9C5E7B432.png" width="14.00" height="28.00" transform="matrix(1.00, 0.00, -0.00, -1.00, 210.0, 162.0)"></image><text xml:space="preserve" font-family="ArialMT,Arial" font-size="33.5" fill="#4E5B3E" transform="matrix(1.00, 0.00, -0.00, -1.00, 211.0, 136.3)">t</text><image xlink:href="../../11FDDE28-5BAD-4E56-9430-A68F51D99CDC/assets/761AFEDCCFA8604BB99A7006610D6C40.png" width="19.00" height="23.00" transform="matrix(1.00, 0.00, -0.00, -1.00, 221.0, 156.0)"></image><text xml:space="preserve" font-family="ArialMT,Arial" font-size="33.5" fill="#4E5B3E" transform="matrix(1.00, 0.00, -0.00, -1.00, 220.3, 136.3)">u</text><image xlink:href="../../11FDDE28-5BAD-4E56-9430-A68F51D99CDC/assets/8A6B33AB7935F55320ECF39C0D1492EE.png" width="20.00" height="30.00" transform="matrix(1.00, 0.00, -0.00, -1.00, 239.0, 163.0)"></image><text xml:space="preserve" font-family="ArialMT,Arial" font-size="33.5" fill="#4E5B3E" transform="matrix(1.00, 0.00, -0.00, -1.00, 238.9, 136.3)">d</text><image xlink:href="../../11FDDE28-5BAD-4E56-9430-A68F51D99CDC/assets/B90924600B7FF53D46B5983AD49B9864.png" width="21.00" height="24.00" transform="matrix(1.00, 0.00, -0.00, -1.00, 257.0, 157.0)"></image><text xml:space="preserve" font-family="ArialMT,Arial" font-size="33.5" fill="#4E5B3E" transform="matrix(1.00, 0.00, -0.00, -1.00, 257.5, 136.3)">e</text><image xlink:href="../../11FDDE28-5BAD-4E56-9430-A68F51D99CDC/assets/8732A5AF444F2BE723C26EE39783F944.png" width="19.00" height="23.00" transform="matrix(1.00, 0.00, -0.00, -1.00, 277.0, 157.0)"></image><text xml:space="preserve" font-family="ArialMT,Arial" font-size="33.5" fill="#4E5B3E" transform="matrix(1.00, 0.00, -0.00, -1.00, 276.1, 136.3)">n</text><image xlink:href="../../11FDDE28-5BAD-4E56-9430-A68F51D99CDC/assets/F6FEA5B50A9BE06993C63DB34D8C6A25.png" width="13.00" height="28.00" transform="matrix(1.00, 0.00, -0.00, -1.00, 294.0, 162.0)"></image><text xml:space="preserve" font-family="ArialMT,Arial" font-size="33.5" fill="#4E5B3E" transform="matrix(1.00, 0.00, -0.00, -1.00, 294.7, 136.3)">t</text><image xlink:href="../../11FDDE28-5BAD-4E56-9430-A68F51D99CDC/assets/BD37B1B3AC53D606CB5BA3284DA91F56.png" width="19.00" height="24.00" transform="matrix(1.00, 0.00, -0.00, -1.00, 304.0, 157.0)"></image><text xml:space="preserve" font-family="ArialMT,Arial" font-size="33.5" fill="#4E5B3E" transform="matrix(1.00, 0.00, -0.00, -1.00, 304.0, 136.3)">s</text><text xml:space="preserve" font-family="ArialMT,Arial" font-size="33.5" fill="#4E5B3E" transform="matrix(1.00, 0.00, -0.00, -1.00, 320.8, 136.3)"> </text><image xlink:href="../../11FDDE28-5BAD-4E56-9430-A68F51D99CDC/assets/B6EEE1B76E895F6F02407439D6F0B27F.png" width="20.00" height="30.00" transform="matrix(1.00, 0.00, -0.00, -1.00, 331.0, 163.0)"></image><text xml:space="preserve" font-family="ArialMT,Arial" font-size="33.5" fill="#4E5B3E" transform="matrix(1.00, 0.00, -0.00, -1.00, 330.1, 136.3)">b</text><image xlink:href="../../11FDDE28-5BAD-4E56-9430-A68F51D99CDC/assets/70399645E87620BF6A1290DBE3A591C6.png" width="8.00" height="29.00" transform="matrix(1.00, 0.00, -0.00, -1.00, 349.0, 163.0)"></image><text xml:space="preserve" font-family="ArialMT,Arial" font-size="33.5" fill="#4E5B3E" transform="matrix(1.00, 0.00, -0.00, -1.00, 348.7, 136.3)">l</text><image xlink:href="../../11FDDE28-5BAD-4E56-9430-A68F51D99CDC/assets/2A3234592C9B38E327313F7BB9E62250.png" width="21.00" height="24.00" transform="matrix(1.00, 0.00, -0.00, -1.00, 356.0, 157.0)"></image><text xml:space="preserve" font-family="ArialMT,Arial" font-size="33.5" fill="#4E5B3E" transform="matrix(1.00, 0.00, -0.00, -1.00, 356.1, 136.3)">o</text><image xlink:href="../../11FDDE28-5BAD-4E56-9430-A68F51D99CDC/assets/32190948368A0F5F844A93F310003B5C.png" width="20.00" height="24.00" transform="matrix(1.00, 0.00, -0.00, -1.00, 374.0, 157.0)"></image><text xml:space="preserve" font-family="ArialMT,Arial" font-size="33.5" fill="#4E5B3E" transform="matrix(1.00, 0.00, -0.00, -1.00, 374.8, 136.3)">s</text><image xlink:href="../../11FDDE28-5BAD-4E56-9430-A68F51D99CDC/assets/C8B6E92CE587B5E244D748F96152B2E2.png" width="19.00" height="24.00" transform="matrix(1.00, 0.00, -0.00, -1.00, 391.0, 157.0)"></image><text xml:space="preserve" font-family="ArialMT,Arial" font-size="33.5" fill="#4E5B3E" transform="matrix(1.00, 0.00, -0.00, -1.00, 391.5, 136.3)">s</text><image xlink:href="../../11FDDE28-5BAD-4E56-9430-A68F51D99CDC/assets/BDC8A1696324413A351E81E4965F8876.png" width="21.00" height="24.00" transform="matrix(1.00, 0.00, -0.00, -1.00, 408.0, 157.0)"></image><text xml:space="preserve" font-family="ArialMT,Arial" font-size="33.5" fill="#4E5B3E" transform="matrix(1.00, 0.00, -0.00, -1.00, 408.2, 136.3)">o</text><image xlink:href="../../11FDDE28-5BAD-4E56-9430-A68F51D99CDC/assets/3DC20B5D20780DEC563A50DFD7442B40.png" width="28.00" height="23.00" transform="matrix(1.00, 0.00, -0.00, -1.00, 428.0, 157.0)"></image><text xml:space="preserve" font-family="ArialMT,Arial" font-size="33.5" fill="#4E5B3E" transform="matrix(1.00, 0.00, -0.00, -1.00, 426.9, 136.3)">m</text><text xml:space="preserve" font-family="ArialMT,Arial" font-size="33.5" fill="#4E5B3E" transform="matrix(1.00, 0.00, -0.00, -1.00, 454.7, 136.3)"> </text><image xlink:href="../../11FDDE28-5BAD-4E56-9430-A68F51D99CDC/assets/1281CA6687C7172A1570B964304B07BB.png" width="19.00" height="23.00" transform="matrix(1.00, 0.00, -0.00, -1.00, 465.0, 156.0)"></image><text xml:space="preserve" font-family="ArialMT,Arial" font-size="33.5" fill="#4E5B3E" transform="matrix(1.00, 0.00, -0.00, -1.00, 464.0, 136.3)">u</text><image xlink:href="../../11FDDE28-5BAD-4E56-9430-A68F51D99CDC/assets/2F3A762535BE3A4F95F5876F63029A46.png" width="19.00" height="23.00" transform="matrix(1.00, 0.00, -0.00, -1.00, 483.0, 157.0)"></image><text xml:space="preserve" font-family="ArialMT,Arial" font-size="33.5" fill="#4E5B3E" transform="matrix(1.00, 0.00, -0.00, -1.00, 482.7, 136.3)">n</text><image xlink:href="../../11FDDE28-5BAD-4E56-9430-A68F51D99CDC/assets/92D968EA7797C063AFB8BC2C05B599DA.png" width="20.00" height="30.00" transform="matrix(1.00, 0.00, -0.00, -1.00, 501.0, 163.0)"></image><text xml:space="preserve" font-family="ArialMT,Arial" font-size="33.5" fill="#4E5B3E" transform="matrix(1.00, 0.00, -0.00, -1.00, 501.3, 136.3)">d</text><image xlink:href="../../11FDDE28-5BAD-4E56-9430-A68F51D99CDC/assets/81667523CD0FE1717A73519D27176C99.png" width="21.00" height="24.00" transform="matrix(1.00, 0.00, -0.00, -1.00, 520.0, 157.0)"></image><text xml:space="preserve" font-family="ArialMT,Arial" font-size="33.5" fill="#4E5B3E" transform="matrix(1.00, 0.00, -0.00, -1.00, 519.9, 136.3)">e</text><image xlink:href="../../11FDDE28-5BAD-4E56-9430-A68F51D99CDC/assets/A18EA7B26379F227588A11C533D5A7C3.png" width="15.00" height="23.00" transform="matrix(1.00, 0.00, -0.00, -1.00, 539.0, 157.0)"></image><text xml:space="preserve" font-family="ArialMT,Arial" font-size="33.5" fill="#4E5B3E" transform="matrix(1.00, 0.00, -0.00, -1.00, 538.5, 136.3)">r</text><text xml:space="preserve" font-family="ArialMT,Arial" font-size="33.5" fill="#4E5B3E" transform="matrix(1.00, 0.00, -0.00, -1.00, 549.7, 136.3)"> </text><image xlink:href="../../11FDDE28-5BAD-4E56-9430-A68F51D99CDC/assets/8565B61B81DD94811CEA7B6BE9A13B9A.png" width="14.00" height="28.00" transform="matrix(1.00, 0.00, -0.00, -1.00, 558.0, 162.0)"></image><text xml:space="preserve" font-family="ArialMT,Arial" font-size="33.5" fill="#4E5B3E" transform="matrix(1.00, 0.00, -0.00, -1.00, 559.0, 136.3)">t</text><image xlink:href="../../11FDDE28-5BAD-4E56-9430-A68F51D99CDC/assets/12F89E8AA2C3D6955F70C08B40CA832D.png" width="19.00" height="29.00" transform="matrix(1.00, 0.00, -0.00, -1.00, 569.0, 163.0)"></image><text xml:space="preserve" font-family="ArialMT,Arial" font-size="33.5" fill="#4E5B3E" transform="matrix(1.00, 0.00, -0.00, -1.00, 568.3, 136.3)">h</text><image xlink:href="../../11FDDE28-5BAD-4E56-9430-A68F51D99CDC/assets/1AF31C0C27555A9177BF6EA316A5B363.png" width="21.00" height="24.00" transform="matrix(1.00, 0.00, -0.00, -1.00, 587.0, 157.0)"></image><text xml:space="preserve" font-family="ArialMT,Arial" font-size="33.5" fill="#4E5B3E" transform="matrix(1.00, 0.00, -0.00, -1.00, 586.9, 136.3)">e</text><text xml:space="preserve" font-family="ArialMT,Arial" font-size="33.5" fill="#4E5B3E" transform="matrix(1.00, 0.00, -0.00, -1.00, 605.5, 136.3)"> </text><image xlink:href="../../11FDDE28-5BAD-4E56-9430-A68F51D99CDC/assets/6A542EADA3910E4EA5F33C5B5101B8A8.png" width="7.00" height="29.00" transform="matrix(1.00, 0.00, -0.00, -1.00, 616.0, 163.0)"></image><text xml:space="preserve" font-family="ArialMT,Arial" font-size="33.5" fill="#4E5B3E" transform="matrix(1.00, 0.00, -0.00, -1.00, 614.8, 136.3)">i</text><image xlink:href="../../11FDDE28-5BAD-4E56-9430-A68F51D99CDC/assets/3657AAB565F8725AAD85ABFDC531A5A4.png" width="19.00" height="23.00" transform="matrix(1.00, 0.00, -0.00, -1.00, 623.0, 157.0)"></image><text xml:space="preserve" font-family="ArialMT,Arial" font-size="33.5" fill="#4E5B3E" transform="matrix(1.00, 0.00, -0.00, -1.00, 622.3, 136.3)">n</text><image xlink:href="../../11FDDE28-5BAD-4E56-9430-A68F51D99CDC/assets/EA3B5E85266568E43EE3629D282DA114.png" width="20.00" height="30.00" transform="matrix(1.00, 0.00, -0.00, -1.00, 641.0, 163.0)"></image><text xml:space="preserve" font-family="ArialMT,Arial" font-size="33.5" fill="#4E5B3E" transform="matrix(1.00, 0.00, -0.00, -1.00, 640.9, 136.3)">d</text><image xlink:href="../../11FDDE28-5BAD-4E56-9430-A68F51D99CDC/assets/2AF3EE42445D3413C94DC5AD578526DB.png" width="8.00" height="29.00" transform="matrix(1.00, 0.00, -0.00, -1.00, 660.0, 163.0)"></image><text xml:space="preserve" font-family="ArialMT,Arial" font-size="33.5" fill="#4E5B3E" transform="matrix(1.00, 0.00, -0.00, -1.00, 659.5, 136.3)">i</text><image xlink:href="../../11FDDE28-5BAD-4E56-9430-A68F51D99CDC/assets/2D6ADE7A9591489D558C12E69DBE3632.png" width="21.00" height="22.00" transform="matrix(1.00, 0.00, -0.00, -1.00, 666.0, 156.0)"></image><text xml:space="preserve" font-family="ArialMT,Arial" font-size="33.5" fill="#4E5B3E" transform="matrix(1.00, 0.00, -0.00, -1.00, 666.9, 136.3)">v</text><image xlink:href="../../11FDDE28-5BAD-4E56-9430-A68F51D99CDC/assets/6E1A283AF2AA8C959A9D0275C6B7E3AE.png" width="8.00" height="29.00" transform="matrix(1.00, 0.00, -0.00, -1.00, 684.0, 163.0)"></image><text xml:space="preserve" font-family="ArialMT,Arial" font-size="33.5" fill="#4E5B3E" transform="matrix(1.00, 0.00, -0.00, -1.00, 683.7, 136.3)">i</text><image xlink:href="../../11FDDE28-5BAD-4E56-9430-A68F51D99CDC/assets/9BADEDC00AF86CDC16127BBD221B1979.png" width="20.00" height="30.00" transform="matrix(1.00, 0.00, -0.00, -1.00, 691.0, 163.0)"></image><text xml:space="preserve" font-family="ArialMT,Arial" font-size="33.5" fill="#4E5B3E" transform="matrix(1.00, 0.00, -0.00, -1.00, 691.1, 136.3)">d</text><image xlink:href="../../11FDDE28-5BAD-4E56-9430-A68F51D99CDC/assets/AE264AE6284FE81EEF2CAF765E3DD85C.png" width="19.00" height="23.00" transform="matrix(1.00, 0.00, -0.00, -1.00, 710.0, 156.0)"></image><text xml:space="preserve" font-family="ArialMT,Arial" font-size="33.5" fill="#4E5B3E" transform="matrix(1.00, 0.00, -0.00, -1.00, 709.7, 136.3)">u</text><image xlink:href="../../11FDDE28-5BAD-4E56-9430-A68F51D99CDC/assets/DD04664B9A20AF68AED9DB93E8263B9D.png" width="21.00" height="24.00" transform="matrix(1.00, 0.00, -0.00, -1.00, 728.0, 157.0)"></image><text xml:space="preserve" font-family="ArialMT,Arial" font-size="33.5" fill="#4E5B3E" transform="matrix(1.00, 0.00, -0.00, -1.00, 728.4, 136.3)">a</text><image xlink:href="../../11FDDE28-5BAD-4E56-9430-A68F51D99CDC/assets/E0A8CE3AB632B784F6F17BB5ED7755ED.png" width="8.00" height="29.00" transform="matrix(1.00, 0.00, -0.00, -1.00, 748.0, 163.0)"></image><text xml:space="preserve" font-family="ArialMT,Arial" font-size="33.5" fill="#4E5B3E" transform="matrix(1.00, 0.00, -0.00, -1.00, 747.0, 136.3)">l</text><text xml:space="preserve" font-family="ArialMT,Arial" font-size="33.5" fill="#4E5B3E" transform="matrix(1.00, 0.00, -0.00, -1.00, 754.4, 136.3)"> </text><image xlink:href="../../11FDDE28-5BAD-4E56-9430-A68F51D99CDC/assets/AB4F8C5985483823E3D2A9319C06CBE0.png" width="21.00" height="24.00" transform="matrix(1.00, 0.00, -0.00, -1.00, 763.0, 157.0)"></image><text xml:space="preserve" font-family="ArialMT,Arial" font-size="33.5" fill="#4E5B3E" transform="matrix(1.00, 0.00, -0.00, -1.00, 763.7, 136.3)">a</text><image xlink:href="../../11FDDE28-5BAD-4E56-9430-A68F51D99CDC/assets/C5F04D725848F826565188B16E105374.png" width="14.00" height="28.00" transform="matrix(1.00, 0.00, -0.00, -1.00, 781.0, 162.0)"></image><text xml:space="preserve" font-family="ArialMT,Arial" font-size="33.5" fill="#4E5B3E" transform="matrix(1.00, 0.00, -0.00, -1.00, 782.3, 136.3)">t</text><image xlink:href="../../11FDDE28-5BAD-4E56-9430-A68F51D99CDC/assets/DC47A89827BF45BC1B2E689E393645B5.png" width="13.00" height="28.00" transform="matrix(1.00, 0.00, -0.00, -1.00, 791.0, 162.0)"></image><text xml:space="preserve" font-family="ArialMT,Arial" font-size="33.5" fill="#4E5B3E" transform="matrix(1.00, 0.00, -0.00, -1.00, 791.6, 136.3)">t</text><image xlink:href="../../11FDDE28-5BAD-4E56-9430-A68F51D99CDC/assets/87B0996A632913CD15C1EF70B1EDD890.png" width="21.00" height="24.00" transform="matrix(1.00, 0.00, -0.00, -1.00, 801.0, 157.0)"></image><text xml:space="preserve" font-family="ArialMT,Arial" font-size="33.5" fill="#4E5B3E" transform="matrix(1.00, 0.00, -0.00, -1.00, 800.9, 136.3)">e</text><image xlink:href="../../11FDDE28-5BAD-4E56-9430-A68F51D99CDC/assets/9AD4707F5B740614D8562D5A447A771F.png" width="19.00" height="23.00" transform="matrix(1.00, 0.00, -0.00, -1.00, 820.0, 157.0)"></image><text xml:space="preserve" font-family="ArialMT,Arial" font-size="33.5" fill="#4E5B3E" transform="matrix(1.00, 0.00, -0.00, -1.00, 819.6, 136.3)">n</text><image xlink:href="../../11FDDE28-5BAD-4E56-9430-A68F51D99CDC/assets/5F71A3602AE9B458A30F3988E7B6E0F3.png" width="14.00" height="28.00" transform="matrix(1.00, 0.00, -0.00, -1.00, 837.0, 162.0)"></image><text xml:space="preserve" font-family="ArialMT,Arial" font-size="33.5" fill="#4E5B3E" transform="matrix(1.00, 0.00, -0.00, -1.00, 838.2, 136.3)">t</text><image xlink:href="../../11FDDE28-5BAD-4E56-9430-A68F51D99CDC/assets/597AE7BC8BA92FF30CC8CDEAC64C1852.png" width="8.00" height="29.00" transform="matrix(1.00, 0.00, -0.00, -1.00, 848.0, 163.0)"></image><text xml:space="preserve" font-family="ArialMT,Arial" font-size="33.5" fill="#4E5B3E" transform="matrix(1.00, 0.00, -0.00, -1.00, 847.5, 136.3)">i</text><image xlink:href="../../11FDDE28-5BAD-4E56-9430-A68F51D99CDC/assets/90E9AC32AC321D543A9EDF72338EAF2D.png" width="21.00" height="24.00" transform="matrix(1.00, 0.00, -0.00, -1.00, 855.0, 157.0)"></image><text xml:space="preserve" font-family="ArialMT,Arial" font-size="33.5" fill="#4E5B3E" transform="matrix(1.00, 0.00, -0.00, -1.00, 854.9, 136.3)">o</text><image xlink:href="../../11FDDE28-5BAD-4E56-9430-A68F51D99CDC/assets/AFC7D26A6482E7B9D207B5B01B7C9AB9.png" width="19.00" height="23.00" transform="matrix(1.00, 0.00, -0.00, -1.00, 874.0, 157.0)"></image><text xml:space="preserve" font-family="ArialMT,Arial" font-size="33.5" fill="#4E5B3E" transform="matrix(1.00, 0.00, -0.00, -1.00, 873.5, 136.3)">n</text><image xlink:href="../../11FDDE28-5BAD-4E56-9430-A68F51D99CDC/assets/F5F66635626FADB2159034708FDFE744.png" width="19.00" height="19.00" transform="matrix(1.00, 0.00, -0.00, -1.00, 156.0, 87.0)"></image><image xlink:href="../../99A5FB03-DE1B-4B4A-AE6D-D0C074086E95/assets/2EAA803481B4829669A1AED6584C7A6E.png" width="132.00" height="132.00" transform="matrix(0.11, 0.00, -0.00, -0.11, 157.0, 84.3)"></image><image xlink:href="../../11FDDE28-5BAD-4E56-9430-A68F51D99CDC/assets/4A6A1802562AAD2AC426BEE700D2BCF7.png" width="30.00" height="31.00" transform="matrix(1.00, 0.00, -0.00, -1.00, 189.0, 94.0)"></image><text xml:space="preserve" font-family="ArialMT,Arial" font-size="36.0" fill="#4E5B3E" transform="matrix(1.00, 0.00, -0.00, -1.00, 191.0, 65.8)">A</text><text xml:space="preserve" font-family="ArialMT,Arial" font-size="36.0" fill="#4E5B3E" transform="matrix(1.00, 0.00, -0.00, -1.00, 213.0, 65.8)"> </text><image xlink:href="../../11FDDE28-5BAD-4E56-9430-A68F51D99CDC/assets/9A421A9222237BE318E2AE096F7B3CA8.png" width="14.00" height="30.00" transform="matrix(1.00, 0.00, -0.00, -1.00, 222.0, 93.0)"></image><text xml:space="preserve" font-family="ArialMT,Arial" font-size="36.0" fill="#4E5B3E" transform="matrix(1.00, 0.00, -0.00, -1.00, 223.0, 65.8)">t</text><image xlink:href="../../11FDDE28-5BAD-4E56-9430-A68F51D99CDC/assets/7417F2061BCD52E371071D696C2E816F.png" width="15.00" height="24.00" transform="matrix(1.00, 0.00, -0.00, -1.00, 234.0, 87.0)"></image><text xml:space="preserve" font-family="ArialMT,Arial" font-size="36.0" fill="#4E5B3E" transform="matrix(1.00, 0.00, -0.00, -1.00, 233.0, 65.8)">r</text><image xlink:href="../../11FDDE28-5BAD-4E56-9430-A68F51D99CDC/assets/FA0C010FF3AB8484080F92B90EF9D2B9.png" width="20.00" height="24.00" transform="matrix(1.00, 0.00, -0.00, -1.00, 246.0, 87.0)"></image><text xml:space="preserve" font-family="ArialMT,Arial" font-size="36.0" fill="#4E5B3E" transform="matrix(1.00, 0.00, -0.00, -1.00, 245.0, 65.8)">u</text><image xlink:href="../../11FDDE28-5BAD-4E56-9430-A68F51D99CDC/assets/2EB0DB3410EDBAAD058991B590318E7F.png" width="8.00" height="31.00" transform="matrix(1.00, 0.00, -0.00, -1.00, 266.0, 94.0)"></image><text xml:space="preserve" font-family="ArialMT,Arial" font-size="36.0" fill="#4E5B3E" transform="matrix(1.00, 0.00, -0.00, -1.00, 265.0, 65.8)">l</text><image xlink:href="../../11FDDE28-5BAD-4E56-9430-A68F51D99CDC/assets/E00567D5AF1472A056311CCA5F90BCEF.png" width="22.00" height="31.00" transform="matrix(1.00, 0.00, -0.00, -1.00, 272.0, 87.0)"></image><text xml:space="preserve" font-family="ArialMT,Arial" font-size="36.0" fill="#4E5B3E" transform="matrix(1.00, 0.00, -0.00, -1.00, 273.0, 65.8)">y</text><text xml:space="preserve" font-family="ArialMT,Arial" font-size="36.0" fill="#4E5B3E" transform="matrix(1.00, 0.00, -0.00, -1.00, 291.0, 65.8)"> </text><image xlink:href="../../11FDDE28-5BAD-4E56-9430-A68F51D99CDC/assets/8107F84ED625A907E71E6961094F3EDD.png" width="8.00" height="31.00" transform="matrix(1.00, 0.00, -0.00, -1.00, 302.0, 94.0)"></image><text xml:space="preserve" font-family="ArialMT,Arial" font-size="36.0" fill="#4E5B3E" transform="matrix(1.00, 0.00, -0.00, -1.00, 301.0, 65.8)">i</text><image xlink:href="../../11FDDE28-5BAD-4E56-9430-A68F51D99CDC/assets/C3563B2132B9325892EF25F95F3FA16C.png" width="20.00" height="24.00" transform="matrix(1.00, 0.00, -0.00, -1.00, 310.0, 87.0)"></image><text xml:space="preserve" font-family="ArialMT,Arial" font-size="36.0" fill="#4E5B3E" transform="matrix(1.00, 0.00, -0.00, -1.00, 309.0, 65.8)">n</text><image xlink:href="../../11FDDE28-5BAD-4E56-9430-A68F51D99CDC/assets/488B2FF658D154C30A290C3E8EEF1E01.png" width="21.00" height="24.00" transform="matrix(1.00, 0.00, -0.00, -1.00, 329.0, 87.0)"></image><text xml:space="preserve" font-family="ArialMT,Arial" font-size="36.0" fill="#4E5B3E" transform="matrix(1.00, 0.00, -0.00, -1.00, 329.1, 65.8)">c</text><image xlink:href="../../11FDDE28-5BAD-4E56-9430-A68F51D99CDC/assets/593135A9FA2C74B54AB9A9960C308D20.png" width="8.00" height="31.00" transform="matrix(1.00, 0.00, -0.00, -1.00, 348.0, 94.0)"></image><text xml:space="preserve" font-family="ArialMT,Arial" font-size="36.0" fill="#4E5B3E" transform="matrix(1.00, 0.00, -0.00, -1.00, 347.1, 65.8)">l</text><image xlink:href="../../11FDDE28-5BAD-4E56-9430-A68F51D99CDC/assets/FA20B464B87D7B566CC977580C68106F.png" width="20.00" height="24.00" transform="matrix(1.00, 0.00, -0.00, -1.00, 356.0, 87.0)"></image><text xml:space="preserve" font-family="ArialMT,Arial" font-size="36.0" fill="#4E5B3E" transform="matrix(1.00, 0.00, -0.00, -1.00, 355.1, 65.8)">u</text><image xlink:href="../../11FDDE28-5BAD-4E56-9430-A68F51D99CDC/assets/11968F093CA4AC7F64DCBA4692A2A715.png" width="20.00" height="24.00" transform="matrix(1.00, 0.00, -0.00, -1.00, 375.0, 87.0)"></image><text xml:space="preserve" font-family="ArialMT,Arial" font-size="36.0" fill="#4E5B3E" transform="matrix(1.00, 0.00, -0.00, -1.00, 375.1, 65.8)">s</text><image xlink:href="../../11FDDE28-5BAD-4E56-9430-A68F51D99CDC/assets/8FC6406ED59EFFEE5E75BF4C7BC41A54.png" width="8.00" height="31.00" transform="matrix(1.00, 0.00, -0.00, -1.00, 394.0, 94.0)"></image><text xml:space="preserve" font-family="ArialMT,Arial" font-size="36.0" fill="#4E5B3E" transform="matrix(1.00, 0.00, -0.00, -1.00, 393.1, 65.8)">i</text><image xlink:href="../../11FDDE28-5BAD-4E56-9430-A68F51D99CDC/assets/8E6BB2F1CED334F5ED569A6BC5D7706F.png" width="22.00" height="24.00" transform="matrix(1.00, 0.00, -0.00, -1.00, 400.0, 87.0)"></image><text xml:space="preserve" font-family="ArialMT,Arial" font-size="36.0" fill="#4E5B3E" transform="matrix(1.00, 0.00, -0.00, -1.00, 401.1, 65.8)">v</text><image xlink:href="../../11FDDE28-5BAD-4E56-9430-A68F51D99CDC/assets/B972A9B85DC79296F41367C838447535.png" width="22.00" height="24.00" transform="matrix(1.00, 0.00, -0.00, -1.00, 419.0, 87.0)"></image><text xml:space="preserve" font-family="ArialMT,Arial" font-size="36.0" fill="#4E5B3E" transform="matrix(1.00, 0.00, -0.00, -1.00, 419.1, 65.8)">e</text><text xml:space="preserve" font-family="ArialMT,Arial" font-size="36.0" fill="#4E5B3E" transform="matrix(1.00, 0.00, -0.00, -1.00, 439.1, 65.8)"> </text><image xlink:href="../../11FDDE28-5BAD-4E56-9430-A68F51D99CDC/assets/80077AD09478984EEBA8BFEC7BB9F10B.png" width="22.00" height="24.00" transform="matrix(1.00, 0.00, -0.00, -1.00, 449.0, 87.0)"></image><text xml:space="preserve" font-family="ArialMT,Arial" font-size="36.0" fill="#4E5B3E" transform="matrix(1.00, 0.00, -0.00, -1.00, 449.1, 65.8)">e</text><image xlink:href="../../11FDDE28-5BAD-4E56-9430-A68F51D99CDC/assets/B052199D55CF1FF26E04206BE9DA8328.png" width="20.00" height="24.00" transform="matrix(1.00, 0.00, -0.00, -1.00, 470.0, 87.0)"></image><text xml:space="preserve" font-family="ArialMT,Arial" font-size="36.0" fill="#4E5B3E" transform="matrix(1.00, 0.00, -0.00, -1.00, 469.1, 65.8)">n</text><image xlink:href="../../11FDDE28-5BAD-4E56-9430-A68F51D99CDC/assets/84087D5365C8F354FE43C2AA259A4C31.png" width="22.00" height="24.00" transform="matrix(1.00, 0.00, -0.00, -1.00, 488.0, 87.0)"></image><text xml:space="preserve" font-family="ArialMT,Arial" font-size="36.0" fill="#4E5B3E" transform="matrix(1.00, 0.00, -0.00, -1.00, 489.1, 65.8)">v</text><image xlink:href="../../11FDDE28-5BAD-4E56-9430-A68F51D99CDC/assets/9E9FDAE741F9212B74C840A84A2AA643.png" width="8.00" height="31.00" transform="matrix(1.00, 0.00, -0.00, -1.00, 508.0, 94.0)"></image><text xml:space="preserve" font-family="ArialMT,Arial" font-size="36.0" fill="#4E5B3E" transform="matrix(1.00, 0.00, -0.00, -1.00, 507.1, 65.8)">i</text><image xlink:href="../../11FDDE28-5BAD-4E56-9430-A68F51D99CDC/assets/751F872DA9E26E71004EC2490EFAD88E.png" width="15.00" height="24.00" transform="matrix(1.00, 0.00, -0.00, -1.00, 516.0, 87.0)"></image><text xml:space="preserve" font-family="ArialMT,Arial" font-size="36.0" fill="#4E5B3E" transform="matrix(1.00, 0.00, -0.00, -1.00, 515.1, 65.8)">r</text><image xlink:href="../../11FDDE28-5BAD-4E56-9430-A68F51D99CDC/assets/D0C7801ADC94F8ED174B583106968590.png" width="22.00" height="24.00" transform="matrix(1.00, 0.00, -0.00, -1.00, 527.0, 87.0)"></image><text xml:space="preserve" font-family="ArialMT,Arial" font-size="36.0" fill="#4E5B3E" transform="matrix(1.00, 0.00, -0.00, -1.00, 527.1, 65.8)">o</text><image xlink:href="../../11FDDE28-5BAD-4E56-9430-A68F51D99CDC/assets/54C4B029474F97159568F22406FB204E.png" width="20.00" height="24.00" transform="matrix(1.00, 0.00, -0.00, -1.00, 548.0, 87.0)"></image><text xml:space="preserve" font-family="ArialMT,Arial" font-size="36.0" fill="#4E5B3E" transform="matrix(1.00, 0.00, -0.00, -1.00, 547.2, 65.8)">n</text><image xlink:href="../../11FDDE28-5BAD-4E56-9430-A68F51D99CDC/assets/4385B9D3E579B81149A470AF78FC8252.png" width="30.00" height="24.00" transform="matrix(1.00, 0.00, -0.00, -1.00, 568.0, 87.0)"></image><text xml:space="preserve" font-family="ArialMT,Arial" font-size="36.0" fill="#4E5B3E" transform="matrix(1.00, 0.00, -0.00, -1.00, 567.2, 65.8)">m</text><image xlink:href="../../11FDDE28-5BAD-4E56-9430-A68F51D99CDC/assets/C3747D69CF4DFD22036D96CB150C0DD6.png" width="22.00" height="24.00" transform="matrix(1.00, 0.00, -0.00, -1.00, 597.0, 87.0)"></image><text xml:space="preserve" font-family="ArialMT,Arial" font-size="36.0" fill="#4E5B3E" transform="matrix(1.00, 0.00, -0.00, -1.00, 597.2, 65.8)">e</text><image xlink:href="../../11FDDE28-5BAD-4E56-9430-A68F51D99CDC/assets/032DDE6217E67DB545B550D351D45164.png" width="20.00" height="24.00" transform="matrix(1.00, 0.00, -0.00, -1.00, 618.0, 87.0)"></image><text xml:space="preserve" font-family="ArialMT,Arial" font-size="36.0" fill="#4E5B3E" transform="matrix(1.00, 0.00, -0.00, -1.00, 617.2, 65.8)">n</text><image xlink:href="../../11FDDE28-5BAD-4E56-9430-A68F51D99CDC/assets/2D603FE5797B495B12E1CCAAE4E6AD3A.png" width="14.00" height="30.00" transform="matrix(1.00, 0.00, -0.00, -1.00, 636.0, 93.0)"></image><text xml:space="preserve" font-family="ArialMT,Arial" font-size="36.0" fill="#4E5B3E" transform="matrix(1.00, 0.00, -0.00, -1.00, 637.2, 65.8)">t</text><g><clipPath id="clip0x7f8a9df07310"><path d="M 193.0 600.0 L 810.0 600.0 L 810.0 269.0 L 193.0 269.0 Z M 192.8 600.2 "></path></clipPath><g clip-path="url(#clip0x7f8a9df07310)"><image xlink:href="../../82430A1F-FBD8-4BC4-B9B8-D62EF3271ADF/assets/6530CE760F040CA07F6363A1EA718F19.jpeg" width="380.00" height="253.00" transform="matrix(1.62, 0.00, -0.00, -1.62, 193.1, 600.0)"></image></g></g><image xlink:href="../../82430A1F-FBD8-4BC4-B9B8-D62EF3271ADF/assets/EB4B76BBD20CB6A19FEC08611CC82117.png" width="808.00" height="58.00" transform="matrix(1.00, 0.00, -0.00, -1.00, 75.0, 695.0)"></image><text xml:space="preserve" font-family="ArialMT,Arial" font-size="56.0" fill="#4E5B3E" transform="matrix(1.00, 0.00, -0.00, -1.00, 76.9, 651.4)">A</text><text xml:space="preserve" font-family="ArialMT,Arial" font-size="56.0" fill="#4E5B3E" transform="matrix(1.00, 0.00, -0.00, -1.00, 114.2, 651.4)">n</text><text xml:space="preserve" font-family="ArialMT,Arial" font-size="56.0" fill="#4E5B3E" transform="matrix(1.00, 0.00, -0.00, -1.00, 145.4, 651.4)">d</text><text xml:space="preserve" font-family="ArialMT,Arial" font-size="56.0" fill="#4E5B3E" transform="matrix(1.00, 0.00, -0.00, -1.00, 176.5, 651.4)"> </text><text xml:space="preserve" font-family="ArialMT,Arial" font-size="56.0" fill="#4E5B3E" transform="matrix(1.00, 0.00, -0.00, -1.00, 192.1, 651.4)">B</text><text xml:space="preserve" font-family="ArialMT,Arial" font-size="56.0" fill="#4E5B3E" transform="matrix(1.00, 0.00, -0.00, -1.00, 229.4, 651.4)">r</text><text xml:space="preserve" font-family="ArialMT,Arial" font-size="56.0" fill="#4E5B3E" transform="matrix(1.00, 0.00, -0.00, -1.00, 248.1, 651.4)">i</text><text xml:space="preserve" font-family="ArialMT,Arial" font-size="56.0" fill="#4E5B3E" transform="matrix(1.00, 0.00, -0.00, -1.00, 260.5, 651.4)">n</text><text xml:space="preserve" font-family="ArialMT,Arial" font-size="56.0" fill="#4E5B3E" transform="matrix(1.00, 0.00, -0.00, -1.00, 291.7, 651.4)">g</text><text xml:space="preserve" font-family="ArialMT,Arial" font-size="56.0" fill="#4E5B3E" transform="matrix(1.00, 0.00, -0.00, -1.00, 322.8, 651.4)"> </text><text xml:space="preserve" font-family="ArialMT,Arial" font-size="56.0" fill="#4E5B3E" transform="matrix(1.00, 0.00, -0.00, -1.00, 338.4, 651.4)">S</text><text xml:space="preserve" font-family="ArialMT,Arial" font-size="56.0" fill="#4E5B3E" transform="matrix(1.00, 0.00, -0.00, -1.00, 375.7, 651.4)">o</text><text xml:space="preserve" font-family="ArialMT,Arial" font-size="56.0" fill="#4E5B3E" transform="matrix(1.00, 0.00, -0.00, -1.00, 406.9, 651.4)">m</text><text xml:space="preserve" font-family="ArialMT,Arial" font-size="56.0" fill="#4E5B3E" transform="matrix(1.00, 0.00, -0.00, -1.00, 453.5, 651.4)">e</text><text xml:space="preserve" font-family="ArialMT,Arial" font-size="56.0" fill="#4E5B3E" transform="matrix(1.00, 0.00, -0.00, -1.00, 484.7, 651.4)"> </text><text xml:space="preserve" font-family="ArialMT,Arial" font-size="56.0" fill="#4E5B3E" transform="matrix(1.00, 0.00, -0.00, -1.00, 500.3, 651.4)">J</text><text xml:space="preserve" font-family="ArialMT,Arial" font-size="56.0" fill="#4E5B3E" transform="matrix(1.00, 0.00, -0.00, -1.00, 528.3, 651.4)">o</text><text xml:space="preserve" font-family="ArialMT,Arial" font-size="56.0" fill="#4E5B3E" transform="matrix(1.00, 0.00, -0.00, -1.00, 559.4, 651.4)">y</text><text xml:space="preserve" font-family="ArialMT,Arial" font-size="56.0" fill="#4E5B3E" transform="matrix(1.00, 0.00, -0.00, -1.00, 587.4, 651.4)"> </text><text xml:space="preserve" font-family="ArialMT,Arial" font-size="56.0" fill="#4E5B3E" transform="matrix(1.00, 0.00, -0.00, -1.00, 603.0, 651.4)">t</text><text xml:space="preserve" font-family="ArialMT,Arial" font-size="56.0" fill="#4E5B3E" transform="matrix(1.00, 0.00, -0.00, -1.00, 618.5, 651.4)">o</text><text xml:space="preserve" font-family="ArialMT,Arial" font-size="56.0" fill="#4E5B3E" transform="matrix(1.00, 0.00, -0.00, -1.00, 649.7, 651.4)"> </text><text xml:space="preserve" font-family="ArialMT,Arial" font-size="56.0" fill="#4E5B3E" transform="matrix(1.00, 0.00, -0.00, -1.00, 665.2, 651.4)">L</text><text xml:space="preserve" font-family="ArialMT,Arial" font-size="56.0" fill="#4E5B3E" transform="matrix(1.00, 0.00, -0.00, -1.00, 696.4, 651.4)">e</text><text xml:space="preserve" font-family="ArialMT,Arial" font-size="56.0" fill="#4E5B3E" transform="matrix(1.00, 0.00, -0.00, -1.00, 727.5, 651.4)">a</text><text xml:space="preserve" font-family="ArialMT,Arial" font-size="56.0" fill="#4E5B3E" transform="matrix(1.00, 0.00, -0.00, -1.00, 758.7, 651.4)">r</text><text xml:space="preserve" font-family="ArialMT,Arial" font-size="56.0" fill="#4E5B3E" transform="matrix(1.00, 0.00, -0.00, -1.00, 777.3, 651.4)">n</text><text xml:space="preserve" font-family="ArialMT,Arial" font-size="56.0" fill="#4E5B3E" transform="matrix(1.00, 0.00, -0.00, -1.00, 808.5, 651.4)">i</text><text xml:space="preserve" font-family="ArialMT,Arial" font-size="56.0" fill="#4E5B3E" transform="matrix(1.00, 0.00, -0.00, -1.00, 820.9, 651.4)">n</text><text xml:space="preserve" font-family="ArialMT,Arial" font-size="56.0" fill="#4E5B3E" transform="matrix(1.00, 0.00, -0.00, -1.00, 852.1, 651.4)">g</text></g></svg>