<?xml version="1.0" encoding="UTF-8" standalone="no"?><svg xmlns="http://www.w3.org/2000/svg" xmlns:xlink="http://www.w3.org/1999/xlink" clip-rule="evenodd" stroke-miterlimit="10" viewBox="0 0 1024 768"><desc>SVG generated by Keynote</desc><defs></defs><g transform="matrix(1.00, 0.00, -0.00, -1.00, 0.0, 768.0)"><g><clipPath id="clip0x7f8a9bb99b60"><path d="M 0.0 768.0 L 1024.0 768.0 L 1024.0 0.0 L 0.0 0.0 Z M 0.0 768.0 "></path></clipPath><g clip-path="url(#clip0x7f8a9bb99b60)"><image xlink:href="../../99A5FB03-DE1B-4B4A-AE6D-D0C074086E95/assets/34988952894DD776A411594AF71579AA.jpeg" width="2048.00" height="1536.00" transform="matrix(0.50, 0.00, -0.00, -0.50, 0.0, 768.0)"></image></g></g><image xlink:href="../../82DC168A-1BFB-4A05-ADF6-032F006FEFE2/assets/70ECA6E2449C2A5B37B3CCE5216FACB9.png" width="681.00" height="46.00" transform="matrix(1.00, 0.00, -0.00, -1.00, 171.0, 739.0)"></image><text xml:space="preserve" font-family="ArialMT,Arial" font-size="56.0" fill="#FBF8E6" transform="matrix(1.00, 0.00, -0.00, -1.00, 169.4, 693.7)">M</text><text xml:space="preserve" font-family="ArialMT,Arial" font-size="56.0" fill="#FBF8E6" transform="matrix(1.00, 0.00, -0.00, -1.00, 218.9, 693.7)">A</text><text xml:space="preserve" font-family="ArialMT,Arial" font-size="56.0" fill="#FBF8E6" transform="matrix(1.00, 0.00, -0.00, -1.00, 254.9, 693.7)">Y</text><text xml:space="preserve" font-family="ArialMT,Arial" font-size="56.0" fill="#FBF8E6" transform="matrix(1.00, 0.00, -0.00, -1.00, 295.0, 693.7)">B</text><text xml:space="preserve" font-family="ArialMT,Arial" font-size="56.0" fill="#FBF8E6" transform="matrix(1.00, 0.00, -0.00, -1.00, 335.2, 693.7)">E</text><text xml:space="preserve" font-family="ArialMT,Arial" font-size="56.0" fill="#FBF8E6" transform="matrix(1.00, 0.00, -0.00, -1.00, 375.3, 693.7)"> </text><text xml:space="preserve" font-family="ArialMT,Arial" font-size="56.0" fill="#FBF8E6" transform="matrix(1.00, 0.00, -0.00, -1.00, 393.7, 693.7)">S</text><text xml:space="preserve" font-family="ArialMT,Arial" font-size="56.0" fill="#FBF8E6" transform="matrix(1.00, 0.00, -0.00, -1.00, 433.8, 693.7)">O</text><text xml:space="preserve" font-family="ArialMT,Arial" font-size="56.0" fill="#FBF8E6" transform="matrix(1.00, 0.00, -0.00, -1.00, 480.2, 693.7)">M</text><text xml:space="preserve" font-family="ArialMT,Arial" font-size="56.0" fill="#FBF8E6" transform="matrix(1.00, 0.00, -0.00, -1.00, 529.6, 693.7)">E</text><text xml:space="preserve" font-family="ArialMT,Arial" font-size="56.0" fill="#FBF8E6" transform="matrix(1.00, 0.00, -0.00, -1.00, 569.8, 693.7)"> </text><text xml:space="preserve" font-family="ArialMT,Arial" font-size="56.0" fill="#FBF8E6" transform="matrix(1.00, 0.00, -0.00, -1.00, 588.1, 693.7)">S</text><text xml:space="preserve" font-family="ArialMT,Arial" font-size="56.0" fill="#FBF8E6" transform="matrix(1.00, 0.00, -0.00, -1.00, 628.3, 693.7)">O</text><text xml:space="preserve" font-family="ArialMT,Arial" font-size="56.0" fill="#FBF8E6" transform="matrix(1.00, 0.00, -0.00, -1.00, 674.7, 693.7)">R</text><text xml:space="preserve" font-family="ArialMT,Arial" font-size="56.0" fill="#FBF8E6" transform="matrix(1.00, 0.00, -0.00, -1.00, 716.9, 693.7)">T</text><text xml:space="preserve" font-family="ArialMT,Arial" font-size="56.0" fill="#FBF8E6" transform="matrix(1.00, 0.00, -0.00, -1.00, 752.9, 693.7)"> </text><text xml:space="preserve" font-family="ArialMT,Arial" font-size="56.0" fill="#FBF8E6" transform="matrix(1.00, 0.00, -0.00, -1.00, 771.2, 693.7)">O</text><text xml:space="preserve" font-family="ArialMT,Arial" font-size="56.0" fill="#FBF8E6" transform="matrix(1.00, 0.00, -0.00, -1.00, 817.6, 693.7)">F</text><text xml:space="preserve" font-family="LucidaGrande,Lucida Grande" font-size="56.0" fill="#FBF8E6" transform="matrix(1.00, 0.00, -0.00, -1.00, 854.6, 693.7)"> </text><image xlink:href="../../82DC168A-1BFB-4A05-ADF6-032F006FEFE2/assets/1C43718AE1C67E8EE8FA5432CA9022E4.png" width="404.00" height="46.00" transform="matrix(1.00, 0.00, -0.00, -1.00, 310.0, 680.0)"></image><text xml:space="preserve" font-family="ArialMT,Arial" font-size="56.0" fill="#FBF8E6" transform="matrix(1.00, 0.00, -0.00, -1.00, 309.7, 635.0)">G</text><text xml:space="preserve" font-family="ArialMT,Arial" font-size="56.0" fill="#FBF8E6" transform="matrix(1.00, 0.00, -0.00, -1.00, 356.1, 635.0)">R</text><text xml:space="preserve" font-family="ArialMT,Arial" font-size="56.0" fill="#FBF8E6" transform="matrix(1.00, 0.00, -0.00, -1.00, 399.3, 635.0)">A</text><text xml:space="preserve" font-family="ArialMT,Arial" font-size="56.0" fill="#FBF8E6" transform="matrix(1.00, 0.00, -0.00, -1.00, 439.5, 635.0)">D</text><text xml:space="preserve" font-family="ArialMT,Arial" font-size="56.0" fill="#FBF8E6" transform="matrix(1.00, 0.00, -0.00, -1.00, 482.7, 635.0)">E</text><text xml:space="preserve" font-family="ArialMT,Arial" font-size="56.0" fill="#FBF8E6" transform="matrix(1.00, 0.00, -0.00, -1.00, 522.8, 635.0)"> </text><text xml:space="preserve" font-family="ArialMT,Arial" font-size="56.0" fill="#FBF8E6" transform="matrix(1.00, 0.00, -0.00, -1.00, 541.2, 635.0)">B</text><text xml:space="preserve" font-family="ArialMT,Arial" font-size="56.0" fill="#FBF8E6" transform="matrix(1.00, 0.00, -0.00, -1.00, 581.3, 635.0)">O</text><text xml:space="preserve" font-family="ArialMT,Arial" font-size="56.0" fill="#FBF8E6" transform="matrix(1.00, 0.00, -0.00, -1.00, 627.7, 635.0)">O</text><text xml:space="preserve" font-family="ArialMT,Arial" font-size="56.0" fill="#FBF8E6" transform="matrix(1.00, 0.00, -0.00, -1.00, 674.0, 635.0)">K</text><image xlink:href="../../99A5FB03-DE1B-4B4A-AE6D-D0C074086E95/assets/ABB8D1DF0CCBAB0DEB1325F4A6E5C7F6.png" width="19.00" height="19.00" transform="matrix(1.00, 0.00, -0.00, -1.00, 68.0, 539.0)"></image><image xlink:href="../../99A5FB03-DE1B-4B4A-AE6D-D0C074086E95/assets/2EAA803481B4829669A1AED6584C7A6E.png" width="132.00" height="132.00" transform="matrix(0.11, 0.00, -0.00, -0.11, 69.0, 536.3)"></image><image xlink:href="9820B4F29B420813D2A1715ABB2D8A98.png" width="853.00" height="39.00" transform="matrix(1.00, 0.00, -0.00, -1.00, 103.0, 547.0)"></image><text xml:space="preserve" font-family="ArialMT,Arial" font-size="36.0" fill="#4E5B3E" transform="matrix(1.00, 0.00, -0.00, -1.00, 103.0, 517.8)">C</text><text xml:space="preserve" font-family="ArialMT,Arial" font-size="36.0" fill="#4E5B3E" transform="matrix(1.00, 0.00, -0.00, -1.00, 129.0, 517.8)">h</text><text xml:space="preserve" font-family="ArialMT,Arial" font-size="36.0" fill="#4E5B3E" transform="matrix(1.00, 0.00, -0.00, -1.00, 149.0, 517.8)">o</text><text xml:space="preserve" font-family="ArialMT,Arial" font-size="36.0" fill="#4E5B3E" transform="matrix(1.00, 0.00, -0.00, -1.00, 169.1, 517.8)">o</text><text xml:space="preserve" font-family="ArialMT,Arial" font-size="36.0" fill="#4E5B3E" transform="matrix(1.00, 0.00, -0.00, -1.00, 189.1, 517.8)">s</text><text xml:space="preserve" font-family="ArialMT,Arial" font-size="36.0" fill="#4E5B3E" transform="matrix(1.00, 0.00, -0.00, -1.00, 207.1, 517.8)">e</text><text xml:space="preserve" font-family="ArialMT,Arial" font-size="36.0" fill="#4E5B3E" transform="matrix(1.00, 0.00, -0.00, -1.00, 227.1, 517.8)"> </text><text xml:space="preserve" font-family="ArialMT,Arial" font-size="36.0" fill="#4E5B3E" transform="matrix(1.00, 0.00, -0.00, -1.00, 237.1, 517.8)">a</text><text xml:space="preserve" font-family="ArialMT,Arial" font-size="36.0" fill="#4E5B3E" transform="matrix(1.00, 0.00, -0.00, -1.00, 257.1, 517.8)"> </text><text xml:space="preserve" font-family="ArialMT,Arial" font-size="36.0" fill="#4E5B3E" transform="matrix(1.00, 0.00, -0.00, -1.00, 267.1, 517.8)">m</text><text xml:space="preserve" font-family="ArialMT,Arial" font-size="36.0" fill="#4E5B3E" transform="matrix(1.00, 0.00, -0.00, -1.00, 297.1, 517.8)">a</text><text xml:space="preserve" font-family="ArialMT,Arial" font-size="36.0" fill="#4E5B3E" transform="matrix(1.00, 0.00, -0.00, -1.00, 317.2, 517.8)">r</text><text xml:space="preserve" font-family="ArialMT,Arial" font-size="36.0" fill="#4E5B3E" transform="matrix(1.00, 0.00, -0.00, -1.00, 329.1, 517.8)">k</text><text xml:space="preserve" font-family="ArialMT,Arial" font-size="36.0" fill="#4E5B3E" transform="matrix(1.00, 0.00, -0.00, -1.00, 347.1, 517.8)"> </text><text xml:space="preserve" font-family="ArialMT,Arial" font-size="36.0" fill="#4E5B3E" transform="matrix(1.00, 0.00, -0.00, -1.00, 357.1, 517.8)">t</text><text xml:space="preserve" font-family="ArialMT,Arial" font-size="36.0" fill="#4E5B3E" transform="matrix(1.00, 0.00, -0.00, -1.00, 367.1, 517.8)">o</text><text xml:space="preserve" font-family="ArialMT,Arial" font-size="36.0" fill="#4E5B3E" transform="matrix(1.00, 0.00, -0.00, -1.00, 387.2, 517.8)"> </text><text xml:space="preserve" font-family="ArialMT,Arial" font-size="36.0" fill="#4E5B3E" transform="matrix(1.00, 0.00, -0.00, -1.00, 397.2, 517.8)">a</text><text xml:space="preserve" font-family="ArialMT,Arial" font-size="36.0" fill="#4E5B3E" transform="matrix(1.00, 0.00, -0.00, -1.00, 417.2, 517.8)">s</text><text xml:space="preserve" font-family="ArialMT,Arial" font-size="36.0" fill="#4E5B3E" transform="matrix(1.00, 0.00, -0.00, -1.00, 435.2, 517.8)">s</text><text xml:space="preserve" font-family="ArialMT,Arial" font-size="36.0" fill="#4E5B3E" transform="matrix(1.00, 0.00, -0.00, -1.00, 453.2, 517.8)">e</text><text xml:space="preserve" font-family="ArialMT,Arial" font-size="36.0" fill="#4E5B3E" transform="matrix(1.00, 0.00, -0.00, -1.00, 473.2, 517.8)">s</text><text xml:space="preserve" font-family="ArialMT,Arial" font-size="36.0" fill="#4E5B3E" transform="matrix(1.00, 0.00, -0.00, -1.00, 491.2, 517.8)">s</text><text xml:space="preserve" font-family="ArialMT,Arial" font-size="36.0" fill="#4E5B3E" transform="matrix(1.00, 0.00, -0.00, -1.00, 509.2, 517.8)"> </text><text xml:space="preserve" font-family="ArialMT,Arial" font-size="36.0" fill="#4E5B3E" transform="matrix(1.00, 0.00, -0.00, -1.00, 519.2, 517.8)">a</text><text xml:space="preserve" font-family="ArialMT,Arial" font-size="36.0" fill="#4E5B3E" transform="matrix(1.00, 0.00, -0.00, -1.00, 539.2, 517.8)"> </text><text xml:space="preserve" font-family="ArialMT,Arial" font-size="36.0" fill="#4E5B3E" transform="matrix(1.00, 0.00, -0.00, -1.00, 549.2, 517.8)">s</text><text xml:space="preserve" font-family="ArialMT,Arial" font-size="36.0" fill="#4E5B3E" transform="matrix(1.00, 0.00, -0.00, -1.00, 567.2, 517.8)">t</text><text xml:space="preserve" font-family="ArialMT,Arial" font-size="36.0" fill="#4E5B3E" transform="matrix(1.00, 0.00, -0.00, -1.00, 577.2, 517.8)">u</text><text xml:space="preserve" font-family="ArialMT,Arial" font-size="36.0" fill="#4E5B3E" transform="matrix(1.00, 0.00, -0.00, -1.00, 597.3, 517.8)">d</text><text xml:space="preserve" font-family="ArialMT,Arial" font-size="36.0" fill="#4E5B3E" transform="matrix(1.00, 0.00, -0.00, -1.00, 617.3, 517.8)">e</text><text xml:space="preserve" font-family="ArialMT,Arial" font-size="36.0" fill="#4E5B3E" transform="matrix(1.00, 0.00, -0.00, -1.00, 637.3, 517.8)">n</text><text xml:space="preserve" font-family="ArialMT,Arial" font-size="36.0" fill="#4E5B3E" transform="matrix(1.00, 0.00, -0.00, -1.00, 657.3, 517.8)">t</text><text xml:space="preserve" font-family="ArialMT,Arial" font-size="36.0" fill="#4E5B3E" transform="matrix(1.00, 0.00, -0.00, -1.00, 667.3, 517.8)"> </text><text xml:space="preserve" font-family="ArialMT,Arial" font-size="36.0" fill="#4E5B3E" transform="matrix(1.00, 0.00, -0.00, -1.00, 677.3, 517.8)">a</text><text xml:space="preserve" font-family="ArialMT,Arial" font-size="36.0" fill="#4E5B3E" transform="matrix(1.00, 0.00, -0.00, -1.00, 697.4, 517.8)">n</text><text xml:space="preserve" font-family="ArialMT,Arial" font-size="36.0" fill="#4E5B3E" transform="matrix(1.00, 0.00, -0.00, -1.00, 717.4, 517.8)">d</text><text xml:space="preserve" font-family="ArialMT,Arial" font-size="36.0" fill="#4E5B3E" transform="matrix(1.00, 0.00, -0.00, -1.00, 737.4, 517.8)"> </text><text xml:space="preserve" font-family="ArialMT,Arial" font-size="36.0" fill="#4E5B3E" transform="matrix(1.00, 0.00, -0.00, -1.00, 747.4, 517.8)">a</text><text xml:space="preserve" font-family="ArialMT,Arial" font-size="36.0" fill="#4E5B3E" transform="matrix(1.00, 0.00, -0.00, -1.00, 767.4, 517.8)"> </text><text xml:space="preserve" font-family="ArialMT,Arial" font-size="36.0" fill="#4E5B3E" transform="matrix(1.00, 0.00, -0.00, -1.00, 777.4, 517.8)">p</text><text xml:space="preserve" font-family="ArialMT,Arial" font-size="36.0" fill="#4E5B3E" transform="matrix(1.00, 0.00, -0.00, -1.00, 797.5, 517.8)">a</text><text xml:space="preserve" font-family="ArialMT,Arial" font-size="36.0" fill="#4E5B3E" transform="matrix(1.00, 0.00, -0.00, -1.00, 817.5, 517.8)">n</text><text xml:space="preserve" font-family="ArialMT,Arial" font-size="36.0" fill="#4E5B3E" transform="matrix(1.00, 0.00, -0.00, -1.00, 837.5, 517.8)">e</text><text xml:space="preserve" font-family="ArialMT,Arial" font-size="36.0" fill="#4E5B3E" transform="matrix(1.00, 0.00, -0.00, -1.00, 857.5, 517.8)">l</text><text xml:space="preserve" font-family="ArialMT,Arial" font-size="36.0" fill="#4E5B3E" transform="matrix(1.00, 0.00, -0.00, -1.00, 865.6, 517.8)"> </text><text xml:space="preserve" font-family="ArialMT,Arial" font-size="36.0" fill="#4E5B3E" transform="matrix(1.00, 0.00, -0.00, -1.00, 875.5, 517.8)">p</text><text xml:space="preserve" font-family="ArialMT,Arial" font-size="36.0" fill="#4E5B3E" transform="matrix(1.00, 0.00, -0.00, -1.00, 895.6, 517.8)">o</text><text xml:space="preserve" font-family="ArialMT,Arial" font-size="36.0" fill="#4E5B3E" transform="matrix(1.00, 0.00, -0.00, -1.00, 915.6, 517.8)">p</text><text xml:space="preserve" font-family="ArialMT,Arial" font-size="36.0" fill="#4E5B3E" transform="matrix(1.00, 0.00, -0.00, -1.00, 935.6, 517.8)">s</text><text xml:space="preserve" font-family="ArialMT,Arial" font-size="36.0" fill="#4E5B3E" transform="matrix(1.00, 0.00, -0.00, -1.00, 953.6, 517.8)"> </text><image xlink:href="10911124A6129A04A65CEF308BE41847.png" width="74.00" height="31.00" transform="matrix(1.00, 0.00, -0.00, -1.00, 104.0, 497.0)"></image><text xml:space="preserve" font-family="ArialMT,Arial" font-size="36.0" fill="#4E5B3E" transform="matrix(1.00, 0.00, -0.00, -1.00, 103.0, 475.8)">u</text><text xml:space="preserve" font-family="ArialMT,Arial" font-size="36.0" fill="#4E5B3E" transform="matrix(1.00, 0.00, -0.00, -1.00, 123.0, 475.8)">p</text><text xml:space="preserve" font-family="ArialMT,Arial" font-size="36.0" fill="#4E5B3E" transform="matrix(1.00, 0.00, -0.00, -1.00, 143.1, 475.8)">…</text></g></svg>