<?xml version="1.0" encoding="UTF-8" standalone="no"?><svg xmlns="http://www.w3.org/2000/svg" xmlns:xlink="http://www.w3.org/1999/xlink" clip-rule="evenodd" stroke-miterlimit="10" viewBox="0 0 568 107"><desc>SVG generated by Keynote</desc><defs></defs><g transform="matrix(1.00, 0.00, -0.00, -1.00, 0.0, 107.0)"><image xlink:href="../../720F21C6-0A79-496F-8801-A660FC9E8F24/assets/D7286E3415D79B3011FBE43DDAEDF220.png" width="563.00" height="46.00" transform="matrix(1.00, 0.00, -0.00, -1.00, 1.0, 106.0)"></image><text xml:space="preserve" font-family="ArialMT,Arial" font-size="56.0" fill="#FBF8E6" transform="matrix(1.00, 0.00, -0.00, -1.00, -0.8, 60.7)">M</text><text xml:space="preserve" font-family="ArialMT,Arial" font-size="56.0" fill="#FBF8E6" transform="matrix(1.00, 0.00, -0.00, -1.00, 48.7, 60.7)">A</text><text xml:space="preserve" font-family="ArialMT,Arial" font-size="56.0" fill="#FBF8E6" transform="matrix(1.00, 0.00, -0.00, -1.00, 88.8, 60.7)">K</text><text xml:space="preserve" font-family="ArialMT,Arial" font-size="56.0" fill="#FBF8E6" transform="matrix(1.00, 0.00, -0.00, -1.00, 129.0, 60.7)">E</text><text xml:space="preserve" font-family="ArialMT,Arial" font-size="56.0" fill="#FBF8E6" transform="matrix(1.00, 0.00, -0.00, -1.00, 169.1, 60.7)"> </text><text xml:space="preserve" font-family="ArialMT,Arial" font-size="56.0" fill="#FBF8E6" transform="matrix(1.00, 0.00, -0.00, -1.00, 187.5, 60.7)">I</text><text xml:space="preserve" font-family="ArialMT,Arial" font-size="56.0" fill="#FBF8E6" transform="matrix(1.00, 0.00, -0.00, -1.00, 205.9, 60.7)">T</text><text xml:space="preserve" font-family="ArialMT,Arial" font-size="56.0" fill="#FBF8E6" transform="matrix(1.00, 0.00, -0.00, -1.00, 241.9, 60.7)"> </text><text xml:space="preserve" font-family="ArialMT,Arial" font-size="56.0" fill="#FBF8E6" transform="matrix(1.00, 0.00, -0.00, -1.00, 260.2, 60.7)">E</text><text xml:space="preserve" font-family="ArialMT,Arial" font-size="56.0" fill="#FBF8E6" transform="matrix(1.00, 0.00, -0.00, -1.00, 300.4, 60.7)">A</text><text xml:space="preserve" font-family="ArialMT,Arial" font-size="56.0" fill="#FBF8E6" transform="matrix(1.00, 0.00, -0.00, -1.00, 340.5, 60.7)">S</text><text xml:space="preserve" font-family="ArialMT,Arial" font-size="56.0" fill="#FBF8E6" transform="matrix(1.00, 0.00, -0.00, -1.00, 380.7, 60.7)">Y</text><text xml:space="preserve" font-family="ArialMT,Arial" font-size="56.0" fill="#FBF8E6" transform="matrix(1.00, 0.00, -0.00, -1.00, 419.8, 60.7)"> </text><text xml:space="preserve" font-family="ArialMT,Arial" font-size="56.0" fill="#FBF8E6" transform="matrix(1.00, 0.00, -0.00, -1.00, 438.2, 60.7)">F</text><text xml:space="preserve" font-family="ArialMT,Arial" font-size="56.0" fill="#FBF8E6" transform="matrix(1.00, 0.00, -0.00, -1.00, 475.2, 60.7)">O</text><text xml:space="preserve" font-family="ArialMT,Arial" font-size="56.0" fill="#FBF8E6" transform="matrix(1.00, 0.00, -0.00, -1.00, 521.5, 60.7)">R</text><text xml:space="preserve" font-family="ArialMT,Arial" font-size="56.0" fill="#FBF8E6" transform="matrix(1.00, 0.00, -0.00, -1.00, 564.8, 60.7)"> </text><image xlink:href="../../720F21C6-0A79-496F-8801-A660FC9E8F24/assets/084892DDA3DD6265D11EA2595CE666A5.png" width="380.00" height="46.00" transform="matrix(1.00, 0.00, -0.00, -1.00, 88.0, 47.0)"></image><text xml:space="preserve" font-family="ArialMT,Arial" font-size="56.0" fill="#FBF8E6" transform="matrix(1.00, 0.00, -0.00, -1.00, 88.9, 2.0)">T</text><text xml:space="preserve" font-family="ArialMT,Arial" font-size="56.0" fill="#FBF8E6" transform="matrix(1.00, 0.00, -0.00, -1.00, 125.9, 2.0)">E</text><text xml:space="preserve" font-family="ArialMT,Arial" font-size="56.0" fill="#FBF8E6" transform="matrix(1.00, 0.00, -0.00, -1.00, 166.1, 2.0)">A</text><text xml:space="preserve" font-family="ArialMT,Arial" font-size="56.0" fill="#FBF8E6" transform="matrix(1.00, 0.00, -0.00, -1.00, 206.2, 2.0)">C</text><text xml:space="preserve" font-family="ArialMT,Arial" font-size="56.0" fill="#FBF8E6" transform="matrix(1.00, 0.00, -0.00, -1.00, 249.4, 2.0)">H</text><text xml:space="preserve" font-family="ArialMT,Arial" font-size="56.0" fill="#FBF8E6" transform="matrix(1.00, 0.00, -0.00, -1.00, 292.7, 2.0)">E</text><text xml:space="preserve" font-family="ArialMT,Arial" font-size="56.0" fill="#FBF8E6" transform="matrix(1.00, 0.00, -0.00, -1.00, 332.8, 2.0)">R</text><text xml:space="preserve" font-family="ArialMT,Arial" font-size="56.0" fill="#FBF8E6" transform="matrix(1.00, 0.00, -0.00, -1.00, 376.0, 2.0)">S</text><text xml:space="preserve" font-family="ArialMT,Arial" font-size="56.0" fill="#FBF8E6" transform="matrix(1.00, 0.00, -0.00, -1.00, 416.2, 2.0)">…</text></g></svg>