<?xml version="1.0" encoding="UTF-8" standalone="no"?><svg xmlns="http://www.w3.org/2000/svg" xmlns:xlink="http://www.w3.org/1999/xlink" clip-rule="evenodd" stroke-miterlimit="10" viewBox="0 0 860 316"><desc>SVG generated by Keynote</desc><defs></defs><g transform="matrix(1.00, 0.00, -0.00, -1.00, 0.0, 316.0)"><image xlink:href="../../99A5FB03-DE1B-4B4A-AE6D-D0C074086E95/assets/ABB8D1DF0CCBAB0DEB1325F4A6E5C7F6.png" width="19.00" height="19.00" transform="matrix(1.00, 0.00, -0.00, -1.00, 0.0, 307.0)"></image><image xlink:href="../../99A5FB03-DE1B-4B4A-AE6D-D0C074086E95/assets/2EAA803481B4829669A1AED6584C7A6E.png" width="132.00" height="132.00" transform="matrix(0.11, 0.00, -0.00, -0.11, 1.0, 304.3)"></image><image xlink:href="../../720F21C6-0A79-496F-8801-A660FC9E8F24/assets/370E61CD9A4D0BE4D0596457E2830784.png" width="782.00" height="32.00" transform="matrix(1.00, 0.00, -0.00, -1.00, 35.0, 315.0)"></image><text xml:space="preserve" font-family="ArialMT,Arial" font-size="36.0" fill="#4E5B3E" transform="matrix(1.00, 0.00, -0.00, -1.00, 35.0, 285.8)">C</text><text xml:space="preserve" font-family="ArialMT,Arial" font-size="36.0" fill="#4E5B3E" transform="matrix(1.00, 0.00, -0.00, -1.00, 61.0, 285.8)">r</text><text xml:space="preserve" font-family="ArialMT,Arial" font-size="36.0" fill="#4E5B3E" transform="matrix(1.00, 0.00, -0.00, -1.00, 73.0, 285.8)">e</text><text xml:space="preserve" font-family="ArialMT,Arial" font-size="36.0" fill="#4E5B3E" transform="matrix(1.00, 0.00, -0.00, -1.00, 93.0, 285.8)">a</text><text xml:space="preserve" font-family="ArialMT,Arial" font-size="36.0" fill="#4E5B3E" transform="matrix(1.00, 0.00, -0.00, -1.00, 113.1, 285.8)">t</text><text xml:space="preserve" font-family="ArialMT,Arial" font-size="36.0" fill="#4E5B3E" transform="matrix(1.00, 0.00, -0.00, -1.00, 123.0, 285.8)">e</text><text xml:space="preserve" font-family="ArialMT,Arial" font-size="36.0" fill="#4E5B3E" transform="matrix(1.00, 0.00, -0.00, -1.00, 143.1, 285.8)"> </text><text xml:space="preserve" font-family="ArialMT,Arial" font-size="36.0" fill="#4E5B3E" transform="matrix(1.00, 0.00, -0.00, -1.00, 153.1, 285.8)">i</text><text xml:space="preserve" font-family="ArialMT,Arial" font-size="36.0" fill="#4E5B3E" transform="matrix(1.00, 0.00, -0.00, -1.00, 161.1, 285.8)">n</text><text xml:space="preserve" font-family="ArialMT,Arial" font-size="36.0" fill="#4E5B3E" transform="matrix(1.00, 0.00, -0.00, -1.00, 181.1, 285.8)">d</text><text xml:space="preserve" font-family="ArialMT,Arial" font-size="36.0" fill="#4E5B3E" transform="matrix(1.00, 0.00, -0.00, -1.00, 201.1, 285.8)">i</text><text xml:space="preserve" font-family="ArialMT,Arial" font-size="36.0" fill="#4E5B3E" transform="matrix(1.00, 0.00, -0.00, -1.00, 209.1, 285.8)">v</text><text xml:space="preserve" font-family="ArialMT,Arial" font-size="36.0" fill="#4E5B3E" transform="matrix(1.00, 0.00, -0.00, -1.00, 227.1, 285.8)">i</text><text xml:space="preserve" font-family="ArialMT,Arial" font-size="36.0" fill="#4E5B3E" transform="matrix(1.00, 0.00, -0.00, -1.00, 235.1, 285.8)">d</text><text xml:space="preserve" font-family="ArialMT,Arial" font-size="36.0" fill="#4E5B3E" transform="matrix(1.00, 0.00, -0.00, -1.00, 255.2, 285.8)">u</text><text xml:space="preserve" font-family="ArialMT,Arial" font-size="36.0" fill="#4E5B3E" transform="matrix(1.00, 0.00, -0.00, -1.00, 275.2, 285.8)">a</text><text xml:space="preserve" font-family="ArialMT,Arial" font-size="36.0" fill="#4E5B3E" transform="matrix(1.00, 0.00, -0.00, -1.00, 295.2, 285.8)">l</text><text xml:space="preserve" font-family="ArialMT,Arial" font-size="36.0" fill="#4E5B3E" transform="matrix(1.00, 0.00, -0.00, -1.00, 303.2, 285.8)">i</text><text xml:space="preserve" font-family="ArialMT,Arial" font-size="36.0" fill="#4E5B3E" transform="matrix(1.00, 0.00, -0.00, -1.00, 311.2, 285.8)">z</text><text xml:space="preserve" font-family="ArialMT,Arial" font-size="36.0" fill="#4E5B3E" transform="matrix(1.00, 0.00, -0.00, -1.00, 329.2, 285.8)">e</text><text xml:space="preserve" font-family="ArialMT,Arial" font-size="36.0" fill="#4E5B3E" transform="matrix(1.00, 0.00, -0.00, -1.00, 349.3, 285.8)">d</text><text xml:space="preserve" font-family="ArialMT,Arial" font-size="36.0" fill="#4E5B3E" transform="matrix(1.00, 0.00, -0.00, -1.00, 369.3, 285.8)"> </text><text xml:space="preserve" font-family="ArialMT,Arial" font-size="36.0" fill="#4E5B3E" transform="matrix(1.00, 0.00, -0.00, -1.00, 379.3, 285.8)">c</text><text xml:space="preserve" font-family="ArialMT,Arial" font-size="36.0" fill="#4E5B3E" transform="matrix(1.00, 0.00, -0.00, -1.00, 397.3, 285.8)">u</text><text xml:space="preserve" font-family="ArialMT,Arial" font-size="36.0" fill="#4E5B3E" transform="matrix(1.00, 0.00, -0.00, -1.00, 417.3, 285.8)">r</text><text xml:space="preserve" font-family="ArialMT,Arial" font-size="36.0" fill="#4E5B3E" transform="matrix(1.00, 0.00, -0.00, -1.00, 429.3, 285.8)">r</text><text xml:space="preserve" font-family="ArialMT,Arial" font-size="36.0" fill="#4E5B3E" transform="matrix(1.00, 0.00, -0.00, -1.00, 441.3, 285.8)">i</text><text xml:space="preserve" font-family="ArialMT,Arial" font-size="36.0" fill="#4E5B3E" transform="matrix(1.00, 0.00, -0.00, -1.00, 449.3, 285.8)">c</text><text xml:space="preserve" font-family="ArialMT,Arial" font-size="36.0" fill="#4E5B3E" transform="matrix(1.00, 0.00, -0.00, -1.00, 467.3, 285.8)">u</text><text xml:space="preserve" font-family="ArialMT,Arial" font-size="36.0" fill="#4E5B3E" transform="matrix(1.00, 0.00, -0.00, -1.00, 487.3, 285.8)">l</text><text xml:space="preserve" font-family="ArialMT,Arial" font-size="36.0" fill="#4E5B3E" transform="matrix(1.00, 0.00, -0.00, -1.00, 495.3, 285.8)">u</text><text xml:space="preserve" font-family="ArialMT,Arial" font-size="36.0" fill="#4E5B3E" transform="matrix(1.00, 0.00, -0.00, -1.00, 515.4, 285.8)">m</text><text xml:space="preserve" font-family="ArialMT,Arial" font-size="36.0" fill="#4E5B3E" transform="matrix(1.00, 0.00, -0.00, -1.00, 545.4, 285.8)"> </text><text xml:space="preserve" font-family="ArialMT,Arial" font-size="36.0" fill="#4E5B3E" transform="matrix(1.00, 0.00, -0.00, -1.00, 555.3, 285.8)">f</text><text xml:space="preserve" font-family="ArialMT,Arial" font-size="36.0" fill="#4E5B3E" transform="matrix(1.00, 0.00, -0.00, -1.00, 565.3, 285.8)">o</text><text xml:space="preserve" font-family="ArialMT,Arial" font-size="36.0" fill="#4E5B3E" transform="matrix(1.00, 0.00, -0.00, -1.00, 585.4, 285.8)">r</text><text xml:space="preserve" font-family="ArialMT,Arial" font-size="36.0" fill="#4E5B3E" transform="matrix(1.00, 0.00, -0.00, -1.00, 597.4, 285.8)"> </text><text xml:space="preserve" font-family="ArialMT,Arial" font-size="36.0" fill="#4E5B3E" transform="matrix(1.00, 0.00, -0.00, -1.00, 607.4, 285.8)">e</text><text xml:space="preserve" font-family="ArialMT,Arial" font-size="36.0" fill="#4E5B3E" transform="matrix(1.00, 0.00, -0.00, -1.00, 627.4, 285.8)">a</text><text xml:space="preserve" font-family="ArialMT,Arial" font-size="36.0" fill="#4E5B3E" transform="matrix(1.00, 0.00, -0.00, -1.00, 647.4, 285.8)">c</text><text xml:space="preserve" font-family="ArialMT,Arial" font-size="36.0" fill="#4E5B3E" transform="matrix(1.00, 0.00, -0.00, -1.00, 665.4, 285.8)">h</text><text xml:space="preserve" font-family="ArialMT,Arial" font-size="36.0" fill="#4E5B3E" transform="matrix(1.00, 0.00, -0.00, -1.00, 685.4, 285.8)"> </text><text xml:space="preserve" font-family="ArialMT,Arial" font-size="36.0" fill="#4E5B3E" transform="matrix(1.00, 0.00, -0.00, -1.00, 695.4, 285.8)">s</text><text xml:space="preserve" font-family="ArialMT,Arial" font-size="36.0" fill="#4E5B3E" transform="matrix(1.00, 0.00, -0.00, -1.00, 713.4, 285.8)">t</text><text xml:space="preserve" font-family="ArialMT,Arial" font-size="36.0" fill="#4E5B3E" transform="matrix(1.00, 0.00, -0.00, -1.00, 723.4, 285.8)">u</text><text xml:space="preserve" font-family="ArialMT,Arial" font-size="36.0" fill="#4E5B3E" transform="matrix(1.00, 0.00, -0.00, -1.00, 743.5, 285.8)">d</text><text xml:space="preserve" font-family="ArialMT,Arial" font-size="36.0" fill="#4E5B3E" transform="matrix(1.00, 0.00, -0.00, -1.00, 763.5, 285.8)">e</text><text xml:space="preserve" font-family="ArialMT,Arial" font-size="36.0" fill="#4E5B3E" transform="matrix(1.00, 0.00, -0.00, -1.00, 783.5, 285.8)">n</text><text xml:space="preserve" font-family="ArialMT,Arial" font-size="36.0" fill="#4E5B3E" transform="matrix(1.00, 0.00, -0.00, -1.00, 803.5, 285.8)">t</text><text xml:space="preserve" font-family="ArialMT,Arial" font-size="36.0" fill="#4E5B3E" transform="matrix(1.00, 0.00, -0.00, -1.00, 813.5, 285.8)"> </text><image xlink:href="../../99A5FB03-DE1B-4B4A-AE6D-D0C074086E95/assets/ABB8D1DF0CCBAB0DEB1325F4A6E5C7F6.png" width="19.00" height="19.00" transform="matrix(1.00, 0.00, -0.00, -1.00, 0.0, 213.0)"></image><image xlink:href="../../99A5FB03-DE1B-4B4A-AE6D-D0C074086E95/assets/2EAA803481B4829669A1AED6584C7A6E.png" width="132.00" height="132.00" transform="matrix(0.11, 0.00, -0.00, -0.11, 1.0, 210.3)"></image><image xlink:href="../../720F21C6-0A79-496F-8801-A660FC9E8F24/assets/659F34DE2891395152665F81B8A73654.png" width="761.00" height="31.00" transform="matrix(1.00, 0.00, -0.00, -1.00, 36.0, 220.0)"></image><text xml:space="preserve" font-family="ArialMT,Arial" font-size="36.0" fill="#4E5B3E" transform="matrix(1.00, 0.00, -0.00, -1.00, 35.0, 191.8)">M</text><text xml:space="preserve" font-family="ArialMT,Arial" font-size="36.0" fill="#4E5B3E" transform="matrix(1.00, 0.00, -0.00, -1.00, 65.0, 191.8)">a</text><text xml:space="preserve" font-family="ArialMT,Arial" font-size="36.0" fill="#4E5B3E" transform="matrix(1.00, 0.00, -0.00, -1.00, 85.0, 191.8)">k</text><text xml:space="preserve" font-family="ArialMT,Arial" font-size="36.0" fill="#4E5B3E" transform="matrix(1.00, 0.00, -0.00, -1.00, 103.0, 191.8)">e</text><text xml:space="preserve" font-family="ArialMT,Arial" font-size="36.0" fill="#4E5B3E" transform="matrix(1.00, 0.00, -0.00, -1.00, 123.0, 191.8)"> </text><text xml:space="preserve" font-family="ArialMT,Arial" font-size="36.0" fill="#4E5B3E" transform="matrix(1.00, 0.00, -0.00, -1.00, 133.0, 191.8)">a</text><text xml:space="preserve" font-family="ArialMT,Arial" font-size="36.0" fill="#4E5B3E" transform="matrix(1.00, 0.00, -0.00, -1.00, 153.1, 191.8)">s</text><text xml:space="preserve" font-family="ArialMT,Arial" font-size="36.0" fill="#4E5B3E" transform="matrix(1.00, 0.00, -0.00, -1.00, 171.1, 191.8)">s</text><text xml:space="preserve" font-family="ArialMT,Arial" font-size="36.0" fill="#4E5B3E" transform="matrix(1.00, 0.00, -0.00, -1.00, 189.1, 191.8)">e</text><text xml:space="preserve" font-family="ArialMT,Arial" font-size="36.0" fill="#4E5B3E" transform="matrix(1.00, 0.00, -0.00, -1.00, 209.1, 191.8)">s</text><text xml:space="preserve" font-family="ArialMT,Arial" font-size="36.0" fill="#4E5B3E" transform="matrix(1.00, 0.00, -0.00, -1.00, 227.1, 191.8)">s</text><text xml:space="preserve" font-family="ArialMT,Arial" font-size="36.0" fill="#4E5B3E" transform="matrix(1.00, 0.00, -0.00, -1.00, 245.1, 191.8)">e</text><text xml:space="preserve" font-family="ArialMT,Arial" font-size="36.0" fill="#4E5B3E" transform="matrix(1.00, 0.00, -0.00, -1.00, 265.1, 191.8)">d</text><text xml:space="preserve" font-family="ArialMT,Arial" font-size="36.0" fill="#4E5B3E" transform="matrix(1.00, 0.00, -0.00, -1.00, 285.2, 191.8)"> </text><text xml:space="preserve" font-family="ArialMT,Arial" font-size="36.0" fill="#4E5B3E" transform="matrix(1.00, 0.00, -0.00, -1.00, 295.1, 191.8)">s</text><text xml:space="preserve" font-family="ArialMT,Arial" font-size="36.0" fill="#4E5B3E" transform="matrix(1.00, 0.00, -0.00, -1.00, 313.1, 191.8)">t</text><text xml:space="preserve" font-family="ArialMT,Arial" font-size="36.0" fill="#4E5B3E" transform="matrix(1.00, 0.00, -0.00, -1.00, 323.1, 191.8)">u</text><text xml:space="preserve" font-family="ArialMT,Arial" font-size="36.0" fill="#4E5B3E" transform="matrix(1.00, 0.00, -0.00, -1.00, 343.2, 191.8)">d</text><text xml:space="preserve" font-family="ArialMT,Arial" font-size="36.0" fill="#4E5B3E" transform="matrix(1.00, 0.00, -0.00, -1.00, 363.2, 191.8)">e</text><text xml:space="preserve" font-family="ArialMT,Arial" font-size="36.0" fill="#4E5B3E" transform="matrix(1.00, 0.00, -0.00, -1.00, 383.2, 191.8)">n</text><text xml:space="preserve" font-family="ArialMT,Arial" font-size="36.0" fill="#4E5B3E" transform="matrix(1.00, 0.00, -0.00, -1.00, 403.3, 191.8)">t</text><text xml:space="preserve" font-family="ArialMT,Arial" font-size="36.0" fill="#4E5B3E" transform="matrix(1.00, 0.00, -0.00, -1.00, 413.3, 191.8)"> </text><text xml:space="preserve" font-family="ArialMT,Arial" font-size="36.0" fill="#4E5B3E" transform="matrix(1.00, 0.00, -0.00, -1.00, 423.2, 191.8)">s</text><text xml:space="preserve" font-family="ArialMT,Arial" font-size="36.0" fill="#4E5B3E" transform="matrix(1.00, 0.00, -0.00, -1.00, 441.2, 191.8)">t</text><text xml:space="preserve" font-family="ArialMT,Arial" font-size="36.0" fill="#4E5B3E" transform="matrix(1.00, 0.00, -0.00, -1.00, 451.2, 191.8)">a</text><text xml:space="preserve" font-family="ArialMT,Arial" font-size="36.0" fill="#4E5B3E" transform="matrix(1.00, 0.00, -0.00, -1.00, 471.3, 191.8)">t</text><text xml:space="preserve" font-family="ArialMT,Arial" font-size="36.0" fill="#4E5B3E" transform="matrix(1.00, 0.00, -0.00, -1.00, 481.3, 191.8)">u</text><text xml:space="preserve" font-family="ArialMT,Arial" font-size="36.0" fill="#4E5B3E" transform="matrix(1.00, 0.00, -0.00, -1.00, 501.3, 191.8)">s</text><text xml:space="preserve" font-family="ArialMT,Arial" font-size="36.0" fill="#4E5B3E" transform="matrix(1.00, 0.00, -0.00, -1.00, 519.3, 191.8)"> </text><text xml:space="preserve" font-family="ArialMT,Arial" font-size="36.0" fill="#4E5B3E" transform="matrix(1.00, 0.00, -0.00, -1.00, 529.3, 191.8)">v</text><text xml:space="preserve" font-family="ArialMT,Arial" font-size="36.0" fill="#4E5B3E" transform="matrix(1.00, 0.00, -0.00, -1.00, 547.3, 191.8)">i</text><text xml:space="preserve" font-family="ArialMT,Arial" font-size="36.0" fill="#4E5B3E" transform="matrix(1.00, 0.00, -0.00, -1.00, 555.3, 191.8)">s</text><text xml:space="preserve" font-family="ArialMT,Arial" font-size="36.0" fill="#4E5B3E" transform="matrix(1.00, 0.00, -0.00, -1.00, 573.3, 191.8)">i</text><text xml:space="preserve" font-family="ArialMT,Arial" font-size="36.0" fill="#4E5B3E" transform="matrix(1.00, 0.00, -0.00, -1.00, 581.3, 191.8)">b</text><text xml:space="preserve" font-family="ArialMT,Arial" font-size="36.0" fill="#4E5B3E" transform="matrix(1.00, 0.00, -0.00, -1.00, 601.3, 191.8)">l</text><text xml:space="preserve" font-family="ArialMT,Arial" font-size="36.0" fill="#4E5B3E" transform="matrix(1.00, 0.00, -0.00, -1.00, 609.3, 191.8)">e</text><text xml:space="preserve" font-family="ArialMT,Arial" font-size="36.0" fill="#4E5B3E" transform="matrix(1.00, 0.00, -0.00, -1.00, 629.4, 191.8)"> </text><text xml:space="preserve" font-family="ArialMT,Arial" font-size="36.0" fill="#4E5B3E" transform="matrix(1.00, 0.00, -0.00, -1.00, 639.4, 191.8)">i</text><text xml:space="preserve" font-family="ArialMT,Arial" font-size="36.0" fill="#4E5B3E" transform="matrix(1.00, 0.00, -0.00, -1.00, 647.4, 191.8)">n</text><text xml:space="preserve" font-family="ArialMT,Arial" font-size="36.0" fill="#4E5B3E" transform="matrix(1.00, 0.00, -0.00, -1.00, 667.4, 191.8)"> </text><text xml:space="preserve" font-family="ArialMT,Arial" font-size="36.0" fill="#4E5B3E" transform="matrix(1.00, 0.00, -0.00, -1.00, 677.4, 191.8)">c</text><text xml:space="preserve" font-family="ArialMT,Arial" font-size="36.0" fill="#4E5B3E" transform="matrix(1.00, 0.00, -0.00, -1.00, 695.4, 191.8)">o</text><text xml:space="preserve" font-family="ArialMT,Arial" font-size="36.0" fill="#4E5B3E" transform="matrix(1.00, 0.00, -0.00, -1.00, 715.4, 191.8)">n</text><text xml:space="preserve" font-family="ArialMT,Arial" font-size="36.0" fill="#4E5B3E" transform="matrix(1.00, 0.00, -0.00, -1.00, 735.4, 191.8)">t</text><text xml:space="preserve" font-family="ArialMT,Arial" font-size="36.0" fill="#4E5B3E" transform="matrix(1.00, 0.00, -0.00, -1.00, 745.4, 191.8)">e</text><text xml:space="preserve" font-family="ArialMT,Arial" font-size="36.0" fill="#4E5B3E" transform="matrix(1.00, 0.00, -0.00, -1.00, 765.5, 191.8)">x</text><text xml:space="preserve" font-family="ArialMT,Arial" font-size="36.0" fill="#4E5B3E" transform="matrix(1.00, 0.00, -0.00, -1.00, 783.5, 191.8)">t</text><text xml:space="preserve" font-family="ArialMT,Arial" font-size="36.0" fill="#4E5B3E" transform="matrix(1.00, 0.00, -0.00, -1.00, 793.5, 191.8)"> </text><image xlink:href="../../99A5FB03-DE1B-4B4A-AE6D-D0C074086E95/assets/ABB8D1DF0CCBAB0DEB1325F4A6E5C7F6.png" width="19.00" height="19.00" transform="matrix(1.00, 0.00, -0.00, -1.00, 0.0, 119.0)"></image><image xlink:href="../../99A5FB03-DE1B-4B4A-AE6D-D0C074086E95/assets/2EAA803481B4829669A1AED6584C7A6E.png" width="132.00" height="132.00" transform="matrix(0.11, 0.00, -0.00, -0.11, 1.0, 116.3)"></image><image xlink:href="../../334D93EA-0CB4-47B9-A9C0-4785DE0FECA8/assets/8DBD8894A01BEA18C0AF5650997F9B8C.png" width="823.00" height="39.00" transform="matrix(1.00, 0.00, -0.00, -1.00, 36.0, 127.0)"></image><text xml:space="preserve" font-family="ArialMT,Arial" font-size="36.0" fill="#4E5B3E" transform="matrix(1.00, 0.00, -0.00, -1.00, 35.0, 97.8)">D</text><text xml:space="preserve" font-family="ArialMT,Arial" font-size="36.0" fill="#4E5B3E" transform="matrix(1.00, 0.00, -0.00, -1.00, 61.0, 97.8)">e</text><text xml:space="preserve" font-family="ArialMT,Arial" font-size="36.0" fill="#4E5B3E" transform="matrix(1.00, 0.00, -0.00, -1.00, 81.0, 97.8)">l</text><text xml:space="preserve" font-family="ArialMT,Arial" font-size="36.0" fill="#4E5B3E" transform="matrix(1.00, 0.00, -0.00, -1.00, 89.0, 97.8)">e</text><text xml:space="preserve" font-family="ArialMT,Arial" font-size="36.0" fill="#4E5B3E" transform="matrix(1.00, 0.00, -0.00, -1.00, 109.1, 97.8)">g</text><text xml:space="preserve" font-family="ArialMT,Arial" font-size="36.0" fill="#4E5B3E" transform="matrix(1.00, 0.00, -0.00, -1.00, 129.1, 97.8)">a</text><text xml:space="preserve" font-family="ArialMT,Arial" font-size="36.0" fill="#4E5B3E" transform="matrix(1.00, 0.00, -0.00, -1.00, 149.1, 97.8)">t</text><text xml:space="preserve" font-family="ArialMT,Arial" font-size="36.0" fill="#4E5B3E" transform="matrix(1.00, 0.00, -0.00, -1.00, 159.1, 97.8)">e</text><text xml:space="preserve" font-family="ArialMT,Arial" font-size="36.0" fill="#4E5B3E" transform="matrix(1.00, 0.00, -0.00, -1.00, 179.1, 97.8)"> </text><text xml:space="preserve" font-family="ArialMT,Arial" font-size="36.0" fill="#4E5B3E" transform="matrix(1.00, 0.00, -0.00, -1.00, 189.1, 97.8)">p</text><text xml:space="preserve" font-family="ArialMT,Arial" font-size="36.0" fill="#4E5B3E" transform="matrix(1.00, 0.00, -0.00, -1.00, 209.2, 97.8)">r</text><text xml:space="preserve" font-family="ArialMT,Arial" font-size="36.0" fill="#4E5B3E" transform="matrix(1.00, 0.00, -0.00, -1.00, 221.2, 97.8)">i</text><text xml:space="preserve" font-family="ArialMT,Arial" font-size="36.0" fill="#4E5B3E" transform="matrix(1.00, 0.00, -0.00, -1.00, 229.2, 97.8)">m</text><text xml:space="preserve" font-family="ArialMT,Arial" font-size="36.0" fill="#4E5B3E" transform="matrix(1.00, 0.00, -0.00, -1.00, 259.2, 97.8)">a</text><text xml:space="preserve" font-family="ArialMT,Arial" font-size="36.0" fill="#4E5B3E" transform="matrix(1.00, 0.00, -0.00, -1.00, 279.2, 97.8)">r</text><text xml:space="preserve" font-family="ArialMT,Arial" font-size="36.0" fill="#4E5B3E" transform="matrix(1.00, 0.00, -0.00, -1.00, 291.2, 97.8)">y</text><text xml:space="preserve" font-family="ArialMT,Arial" font-size="36.0" fill="#4E5B3E" transform="matrix(1.00, 0.00, -0.00, -1.00, 309.2, 97.8)"> </text><text xml:space="preserve" font-family="ArialMT,Arial" font-size="36.0" fill="#4E5B3E" transform="matrix(1.00, 0.00, -0.00, -1.00, 319.2, 97.8)">i</text><text xml:space="preserve" font-family="ArialMT,Arial" font-size="36.0" fill="#4E5B3E" transform="matrix(1.00, 0.00, -0.00, -1.00, 327.2, 97.8)">n</text><text xml:space="preserve" font-family="ArialMT,Arial" font-size="36.0" fill="#4E5B3E" transform="matrix(1.00, 0.00, -0.00, -1.00, 347.2, 97.8)">f</text><text xml:space="preserve" font-family="ArialMT,Arial" font-size="36.0" fill="#4E5B3E" transform="matrix(1.00, 0.00, -0.00, -1.00, 357.2, 97.8)">o</text><text xml:space="preserve" font-family="ArialMT,Arial" font-size="36.0" fill="#4E5B3E" transform="matrix(1.00, 0.00, -0.00, -1.00, 377.2, 97.8)">r</text><text xml:space="preserve" font-family="ArialMT,Arial" font-size="36.0" fill="#4E5B3E" transform="matrix(1.00, 0.00, -0.00, -1.00, 389.2, 97.8)">m</text><text xml:space="preserve" font-family="ArialMT,Arial" font-size="36.0" fill="#4E5B3E" transform="matrix(1.00, 0.00, -0.00, -1.00, 419.2, 97.8)">a</text><text xml:space="preserve" font-family="ArialMT,Arial" font-size="36.0" fill="#4E5B3E" transform="matrix(1.00, 0.00, -0.00, -1.00, 439.2, 97.8)">t</text><text xml:space="preserve" font-family="ArialMT,Arial" font-size="36.0" fill="#4E5B3E" transform="matrix(1.00, 0.00, -0.00, -1.00, 449.2, 97.8)">i</text><text xml:space="preserve" font-family="ArialMT,Arial" font-size="36.0" fill="#4E5B3E" transform="matrix(1.00, 0.00, -0.00, -1.00, 457.2, 97.8)">o</text><text xml:space="preserve" font-family="ArialMT,Arial" font-size="36.0" fill="#4E5B3E" transform="matrix(1.00, 0.00, -0.00, -1.00, 477.3, 97.8)">n</text><text xml:space="preserve" font-family="ArialMT,Arial" font-size="36.0" fill="#4E5B3E" transform="matrix(1.00, 0.00, -0.00, -1.00, 497.3, 97.8)"> </text><text xml:space="preserve" font-family="ArialMT,Arial" font-size="36.0" fill="#4E5B3E" transform="matrix(1.00, 0.00, -0.00, -1.00, 507.3, 97.8)">d</text><text xml:space="preserve" font-family="ArialMT,Arial" font-size="36.0" fill="#4E5B3E" transform="matrix(1.00, 0.00, -0.00, -1.00, 527.3, 97.8)">e</text><text xml:space="preserve" font-family="ArialMT,Arial" font-size="36.0" fill="#4E5B3E" transform="matrix(1.00, 0.00, -0.00, -1.00, 547.3, 97.8)">l</text><text xml:space="preserve" font-family="ArialMT,Arial" font-size="36.0" fill="#4E5B3E" transform="matrix(1.00, 0.00, -0.00, -1.00, 555.3, 97.8)">i</text><text xml:space="preserve" font-family="ArialMT,Arial" font-size="36.0" fill="#4E5B3E" transform="matrix(1.00, 0.00, -0.00, -1.00, 563.3, 97.8)">v</text><text xml:space="preserve" font-family="ArialMT,Arial" font-size="36.0" fill="#4E5B3E" transform="matrix(1.00, 0.00, -0.00, -1.00, 581.3, 97.8)">e</text><text xml:space="preserve" font-family="ArialMT,Arial" font-size="36.0" fill="#4E5B3E" transform="matrix(1.00, 0.00, -0.00, -1.00, 601.4, 97.8)">r</text><text xml:space="preserve" font-family="ArialMT,Arial" font-size="36.0" fill="#4E5B3E" transform="matrix(1.00, 0.00, -0.00, -1.00, 613.4, 97.8)">y</text><text xml:space="preserve" font-family="ArialMT,Arial" font-size="36.0" fill="#4E5B3E" transform="matrix(1.00, 0.00, -0.00, -1.00, 631.4, 97.8)"> </text><text xml:space="preserve" font-family="ArialMT,Arial" font-size="36.0" fill="#4E5B3E" transform="matrix(1.00, 0.00, -0.00, -1.00, 641.4, 97.8)">t</text><text xml:space="preserve" font-family="ArialMT,Arial" font-size="36.0" fill="#4E5B3E" transform="matrix(1.00, 0.00, -0.00, -1.00, 651.4, 97.8)">o</text><text xml:space="preserve" font-family="ArialMT,Arial" font-size="36.0" fill="#4E5B3E" transform="matrix(1.00, 0.00, -0.00, -1.00, 671.4, 97.8)"> </text><text xml:space="preserve" font-family="ArialMT,Arial" font-size="36.0" fill="#4E5B3E" transform="matrix(1.00, 0.00, -0.00, -1.00, 681.4, 97.8)">t</text><text xml:space="preserve" font-family="ArialMT,Arial" font-size="36.0" fill="#4E5B3E" transform="matrix(1.00, 0.00, -0.00, -1.00, 691.4, 97.8)">e</text><text xml:space="preserve" font-family="ArialMT,Arial" font-size="36.0" fill="#4E5B3E" transform="matrix(1.00, 0.00, -0.00, -1.00, 711.4, 97.8)">c</text><text xml:space="preserve" font-family="ArialMT,Arial" font-size="36.0" fill="#4E5B3E" transform="matrix(1.00, 0.00, -0.00, -1.00, 729.4, 97.8)">h</text><text xml:space="preserve" font-family="ArialMT,Arial" font-size="36.0" fill="#4E5B3E" transform="matrix(1.00, 0.00, -0.00, -1.00, 749.4, 97.8)">n</text><text xml:space="preserve" font-family="ArialMT,Arial" font-size="36.0" fill="#4E5B3E" transform="matrix(1.00, 0.00, -0.00, -1.00, 769.5, 97.8)">o</text><text xml:space="preserve" font-family="ArialMT,Arial" font-size="36.0" fill="#4E5B3E" transform="matrix(1.00, 0.00, -0.00, -1.00, 789.5, 97.8)">l</text><text xml:space="preserve" font-family="ArialMT,Arial" font-size="36.0" fill="#4E5B3E" transform="matrix(1.00, 0.00, -0.00, -1.00, 797.5, 97.8)">o</text><text xml:space="preserve" font-family="ArialMT,Arial" font-size="36.0" fill="#4E5B3E" transform="matrix(1.00, 0.00, -0.00, -1.00, 817.5, 97.8)">g</text><text xml:space="preserve" font-family="ArialMT,Arial" font-size="36.0" fill="#4E5B3E" transform="matrix(1.00, 0.00, -0.00, -1.00, 837.6, 97.8)">y</text><text xml:space="preserve" font-family="ArialMT,Arial" font-size="36.0" fill="#4E5B3E" transform="matrix(1.00, 0.00, -0.00, -1.00, 855.6, 97.8)"> </text><image xlink:href="../../99A5FB03-DE1B-4B4A-AE6D-D0C074086E95/assets/ABB8D1DF0CCBAB0DEB1325F4A6E5C7F6.png" width="19.00" height="19.00" transform="matrix(1.00, 0.00, -0.00, -1.00, 0.0, 25.0)"></image><image xlink:href="../../99A5FB03-DE1B-4B4A-AE6D-D0C074086E95/assets/2EAA803481B4829669A1AED6584C7A6E.png" width="132.00" height="132.00" transform="matrix(0.11, 0.00, -0.00, -0.11, 1.0, 22.3)"></image><image xlink:href="../../720F21C6-0A79-496F-8801-A660FC9E8F24/assets/61C1CBA4599EEC8F0642F5D4BCFE3334.png" width="144.00" height="31.00" transform="matrix(1.00, 0.00, -0.00, -1.00, 34.0, 32.0)"></image><text xml:space="preserve" font-family="ArialMT,Arial" font-size="36.0" fill="#4E5B3E" transform="matrix(1.00, 0.00, -0.00, -1.00, 35.0, 3.8)">T</text><text xml:space="preserve" font-family="ArialMT,Arial" font-size="36.0" fill="#4E5B3E" transform="matrix(1.00, 0.00, -0.00, -1.00, 57.0, 3.8)">h</text><text xml:space="preserve" font-family="ArialMT,Arial" font-size="36.0" fill="#4E5B3E" transform="matrix(1.00, 0.00, -0.00, -1.00, 77.0, 3.8)">a</text><text xml:space="preserve" font-family="ArialMT,Arial" font-size="36.0" fill="#4E5B3E" transform="matrix(1.00, 0.00, -0.00, -1.00, 97.0, 3.8)">t</text><text xml:space="preserve" font-family="ArialMT,Arial" font-size="36.0" fill="#4E5B3E" transform="matrix(1.00, 0.00, -0.00, -1.00, 107.0, 3.8)"> </text><text xml:space="preserve" font-family="ArialMT,Arial" font-size="36.0" fill="#4E5B3E" transform="matrix(1.00, 0.00, -0.00, -1.00, 117.0, 3.8)">i</text><text xml:space="preserve" font-family="ArialMT,Arial" font-size="36.0" fill="#4E5B3E" transform="matrix(1.00, 0.00, -0.00, -1.00, 125.0, 3.8)">s</text><text xml:space="preserve" font-family="ArialMT,Arial" font-size="36.0" fill="#4E5B3E" transform="matrix(1.00, 0.00, -0.00, -1.00, 143.0, 3.8)">…</text></g></svg>