<?xml version="1.0" encoding="UTF-8" standalone="no"?><svg xmlns="http://www.w3.org/2000/svg" xmlns:xlink="http://www.w3.org/1999/xlink" clip-rule="evenodd" stroke-miterlimit="10" viewBox="0 0 1024 768"><desc>SVG generated by Keynote</desc><defs></defs><g transform="matrix(1.00, 0.00, -0.00, -1.00, 0.0, 768.0)"><g><clipPath id="clip0x7f8ab889e410"><path d="M 0.0 768.0 L 1024.0 768.0 L 1024.0 0.0 L 0.0 0.0 Z M 0.0 768.0 "></path></clipPath><g clip-path="url(#clip0x7f8ab889e410)"><image xlink:href="../../CFB973E0-1CA5-4505-A6AC-B517D18CDB5D/assets/EAEB15BD30B8B47CFBACD9348EDFD47C.jpeg" width="2048.00" height="1536.00" transform="matrix(0.50, 0.00, -0.00, -0.50, 0.0, 768.0)"></image></g></g><g><clipPath id="clip0x7f8a9a914360"><path d="M 193.0 600.0 L 810.0 600.0 L 810.0 269.0 L 193.0 269.0 Z M 192.8 600.2 "></path></clipPath><g clip-path="url(#clip0x7f8a9a914360)"><image xlink:href="6530CE760F040CA07F6363A1EA718F19.jpeg" width="380.00" height="253.00" transform="matrix(1.62, 0.00, -0.00, -1.62, 193.1, 600.0)"></image></g></g><image xlink:href="EB4B76BBD20CB6A19FEC08611CC82117.png" width="808.00" height="58.00" transform="matrix(1.00, 0.00, -0.00, -1.00, 75.0, 695.0)"></image><text xml:space="preserve" font-family="ArialMT,Arial" font-size="56.0" fill="#4E5B3E" transform="matrix(1.00, 0.00, -0.00, -1.00, 76.9, 651.4)">A</text><text xml:space="preserve" font-family="ArialMT,Arial" font-size="56.0" fill="#4E5B3E" transform="matrix(1.00, 0.00, -0.00, -1.00, 114.2, 651.4)">n</text><text xml:space="preserve" font-family="ArialMT,Arial" font-size="56.0" fill="#4E5B3E" transform="matrix(1.00, 0.00, -0.00, -1.00, 145.4, 651.4)">d</text><text xml:space="preserve" font-family="ArialMT,Arial" font-size="56.0" fill="#4E5B3E" transform="matrix(1.00, 0.00, -0.00, -1.00, 176.5, 651.4)"> </text><text xml:space="preserve" font-family="ArialMT,Arial" font-size="56.0" fill="#4E5B3E" transform="matrix(1.00, 0.00, -0.00, -1.00, 192.1, 651.4)">B</text><text xml:space="preserve" font-family="ArialMT,Arial" font-size="56.0" fill="#4E5B3E" transform="matrix(1.00, 0.00, -0.00, -1.00, 229.4, 651.4)">r</text><text xml:space="preserve" font-family="ArialMT,Arial" font-size="56.0" fill="#4E5B3E" transform="matrix(1.00, 0.00, -0.00, -1.00, 248.1, 651.4)">i</text><text xml:space="preserve" font-family="ArialMT,Arial" font-size="56.0" fill="#4E5B3E" transform="matrix(1.00, 0.00, -0.00, -1.00, 260.5, 651.4)">n</text><text xml:space="preserve" font-family="ArialMT,Arial" font-size="56.0" fill="#4E5B3E" transform="matrix(1.00, 0.00, -0.00, -1.00, 291.7, 651.4)">g</text><text xml:space="preserve" font-family="ArialMT,Arial" font-size="56.0" fill="#4E5B3E" transform="matrix(1.00, 0.00, -0.00, -1.00, 322.8, 651.4)"> </text><text xml:space="preserve" font-family="ArialMT,Arial" font-size="56.0" fill="#4E5B3E" transform="matrix(1.00, 0.00, -0.00, -1.00, 338.4, 651.4)">S</text><text xml:space="preserve" font-family="ArialMT,Arial" font-size="56.0" fill="#4E5B3E" transform="matrix(1.00, 0.00, -0.00, -1.00, 375.7, 651.4)">o</text><text xml:space="preserve" font-family="ArialMT,Arial" font-size="56.0" fill="#4E5B3E" transform="matrix(1.00, 0.00, -0.00, -1.00, 406.9, 651.4)">m</text><text xml:space="preserve" font-family="ArialMT,Arial" font-size="56.0" fill="#4E5B3E" transform="matrix(1.00, 0.00, -0.00, -1.00, 453.5, 651.4)">e</text><text xml:space="preserve" font-family="ArialMT,Arial" font-size="56.0" fill="#4E5B3E" transform="matrix(1.00, 0.00, -0.00, -1.00, 484.7, 651.4)"> </text><text xml:space="preserve" font-family="ArialMT,Arial" font-size="56.0" fill="#4E5B3E" transform="matrix(1.00, 0.00, -0.00, -1.00, 500.3, 651.4)">J</text><text xml:space="preserve" font-family="ArialMT,Arial" font-size="56.0" fill="#4E5B3E" transform="matrix(1.00, 0.00, -0.00, -1.00, 528.3, 651.4)">o</text><text xml:space="preserve" font-family="ArialMT,Arial" font-size="56.0" fill="#4E5B3E" transform="matrix(1.00, 0.00, -0.00, -1.00, 559.4, 651.4)">y</text><text xml:space="preserve" font-family="ArialMT,Arial" font-size="56.0" fill="#4E5B3E" transform="matrix(1.00, 0.00, -0.00, -1.00, 587.4, 651.4)"> </text><text xml:space="preserve" font-family="ArialMT,Arial" font-size="56.0" fill="#4E5B3E" transform="matrix(1.00, 0.00, -0.00, -1.00, 603.0, 651.4)">t</text><text xml:space="preserve" font-family="ArialMT,Arial" font-size="56.0" fill="#4E5B3E" transform="matrix(1.00, 0.00, -0.00, -1.00, 618.5, 651.4)">o</text><text xml:space="preserve" font-family="ArialMT,Arial" font-size="56.0" fill="#4E5B3E" transform="matrix(1.00, 0.00, -0.00, -1.00, 649.7, 651.4)"> </text><text xml:space="preserve" font-family="ArialMT,Arial" font-size="56.0" fill="#4E5B3E" transform="matrix(1.00, 0.00, -0.00, -1.00, 665.2, 651.4)">L</text><text xml:space="preserve" font-family="ArialMT,Arial" font-size="56.0" fill="#4E5B3E" transform="matrix(1.00, 0.00, -0.00, -1.00, 696.4, 651.4)">e</text><text xml:space="preserve" font-family="ArialMT,Arial" font-size="56.0" fill="#4E5B3E" transform="matrix(1.00, 0.00, -0.00, -1.00, 727.5, 651.4)">a</text><text xml:space="preserve" font-family="ArialMT,Arial" font-size="56.0" fill="#4E5B3E" transform="matrix(1.00, 0.00, -0.00, -1.00, 758.7, 651.4)">r</text><text xml:space="preserve" font-family="ArialMT,Arial" font-size="56.0" fill="#4E5B3E" transform="matrix(1.00, 0.00, -0.00, -1.00, 777.3, 651.4)">n</text><text xml:space="preserve" font-family="ArialMT,Arial" font-size="56.0" fill="#4E5B3E" transform="matrix(1.00, 0.00, -0.00, -1.00, 808.5, 651.4)">i</text><text xml:space="preserve" font-family="ArialMT,Arial" font-size="56.0" fill="#4E5B3E" transform="matrix(1.00, 0.00, -0.00, -1.00, 820.9, 651.4)">n</text><text xml:space="preserve" font-family="ArialMT,Arial" font-size="56.0" fill="#4E5B3E" transform="matrix(1.00, 0.00, -0.00, -1.00, 852.1, 651.4)">g</text></g></svg>