<?xml version="1.0" encoding="UTF-8" standalone="no"?><svg xmlns="http://www.w3.org/2000/svg" xmlns:xlink="http://www.w3.org/1999/xlink" clip-rule="evenodd" stroke-miterlimit="10" viewBox="0 0 1024 768"><desc>SVG generated by Keynote</desc><defs></defs><g transform="matrix(1.00, 0.00, -0.00, -1.00, 0.0, 768.0)"><g><clipPath id="clip0x7f8ab7d4a320"><path d="M 0.0 768.0 L 1024.0 768.0 L 1024.0 0.0 L 0.0 0.0 Z M 0.0 768.0 "></path></clipPath><g clip-path="url(#clip0x7f8ab7d4a320)"><image xlink:href="../../99A5FB03-DE1B-4B4A-AE6D-D0C074086E95/assets/34988952894DD776A411594AF71579AA.jpeg" width="2048.00" height="1536.00" transform="matrix(0.50, 0.00, -0.00, -0.50, 0.0, 768.0)"></image></g></g><image xlink:href="FBA16DA55B23B2E656C0DD80369B396C.png" width="677.00" height="45.00" transform="matrix(1.00, 0.00, -0.00, -1.00, 173.0, 738.0)"></image><text xml:space="preserve" font-family="ArialMT,Arial" font-size="56.0" fill="#FBF8E6" transform="matrix(1.00, 0.00, -0.00, -1.00, 170.7, 693.7)">F</text><text xml:space="preserve" font-family="ArialMT,Arial" font-size="56.0" fill="#FBF8E6" transform="matrix(1.00, 0.00, -0.00, -1.00, 207.7, 693.7)">U</text><text xml:space="preserve" font-family="ArialMT,Arial" font-size="56.0" fill="#FBF8E6" transform="matrix(1.00, 0.00, -0.00, -1.00, 251.0, 693.7)">L</text><text xml:space="preserve" font-family="ArialMT,Arial" font-size="56.0" fill="#FBF8E6" transform="matrix(1.00, 0.00, -0.00, -1.00, 284.9, 693.7)">L</text><text xml:space="preserve" font-family="ArialMT,Arial" font-size="56.0" fill="#FBF8E6" transform="matrix(1.00, 0.00, -0.00, -1.00, 314.7, 693.7)">Y</text><text xml:space="preserve" font-family="ArialMT,Arial" font-size="56.0" fill="#FBF8E6" transform="matrix(1.00, 0.00, -0.00, -1.00, 353.8, 693.7)"> </text><text xml:space="preserve" font-family="ArialMT,Arial" font-size="56.0" fill="#FBF8E6" transform="matrix(1.00, 0.00, -0.00, -1.00, 372.2, 693.7)">I</text><text xml:space="preserve" font-family="ArialMT,Arial" font-size="56.0" fill="#FBF8E6" transform="matrix(1.00, 0.00, -0.00, -1.00, 390.5, 693.7)">N</text><text xml:space="preserve" font-family="ArialMT,Arial" font-size="56.0" fill="#FBF8E6" transform="matrix(1.00, 0.00, -0.00, -1.00, 433.7, 693.7)">D</text><text xml:space="preserve" font-family="ArialMT,Arial" font-size="56.0" fill="#FBF8E6" transform="matrix(1.00, 0.00, -0.00, -1.00, 477.0, 693.7)">I</text><text xml:space="preserve" font-family="ArialMT,Arial" font-size="56.0" fill="#FBF8E6" transform="matrix(1.00, 0.00, -0.00, -1.00, 495.3, 693.7)">V</text><text xml:space="preserve" font-family="ArialMT,Arial" font-size="56.0" fill="#FBF8E6" transform="matrix(1.00, 0.00, -0.00, -1.00, 535.5, 693.7)">I</text><text xml:space="preserve" font-family="ArialMT,Arial" font-size="56.0" fill="#FBF8E6" transform="matrix(1.00, 0.00, -0.00, -1.00, 553.8, 693.7)">D</text><text xml:space="preserve" font-family="ArialMT,Arial" font-size="56.0" fill="#FBF8E6" transform="matrix(1.00, 0.00, -0.00, -1.00, 597.0, 693.7)">U</text><text xml:space="preserve" font-family="ArialMT,Arial" font-size="56.0" fill="#FBF8E6" transform="matrix(1.00, 0.00, -0.00, -1.00, 640.3, 693.7)">A</text><text xml:space="preserve" font-family="ArialMT,Arial" font-size="56.0" fill="#FBF8E6" transform="matrix(1.00, 0.00, -0.00, -1.00, 680.4, 693.7)">L</text><text xml:space="preserve" font-family="ArialMT,Arial" font-size="56.0" fill="#FBF8E6" transform="matrix(1.00, 0.00, -0.00, -1.00, 714.3, 693.7)">I</text><text xml:space="preserve" font-family="ArialMT,Arial" font-size="56.0" fill="#FBF8E6" transform="matrix(1.00, 0.00, -0.00, -1.00, 732.7, 693.7)">Z</text><text xml:space="preserve" font-family="ArialMT,Arial" font-size="56.0" fill="#FBF8E6" transform="matrix(1.00, 0.00, -0.00, -1.00, 769.7, 693.7)">E</text><text xml:space="preserve" font-family="ArialMT,Arial" font-size="56.0" fill="#FBF8E6" transform="matrix(1.00, 0.00, -0.00, -1.00, 809.8, 693.7)">D</text><text xml:space="preserve" font-family="ArialMT,Arial" font-size="56.0" fill="#FBF8E6" transform="matrix(1.00, 0.00, -0.00, -1.00, 853.1, 693.7)"> </text><image xlink:href="60D1D0D29B043B0FC5DA8D57C56F56E9.png" width="605.00" height="46.00" transform="matrix(1.00, 0.00, -0.00, -1.00, 209.0, 680.0)"></image><text xml:space="preserve" font-family="ArialMT,Arial" font-size="56.0" fill="#FBF8E6" transform="matrix(1.00, 0.00, -0.00, -1.00, 209.0, 635.0)">C</text><text xml:space="preserve" font-family="ArialMT,Arial" font-size="56.0" fill="#FBF8E6" transform="matrix(1.00, 0.00, -0.00, -1.00, 252.3, 635.0)">O</text><text xml:space="preserve" font-family="ArialMT,Arial" font-size="56.0" fill="#FBF8E6" transform="matrix(1.00, 0.00, -0.00, -1.00, 298.6, 635.0)">N</text><text xml:space="preserve" font-family="ArialMT,Arial" font-size="56.0" fill="#FBF8E6" transform="matrix(1.00, 0.00, -0.00, -1.00, 341.9, 635.0)">T</text><text xml:space="preserve" font-family="ArialMT,Arial" font-size="56.0" fill="#FBF8E6" transform="matrix(1.00, 0.00, -0.00, -1.00, 378.9, 635.0)">E</text><text xml:space="preserve" font-family="ArialMT,Arial" font-size="56.0" fill="#FBF8E6" transform="matrix(1.00, 0.00, -0.00, -1.00, 419.1, 635.0)">N</text><text xml:space="preserve" font-family="ArialMT,Arial" font-size="56.0" fill="#FBF8E6" transform="matrix(1.00, 0.00, -0.00, -1.00, 462.3, 635.0)">T</text><text xml:space="preserve" font-family="ArialMT,Arial" font-size="56.0" fill="#FBF8E6" transform="matrix(1.00, 0.00, -0.00, -1.00, 498.3, 635.0)"> </text><text xml:space="preserve" font-family="ArialMT,Arial" font-size="56.0" fill="#FBF8E6" transform="matrix(1.00, 0.00, -0.00, -1.00, 516.7, 635.0)">D</text><text xml:space="preserve" font-family="ArialMT,Arial" font-size="56.0" fill="#FBF8E6" transform="matrix(1.00, 0.00, -0.00, -1.00, 560.0, 635.0)">E</text><text xml:space="preserve" font-family="ArialMT,Arial" font-size="56.0" fill="#FBF8E6" transform="matrix(1.00, 0.00, -0.00, -1.00, 600.1, 635.0)">L</text><text xml:space="preserve" font-family="ArialMT,Arial" font-size="56.0" fill="#FBF8E6" transform="matrix(1.00, 0.00, -0.00, -1.00, 634.1, 635.0)">I</text><text xml:space="preserve" font-family="ArialMT,Arial" font-size="56.0" fill="#FBF8E6" transform="matrix(1.00, 0.00, -0.00, -1.00, 652.4, 635.0)">V</text><text xml:space="preserve" font-family="ArialMT,Arial" font-size="56.0" fill="#FBF8E6" transform="matrix(1.00, 0.00, -0.00, -1.00, 692.6, 635.0)">E</text><text xml:space="preserve" font-family="ArialMT,Arial" font-size="56.0" fill="#FBF8E6" transform="matrix(1.00, 0.00, -0.00, -1.00, 732.8, 635.0)">R</text><text xml:space="preserve" font-family="ArialMT,Arial" font-size="56.0" fill="#FBF8E6" transform="matrix(1.00, 0.00, -0.00, -1.00, 775.0, 635.0)">Y</text><image xlink:href="../../99A5FB03-DE1B-4B4A-AE6D-D0C074086E95/assets/ABB8D1DF0CCBAB0DEB1325F4A6E5C7F6.png" width="19.00" height="19.00" transform="matrix(1.00, 0.00, -0.00, -1.00, 68.0, 539.0)"></image><image xlink:href="../../99A5FB03-DE1B-4B4A-AE6D-D0C074086E95/assets/2EAA803481B4829669A1AED6584C7A6E.png" width="132.00" height="132.00" transform="matrix(0.11, 0.00, -0.00, -0.11, 69.0, 536.3)"></image><image xlink:href="2CA7E2334FFECAF2A6800932F2195397.png" width="780.00" height="39.00" transform="matrix(1.00, 0.00, -0.00, -1.00, 103.0, 547.0)"></image><text xml:space="preserve" font-family="ArialMT,Arial" font-size="36.0" fill="#4E5B3E" transform="matrix(1.00, 0.00, -0.00, -1.00, 103.0, 517.8)">O</text><text xml:space="preserve" font-family="ArialMT,Arial" font-size="36.0" fill="#4E5B3E" transform="matrix(1.00, 0.00, -0.00, -1.00, 131.0, 517.8)">r</text><text xml:space="preserve" font-family="ArialMT,Arial" font-size="36.0" fill="#4E5B3E" transform="matrix(1.00, 0.00, -0.00, -1.00, 143.0, 517.8)">g</text><text xml:space="preserve" font-family="ArialMT,Arial" font-size="36.0" fill="#4E5B3E" transform="matrix(1.00, 0.00, -0.00, -1.00, 163.0, 517.8)">a</text><text xml:space="preserve" font-family="ArialMT,Arial" font-size="36.0" fill="#4E5B3E" transform="matrix(1.00, 0.00, -0.00, -1.00, 183.0, 517.8)">n</text><text xml:space="preserve" font-family="ArialMT,Arial" font-size="36.0" fill="#4E5B3E" transform="matrix(1.00, 0.00, -0.00, -1.00, 203.1, 517.8)">i</text><text xml:space="preserve" font-family="ArialMT,Arial" font-size="36.0" fill="#4E5B3E" transform="matrix(1.00, 0.00, -0.00, -1.00, 211.1, 517.8)">z</text><text xml:space="preserve" font-family="ArialMT,Arial" font-size="36.0" fill="#4E5B3E" transform="matrix(1.00, 0.00, -0.00, -1.00, 229.1, 517.8)">i</text><text xml:space="preserve" font-family="ArialMT,Arial" font-size="36.0" fill="#4E5B3E" transform="matrix(1.00, 0.00, -0.00, -1.00, 237.1, 517.8)">n</text><text xml:space="preserve" font-family="ArialMT,Arial" font-size="36.0" fill="#4E5B3E" transform="matrix(1.00, 0.00, -0.00, -1.00, 257.1, 517.8)">g</text><text xml:space="preserve" font-family="ArialMT,Arial" font-size="36.0" fill="#4E5B3E" transform="matrix(1.00, 0.00, -0.00, -1.00, 277.1, 517.8)"> </text><text xml:space="preserve" font-family="ArialMT,Arial" font-size="36.0" fill="#4E5B3E" transform="matrix(1.00, 0.00, -0.00, -1.00, 287.1, 517.8)">c</text><text xml:space="preserve" font-family="ArialMT,Arial" font-size="36.0" fill="#4E5B3E" transform="matrix(1.00, 0.00, -0.00, -1.00, 305.1, 517.8)">l</text><text xml:space="preserve" font-family="ArialMT,Arial" font-size="36.0" fill="#4E5B3E" transform="matrix(1.00, 0.00, -0.00, -1.00, 313.1, 517.8)">a</text><text xml:space="preserve" font-family="ArialMT,Arial" font-size="36.0" fill="#4E5B3E" transform="matrix(1.00, 0.00, -0.00, -1.00, 333.2, 517.8)">s</text><text xml:space="preserve" font-family="ArialMT,Arial" font-size="36.0" fill="#4E5B3E" transform="matrix(1.00, 0.00, -0.00, -1.00, 351.2, 517.8)">s</text><text xml:space="preserve" font-family="ArialMT,Arial" font-size="36.0" fill="#4E5B3E" transform="matrix(1.00, 0.00, -0.00, -1.00, 369.2, 517.8)">r</text><text xml:space="preserve" font-family="ArialMT,Arial" font-size="36.0" fill="#4E5B3E" transform="matrix(1.00, 0.00, -0.00, -1.00, 381.2, 517.8)">o</text><text xml:space="preserve" font-family="ArialMT,Arial" font-size="36.0" fill="#4E5B3E" transform="matrix(1.00, 0.00, -0.00, -1.00, 401.2, 517.8)">o</text><text xml:space="preserve" font-family="ArialMT,Arial" font-size="36.0" fill="#4E5B3E" transform="matrix(1.00, 0.00, -0.00, -1.00, 421.2, 517.8)">m</text><text xml:space="preserve" font-family="ArialMT,Arial" font-size="36.0" fill="#4E5B3E" transform="matrix(1.00, 0.00, -0.00, -1.00, 451.2, 517.8)">s</text><text xml:space="preserve" font-family="ArialMT,Arial" font-size="36.0" fill="#4E5B3E" transform="matrix(1.00, 0.00, -0.00, -1.00, 469.2, 517.8)"> </text><text xml:space="preserve" font-family="ArialMT,Arial" font-size="36.0" fill="#4E5B3E" transform="matrix(1.00, 0.00, -0.00, -1.00, 479.2, 517.8)">b</text><text xml:space="preserve" font-family="ArialMT,Arial" font-size="36.0" fill="#4E5B3E" transform="matrix(1.00, 0.00, -0.00, -1.00, 499.2, 517.8)">y</text><text xml:space="preserve" font-family="ArialMT,Arial" font-size="36.0" fill="#4E5B3E" transform="matrix(1.00, 0.00, -0.00, -1.00, 517.2, 517.8)"> </text><text xml:space="preserve" font-family="ArialMT,Arial" font-size="36.0" fill="#4E5B3E" transform="matrix(1.00, 0.00, -0.00, -1.00, 527.2, 517.8)">a</text><text xml:space="preserve" font-family="ArialMT,Arial" font-size="36.0" fill="#4E5B3E" transform="matrix(1.00, 0.00, -0.00, -1.00, 547.2, 517.8)">g</text><text xml:space="preserve" font-family="ArialMT,Arial" font-size="36.0" fill="#4E5B3E" transform="matrix(1.00, 0.00, -0.00, -1.00, 567.3, 517.8)">e</text><text xml:space="preserve" font-family="ArialMT,Arial" font-size="36.0" fill="#4E5B3E" transform="matrix(1.00, 0.00, -0.00, -1.00, 587.3, 517.8)"> </text><text xml:space="preserve" font-family="ArialMT,Arial" font-size="36.0" fill="#4E5B3E" transform="matrix(1.00, 0.00, -0.00, -1.00, 597.3, 517.8)">m</text><text xml:space="preserve" font-family="ArialMT,Arial" font-size="36.0" fill="#4E5B3E" transform="matrix(1.00, 0.00, -0.00, -1.00, 627.3, 517.8)">i</text><text xml:space="preserve" font-family="ArialMT,Arial" font-size="36.0" fill="#4E5B3E" transform="matrix(1.00, 0.00, -0.00, -1.00, 635.3, 517.8)">g</text><text xml:space="preserve" font-family="ArialMT,Arial" font-size="36.0" fill="#4E5B3E" transform="matrix(1.00, 0.00, -0.00, -1.00, 655.3, 517.8)">h</text><text xml:space="preserve" font-family="ArialMT,Arial" font-size="36.0" fill="#4E5B3E" transform="matrix(1.00, 0.00, -0.00, -1.00, 675.3, 517.8)">t</text><text xml:space="preserve" font-family="ArialMT,Arial" font-size="36.0" fill="#4E5B3E" transform="matrix(1.00, 0.00, -0.00, -1.00, 685.3, 517.8)"> </text><text xml:space="preserve" font-family="ArialMT,Arial" font-size="36.0" fill="#4E5B3E" transform="matrix(1.00, 0.00, -0.00, -1.00, 695.3, 517.8)">b</text><text xml:space="preserve" font-family="ArialMT,Arial" font-size="36.0" fill="#4E5B3E" transform="matrix(1.00, 0.00, -0.00, -1.00, 715.4, 517.8)">e</text><text xml:space="preserve" font-family="ArialMT,Arial" font-size="36.0" fill="#4E5B3E" transform="matrix(1.00, 0.00, -0.00, -1.00, 735.4, 517.8)"> </text><text xml:space="preserve" font-family="ArialMT,Arial" font-size="36.0" fill="#4E5B3E" transform="matrix(1.00, 0.00, -0.00, -1.00, 745.4, 517.8)">o</text><text xml:space="preserve" font-family="ArialMT,Arial" font-size="36.0" fill="#4E5B3E" transform="matrix(1.00, 0.00, -0.00, -1.00, 765.4, 517.8)">b</text><text xml:space="preserve" font-family="ArialMT,Arial" font-size="36.0" fill="#4E5B3E" transform="matrix(1.00, 0.00, -0.00, -1.00, 785.4, 517.8)">s</text><text xml:space="preserve" font-family="ArialMT,Arial" font-size="36.0" fill="#4E5B3E" transform="matrix(1.00, 0.00, -0.00, -1.00, 803.4, 517.8)">o</text><text xml:space="preserve" font-family="ArialMT,Arial" font-size="36.0" fill="#4E5B3E" transform="matrix(1.00, 0.00, -0.00, -1.00, 823.5, 517.8)">l</text><text xml:space="preserve" font-family="ArialMT,Arial" font-size="36.0" fill="#4E5B3E" transform="matrix(1.00, 0.00, -0.00, -1.00, 831.5, 517.8)">e</text><text xml:space="preserve" font-family="ArialMT,Arial" font-size="36.0" fill="#4E5B3E" transform="matrix(1.00, 0.00, -0.00, -1.00, 851.5, 517.8)">t</text><text xml:space="preserve" font-family="ArialMT,Arial" font-size="36.0" fill="#4E5B3E" transform="matrix(1.00, 0.00, -0.00, -1.00, 861.5, 517.8)">e</text><text xml:space="preserve" font-family="ArialMT,Arial" font-size="36.0" fill="#4E5B3E" transform="matrix(1.00, 0.00, -0.00, -1.00, 881.5, 517.8)"> </text><image xlink:href="../../175F7D50-A2BC-45FE-B845-30B060AD2BC1/assets/BC730A83D65BBC2A57BD4FF35BE2CE46.png" width="16.00" height="17.00" transform="matrix(1.00, 0.00, -0.00, -1.00, 102.0, 478.0)"></image><image xlink:href="../../99A5FB03-DE1B-4B4A-AE6D-D0C074086E95/assets/2EAA803481B4829669A1AED6584C7A6E.png" width="132.00" height="132.00" transform="matrix(0.09, 0.00, -0.00, -0.09, 103.0, 475.6)"></image><image xlink:href="E06F6707E524EFD83F0F91D67173BAE8.png" width="188.00" height="32.00" transform="matrix(1.00, 0.00, -0.00, -1.00, 138.0, 484.0)"></image><text xml:space="preserve" font-family="ArialMT,Arial" font-size="30.0" fill="#4E5B3E" transform="matrix(1.00, 0.00, -0.00, -1.00, 137.0, 460.3)">L</text><text xml:space="preserve" font-family="ArialMT,Arial" font-size="30.0" fill="#4E5B3E" transform="matrix(1.00, 0.00, -0.00, -1.00, 153.7, 460.3)">e</text><text xml:space="preserve" font-family="ArialMT,Arial" font-size="30.0" fill="#4E5B3E" transform="matrix(1.00, 0.00, -0.00, -1.00, 170.4, 460.3)">a</text><text xml:space="preserve" font-family="ArialMT,Arial" font-size="30.0" fill="#4E5B3E" transform="matrix(1.00, 0.00, -0.00, -1.00, 187.1, 460.3)">r</text><text xml:space="preserve" font-family="ArialMT,Arial" font-size="30.0" fill="#4E5B3E" transform="matrix(1.00, 0.00, -0.00, -1.00, 197.1, 460.3)">n</text><text xml:space="preserve" font-family="ArialMT,Arial" font-size="30.0" fill="#4E5B3E" transform="matrix(1.00, 0.00, -0.00, -1.00, 213.8, 460.3)">i</text><text xml:space="preserve" font-family="ArialMT,Arial" font-size="30.0" fill="#4E5B3E" transform="matrix(1.00, 0.00, -0.00, -1.00, 220.4, 460.3)">n</text><text xml:space="preserve" font-family="ArialMT,Arial" font-size="30.0" fill="#4E5B3E" transform="matrix(1.00, 0.00, -0.00, -1.00, 237.1, 460.3)">g</text><text xml:space="preserve" font-family="ArialMT,Arial" font-size="30.0" fill="#4E5B3E" transform="matrix(1.00, 0.00, -0.00, -1.00, 253.8, 460.3)"> </text><text xml:space="preserve" font-family="ArialMT,Arial" font-size="30.0" fill="#4E5B3E" transform="matrix(1.00, 0.00, -0.00, -1.00, 262.1, 460.3)">s</text><text xml:space="preserve" font-family="ArialMT,Arial" font-size="30.0" fill="#4E5B3E" transform="matrix(1.00, 0.00, -0.00, -1.00, 277.1, 460.3)">t</text><text xml:space="preserve" font-family="ArialMT,Arial" font-size="30.0" fill="#4E5B3E" transform="matrix(1.00, 0.00, -0.00, -1.00, 285.5, 460.3)">y</text><text xml:space="preserve" font-family="ArialMT,Arial" font-size="30.0" fill="#4E5B3E" transform="matrix(1.00, 0.00, -0.00, -1.00, 300.5, 460.3)">l</text><text xml:space="preserve" font-family="ArialMT,Arial" font-size="30.0" fill="#4E5B3E" transform="matrix(1.00, 0.00, -0.00, -1.00, 307.1, 460.3)">e</text><text xml:space="preserve" font-family="ArialMT,Arial" font-size="30.0" fill="#4E5B3E" transform="matrix(1.00, 0.00, -0.00, -1.00, 323.8, 460.3)"> </text><image xlink:href="../../175F7D50-A2BC-45FE-B845-30B060AD2BC1/assets/BC730A83D65BBC2A57BD4FF35BE2CE46.png" width="16.00" height="17.00" transform="matrix(1.00, 0.00, -0.00, -1.00, 102.0, 422.0)"></image><image xlink:href="../../99A5FB03-DE1B-4B4A-AE6D-D0C074086E95/assets/2EAA803481B4829669A1AED6584C7A6E.png" width="132.00" height="132.00" transform="matrix(0.09, 0.00, -0.00, -0.09, 103.0, 419.6)"></image><image xlink:href="8F002A7AAB0C9AB7A9BDC879518F051D.png" width="212.00" height="32.00" transform="matrix(1.00, 0.00, -0.00, -1.00, 138.0, 428.0)"></image><text xml:space="preserve" font-family="ArialMT,Arial" font-size="30.0" fill="#4E5B3E" transform="matrix(1.00, 0.00, -0.00, -1.00, 137.0, 404.3)">P</text><text xml:space="preserve" font-family="ArialMT,Arial" font-size="30.0" fill="#4E5B3E" transform="matrix(1.00, 0.00, -0.00, -1.00, 157.0, 404.3)">r</text><text xml:space="preserve" font-family="ArialMT,Arial" font-size="30.0" fill="#4E5B3E" transform="matrix(1.00, 0.00, -0.00, -1.00, 167.0, 404.3)">i</text><text xml:space="preserve" font-family="ArialMT,Arial" font-size="30.0" fill="#4E5B3E" transform="matrix(1.00, 0.00, -0.00, -1.00, 173.7, 404.3)">m</text><text xml:space="preserve" font-family="ArialMT,Arial" font-size="30.0" fill="#4E5B3E" transform="matrix(1.00, 0.00, -0.00, -1.00, 198.7, 404.3)">a</text><text xml:space="preserve" font-family="ArialMT,Arial" font-size="30.0" fill="#4E5B3E" transform="matrix(1.00, 0.00, -0.00, -1.00, 215.4, 404.3)">r</text><text xml:space="preserve" font-family="ArialMT,Arial" font-size="30.0" fill="#4E5B3E" transform="matrix(1.00, 0.00, -0.00, -1.00, 225.3, 404.3)">y</text><text xml:space="preserve" font-family="ArialMT,Arial" font-size="30.0" fill="#4E5B3E" transform="matrix(1.00, 0.00, -0.00, -1.00, 240.3, 404.3)"> </text><text xml:space="preserve" font-family="ArialMT,Arial" font-size="30.0" fill="#4E5B3E" transform="matrix(1.00, 0.00, -0.00, -1.00, 248.7, 404.3)">i</text><text xml:space="preserve" font-family="ArialMT,Arial" font-size="30.0" fill="#4E5B3E" transform="matrix(1.00, 0.00, -0.00, -1.00, 255.3, 404.3)">n</text><text xml:space="preserve" font-family="ArialMT,Arial" font-size="30.0" fill="#4E5B3E" transform="matrix(1.00, 0.00, -0.00, -1.00, 272.0, 404.3)">t</text><text xml:space="preserve" font-family="ArialMT,Arial" font-size="30.0" fill="#4E5B3E" transform="matrix(1.00, 0.00, -0.00, -1.00, 280.4, 404.3)">e</text><text xml:space="preserve" font-family="ArialMT,Arial" font-size="30.0" fill="#4E5B3E" transform="matrix(1.00, 0.00, -0.00, -1.00, 297.1, 404.3)">r</text><text xml:space="preserve" font-family="ArialMT,Arial" font-size="30.0" fill="#4E5B3E" transform="matrix(1.00, 0.00, -0.00, -1.00, 307.0, 404.3)">e</text><text xml:space="preserve" font-family="ArialMT,Arial" font-size="30.0" fill="#4E5B3E" transform="matrix(1.00, 0.00, -0.00, -1.00, 323.7, 404.3)">s</text><text xml:space="preserve" font-family="ArialMT,Arial" font-size="30.0" fill="#4E5B3E" transform="matrix(1.00, 0.00, -0.00, -1.00, 338.7, 404.3)">t</text><text xml:space="preserve" font-family="ArialMT,Arial" font-size="30.0" fill="#4E5B3E" transform="matrix(1.00, 0.00, -0.00, -1.00, 347.1, 404.3)"> </text><image xlink:href="../../175F7D50-A2BC-45FE-B845-30B060AD2BC1/assets/BC730A83D65BBC2A57BD4FF35BE2CE46.png" width="16.00" height="17.00" transform="matrix(1.00, 0.00, -0.00, -1.00, 102.0, 366.0)"></image><image xlink:href="../../99A5FB03-DE1B-4B4A-AE6D-D0C074086E95/assets/2EAA803481B4829669A1AED6584C7A6E.png" width="132.00" height="132.00" transform="matrix(0.09, 0.00, -0.00, -0.09, 103.0, 363.6)"></image><image xlink:href="4FF97A15C42E1030502504B89C4440A0.png" width="748.00" height="32.00" transform="matrix(1.00, 0.00, -0.00, -1.00, 138.0, 372.0)"></image><text xml:space="preserve" font-family="ArialMT,Arial" font-size="30.0" fill="#4E5B3E" transform="matrix(1.00, 0.00, -0.00, -1.00, 137.0, 348.3)">M</text><text xml:space="preserve" font-family="ArialMT,Arial" font-size="30.0" fill="#4E5B3E" transform="matrix(1.00, 0.00, -0.00, -1.00, 162.0, 348.3)">i</text><text xml:space="preserve" font-family="ArialMT,Arial" font-size="30.0" fill="#4E5B3E" transform="matrix(1.00, 0.00, -0.00, -1.00, 168.7, 348.3)">x</text><text xml:space="preserve" font-family="ArialMT,Arial" font-size="30.0" fill="#4E5B3E" transform="matrix(1.00, 0.00, -0.00, -1.00, 183.7, 348.3)"> </text><text xml:space="preserve" font-family="ArialMT,Arial" font-size="30.0" fill="#4E5B3E" transform="matrix(1.00, 0.00, -0.00, -1.00, 192.0, 348.3)">s</text><text xml:space="preserve" font-family="ArialMT,Arial" font-size="30.0" fill="#4E5B3E" transform="matrix(1.00, 0.00, -0.00, -1.00, 207.0, 348.3)">e</text><text xml:space="preserve" font-family="ArialMT,Arial" font-size="30.0" fill="#4E5B3E" transform="matrix(1.00, 0.00, -0.00, -1.00, 223.7, 348.3)">l</text><text xml:space="preserve" font-family="ArialMT,Arial" font-size="30.0" fill="#4E5B3E" transform="matrix(1.00, 0.00, -0.00, -1.00, 230.4, 348.3)">e</text><text xml:space="preserve" font-family="ArialMT,Arial" font-size="30.0" fill="#4E5B3E" transform="matrix(1.00, 0.00, -0.00, -1.00, 247.0, 348.3)">c</text><text xml:space="preserve" font-family="ArialMT,Arial" font-size="30.0" fill="#4E5B3E" transform="matrix(1.00, 0.00, -0.00, -1.00, 262.0, 348.3)">t</text><text xml:space="preserve" font-family="ArialMT,Arial" font-size="30.0" fill="#4E5B3E" transform="matrix(1.00, 0.00, -0.00, -1.00, 270.4, 348.3)">e</text><text xml:space="preserve" font-family="ArialMT,Arial" font-size="30.0" fill="#4E5B3E" transform="matrix(1.00, 0.00, -0.00, -1.00, 287.1, 348.3)">d</text><text xml:space="preserve" font-family="ArialMT,Arial" font-size="30.0" fill="#4E5B3E" transform="matrix(1.00, 0.00, -0.00, -1.00, 303.8, 348.3)"> </text><text xml:space="preserve" font-family="ArialMT,Arial" font-size="30.0" fill="#4E5B3E" transform="matrix(1.00, 0.00, -0.00, -1.00, 312.1, 348.3)">g</text><text xml:space="preserve" font-family="ArialMT,Arial" font-size="30.0" fill="#4E5B3E" transform="matrix(1.00, 0.00, -0.00, -1.00, 328.8, 348.3)">e</text><text xml:space="preserve" font-family="ArialMT,Arial" font-size="30.0" fill="#4E5B3E" transform="matrix(1.00, 0.00, -0.00, -1.00, 345.5, 348.3)">n</text><text xml:space="preserve" font-family="ArialMT,Arial" font-size="30.0" fill="#4E5B3E" transform="matrix(1.00, 0.00, -0.00, -1.00, 362.2, 348.3)">i</text><text xml:space="preserve" font-family="ArialMT,Arial" font-size="30.0" fill="#4E5B3E" transform="matrix(1.00, 0.00, -0.00, -1.00, 368.8, 348.3)">u</text><text xml:space="preserve" font-family="ArialMT,Arial" font-size="30.0" fill="#4E5B3E" transform="matrix(1.00, 0.00, -0.00, -1.00, 385.5, 348.3)">s</text><text xml:space="preserve" font-family="ArialMT,Arial" font-size="30.0" fill="#4E5B3E" transform="matrix(1.00, 0.00, -0.00, -1.00, 400.5, 348.3)">e</text><text xml:space="preserve" font-family="ArialMT,Arial" font-size="30.0" fill="#4E5B3E" transform="matrix(1.00, 0.00, -0.00, -1.00, 417.2, 348.3)">s</text><text xml:space="preserve" font-family="ArialMT,Arial" font-size="30.0" fill="#4E5B3E" transform="matrix(1.00, 0.00, -0.00, -1.00, 432.2, 348.3)"> </text><text xml:space="preserve" font-family="ArialMT,Arial" font-size="30.0" fill="#4E5B3E" transform="matrix(1.00, 0.00, -0.00, -1.00, 440.5, 348.3)">t</text><text xml:space="preserve" font-family="ArialMT,Arial" font-size="30.0" fill="#4E5B3E" transform="matrix(1.00, 0.00, -0.00, -1.00, 448.9, 348.3)">o</text><text xml:space="preserve" font-family="ArialMT,Arial" font-size="30.0" fill="#4E5B3E" transform="matrix(1.00, 0.00, -0.00, -1.00, 465.6, 348.3)"> </text><text xml:space="preserve" font-family="ArialMT,Arial" font-size="30.0" fill="#4E5B3E" transform="matrix(1.00, 0.00, -0.00, -1.00, 473.9, 348.3)">m</text><text xml:space="preserve" font-family="ArialMT,Arial" font-size="30.0" fill="#4E5B3E" transform="matrix(1.00, 0.00, -0.00, -1.00, 498.9, 348.3)">a</text><text xml:space="preserve" font-family="ArialMT,Arial" font-size="30.0" fill="#4E5B3E" transform="matrix(1.00, 0.00, -0.00, -1.00, 515.6, 348.3)">x</text><text xml:space="preserve" font-family="ArialMT,Arial" font-size="30.0" fill="#4E5B3E" transform="matrix(1.00, 0.00, -0.00, -1.00, 530.6, 348.3)">i</text><text xml:space="preserve" font-family="ArialMT,Arial" font-size="30.0" fill="#4E5B3E" transform="matrix(1.00, 0.00, -0.00, -1.00, 537.2, 348.3)">m</text><text xml:space="preserve" font-family="ArialMT,Arial" font-size="30.0" fill="#4E5B3E" transform="matrix(1.00, 0.00, -0.00, -1.00, 562.2, 348.3)">i</text><text xml:space="preserve" font-family="ArialMT,Arial" font-size="30.0" fill="#4E5B3E" transform="matrix(1.00, 0.00, -0.00, -1.00, 568.9, 348.3)">z</text><text xml:space="preserve" font-family="ArialMT,Arial" font-size="30.0" fill="#4E5B3E" transform="matrix(1.00, 0.00, -0.00, -1.00, 583.9, 348.3)">e</text><text xml:space="preserve" font-family="ArialMT,Arial" font-size="30.0" fill="#4E5B3E" transform="matrix(1.00, 0.00, -0.00, -1.00, 600.6, 348.3)"> </text><text xml:space="preserve" font-family="ArialMT,Arial" font-size="30.0" fill="#4E5B3E" transform="matrix(1.00, 0.00, -0.00, -1.00, 608.9, 348.3)">c</text><text xml:space="preserve" font-family="ArialMT,Arial" font-size="30.0" fill="#4E5B3E" transform="matrix(1.00, 0.00, -0.00, -1.00, 623.9, 348.3)">o</text><text xml:space="preserve" font-family="ArialMT,Arial" font-size="30.0" fill="#4E5B3E" transform="matrix(1.00, 0.00, -0.00, -1.00, 640.6, 348.3)">a</text><text xml:space="preserve" font-family="ArialMT,Arial" font-size="30.0" fill="#4E5B3E" transform="matrix(1.00, 0.00, -0.00, -1.00, 657.3, 348.3)">c</text><text xml:space="preserve" font-family="ArialMT,Arial" font-size="30.0" fill="#4E5B3E" transform="matrix(1.00, 0.00, -0.00, -1.00, 672.3, 348.3)">h</text><text xml:space="preserve" font-family="ArialMT,Arial" font-size="30.0" fill="#4E5B3E" transform="matrix(1.00, 0.00, -0.00, -1.00, 689.0, 348.3)">i</text><text xml:space="preserve" font-family="ArialMT,Arial" font-size="30.0" fill="#4E5B3E" transform="matrix(1.00, 0.00, -0.00, -1.00, 695.7, 348.3)">n</text><text xml:space="preserve" font-family="ArialMT,Arial" font-size="30.0" fill="#4E5B3E" transform="matrix(1.00, 0.00, -0.00, -1.00, 712.3, 348.3)">g</text><text xml:space="preserve" font-family="ArialMT,Arial" font-size="30.0" fill="#4E5B3E" transform="matrix(1.00, 0.00, -0.00, -1.00, 729.0, 348.3)"> </text><text xml:space="preserve" font-family="ArialMT,Arial" font-size="30.0" fill="#4E5B3E" transform="matrix(1.00, 0.00, -0.00, -1.00, 737.4, 348.3)">e</text><text xml:space="preserve" font-family="ArialMT,Arial" font-size="30.0" fill="#4E5B3E" transform="matrix(1.00, 0.00, -0.00, -1.00, 754.1, 348.3)">x</text><text xml:space="preserve" font-family="ArialMT,Arial" font-size="30.0" fill="#4E5B3E" transform="matrix(1.00, 0.00, -0.00, -1.00, 769.1, 348.3)">p</text><text xml:space="preserve" font-family="ArialMT,Arial" font-size="30.0" fill="#4E5B3E" transform="matrix(1.00, 0.00, -0.00, -1.00, 785.7, 348.3)">e</text><text xml:space="preserve" font-family="ArialMT,Arial" font-size="30.0" fill="#4E5B3E" transform="matrix(1.00, 0.00, -0.00, -1.00, 802.4, 348.3)">r</text><text xml:space="preserve" font-family="ArialMT,Arial" font-size="30.0" fill="#4E5B3E" transform="matrix(1.00, 0.00, -0.00, -1.00, 812.4, 348.3)">i</text><text xml:space="preserve" font-family="ArialMT,Arial" font-size="30.0" fill="#4E5B3E" transform="matrix(1.00, 0.00, -0.00, -1.00, 819.1, 348.3)">e</text><text xml:space="preserve" font-family="ArialMT,Arial" font-size="30.0" fill="#4E5B3E" transform="matrix(1.00, 0.00, -0.00, -1.00, 835.8, 348.3)">n</text><text xml:space="preserve" font-family="ArialMT,Arial" font-size="30.0" fill="#4E5B3E" transform="matrix(1.00, 0.00, -0.00, -1.00, 852.5, 348.3)">c</text><text xml:space="preserve" font-family="ArialMT,Arial" font-size="30.0" fill="#4E5B3E" transform="matrix(1.00, 0.00, -0.00, -1.00, 867.5, 348.3)">e</text><text xml:space="preserve" font-family="ArialMT,Arial" font-size="30.0" fill="#4E5B3E" transform="matrix(1.00, 0.00, -0.00, -1.00, 884.2, 348.3)"> </text><image xlink:href="../../99A5FB03-DE1B-4B4A-AE6D-D0C074086E95/assets/ABB8D1DF0CCBAB0DEB1325F4A6E5C7F6.png" width="19.00" height="19.00" transform="matrix(1.00, 0.00, -0.00, -1.00, 68.0, 277.0)"></image><image xlink:href="../../99A5FB03-DE1B-4B4A-AE6D-D0C074086E95/assets/2EAA803481B4829669A1AED6584C7A6E.png" width="132.00" height="132.00" transform="matrix(0.11, 0.00, -0.00, -0.11, 69.0, 274.3)"></image><image xlink:href="42E3F170097B6B7E731E84D797BA9EFD.png" width="488.00" height="39.00" transform="matrix(1.00, 0.00, -0.00, -1.00, 104.0, 285.0)"></image><text xml:space="preserve" font-family="ArialMT,Arial" font-size="36.0" fill="#4E5B3E" transform="matrix(1.00, 0.00, -0.00, -1.00, 103.0, 255.8)">M</text><text xml:space="preserve" font-family="ArialMT,Arial" font-size="36.0" fill="#4E5B3E" transform="matrix(1.00, 0.00, -0.00, -1.00, 133.0, 255.8)">i</text><text xml:space="preserve" font-family="ArialMT,Arial" font-size="36.0" fill="#4E5B3E" transform="matrix(1.00, 0.00, -0.00, -1.00, 141.0, 255.8)">x</text><text xml:space="preserve" font-family="ArialMT,Arial" font-size="36.0" fill="#4E5B3E" transform="matrix(1.00, 0.00, -0.00, -1.00, 159.0, 255.8)"> </text><text xml:space="preserve" font-family="ArialMT,Arial" font-size="36.0" fill="#4E5B3E" transform="matrix(1.00, 0.00, -0.00, -1.00, 169.0, 255.8)">t</text><text xml:space="preserve" font-family="ArialMT,Arial" font-size="36.0" fill="#4E5B3E" transform="matrix(1.00, 0.00, -0.00, -1.00, 179.0, 255.8)">o</text><text xml:space="preserve" font-family="ArialMT,Arial" font-size="36.0" fill="#4E5B3E" transform="matrix(1.00, 0.00, -0.00, -1.00, 199.0, 255.8)">p</text><text xml:space="preserve" font-family="ArialMT,Arial" font-size="36.0" fill="#4E5B3E" transform="matrix(1.00, 0.00, -0.00, -1.00, 219.0, 255.8)">i</text><text xml:space="preserve" font-family="ArialMT,Arial" font-size="36.0" fill="#4E5B3E" transform="matrix(1.00, 0.00, -0.00, -1.00, 227.0, 255.8)">c</text><text xml:space="preserve" font-family="ArialMT,Arial" font-size="36.0" fill="#4E5B3E" transform="matrix(1.00, 0.00, -0.00, -1.00, 245.0, 255.8)">s</text><text xml:space="preserve" font-family="ArialMT,Arial" font-size="36.0" fill="#4E5B3E" transform="matrix(1.00, 0.00, -0.00, -1.00, 263.0, 255.8)"> </text><text xml:space="preserve" font-family="ArialMT,Arial" font-size="36.0" fill="#4E5B3E" transform="matrix(1.00, 0.00, -0.00, -1.00, 273.0, 255.8)">c</text><text xml:space="preserve" font-family="ArialMT,Arial" font-size="36.0" fill="#4E5B3E" transform="matrix(1.00, 0.00, -0.00, -1.00, 291.0, 255.8)">o</text><text xml:space="preserve" font-family="ArialMT,Arial" font-size="36.0" fill="#4E5B3E" transform="matrix(1.00, 0.00, -0.00, -1.00, 311.1, 255.8)">v</text><text xml:space="preserve" font-family="ArialMT,Arial" font-size="36.0" fill="#4E5B3E" transform="matrix(1.00, 0.00, -0.00, -1.00, 329.1, 255.8)">e</text><text xml:space="preserve" font-family="ArialMT,Arial" font-size="36.0" fill="#4E5B3E" transform="matrix(1.00, 0.00, -0.00, -1.00, 349.1, 255.8)">r</text><text xml:space="preserve" font-family="ArialMT,Arial" font-size="36.0" fill="#4E5B3E" transform="matrix(1.00, 0.00, -0.00, -1.00, 361.1, 255.8)">e</text><text xml:space="preserve" font-family="ArialMT,Arial" font-size="36.0" fill="#4E5B3E" transform="matrix(1.00, 0.00, -0.00, -1.00, 381.1, 255.8)">d</text><text xml:space="preserve" font-family="ArialMT,Arial" font-size="36.0" fill="#4E5B3E" transform="matrix(1.00, 0.00, -0.00, -1.00, 401.1, 255.8)"> </text><text xml:space="preserve" font-family="ArialMT,Arial" font-size="36.0" fill="#4E5B3E" transform="matrix(1.00, 0.00, -0.00, -1.00, 411.1, 255.8)">f</text><text xml:space="preserve" font-family="ArialMT,Arial" font-size="36.0" fill="#4E5B3E" transform="matrix(1.00, 0.00, -0.00, -1.00, 421.1, 255.8)">o</text><text xml:space="preserve" font-family="ArialMT,Arial" font-size="36.0" fill="#4E5B3E" transform="matrix(1.00, 0.00, -0.00, -1.00, 441.2, 255.8)">r</text><text xml:space="preserve" font-family="ArialMT,Arial" font-size="36.0" fill="#4E5B3E" transform="matrix(1.00, 0.00, -0.00, -1.00, 453.1, 255.8)"> </text><text xml:space="preserve" font-family="ArialMT,Arial" font-size="36.0" fill="#4E5B3E" transform="matrix(1.00, 0.00, -0.00, -1.00, 463.1, 255.8)">s</text><text xml:space="preserve" font-family="ArialMT,Arial" font-size="36.0" fill="#4E5B3E" transform="matrix(1.00, 0.00, -0.00, -1.00, 481.1, 255.8)">y</text><text xml:space="preserve" font-family="ArialMT,Arial" font-size="36.0" fill="#4E5B3E" transform="matrix(1.00, 0.00, -0.00, -1.00, 499.1, 255.8)">n</text><text xml:space="preserve" font-family="ArialMT,Arial" font-size="36.0" fill="#4E5B3E" transform="matrix(1.00, 0.00, -0.00, -1.00, 519.2, 255.8)">e</text><text xml:space="preserve" font-family="ArialMT,Arial" font-size="36.0" fill="#4E5B3E" transform="matrix(1.00, 0.00, -0.00, -1.00, 539.2, 255.8)">r</text><text xml:space="preserve" font-family="ArialMT,Arial" font-size="36.0" fill="#4E5B3E" transform="matrix(1.00, 0.00, -0.00, -1.00, 551.2, 255.8)">g</text><text xml:space="preserve" font-family="ArialMT,Arial" font-size="36.0" fill="#4E5B3E" transform="matrix(1.00, 0.00, -0.00, -1.00, 571.2, 255.8)">y</text><text xml:space="preserve" font-family="ArialMT,Arial" font-size="36.0" fill="#4E5B3E" transform="matrix(1.00, 0.00, -0.00, -1.00, 589.2, 255.8)"> </text><image xlink:href="../../99A5FB03-DE1B-4B4A-AE6D-D0C074086E95/assets/ABB8D1DF0CCBAB0DEB1325F4A6E5C7F6.png" width="19.00" height="19.00" transform="matrix(1.00, 0.00, -0.00, -1.00, 68.0, 183.0)"></image><image xlink:href="../../99A5FB03-DE1B-4B4A-AE6D-D0C074086E95/assets/2EAA803481B4829669A1AED6584C7A6E.png" width="132.00" height="132.00" transform="matrix(0.11, 0.00, -0.00, -0.11, 69.0, 180.3)"></image><image xlink:href="E720DC3853EED84107314791164F1535.png" width="737.00" height="39.00" transform="matrix(1.00, 0.00, -0.00, -1.00, 103.0, 191.0)"></image><text xml:space="preserve" font-family="ArialMT,Arial" font-size="36.0" fill="#4E5B3E" transform="matrix(1.00, 0.00, -0.00, -1.00, 103.0, 161.8)">C</text><text xml:space="preserve" font-family="ArialMT,Arial" font-size="36.0" fill="#4E5B3E" transform="matrix(1.00, 0.00, -0.00, -1.00, 129.0, 161.8)">o</text><text xml:space="preserve" font-family="ArialMT,Arial" font-size="36.0" fill="#4E5B3E" transform="matrix(1.00, 0.00, -0.00, -1.00, 149.0, 161.8)">m</text><text xml:space="preserve" font-family="ArialMT,Arial" font-size="36.0" fill="#4E5B3E" transform="matrix(1.00, 0.00, -0.00, -1.00, 179.0, 161.8)">b</text><text xml:space="preserve" font-family="ArialMT,Arial" font-size="36.0" fill="#4E5B3E" transform="matrix(1.00, 0.00, -0.00, -1.00, 199.1, 161.8)">i</text><text xml:space="preserve" font-family="ArialMT,Arial" font-size="36.0" fill="#4E5B3E" transform="matrix(1.00, 0.00, -0.00, -1.00, 207.1, 161.8)">n</text><text xml:space="preserve" font-family="ArialMT,Arial" font-size="36.0" fill="#4E5B3E" transform="matrix(1.00, 0.00, -0.00, -1.00, 227.1, 161.8)">i</text><text xml:space="preserve" font-family="ArialMT,Arial" font-size="36.0" fill="#4E5B3E" transform="matrix(1.00, 0.00, -0.00, -1.00, 235.1, 161.8)">n</text><text xml:space="preserve" font-family="ArialMT,Arial" font-size="36.0" fill="#4E5B3E" transform="matrix(1.00, 0.00, -0.00, -1.00, 255.1, 161.8)">g</text><text xml:space="preserve" font-family="ArialMT,Arial" font-size="36.0" fill="#4E5B3E" transform="matrix(1.00, 0.00, -0.00, -1.00, 275.1, 161.8)"> </text><text xml:space="preserve" font-family="ArialMT,Arial" font-size="36.0" fill="#4E5B3E" transform="matrix(1.00, 0.00, -0.00, -1.00, 285.1, 161.8)">c</text><text xml:space="preserve" font-family="ArialMT,Arial" font-size="36.0" fill="#4E5B3E" transform="matrix(1.00, 0.00, -0.00, -1.00, 303.1, 161.8)">o</text><text xml:space="preserve" font-family="ArialMT,Arial" font-size="36.0" fill="#4E5B3E" transform="matrix(1.00, 0.00, -0.00, -1.00, 323.2, 161.8)">n</text><text xml:space="preserve" font-family="ArialMT,Arial" font-size="36.0" fill="#4E5B3E" transform="matrix(1.00, 0.00, -0.00, -1.00, 343.2, 161.8)">t</text><text xml:space="preserve" font-family="ArialMT,Arial" font-size="36.0" fill="#4E5B3E" transform="matrix(1.00, 0.00, -0.00, -1.00, 353.2, 161.8)">i</text><text xml:space="preserve" font-family="ArialMT,Arial" font-size="36.0" fill="#4E5B3E" transform="matrix(1.00, 0.00, -0.00, -1.00, 361.2, 161.8)">n</text><text xml:space="preserve" font-family="ArialMT,Arial" font-size="36.0" fill="#4E5B3E" transform="matrix(1.00, 0.00, -0.00, -1.00, 381.2, 161.8)">u</text><text xml:space="preserve" font-family="ArialMT,Arial" font-size="36.0" fill="#4E5B3E" transform="matrix(1.00, 0.00, -0.00, -1.00, 401.3, 161.8)">o</text><text xml:space="preserve" font-family="ArialMT,Arial" font-size="36.0" fill="#4E5B3E" transform="matrix(1.00, 0.00, -0.00, -1.00, 421.3, 161.8)">u</text><text xml:space="preserve" font-family="ArialMT,Arial" font-size="36.0" fill="#4E5B3E" transform="matrix(1.00, 0.00, -0.00, -1.00, 441.3, 161.8)">s</text><text xml:space="preserve" font-family="ArialMT,Arial" font-size="36.0" fill="#4E5B3E" transform="matrix(1.00, 0.00, -0.00, -1.00, 459.3, 161.8)"> </text><text xml:space="preserve" font-family="ArialMT,Arial" font-size="36.0" fill="#4E5B3E" transform="matrix(1.00, 0.00, -0.00, -1.00, 469.3, 161.8)">a</text><text xml:space="preserve" font-family="ArialMT,Arial" font-size="36.0" fill="#4E5B3E" transform="matrix(1.00, 0.00, -0.00, -1.00, 489.3, 161.8)">s</text><text xml:space="preserve" font-family="ArialMT,Arial" font-size="36.0" fill="#4E5B3E" transform="matrix(1.00, 0.00, -0.00, -1.00, 507.3, 161.8)">s</text><text xml:space="preserve" font-family="ArialMT,Arial" font-size="36.0" fill="#4E5B3E" transform="matrix(1.00, 0.00, -0.00, -1.00, 525.3, 161.8)">e</text><text xml:space="preserve" font-family="ArialMT,Arial" font-size="36.0" fill="#4E5B3E" transform="matrix(1.00, 0.00, -0.00, -1.00, 545.4, 161.8)">s</text><text xml:space="preserve" font-family="ArialMT,Arial" font-size="36.0" fill="#4E5B3E" transform="matrix(1.00, 0.00, -0.00, -1.00, 563.4, 161.8)">s</text><text xml:space="preserve" font-family="ArialMT,Arial" font-size="36.0" fill="#4E5B3E" transform="matrix(1.00, 0.00, -0.00, -1.00, 581.4, 161.8)">m</text><text xml:space="preserve" font-family="ArialMT,Arial" font-size="36.0" fill="#4E5B3E" transform="matrix(1.00, 0.00, -0.00, -1.00, 611.4, 161.8)">e</text><text xml:space="preserve" font-family="ArialMT,Arial" font-size="36.0" fill="#4E5B3E" transform="matrix(1.00, 0.00, -0.00, -1.00, 631.4, 161.8)">n</text><text xml:space="preserve" font-family="ArialMT,Arial" font-size="36.0" fill="#4E5B3E" transform="matrix(1.00, 0.00, -0.00, -1.00, 651.4, 161.8)">t</text><text xml:space="preserve" font-family="ArialMT,Arial" font-size="36.0" fill="#4E5B3E" transform="matrix(1.00, 0.00, -0.00, -1.00, 661.4, 161.8)"> </text><text xml:space="preserve" font-family="ArialMT,Arial" font-size="36.0" fill="#4E5B3E" transform="matrix(1.00, 0.00, -0.00, -1.00, 671.4, 161.8)">w</text><text xml:space="preserve" font-family="ArialMT,Arial" font-size="36.0" fill="#4E5B3E" transform="matrix(1.00, 0.00, -0.00, -1.00, 697.4, 161.8)">i</text><text xml:space="preserve" font-family="ArialMT,Arial" font-size="36.0" fill="#4E5B3E" transform="matrix(1.00, 0.00, -0.00, -1.00, 705.4, 161.8)">t</text><text xml:space="preserve" font-family="ArialMT,Arial" font-size="36.0" fill="#4E5B3E" transform="matrix(1.00, 0.00, -0.00, -1.00, 715.4, 161.8)">h</text><text xml:space="preserve" font-family="ArialMT,Arial" font-size="36.0" fill="#4E5B3E" transform="matrix(1.00, 0.00, -0.00, -1.00, 735.4, 161.8)"> </text><text xml:space="preserve" font-family="ArialMT,Arial" font-size="36.0" fill="#4E5B3E" transform="matrix(1.00, 0.00, -0.00, -1.00, 745.4, 161.8)">d</text><text xml:space="preserve" font-family="ArialMT,Arial" font-size="36.0" fill="#4E5B3E" transform="matrix(1.00, 0.00, -0.00, -1.00, 765.5, 161.8)">i</text><text xml:space="preserve" font-family="ArialMT,Arial" font-size="36.0" fill="#4E5B3E" transform="matrix(1.00, 0.00, -0.00, -1.00, 773.5, 161.8)">g</text><text xml:space="preserve" font-family="ArialMT,Arial" font-size="36.0" fill="#4E5B3E" transform="matrix(1.00, 0.00, -0.00, -1.00, 793.5, 161.8)">i</text><text xml:space="preserve" font-family="ArialMT,Arial" font-size="36.0" fill="#4E5B3E" transform="matrix(1.00, 0.00, -0.00, -1.00, 801.5, 161.8)">t</text><text xml:space="preserve" font-family="ArialMT,Arial" font-size="36.0" fill="#4E5B3E" transform="matrix(1.00, 0.00, -0.00, -1.00, 811.5, 161.8)">a</text><text xml:space="preserve" font-family="ArialMT,Arial" font-size="36.0" fill="#4E5B3E" transform="matrix(1.00, 0.00, -0.00, -1.00, 831.5, 161.8)">l</text><text xml:space="preserve" font-family="ArialMT,Arial" font-size="36.0" fill="#4E5B3E" transform="matrix(1.00, 0.00, -0.00, -1.00, 839.5, 161.8)"> </text><image xlink:href="8A22808F442259B321D0DD31BF10AF59.png" width="670.00" height="38.00" transform="matrix(1.00, 0.00, -0.00, -1.00, 104.0, 148.0)"></image><text xml:space="preserve" font-family="ArialMT,Arial" font-size="36.0" fill="#4E5B3E" transform="matrix(1.00, 0.00, -0.00, -1.00, 103.0, 119.8)">l</text><text xml:space="preserve" font-family="ArialMT,Arial" font-size="36.0" fill="#4E5B3E" transform="matrix(1.00, 0.00, -0.00, -1.00, 111.0, 119.8)">e</text><text xml:space="preserve" font-family="ArialMT,Arial" font-size="36.0" fill="#4E5B3E" transform="matrix(1.00, 0.00, -0.00, -1.00, 131.0, 119.8)">a</text><text xml:space="preserve" font-family="ArialMT,Arial" font-size="36.0" fill="#4E5B3E" transform="matrix(1.00, 0.00, -0.00, -1.00, 151.1, 119.8)">r</text><text xml:space="preserve" font-family="ArialMT,Arial" font-size="36.0" fill="#4E5B3E" transform="matrix(1.00, 0.00, -0.00, -1.00, 163.1, 119.8)">n</text><text xml:space="preserve" font-family="ArialMT,Arial" font-size="36.0" fill="#4E5B3E" transform="matrix(1.00, 0.00, -0.00, -1.00, 183.1, 119.8)">i</text><text xml:space="preserve" font-family="ArialMT,Arial" font-size="36.0" fill="#4E5B3E" transform="matrix(1.00, 0.00, -0.00, -1.00, 191.1, 119.8)">n</text><text xml:space="preserve" font-family="ArialMT,Arial" font-size="36.0" fill="#4E5B3E" transform="matrix(1.00, 0.00, -0.00, -1.00, 211.1, 119.8)">g</text><text xml:space="preserve" font-family="ArialMT,Arial" font-size="36.0" fill="#4E5B3E" transform="matrix(1.00, 0.00, -0.00, -1.00, 231.1, 119.8)"> </text><text xml:space="preserve" font-family="ArialMT,Arial" font-size="36.0" fill="#4E5B3E" transform="matrix(1.00, 0.00, -0.00, -1.00, 241.1, 119.8)">c</text><text xml:space="preserve" font-family="ArialMT,Arial" font-size="36.0" fill="#4E5B3E" transform="matrix(1.00, 0.00, -0.00, -1.00, 259.1, 119.8)">o</text><text xml:space="preserve" font-family="ArialMT,Arial" font-size="36.0" fill="#4E5B3E" transform="matrix(1.00, 0.00, -0.00, -1.00, 279.2, 119.8)">n</text><text xml:space="preserve" font-family="ArialMT,Arial" font-size="36.0" fill="#4E5B3E" transform="matrix(1.00, 0.00, -0.00, -1.00, 299.2, 119.8)">t</text><text xml:space="preserve" font-family="ArialMT,Arial" font-size="36.0" fill="#4E5B3E" transform="matrix(1.00, 0.00, -0.00, -1.00, 309.2, 119.8)">e</text><text xml:space="preserve" font-family="ArialMT,Arial" font-size="36.0" fill="#4E5B3E" transform="matrix(1.00, 0.00, -0.00, -1.00, 329.2, 119.8)">n</text><text xml:space="preserve" font-family="ArialMT,Arial" font-size="36.0" fill="#4E5B3E" transform="matrix(1.00, 0.00, -0.00, -1.00, 349.2, 119.8)">t</text><text xml:space="preserve" font-family="ArialMT,Arial" font-size="36.0" fill="#4E5B3E" transform="matrix(1.00, 0.00, -0.00, -1.00, 359.2, 119.8)"> </text><text xml:space="preserve" font-family="ArialMT,Arial" font-size="36.0" fill="#4E5B3E" transform="matrix(1.00, 0.00, -0.00, -1.00, 369.2, 119.8)">d</text><text xml:space="preserve" font-family="ArialMT,Arial" font-size="36.0" fill="#4E5B3E" transform="matrix(1.00, 0.00, -0.00, -1.00, 389.3, 119.8)">e</text><text xml:space="preserve" font-family="ArialMT,Arial" font-size="36.0" fill="#4E5B3E" transform="matrix(1.00, 0.00, -0.00, -1.00, 409.3, 119.8)">l</text><text xml:space="preserve" font-family="ArialMT,Arial" font-size="36.0" fill="#4E5B3E" transform="matrix(1.00, 0.00, -0.00, -1.00, 417.3, 119.8)">i</text><text xml:space="preserve" font-family="ArialMT,Arial" font-size="36.0" fill="#4E5B3E" transform="matrix(1.00, 0.00, -0.00, -1.00, 425.3, 119.8)">v</text><text xml:space="preserve" font-family="ArialMT,Arial" font-size="36.0" fill="#4E5B3E" transform="matrix(1.00, 0.00, -0.00, -1.00, 443.3, 119.8)">e</text><text xml:space="preserve" font-family="ArialMT,Arial" font-size="36.0" fill="#4E5B3E" transform="matrix(1.00, 0.00, -0.00, -1.00, 463.3, 119.8)">r</text><text xml:space="preserve" font-family="ArialMT,Arial" font-size="36.0" fill="#4E5B3E" transform="matrix(1.00, 0.00, -0.00, -1.00, 475.3, 119.8)">y</text><text xml:space="preserve" font-family="ArialMT,Arial" font-size="36.0" fill="#4E5B3E" transform="matrix(1.00, 0.00, -0.00, -1.00, 493.3, 119.8)"> </text><text xml:space="preserve" font-family="ArialMT,Arial" font-size="36.0" fill="#4E5B3E" transform="matrix(1.00, 0.00, -0.00, -1.00, 503.3, 119.8)">c</text><text xml:space="preserve" font-family="ArialMT,Arial" font-size="36.0" fill="#4E5B3E" transform="matrix(1.00, 0.00, -0.00, -1.00, 521.3, 119.8)">o</text><text xml:space="preserve" font-family="ArialMT,Arial" font-size="36.0" fill="#4E5B3E" transform="matrix(1.00, 0.00, -0.00, -1.00, 541.3, 119.8)">u</text><text xml:space="preserve" font-family="ArialMT,Arial" font-size="36.0" fill="#4E5B3E" transform="matrix(1.00, 0.00, -0.00, -1.00, 561.4, 119.8)">l</text><text xml:space="preserve" font-family="ArialMT,Arial" font-size="36.0" fill="#4E5B3E" transform="matrix(1.00, 0.00, -0.00, -1.00, 569.4, 119.8)">d</text><text xml:space="preserve" font-family="ArialMT,Arial" font-size="36.0" fill="#4E5B3E" transform="matrix(1.00, 0.00, -0.00, -1.00, 589.4, 119.8)"> </text><text xml:space="preserve" font-family="ArialMT,Arial" font-size="36.0" fill="#4E5B3E" transform="matrix(1.00, 0.00, -0.00, -1.00, 599.4, 119.8)">b</text><text xml:space="preserve" font-family="ArialMT,Arial" font-size="36.0" fill="#4E5B3E" transform="matrix(1.00, 0.00, -0.00, -1.00, 619.4, 119.8)">e</text><text xml:space="preserve" font-family="ArialMT,Arial" font-size="36.0" fill="#4E5B3E" transform="matrix(1.00, 0.00, -0.00, -1.00, 639.5, 119.8)"> </text><text xml:space="preserve" font-family="ArialMT,Arial" font-size="36.0" fill="#4E5B3E" transform="matrix(1.00, 0.00, -0.00, -1.00, 649.5, 119.8)">m</text><text xml:space="preserve" font-family="ArialMT,Arial" font-size="36.0" fill="#4E5B3E" transform="matrix(1.00, 0.00, -0.00, -1.00, 679.4, 119.8)">a</text><text xml:space="preserve" font-family="ArialMT,Arial" font-size="36.0" fill="#4E5B3E" transform="matrix(1.00, 0.00, -0.00, -1.00, 699.5, 119.8)">g</text><text xml:space="preserve" font-family="ArialMT,Arial" font-size="36.0" fill="#4E5B3E" transform="matrix(1.00, 0.00, -0.00, -1.00, 719.5, 119.8)">i</text><text xml:space="preserve" font-family="ArialMT,Arial" font-size="36.0" fill="#4E5B3E" transform="matrix(1.00, 0.00, -0.00, -1.00, 727.5, 119.8)">c</text><text xml:space="preserve" font-family="ArialMT,Arial" font-size="36.0" fill="#4E5B3E" transform="matrix(1.00, 0.00, -0.00, -1.00, 745.5, 119.8)">a</text><text xml:space="preserve" font-family="ArialMT,Arial" font-size="36.0" fill="#4E5B3E" transform="matrix(1.00, 0.00, -0.00, -1.00, 765.5, 119.8)">l</text></g></svg>