<?xml version="1.0" encoding="UTF-8" standalone="no"?><svg xmlns="http://www.w3.org/2000/svg" xmlns:xlink="http://www.w3.org/1999/xlink" clip-rule="evenodd" stroke-miterlimit="10" viewBox="0 0 770 37"><desc>SVG generated by Keynote</desc><defs></defs><g transform="matrix(1.00, 0.00, -0.00, -1.00, 0.0, 37.0)"><image xlink:href="DBCA114737F9D6991ED5CE9A6F327FE9.png" width="768.00" height="35.00" transform="matrix(1.00, 0.00, -0.00, -1.00, 1.0, 36.0)"></image><text xml:space="preserve" font-family="Arial-ItalicMT,Arial" font-style="italic" font-size="32.0" fill="#4E5B3E" transform="matrix(1.00, 0.00, -0.00, -1.00, 2.7, 9.8)">A</text><text xml:space="preserve" font-family="Arial-ItalicMT,Arial" font-style="italic" font-size="32.0" fill="#4E5B3E" transform="matrix(1.00, 0.00, -0.00, -1.00, 22.9, 9.8)"> </text><text xml:space="preserve" font-family="Arial-ItalicMT,Arial" font-style="italic" font-size="32.0" fill="#4E5B3E" transform="matrix(1.00, 0.00, -0.00, -1.00, 31.8, 9.8)">T</text><text xml:space="preserve" font-family="Arial-ItalicMT,Arial" font-style="italic" font-size="32.0" fill="#4E5B3E" transform="matrix(1.00, 0.00, -0.00, -1.00, 48.4, 9.8)">e</text><text xml:space="preserve" font-family="Arial-ItalicMT,Arial" font-style="italic" font-size="32.0" fill="#4E5B3E" transform="matrix(1.00, 0.00, -0.00, -1.00, 66.2, 9.8)">c</text><text xml:space="preserve" font-family="Arial-ItalicMT,Arial" font-style="italic" font-size="32.0" fill="#4E5B3E" transform="matrix(1.00, 0.00, -0.00, -1.00, 82.2, 9.8)">h</text><text xml:space="preserve" font-family="Arial-ItalicMT,Arial" font-style="italic" font-size="32.0" fill="#4E5B3E" transform="matrix(1.00, 0.00, -0.00, -1.00, 100.0, 9.8)">n</text><text xml:space="preserve" font-family="Arial-ItalicMT,Arial" font-style="italic" font-size="32.0" fill="#4E5B3E" transform="matrix(1.00, 0.00, -0.00, -1.00, 117.8, 9.8)">o</text><text xml:space="preserve" font-family="Arial-ItalicMT,Arial" font-style="italic" font-size="32.0" fill="#4E5B3E" transform="matrix(1.00, 0.00, -0.00, -1.00, 135.6, 9.8)">l</text><text xml:space="preserve" font-family="Arial-ItalicMT,Arial" font-style="italic" font-size="32.0" fill="#4E5B3E" transform="matrix(1.00, 0.00, -0.00, -1.00, 142.7, 9.8)">o</text><text xml:space="preserve" font-family="Arial-ItalicMT,Arial" font-style="italic" font-size="32.0" fill="#4E5B3E" transform="matrix(1.00, 0.00, -0.00, -1.00, 160.5, 9.8)">g</text><text xml:space="preserve" font-family="Arial-ItalicMT,Arial" font-style="italic" font-size="32.0" fill="#4E5B3E" transform="matrix(1.00, 0.00, -0.00, -1.00, 178.3, 9.8)">y</text><text xml:space="preserve" font-family="Arial-ItalicMT,Arial" font-style="italic" font-size="32.0" fill="#4E5B3E" transform="matrix(1.00, 0.00, -0.00, -1.00, 194.3, 9.8)">-</text><text xml:space="preserve" font-family="Arial-ItalicMT,Arial" font-style="italic" font-size="32.0" fill="#4E5B3E" transform="matrix(1.00, 0.00, -0.00, -1.00, 205.0, 9.8)">b</text><text xml:space="preserve" font-family="Arial-ItalicMT,Arial" font-style="italic" font-size="32.0" fill="#4E5B3E" transform="matrix(1.00, 0.00, -0.00, -1.00, 222.8, 9.8)">a</text><text xml:space="preserve" font-family="Arial-ItalicMT,Arial" font-style="italic" font-size="32.0" fill="#4E5B3E" transform="matrix(1.00, 0.00, -0.00, -1.00, 240.6, 9.8)">s</text><text xml:space="preserve" font-family="Arial-ItalicMT,Arial" font-style="italic" font-size="32.0" fill="#4E5B3E" transform="matrix(1.00, 0.00, -0.00, -1.00, 256.6, 9.8)">e</text><text xml:space="preserve" font-family="Arial-ItalicMT,Arial" font-style="italic" font-size="32.0" fill="#4E5B3E" transform="matrix(1.00, 0.00, -0.00, -1.00, 274.4, 9.8)">d</text><text xml:space="preserve" font-family="Arial-ItalicMT,Arial" font-style="italic" font-size="32.0" fill="#4E5B3E" transform="matrix(1.00, 0.00, -0.00, -1.00, 292.2, 9.8)"> </text><text xml:space="preserve" font-family="Arial-ItalicMT,Arial" font-style="italic" font-size="32.0" fill="#4E5B3E" transform="matrix(1.00, 0.00, -0.00, -1.00, 301.1, 9.8)">v</text><text xml:space="preserve" font-family="Arial-ItalicMT,Arial" font-style="italic" font-size="32.0" fill="#4E5B3E" transform="matrix(1.00, 0.00, -0.00, -1.00, 317.1, 9.8)">i</text><text xml:space="preserve" font-family="Arial-ItalicMT,Arial" font-style="italic" font-size="32.0" fill="#4E5B3E" transform="matrix(1.00, 0.00, -0.00, -1.00, 324.2, 9.8)">s</text><text xml:space="preserve" font-family="Arial-ItalicMT,Arial" font-style="italic" font-size="32.0" fill="#4E5B3E" transform="matrix(1.00, 0.00, -0.00, -1.00, 340.2, 9.8)">i</text><text xml:space="preserve" font-family="Arial-ItalicMT,Arial" font-style="italic" font-size="32.0" fill="#4E5B3E" transform="matrix(1.00, 0.00, -0.00, -1.00, 347.3, 9.8)">o</text><text xml:space="preserve" font-family="Arial-ItalicMT,Arial" font-style="italic" font-size="32.0" fill="#4E5B3E" transform="matrix(1.00, 0.00, -0.00, -1.00, 365.1, 9.8)">n</text><text xml:space="preserve" font-family="Arial-ItalicMT,Arial" font-style="italic" font-size="32.0" fill="#4E5B3E" transform="matrix(1.00, 0.00, -0.00, -1.00, 382.9, 9.8)"> </text><text xml:space="preserve" font-family="Arial-ItalicMT,Arial" font-style="italic" font-size="32.0" fill="#4E5B3E" transform="matrix(1.00, 0.00, -0.00, -1.00, 391.8, 9.8)">f</text><text xml:space="preserve" font-family="Arial-ItalicMT,Arial" font-style="italic" font-size="32.0" fill="#4E5B3E" transform="matrix(1.00, 0.00, -0.00, -1.00, 400.7, 9.8)">o</text><text xml:space="preserve" font-family="Arial-ItalicMT,Arial" font-style="italic" font-size="32.0" fill="#4E5B3E" transform="matrix(1.00, 0.00, -0.00, -1.00, 418.5, 9.8)">r</text><text xml:space="preserve" font-family="Arial-ItalicMT,Arial" font-style="italic" font-size="32.0" fill="#4E5B3E" transform="matrix(1.00, 0.00, -0.00, -1.00, 429.1, 9.8)"> </text><text xml:space="preserve" font-family="Arial-ItalicMT,Arial" font-style="italic" font-size="32.0" fill="#4E5B3E" transform="matrix(1.00, 0.00, -0.00, -1.00, 438.0, 9.8)">I</text><text xml:space="preserve" font-family="Arial-ItalicMT,Arial" font-style="italic" font-size="32.0" fill="#4E5B3E" transform="matrix(1.00, 0.00, -0.00, -1.00, 446.9, 9.8)">n</text><text xml:space="preserve" font-family="Arial-ItalicMT,Arial" font-style="italic" font-size="32.0" fill="#4E5B3E" transform="matrix(1.00, 0.00, -0.00, -1.00, 464.7, 9.8)">d</text><text xml:space="preserve" font-family="Arial-ItalicMT,Arial" font-style="italic" font-size="32.0" fill="#4E5B3E" transform="matrix(1.00, 0.00, -0.00, -1.00, 482.5, 9.8)">i</text><text xml:space="preserve" font-family="Arial-ItalicMT,Arial" font-style="italic" font-size="32.0" fill="#4E5B3E" transform="matrix(1.00, 0.00, -0.00, -1.00, 489.6, 9.8)">v</text><text xml:space="preserve" font-family="Arial-ItalicMT,Arial" font-style="italic" font-size="32.0" fill="#4E5B3E" transform="matrix(1.00, 0.00, -0.00, -1.00, 505.6, 9.8)">i</text><text xml:space="preserve" font-family="Arial-ItalicMT,Arial" font-style="italic" font-size="32.0" fill="#4E5B3E" transform="matrix(1.00, 0.00, -0.00, -1.00, 512.7, 9.8)">d</text><text xml:space="preserve" font-family="Arial-ItalicMT,Arial" font-style="italic" font-size="32.0" fill="#4E5B3E" transform="matrix(1.00, 0.00, -0.00, -1.00, 530.5, 9.8)">u</text><text xml:space="preserve" font-family="Arial-ItalicMT,Arial" font-style="italic" font-size="32.0" fill="#4E5B3E" transform="matrix(1.00, 0.00, -0.00, -1.00, 548.3, 9.8)">a</text><text xml:space="preserve" font-family="Arial-ItalicMT,Arial" font-style="italic" font-size="32.0" fill="#4E5B3E" transform="matrix(1.00, 0.00, -0.00, -1.00, 566.1, 9.8)">l</text><text xml:space="preserve" font-family="Arial-ItalicMT,Arial" font-style="italic" font-size="32.0" fill="#4E5B3E" transform="matrix(1.00, 0.00, -0.00, -1.00, 573.2, 9.8)">i</text><text xml:space="preserve" font-family="Arial-ItalicMT,Arial" font-style="italic" font-size="32.0" fill="#4E5B3E" transform="matrix(1.00, 0.00, -0.00, -1.00, 580.4, 9.8)">z</text><text xml:space="preserve" font-family="Arial-ItalicMT,Arial" font-style="italic" font-size="32.0" fill="#4E5B3E" transform="matrix(1.00, 0.00, -0.00, -1.00, 596.4, 9.8)">e</text><text xml:space="preserve" font-family="Arial-ItalicMT,Arial" font-style="italic" font-size="32.0" fill="#4E5B3E" transform="matrix(1.00, 0.00, -0.00, -1.00, 614.2, 9.8)">d</text><text xml:space="preserve" font-family="Arial-ItalicMT,Arial" font-style="italic" font-size="32.0" fill="#4E5B3E" transform="matrix(1.00, 0.00, -0.00, -1.00, 632.0, 9.8)"> </text><text xml:space="preserve" font-family="Arial-ItalicMT,Arial" font-style="italic" font-size="32.0" fill="#4E5B3E" transform="matrix(1.00, 0.00, -0.00, -1.00, 640.9, 9.8)">L</text><text xml:space="preserve" font-family="Arial-ItalicMT,Arial" font-style="italic" font-size="32.0" fill="#4E5B3E" transform="matrix(1.00, 0.00, -0.00, -1.00, 658.7, 9.8)">e</text><text xml:space="preserve" font-family="Arial-ItalicMT,Arial" font-style="italic" font-size="32.0" fill="#4E5B3E" transform="matrix(1.00, 0.00, -0.00, -1.00, 676.5, 9.8)">a</text><text xml:space="preserve" font-family="Arial-ItalicMT,Arial" font-style="italic" font-size="32.0" fill="#4E5B3E" transform="matrix(1.00, 0.00, -0.00, -1.00, 694.3, 9.8)">r</text><text xml:space="preserve" font-family="Arial-ItalicMT,Arial" font-style="italic" font-size="32.0" fill="#4E5B3E" transform="matrix(1.00, 0.00, -0.00, -1.00, 704.9, 9.8)">n</text><text xml:space="preserve" font-family="Arial-ItalicMT,Arial" font-style="italic" font-size="32.0" fill="#4E5B3E" transform="matrix(1.00, 0.00, -0.00, -1.00, 722.7, 9.8)">i</text><text xml:space="preserve" font-family="Arial-ItalicMT,Arial" font-style="italic" font-size="32.0" fill="#4E5B3E" transform="matrix(1.00, 0.00, -0.00, -1.00, 729.8, 9.8)">n</text><text xml:space="preserve" font-family="Arial-ItalicMT,Arial" font-style="italic" font-size="32.0" fill="#4E5B3E" transform="matrix(1.00, 0.00, -0.00, -1.00, 747.6, 9.8)">g</text></g></svg>