<?xml version="1.0" encoding="UTF-8" standalone="no"?><svg xmlns="http://www.w3.org/2000/svg" xmlns:xlink="http://www.w3.org/1999/xlink" clip-rule="evenodd" stroke-miterlimit="10" viewBox="0 0 461 59"><desc>SVG generated by Keynote</desc><defs></defs><g transform="matrix(1.00, 0.00, -0.00, -1.00, 0.0, 59.0)"><image xlink:href="2DC42FB75DCC76751DC26A1975CE4546.png" width="455.00" height="53.00" transform="matrix(1.00, 0.00, -0.00, -1.00, 3.0, 57.0)"></image><text xml:space="preserve" font-family="ArialMT,Arial" font-size="64.0" fill="#4E5B3E" transform="matrix(1.00, 0.00, -0.00, -1.00, 6.0, 6.7)">A</text><text xml:space="preserve" font-family="ArialMT,Arial" font-size="64.0" fill="#4E5B3E" transform="matrix(1.00, 0.00, -0.00, -1.00, 51.9, 6.7)">L</text><text xml:space="preserve" font-family="ArialMT,Arial" font-size="64.0" fill="#4E5B3E" transform="matrix(1.00, 0.00, -0.00, -1.00, 90.7, 6.7)">L</text><text xml:space="preserve" font-family="ArialMT,Arial" font-size="64.0" fill="#4E5B3E" transform="matrix(1.00, 0.00, -0.00, -1.00, 127.1, 6.7)"> </text><text xml:space="preserve" font-family="ArialMT,Arial" font-size="64.0" fill="#4E5B3E" transform="matrix(1.00, 0.00, -0.00, -1.00, 148.1, 6.7)">F</text><text xml:space="preserve" font-family="ArialMT,Arial" font-size="64.0" fill="#4E5B3E" transform="matrix(1.00, 0.00, -0.00, -1.00, 190.4, 6.7)">O</text><text xml:space="preserve" font-family="ArialMT,Arial" font-size="64.0" fill="#4E5B3E" transform="matrix(1.00, 0.00, -0.00, -1.00, 243.3, 6.7)">R</text><text xml:space="preserve" font-family="ArialMT,Arial" font-size="64.0" fill="#4E5B3E" transform="matrix(1.00, 0.00, -0.00, -1.00, 292.8, 6.7)"> </text><text xml:space="preserve" font-family="ArialMT,Arial" font-size="64.0" fill="#4E5B3E" transform="matrix(1.00, 0.00, -0.00, -1.00, 313.7, 6.7)">O</text><text xml:space="preserve" font-family="ArialMT,Arial" font-size="64.0" fill="#4E5B3E" transform="matrix(1.00, 0.00, -0.00, -1.00, 366.7, 6.7)">N</text><text xml:space="preserve" font-family="ArialMT,Arial" font-size="64.0" fill="#4E5B3E" transform="matrix(1.00, 0.00, -0.00, -1.00, 416.1, 6.7)">E</text></g></svg>