<?xml version="1.0" encoding="UTF-8" standalone="no"?><svg xmlns="http://www.w3.org/2000/svg" xmlns:xlink="http://www.w3.org/1999/xlink" clip-rule="evenodd" stroke-miterlimit="10" viewBox="0 0 1024 768"><desc>SVG generated by Keynote</desc><defs></defs><g transform="matrix(1.00, 0.00, -0.00, -1.00, 0.0, 768.0)"><g><clipPath id="clip0x7f8ab61560e0"><path d="M 0.0 768.0 L 1024.0 768.0 L 1024.0 0.0 L 0.0 0.0 Z M 0.0 768.0 "></path></clipPath><g clip-path="url(#clip0x7f8ab61560e0)"><image xlink:href="../../99A5FB03-DE1B-4B4A-AE6D-D0C074086E95/assets/C9BB167F6C93FC5BA14E885FDD55B4CB.jpeg" width="2048.00" height="1536.00" transform="matrix(0.50, 0.00, -0.00, -0.50, 0.0, 768.0)"></image></g></g><image xlink:href="7906F01B22830A0E653534FD1D8444FC.png" width="601.00" height="53.00" transform="matrix(1.00, 0.00, -0.00, -1.00, 211.0, 417.0)"></image><text xml:space="preserve" font-family="ArialMT,Arial" font-size="64.0" fill="#4E5B3E" transform="matrix(1.00, 0.00, -0.00, -1.00, 211.6, 366.7)">T</text><text xml:space="preserve" font-family="ArialMT,Arial" font-size="64.0" fill="#4E5B3E" transform="matrix(1.00, 0.00, -0.00, -1.00, 252.7, 366.7)">O</text><text xml:space="preserve" font-family="ArialMT,Arial" font-size="64.0" fill="#4E5B3E" transform="matrix(1.00, 0.00, -0.00, -1.00, 305.7, 366.7)">D</text><text xml:space="preserve" font-family="ArialMT,Arial" font-size="64.0" fill="#4E5B3E" transform="matrix(1.00, 0.00, -0.00, -1.00, 355.1, 366.7)">A</text><text xml:space="preserve" font-family="ArialMT,Arial" font-size="64.0" fill="#4E5B3E" transform="matrix(1.00, 0.00, -0.00, -1.00, 396.2, 366.7)">Y</text><text xml:space="preserve" font-family="ArialMT,Arial" font-size="64.0" fill="#4E5B3E" transform="matrix(1.00, 0.00, -0.00, -1.00, 442.1, 366.7)">’</text><text xml:space="preserve" font-family="ArialMT,Arial" font-size="64.0" fill="#4E5B3E" transform="matrix(1.00, 0.00, -0.00, -1.00, 459.5, 366.7)">S</text><text xml:space="preserve" font-family="ArialMT,Arial" font-size="64.0" fill="#4E5B3E" transform="matrix(1.00, 0.00, -0.00, -1.00, 505.4, 366.7)"> </text><text xml:space="preserve" font-family="ArialMT,Arial" font-size="64.0" fill="#4E5B3E" transform="matrix(1.00, 0.00, -0.00, -1.00, 522.8, 366.7)">A</text><text xml:space="preserve" font-family="ArialMT,Arial" font-size="64.0" fill="#4E5B3E" transform="matrix(1.00, 0.00, -0.00, -1.00, 568.7, 366.7)">G</text><text xml:space="preserve" font-family="ArialMT,Arial" font-size="64.0" fill="#4E5B3E" transform="matrix(1.00, 0.00, -0.00, -1.00, 621.7, 366.7)">E</text><text xml:space="preserve" font-family="ArialMT,Arial" font-size="64.0" fill="#4E5B3E" transform="matrix(1.00, 0.00, -0.00, -1.00, 667.6, 366.7)">N</text><text xml:space="preserve" font-family="ArialMT,Arial" font-size="64.0" fill="#4E5B3E" transform="matrix(1.00, 0.00, -0.00, -1.00, 717.0, 366.7)">D</text><text xml:space="preserve" font-family="ArialMT,Arial" font-size="64.0" fill="#4E5B3E" transform="matrix(1.00, 0.00, -0.00, -1.00, 766.4, 366.7)">A</text></g></svg>