<?xml version="1.0" encoding="UTF-8" standalone="no"?><svg xmlns="http://www.w3.org/2000/svg" xmlns:xlink="http://www.w3.org/1999/xlink" clip-rule="evenodd" stroke-miterlimit="10" viewBox="0 0 1024 768"><desc>SVG generated by Keynote</desc><defs></defs><g transform="matrix(1.00, 0.00, -0.00, -1.00, 0.0, 768.0)"><g><clipPath id="clip0x7f8a9d9a07a0"><path d="M 0.0 768.0 L 1024.0 768.0 L 1024.0 0.0 L 0.0 0.0 Z M 0.0 768.0 "></path></clipPath><g clip-path="url(#clip0x7f8a9d9a07a0)"><image xlink:href="../../CFB973E0-1CA5-4505-A6AC-B517D18CDB5D/assets/EAEB15BD30B8B47CFBACD9348EDFD47C.jpeg" width="2048.00" height="1536.00" transform="matrix(0.50, 0.00, -0.00, -0.50, 0.0, 768.0)"></image></g></g><image xlink:href="../../90B5F570-F132-44A9-A332-1D18B938298E/assets/C8C80775E611A049A572CD96D01EE70E.png" width="26.00" height="28.00" transform="matrix(1.00, 0.00, -0.00, -1.00, 260.0, 419.0)"></image><text xml:space="preserve" font-family="ArialMT,Arial" font-size="32.0" fill="#4E5B3E" transform="matrix(1.00, 0.00, -0.00, -1.00, 261.2, 393.8)">A</text><image xlink:href="../../90B5F570-F132-44A9-A332-1D18B938298E/assets/2BD5F88BE04879B5129B48094614B24C.png" width="19.00" height="22.00" transform="matrix(1.00, 0.00, -0.00, -1.00, 283.0, 413.0)"></image><text xml:space="preserve" font-family="ArialMT,Arial" font-size="32.0" fill="#4E5B3E" transform="matrix(1.00, 0.00, -0.00, -1.00, 282.5, 393.8)">n</text><text xml:space="preserve" font-family="ArialMT,Arial" font-size="32.0" fill="#4E5B3E" transform="matrix(1.00, 0.00, -0.00, -1.00, 300.3, 393.8)"> </text><image xlink:href="../../90B5F570-F132-44A9-A332-1D18B938298E/assets/17D0275778EAFB0469023332818562F0.png" width="20.00" height="22.00" transform="matrix(1.00, 0.00, -0.00, -1.00, 309.0, 413.0)"></image><text xml:space="preserve" font-family="ArialMT,Arial" font-size="32.0" fill="#4E5B3E" transform="matrix(1.00, 0.00, -0.00, -1.00, 309.2, 393.8)">o</text><image xlink:href="../../90B5F570-F132-44A9-A332-1D18B938298E/assets/19F8502EC511AD30ACC510112D25B8FF.png" width="19.00" height="28.00" transform="matrix(1.00, 0.00, -0.00, -1.00, 328.0, 413.0)"></image><text xml:space="preserve" font-family="ArialMT,Arial" font-size="32.0" fill="#4E5B3E" transform="matrix(1.00, 0.00, -0.00, -1.00, 327.0, 393.8)">p</text><image xlink:href="../../90B5F570-F132-44A9-A332-1D18B938298E/assets/4B37A63DF3CE5F91FBF62C2C6B722AC4.png" width="20.00" height="28.00" transform="matrix(1.00, 0.00, -0.00, -1.00, 345.0, 413.0)"></image><text xml:space="preserve" font-family="ArialMT,Arial" font-size="32.0" fill="#4E5B3E" transform="matrix(1.00, 0.00, -0.00, -1.00, 344.8, 393.8)">p</text><image xlink:href="../../90B5F570-F132-44A9-A332-1D18B938298E/assets/0EA379DD26B4D6839859E578B79970F7.png" width="21.00" height="22.00" transform="matrix(1.00, 0.00, -0.00, -1.00, 362.0, 413.0)"></image><text xml:space="preserve" font-family="ArialMT,Arial" font-size="32.0" fill="#4E5B3E" transform="matrix(1.00, 0.00, -0.00, -1.00, 362.6, 393.8)">o</text><image xlink:href="../../90B5F570-F132-44A9-A332-1D18B938298E/assets/02CA65E83C46680B889B71590CE63FED.png" width="14.00" height="22.00" transform="matrix(1.00, 0.00, -0.00, -1.00, 381.0, 413.0)"></image><text xml:space="preserve" font-family="ArialMT,Arial" font-size="32.0" fill="#4E5B3E" transform="matrix(1.00, 0.00, -0.00, -1.00, 380.4, 393.8)">r</text><image xlink:href="../../90B5F570-F132-44A9-A332-1D18B938298E/assets/0CFD138B0494DB0CB15CD8B9F69066CE.png" width="13.00" height="28.00" transform="matrix(1.00, 0.00, -0.00, -1.00, 390.0, 419.0)"></image><text xml:space="preserve" font-family="ArialMT,Arial" font-size="32.0" fill="#4E5B3E" transform="matrix(1.00, 0.00, -0.00, -1.00, 391.1, 393.8)">t</text><image xlink:href="../../90B5F570-F132-44A9-A332-1D18B938298E/assets/B1DFC4790F45FA4C7D6E5627C1C6A948.png" width="18.00" height="22.00" transform="matrix(1.00, 0.00, -0.00, -1.00, 401.0, 413.0)"></image><text xml:space="preserve" font-family="ArialMT,Arial" font-size="32.0" fill="#4E5B3E" transform="matrix(1.00, 0.00, -0.00, -1.00, 400.0, 393.8)">u</text><image xlink:href="../../90B5F570-F132-44A9-A332-1D18B938298E/assets/E6957E324792D2D2E6838EDCDF2838BA.png" width="19.00" height="22.00" transform="matrix(1.00, 0.00, -0.00, -1.00, 418.0, 413.0)"></image><text xml:space="preserve" font-family="ArialMT,Arial" font-size="32.0" fill="#4E5B3E" transform="matrix(1.00, 0.00, -0.00, -1.00, 417.8, 393.8)">n</text><image xlink:href="../../90B5F570-F132-44A9-A332-1D18B938298E/assets/9F67949DEB6CA8CABC0D14B886B2AE5A.png" width="8.00" height="28.00" transform="matrix(1.00, 0.00, -0.00, -1.00, 436.0, 419.0)"></image><text xml:space="preserve" font-family="ArialMT,Arial" font-size="32.0" fill="#4E5B3E" transform="matrix(1.00, 0.00, -0.00, -1.00, 435.5, 393.8)">i</text><image xlink:href="../../90B5F570-F132-44A9-A332-1D18B938298E/assets/C49F2E3158A6C1947DCB5F6534132AAB.png" width="13.00" height="28.00" transform="matrix(1.00, 0.00, -0.00, -1.00, 442.0, 419.0)"></image><text xml:space="preserve" font-family="ArialMT,Arial" font-size="32.0" fill="#4E5B3E" transform="matrix(1.00, 0.00, -0.00, -1.00, 442.7, 393.8)">t</text><image xlink:href="../../90B5F570-F132-44A9-A332-1D18B938298E/assets/A7E15708ED367F75AA32B4B419589E22.png" width="20.00" height="28.00" transform="matrix(1.00, 0.00, -0.00, -1.00, 451.0, 413.0)"></image><text xml:space="preserve" font-family="ArialMT,Arial" font-size="32.0" fill="#4E5B3E" transform="matrix(1.00, 0.00, -0.00, -1.00, 451.5, 393.8)">y</text><text xml:space="preserve" font-family="ArialMT,Arial" font-size="32.0" fill="#4E5B3E" transform="matrix(1.00, 0.00, -0.00, -1.00, 467.5, 393.8)"> </text><image xlink:href="../../90B5F570-F132-44A9-A332-1D18B938298E/assets/14F3BA822A9A7AF6D049014D3E88E915.png" width="15.00" height="29.00" transform="matrix(1.00, 0.00, -0.00, -1.00, 475.0, 420.0)"></image><text xml:space="preserve" font-family="ArialMT,Arial" font-size="32.0" fill="#4E5B3E" transform="matrix(1.00, 0.00, -0.00, -1.00, 476.4, 393.8)">f</text><image xlink:href="../../90B5F570-F132-44A9-A332-1D18B938298E/assets/854B9FE29CD43FD2E00D09574B7C9BA8.png" width="20.00" height="22.00" transform="matrix(1.00, 0.00, -0.00, -1.00, 485.0, 413.0)"></image><text xml:space="preserve" font-family="ArialMT,Arial" font-size="32.0" fill="#4E5B3E" transform="matrix(1.00, 0.00, -0.00, -1.00, 485.3, 393.8)">o</text><image xlink:href="../../90B5F570-F132-44A9-A332-1D18B938298E/assets/BED617DAC4DF50DE024EA70836118233.png" width="14.00" height="22.00" transform="matrix(1.00, 0.00, -0.00, -1.00, 504.0, 413.0)"></image><text xml:space="preserve" font-family="ArialMT,Arial" font-size="32.0" fill="#4E5B3E" transform="matrix(1.00, 0.00, -0.00, -1.00, 503.1, 393.8)">r</text><text xml:space="preserve" font-family="ArialMT,Arial" font-size="32.0" fill="#4E5B3E" transform="matrix(1.00, 0.00, -0.00, -1.00, 513.8, 393.8)"> </text><image xlink:href="../../90B5F570-F132-44A9-A332-1D18B938298E/assets/22330352E12B8E3B351BBAC1AE42417B.png" width="14.00" height="22.00" transform="matrix(1.00, 0.00, -0.00, -1.00, 523.0, 413.0)"></image><text xml:space="preserve" font-family="ArialMT,Arial" font-size="32.0" fill="#4E5B3E" transform="matrix(1.00, 0.00, -0.00, -1.00, 522.7, 393.8)">r</text><image xlink:href="../../90B5F570-F132-44A9-A332-1D18B938298E/assets/3DA51815113686AC631FF51EEB0876A4.png" width="20.00" height="22.00" transform="matrix(1.00, 0.00, -0.00, -1.00, 533.0, 413.0)"></image><text xml:space="preserve" font-family="ArialMT,Arial" font-size="32.0" fill="#4E5B3E" transform="matrix(1.00, 0.00, -0.00, -1.00, 533.3, 393.8)">a</text><image xlink:href="../../90B5F570-F132-44A9-A332-1D18B938298E/assets/E39960ACD444171404CD19EDA8B5B524.png" width="19.00" height="28.00" transform="matrix(1.00, 0.00, -0.00, -1.00, 551.0, 419.0)"></image><text xml:space="preserve" font-family="ArialMT,Arial" font-size="32.0" fill="#4E5B3E" transform="matrix(1.00, 0.00, -0.00, -1.00, 551.1, 393.8)">d</text><image xlink:href="../../90B5F570-F132-44A9-A332-1D18B938298E/assets/817DAF0A7FD55DDFBB72E8BE349789C7.png" width="7.00" height="28.00" transform="matrix(1.00, 0.00, -0.00, -1.00, 570.0, 419.0)"></image><text xml:space="preserve" font-family="ArialMT,Arial" font-size="32.0" fill="#4E5B3E" transform="matrix(1.00, 0.00, -0.00, -1.00, 568.9, 393.8)">i</text><image xlink:href="../../90B5F570-F132-44A9-A332-1D18B938298E/assets/C3ED60E75D9B76155FF046A43A1FEEE2.png" width="19.00" height="22.00" transform="matrix(1.00, 0.00, -0.00, -1.00, 576.0, 413.0)"></image><text xml:space="preserve" font-family="ArialMT,Arial" font-size="32.0" fill="#4E5B3E" transform="matrix(1.00, 0.00, -0.00, -1.00, 576.0, 393.8)">c</text><image xlink:href="../../90B5F570-F132-44A9-A332-1D18B938298E/assets/72A343D5DE9BE9E93DC0384EDC6C6A98.png" width="20.00" height="22.00" transform="matrix(1.00, 0.00, -0.00, -1.00, 592.0, 413.0)"></image><text xml:space="preserve" font-family="ArialMT,Arial" font-size="32.0" fill="#4E5B3E" transform="matrix(1.00, 0.00, -0.00, -1.00, 592.0, 393.8)">a</text><image xlink:href="../../90B5F570-F132-44A9-A332-1D18B938298E/assets/73E5E54E092771040FD312F6499206F4.png" width="8.00" height="28.00" transform="matrix(1.00, 0.00, -0.00, -1.00, 610.0, 419.0)"></image><text xml:space="preserve" font-family="ArialMT,Arial" font-size="32.0" fill="#4E5B3E" transform="matrix(1.00, 0.00, -0.00, -1.00, 609.8, 393.8)">l</text><text xml:space="preserve" font-family="ArialMT,Arial" font-size="32.0" fill="#4E5B3E" transform="matrix(1.00, 0.00, -0.00, -1.00, 616.9, 393.8)"> </text><image xlink:href="../../90B5F570-F132-44A9-A332-1D18B938298E/assets/ED04CDCFD415A570904DFE0924B53554.png" width="19.00" height="22.00" transform="matrix(1.00, 0.00, -0.00, -1.00, 626.0, 413.0)"></image><text xml:space="preserve" font-family="ArialMT,Arial" font-size="32.0" fill="#4E5B3E" transform="matrix(1.00, 0.00, -0.00, -1.00, 625.8, 393.8)">c</text><image xlink:href="../../90B5F570-F132-44A9-A332-1D18B938298E/assets/774F4737A61845DF807A82CEF3D55D22.png" width="19.00" height="28.00" transform="matrix(1.00, 0.00, -0.00, -1.00, 642.0, 419.0)"></image><text xml:space="preserve" font-family="ArialMT,Arial" font-size="32.0" fill="#4E5B3E" transform="matrix(1.00, 0.00, -0.00, -1.00, 641.8, 393.8)">h</text><image xlink:href="../../90B5F570-F132-44A9-A332-1D18B938298E/assets/48039EE60E28D92322C16D4E1E57F197.png" width="21.00" height="22.00" transform="matrix(1.00, 0.00, -0.00, -1.00, 659.0, 413.0)"></image><text xml:space="preserve" font-family="ArialMT,Arial" font-size="32.0" fill="#4E5B3E" transform="matrix(1.00, 0.00, -0.00, -1.00, 659.6, 393.8)">a</text><image xlink:href="../../90B5F570-F132-44A9-A332-1D18B938298E/assets/A3AF5BE6F720237C1E75A1FDC3A4D978.png" width="19.00" height="22.00" transform="matrix(1.00, 0.00, -0.00, -1.00, 678.0, 413.0)"></image><text xml:space="preserve" font-family="ArialMT,Arial" font-size="32.0" fill="#4E5B3E" transform="matrix(1.00, 0.00, -0.00, -1.00, 677.4, 393.8)">n</text><image xlink:href="../../90B5F570-F132-44A9-A332-1D18B938298E/assets/087015E6E1A5835686251D6585531BD0.png" width="19.00" height="28.00" transform="matrix(1.00, 0.00, -0.00, -1.00, 695.0, 413.0)"></image><text xml:space="preserve" font-family="ArialMT,Arial" font-size="32.0" fill="#4E5B3E" transform="matrix(1.00, 0.00, -0.00, -1.00, 695.2, 393.8)">g</text><image xlink:href="../../90B5F570-F132-44A9-A332-1D18B938298E/assets/0CF413FB01206A5666BE0D3198218E6F.png" width="20.00" height="22.00" transform="matrix(1.00, 0.00, -0.00, -1.00, 713.0, 413.0)"></image><text xml:space="preserve" font-family="ArialMT,Arial" font-size="32.0" fill="#4E5B3E" transform="matrix(1.00, 0.00, -0.00, -1.00, 713.0, 393.8)">e</text><image xlink:href="../../90B5F570-F132-44A9-A332-1D18B938298E/assets/74CADC79BE87630ADB7A283666350E37.png" width="30.00" height="9.00" transform="matrix(1.00, 0.00, -0.00, -1.00, 733.0, 400.0)"></image><text xml:space="preserve" font-family="ArialMT,Arial" font-size="32.0" fill="#4E5B3E" transform="matrix(1.00, 0.00, -0.00, -1.00, 730.8, 393.8)">…</text></g></svg>