<?xml version="1.0" encoding="UTF-8" standalone="no"?><svg xmlns="http://www.w3.org/2000/svg" xmlns:xlink="http://www.w3.org/1999/xlink" clip-rule="evenodd" stroke-miterlimit="10" viewBox="0 0 1024 768"><desc>SVG generated by Keynote</desc><defs></defs><g transform="matrix(1.00, 0.00, -0.00, -1.00, 0.0, 768.0)"><g><clipPath id="clip0x7f8a9c9e5fa0"><path d="M 0.0 768.0 L 1024.0 768.0 L 1024.0 0.0 L 0.0 0.0 Z M 0.0 768.0 "></path></clipPath><g clip-path="url(#clip0x7f8a9c9e5fa0)"><image xlink:href="../../99A5FB03-DE1B-4B4A-AE6D-D0C074086E95/assets/34988952894DD776A411594AF71579AA.jpeg" width="2048.00" height="1536.00" transform="matrix(0.50, 0.00, -0.00, -0.50, 0.0, 768.0)"></image></g></g><image xlink:href="95C9252813E99F7383E38FD914BDD657.png" width="480.00" height="46.00" transform="matrix(1.00, 0.00, -0.00, -1.00, 271.0, 710.0)"></image><text xml:space="preserve" font-family="ArialMT,Arial" font-size="56.0" fill="#FBF8E6" transform="matrix(1.00, 0.00, -0.00, -1.00, 268.7, 664.7)">F</text><text xml:space="preserve" font-family="ArialMT,Arial" font-size="56.0" fill="#FBF8E6" transform="matrix(1.00, 0.00, -0.00, -1.00, 305.7, 664.7)">I</text><text xml:space="preserve" font-family="ArialMT,Arial" font-size="56.0" fill="#FBF8E6" transform="matrix(1.00, 0.00, -0.00, -1.00, 324.1, 664.7)">R</text><text xml:space="preserve" font-family="ArialMT,Arial" font-size="56.0" fill="#FBF8E6" transform="matrix(1.00, 0.00, -0.00, -1.00, 367.3, 664.7)">S</text><text xml:space="preserve" font-family="ArialMT,Arial" font-size="56.0" fill="#FBF8E6" transform="matrix(1.00, 0.00, -0.00, -1.00, 407.4, 664.7)">T</text><text xml:space="preserve" font-family="ArialMT,Arial" font-size="56.0" fill="#FBF8E6" transform="matrix(1.00, 0.00, -0.00, -1.00, 443.4, 664.7)"> </text><text xml:space="preserve" font-family="ArialMT,Arial" font-size="56.0" fill="#FBF8E6" transform="matrix(1.00, 0.00, -0.00, -1.00, 461.8, 664.7)">P</text><text xml:space="preserve" font-family="ArialMT,Arial" font-size="56.0" fill="#FBF8E6" transform="matrix(1.00, 0.00, -0.00, -1.00, 501.9, 664.7)">R</text><text xml:space="preserve" font-family="ArialMT,Arial" font-size="56.0" fill="#FBF8E6" transform="matrix(1.00, 0.00, -0.00, -1.00, 545.1, 664.7)">O</text><text xml:space="preserve" font-family="ArialMT,Arial" font-size="56.0" fill="#FBF8E6" transform="matrix(1.00, 0.00, -0.00, -1.00, 591.5, 664.7)">B</text><text xml:space="preserve" font-family="ArialMT,Arial" font-size="56.0" fill="#FBF8E6" transform="matrix(1.00, 0.00, -0.00, -1.00, 631.6, 664.7)">L</text><text xml:space="preserve" font-family="ArialMT,Arial" font-size="56.0" fill="#FBF8E6" transform="matrix(1.00, 0.00, -0.00, -1.00, 665.6, 664.7)">E</text><text xml:space="preserve" font-family="ArialMT,Arial" font-size="56.0" fill="#FBF8E6" transform="matrix(1.00, 0.00, -0.00, -1.00, 705.7, 664.7)">M</text><image xlink:href="../../175F7D50-A2BC-45FE-B845-30B060AD2BC1/assets/BC730A83D65BBC2A57BD4FF35BE2CE46.png" width="16.00" height="17.00" transform="matrix(1.00, 0.00, -0.00, -1.00, 102.0, 543.0)"></image><image xlink:href="../../99A5FB03-DE1B-4B4A-AE6D-D0C074086E95/assets/2EAA803481B4829669A1AED6584C7A6E.png" width="132.00" height="132.00" transform="matrix(0.09, 0.00, -0.00, -0.09, 103.0, 540.6)"></image><image xlink:href="67D6D802B311AA11C25B135AD866189D.png" width="126.00" height="32.00" transform="matrix(1.00, 0.00, -0.00, -1.00, 138.0, 549.0)"></image><text xml:space="preserve" font-family="ArialMT,Arial" font-size="30.0" fill="#4E5B3E" transform="matrix(1.00, 0.00, -0.00, -1.00, 137.0, 525.3)">I</text><text xml:space="preserve" font-family="ArialMT,Arial" font-size="30.0" fill="#4E5B3E" transform="matrix(1.00, 0.00, -0.00, -1.00, 145.3, 525.3)"> </text><text xml:space="preserve" font-family="ArialMT,Arial" font-size="30.0" fill="#4E5B3E" transform="matrix(1.00, 0.00, -0.00, -1.00, 153.7, 525.3)">g</text><text xml:space="preserve" font-family="ArialMT,Arial" font-size="30.0" fill="#4E5B3E" transform="matrix(1.00, 0.00, -0.00, -1.00, 170.3, 525.3)">u</text><text xml:space="preserve" font-family="ArialMT,Arial" font-size="30.0" fill="#4E5B3E" transform="matrix(1.00, 0.00, -0.00, -1.00, 187.0, 525.3)">e</text><text xml:space="preserve" font-family="ArialMT,Arial" font-size="30.0" fill="#4E5B3E" transform="matrix(1.00, 0.00, -0.00, -1.00, 203.7, 525.3)">s</text><text xml:space="preserve" font-family="ArialMT,Arial" font-size="30.0" fill="#4E5B3E" transform="matrix(1.00, 0.00, -0.00, -1.00, 218.7, 525.3)">s</text><text xml:space="preserve" font-family="ArialMT,Arial" font-size="30.0" fill="#4E5B3E" transform="matrix(1.00, 0.00, -0.00, -1.00, 233.7, 525.3)">…</text><text xml:space="preserve" font-family="ArialMT,Arial" font-size="30.0" fill="#4E5B3E" transform="matrix(1.00, 0.00, -0.00, -1.00, 263.7, 525.3)"> </text><image xlink:href="89D89735BB5CF96B12C08A25EC93FA0B.png" width="14.00" height="14.00" transform="matrix(1.00, 0.00, -0.00, -1.00, 136.0, 488.0)"></image><image xlink:href="../../99A5FB03-DE1B-4B4A-AE6D-D0C074086E95/assets/2EAA803481B4829669A1AED6584C7A6E.png" width="132.00" height="132.00" transform="matrix(0.07, 0.00, -0.00, -0.07, 137.0, 485.9)"></image><image xlink:href="328C457603984E79D57B25251134AA5D.png" width="576.00" height="23.00" transform="matrix(1.00, 0.00, -0.00, -1.00, 171.0, 494.0)"></image><text xml:space="preserve" font-family="ArialMT,Arial" font-size="24.0" fill="#4E5B3E" transform="matrix(1.00, 0.00, -0.00, -1.00, 171.0, 473.9)">M</text><text xml:space="preserve" font-family="ArialMT,Arial" font-size="24.0" fill="#4E5B3E" transform="matrix(1.00, 0.00, -0.00, -1.00, 191.0, 473.9)">o</text><text xml:space="preserve" font-family="ArialMT,Arial" font-size="24.0" fill="#4E5B3E" transform="matrix(1.00, 0.00, -0.00, -1.00, 204.3, 473.9)">s</text><text xml:space="preserve" font-family="ArialMT,Arial" font-size="24.0" fill="#4E5B3E" transform="matrix(1.00, 0.00, -0.00, -1.00, 216.3, 473.9)">t</text><text xml:space="preserve" font-family="ArialMT,Arial" font-size="24.0" fill="#4E5B3E" transform="matrix(1.00, 0.00, -0.00, -1.00, 223.0, 473.9)"> </text><text xml:space="preserve" font-family="ArialMT,Arial" font-size="24.0" fill="#4E5B3E" transform="matrix(1.00, 0.00, -0.00, -1.00, 229.7, 473.9)">t</text><text xml:space="preserve" font-family="ArialMT,Arial" font-size="24.0" fill="#4E5B3E" transform="matrix(1.00, 0.00, -0.00, -1.00, 236.3, 473.9)">e</text><text xml:space="preserve" font-family="ArialMT,Arial" font-size="24.0" fill="#4E5B3E" transform="matrix(1.00, 0.00, -0.00, -1.00, 249.7, 473.9)">a</text><text xml:space="preserve" font-family="ArialMT,Arial" font-size="24.0" fill="#4E5B3E" transform="matrix(1.00, 0.00, -0.00, -1.00, 263.0, 473.9)">c</text><text xml:space="preserve" font-family="ArialMT,Arial" font-size="24.0" fill="#4E5B3E" transform="matrix(1.00, 0.00, -0.00, -1.00, 275.0, 473.9)">h</text><text xml:space="preserve" font-family="ArialMT,Arial" font-size="24.0" fill="#4E5B3E" transform="matrix(1.00, 0.00, -0.00, -1.00, 288.4, 473.9)">e</text><text xml:space="preserve" font-family="ArialMT,Arial" font-size="24.0" fill="#4E5B3E" transform="matrix(1.00, 0.00, -0.00, -1.00, 301.7, 473.9)">r</text><text xml:space="preserve" font-family="ArialMT,Arial" font-size="24.0" fill="#4E5B3E" transform="matrix(1.00, 0.00, -0.00, -1.00, 309.7, 473.9)">s</text><text xml:space="preserve" font-family="ArialMT,Arial" font-size="24.0" fill="#4E5B3E" transform="matrix(1.00, 0.00, -0.00, -1.00, 321.7, 473.9)"> </text><text xml:space="preserve" font-family="ArialMT,Arial" font-size="24.0" fill="#4E5B3E" transform="matrix(1.00, 0.00, -0.00, -1.00, 328.4, 473.9)">u</text><text xml:space="preserve" font-family="ArialMT,Arial" font-size="24.0" fill="#4E5B3E" transform="matrix(1.00, 0.00, -0.00, -1.00, 341.8, 473.9)">s</text><text xml:space="preserve" font-family="ArialMT,Arial" font-size="24.0" fill="#4E5B3E" transform="matrix(1.00, 0.00, -0.00, -1.00, 353.8, 473.9)">e</text><text xml:space="preserve" font-family="ArialMT,Arial" font-size="24.0" fill="#4E5B3E" transform="matrix(1.00, 0.00, -0.00, -1.00, 367.1, 473.9)"> </text><text xml:space="preserve" font-family="ArialMT,Arial" font-size="24.0" fill="#4E5B3E" transform="matrix(1.00, 0.00, -0.00, -1.00, 373.8, 473.9)">s</text><text xml:space="preserve" font-family="ArialMT,Arial" font-size="24.0" fill="#4E5B3E" transform="matrix(1.00, 0.00, -0.00, -1.00, 385.8, 473.9)">o</text><text xml:space="preserve" font-family="ArialMT,Arial" font-size="24.0" fill="#4E5B3E" transform="matrix(1.00, 0.00, -0.00, -1.00, 399.1, 473.9)">m</text><text xml:space="preserve" font-family="ArialMT,Arial" font-size="24.0" fill="#4E5B3E" transform="matrix(1.00, 0.00, -0.00, -1.00, 419.1, 473.9)">e</text><text xml:space="preserve" font-family="ArialMT,Arial" font-size="24.0" fill="#4E5B3E" transform="matrix(1.00, 0.00, -0.00, -1.00, 432.5, 473.9)"> </text><text xml:space="preserve" font-family="ArialMT,Arial" font-size="24.0" fill="#4E5B3E" transform="matrix(1.00, 0.00, -0.00, -1.00, 439.1, 473.9)">a</text><text xml:space="preserve" font-family="ArialMT,Arial" font-size="24.0" fill="#4E5B3E" transform="matrix(1.00, 0.00, -0.00, -1.00, 452.5, 473.9)">m</text><text xml:space="preserve" font-family="ArialMT,Arial" font-size="24.0" fill="#4E5B3E" transform="matrix(1.00, 0.00, -0.00, -1.00, 472.5, 473.9)">o</text><text xml:space="preserve" font-family="ArialMT,Arial" font-size="24.0" fill="#4E5B3E" transform="matrix(1.00, 0.00, -0.00, -1.00, 485.8, 473.9)">u</text><text xml:space="preserve" font-family="ArialMT,Arial" font-size="24.0" fill="#4E5B3E" transform="matrix(1.00, 0.00, -0.00, -1.00, 499.2, 473.9)">n</text><text xml:space="preserve" font-family="ArialMT,Arial" font-size="24.0" fill="#4E5B3E" transform="matrix(1.00, 0.00, -0.00, -1.00, 512.5, 473.9)">t</text><text xml:space="preserve" font-family="ArialMT,Arial" font-size="24.0" fill="#4E5B3E" transform="matrix(1.00, 0.00, -0.00, -1.00, 519.2, 473.9)"> </text><text xml:space="preserve" font-family="ArialMT,Arial" font-size="24.0" fill="#4E5B3E" transform="matrix(1.00, 0.00, -0.00, -1.00, 525.9, 473.9)">o</text><text xml:space="preserve" font-family="ArialMT,Arial" font-size="24.0" fill="#4E5B3E" transform="matrix(1.00, 0.00, -0.00, -1.00, 539.2, 473.9)">f</text><text xml:space="preserve" font-family="ArialMT,Arial" font-size="24.0" fill="#4E5B3E" transform="matrix(1.00, 0.00, -0.00, -1.00, 545.9, 473.9)"> </text><text xml:space="preserve" font-family="ArialMT,Arial" font-size="24.0" fill="#4E5B3E" transform="matrix(1.00, 0.00, -0.00, -1.00, 552.5, 473.9)">i</text><text xml:space="preserve" font-family="ArialMT,Arial" font-size="24.0" fill="#4E5B3E" transform="matrix(1.00, 0.00, -0.00, -1.00, 557.9, 473.9)">n</text><text xml:space="preserve" font-family="ArialMT,Arial" font-size="24.0" fill="#4E5B3E" transform="matrix(1.00, 0.00, -0.00, -1.00, 571.2, 473.9)">s</text><text xml:space="preserve" font-family="ArialMT,Arial" font-size="24.0" fill="#4E5B3E" transform="matrix(1.00, 0.00, -0.00, -1.00, 583.2, 473.9)">t</text><text xml:space="preserve" font-family="ArialMT,Arial" font-size="24.0" fill="#4E5B3E" transform="matrix(1.00, 0.00, -0.00, -1.00, 589.9, 473.9)">r</text><text xml:space="preserve" font-family="ArialMT,Arial" font-size="24.0" fill="#4E5B3E" transform="matrix(1.00, 0.00, -0.00, -1.00, 597.9, 473.9)">u</text><text xml:space="preserve" font-family="ArialMT,Arial" font-size="24.0" fill="#4E5B3E" transform="matrix(1.00, 0.00, -0.00, -1.00, 611.2, 473.9)">c</text><text xml:space="preserve" font-family="ArialMT,Arial" font-size="24.0" fill="#4E5B3E" transform="matrix(1.00, 0.00, -0.00, -1.00, 623.2, 473.9)">t</text><text xml:space="preserve" font-family="ArialMT,Arial" font-size="24.0" fill="#4E5B3E" transform="matrix(1.00, 0.00, -0.00, -1.00, 629.9, 473.9)">i</text><text xml:space="preserve" font-family="ArialMT,Arial" font-size="24.0" fill="#4E5B3E" transform="matrix(1.00, 0.00, -0.00, -1.00, 635.2, 473.9)">o</text><text xml:space="preserve" font-family="ArialMT,Arial" font-size="24.0" fill="#4E5B3E" transform="matrix(1.00, 0.00, -0.00, -1.00, 648.6, 473.9)">n</text><text xml:space="preserve" font-family="ArialMT,Arial" font-size="24.0" fill="#4E5B3E" transform="matrix(1.00, 0.00, -0.00, -1.00, 661.9, 473.9)">a</text><text xml:space="preserve" font-family="ArialMT,Arial" font-size="24.0" fill="#4E5B3E" transform="matrix(1.00, 0.00, -0.00, -1.00, 675.3, 473.9)">l</text><text xml:space="preserve" font-family="ArialMT,Arial" font-size="24.0" fill="#4E5B3E" transform="matrix(1.00, 0.00, -0.00, -1.00, 680.6, 473.9)"> </text><text xml:space="preserve" font-family="ArialMT,Arial" font-size="24.0" fill="#4E5B3E" transform="matrix(1.00, 0.00, -0.00, -1.00, 687.3, 473.9)">v</text><text xml:space="preserve" font-family="ArialMT,Arial" font-size="24.0" fill="#4E5B3E" transform="matrix(1.00, 0.00, -0.00, -1.00, 699.3, 473.9)">i</text><text xml:space="preserve" font-family="ArialMT,Arial" font-size="24.0" fill="#4E5B3E" transform="matrix(1.00, 0.00, -0.00, -1.00, 704.6, 473.9)">d</text><text xml:space="preserve" font-family="ArialMT,Arial" font-size="24.0" fill="#4E5B3E" transform="matrix(1.00, 0.00, -0.00, -1.00, 718.0, 473.9)">e</text><text xml:space="preserve" font-family="ArialMT,Arial" font-size="24.0" fill="#4E5B3E" transform="matrix(1.00, 0.00, -0.00, -1.00, 731.3, 473.9)">o</text><text xml:space="preserve" font-family="ArialMT,Arial" font-size="24.0" fill="#4E5B3E" transform="matrix(1.00, 0.00, -0.00, -1.00, 744.7, 473.9)"> </text><image xlink:href="../../A5D24786-5AC6-4031-B5CB-C459423D39FF/assets/89D89735BB5CF96B12C08A25EC93FA0B.png" width="14.00" height="14.00" transform="matrix(1.00, 0.00, -0.00, -1.00, 136.0, 438.0)"></image><image xlink:href="../../99A5FB03-DE1B-4B4A-AE6D-D0C074086E95/assets/2EAA803481B4829669A1AED6584C7A6E.png" width="132.00" height="132.00" transform="matrix(0.07, 0.00, -0.00, -0.07, 137.0, 435.9)"></image><image xlink:href="3C09AC59695A1F10A83C32F9D9BF74E9.png" width="769.00" height="28.00" transform="matrix(1.00, 0.00, -0.00, -1.00, 170.0, 444.0)"></image><text xml:space="preserve" font-family="ArialMT,Arial" font-size="24.0" fill="#4E5B3E" transform="matrix(1.00, 0.00, -0.00, -1.00, 171.0, 423.9)">T</text><text xml:space="preserve" font-family="ArialMT,Arial" font-size="24.0" fill="#4E5B3E" transform="matrix(1.00, 0.00, -0.00, -1.00, 185.7, 423.9)">h</text><text xml:space="preserve" font-family="ArialMT,Arial" font-size="24.0" fill="#4E5B3E" transform="matrix(1.00, 0.00, -0.00, -1.00, 199.0, 423.9)">a</text><text xml:space="preserve" font-family="ArialMT,Arial" font-size="24.0" fill="#4E5B3E" transform="matrix(1.00, 0.00, -0.00, -1.00, 212.4, 423.9)">t</text><text xml:space="preserve" font-family="ArialMT,Arial" font-size="24.0" fill="#4E5B3E" transform="matrix(1.00, 0.00, -0.00, -1.00, 219.0, 423.9)"> </text><text xml:space="preserve" font-family="ArialMT,Arial" font-size="24.0" fill="#4E5B3E" transform="matrix(1.00, 0.00, -0.00, -1.00, 225.7, 423.9)">t</text><text xml:space="preserve" font-family="ArialMT,Arial" font-size="24.0" fill="#4E5B3E" transform="matrix(1.00, 0.00, -0.00, -1.00, 232.3, 423.9)">h</text><text xml:space="preserve" font-family="ArialMT,Arial" font-size="24.0" fill="#4E5B3E" transform="matrix(1.00, 0.00, -0.00, -1.00, 245.7, 423.9)">e</text><text xml:space="preserve" font-family="ArialMT,Arial" font-size="24.0" fill="#4E5B3E" transform="matrix(1.00, 0.00, -0.00, -1.00, 259.1, 423.9)">y</text><text xml:space="preserve" font-family="ArialMT,Arial" font-size="24.0" fill="#4E5B3E" transform="matrix(1.00, 0.00, -0.00, -1.00, 271.1, 423.9)"> </text><text xml:space="preserve" font-family="ArialMT,Arial" font-size="24.0" fill="#4E5B3E" transform="matrix(1.00, 0.00, -0.00, -1.00, 277.7, 423.9)">f</text><text xml:space="preserve" font-family="ArialMT,Arial" font-size="24.0" fill="#4E5B3E" transform="matrix(1.00, 0.00, -0.00, -1.00, 284.4, 423.9)">r</text><text xml:space="preserve" font-family="ArialMT,Arial" font-size="24.0" fill="#4E5B3E" transform="matrix(1.00, 0.00, -0.00, -1.00, 292.4, 423.9)">e</text><text xml:space="preserve" font-family="ArialMT,Arial" font-size="24.0" fill="#4E5B3E" transform="matrix(1.00, 0.00, -0.00, -1.00, 305.7, 423.9)">q</text><text xml:space="preserve" font-family="ArialMT,Arial" font-size="24.0" fill="#4E5B3E" transform="matrix(1.00, 0.00, -0.00, -1.00, 319.1, 423.9)">u</text><text xml:space="preserve" font-family="ArialMT,Arial" font-size="24.0" fill="#4E5B3E" transform="matrix(1.00, 0.00, -0.00, -1.00, 332.4, 423.9)">e</text><text xml:space="preserve" font-family="ArialMT,Arial" font-size="24.0" fill="#4E5B3E" transform="matrix(1.00, 0.00, -0.00, -1.00, 345.8, 423.9)">n</text><text xml:space="preserve" font-family="ArialMT,Arial" font-size="24.0" fill="#4E5B3E" transform="matrix(1.00, 0.00, -0.00, -1.00, 359.1, 423.9)">t</text><text xml:space="preserve" font-family="ArialMT,Arial" font-size="24.0" fill="#4E5B3E" transform="matrix(1.00, 0.00, -0.00, -1.00, 365.8, 423.9)">l</text><text xml:space="preserve" font-family="ArialMT,Arial" font-size="24.0" fill="#4E5B3E" transform="matrix(1.00, 0.00, -0.00, -1.00, 371.1, 423.9)">y</text><text xml:space="preserve" font-family="ArialMT,Arial" font-size="24.0" fill="#4E5B3E" transform="matrix(1.00, 0.00, -0.00, -1.00, 383.1, 423.9)"> </text><text xml:space="preserve" font-family="ArialMT,Arial" font-size="24.0" fill="#4E5B3E" transform="matrix(1.00, 0.00, -0.00, -1.00, 389.8, 423.9)">t</text><text xml:space="preserve" font-family="ArialMT,Arial" font-size="24.0" fill="#4E5B3E" transform="matrix(1.00, 0.00, -0.00, -1.00, 396.5, 423.9)">h</text><text xml:space="preserve" font-family="ArialMT,Arial" font-size="24.0" fill="#4E5B3E" transform="matrix(1.00, 0.00, -0.00, -1.00, 409.8, 423.9)">i</text><text xml:space="preserve" font-family="ArialMT,Arial" font-size="24.0" fill="#4E5B3E" transform="matrix(1.00, 0.00, -0.00, -1.00, 415.2, 423.9)">n</text><text xml:space="preserve" font-family="ArialMT,Arial" font-size="24.0" fill="#4E5B3E" transform="matrix(1.00, 0.00, -0.00, -1.00, 428.5, 423.9)">k</text><text xml:space="preserve" font-family="ArialMT,Arial" font-size="24.0" fill="#4E5B3E" transform="matrix(1.00, 0.00, -0.00, -1.00, 440.5, 423.9)">,</text><text xml:space="preserve" font-family="ArialMT,Arial" font-size="24.0" fill="#4E5B3E" transform="matrix(1.00, 0.00, -0.00, -1.00, 447.2, 423.9)"> </text><text xml:space="preserve" font-family="ArialMT,Arial" font-size="24.0" fill="#4E5B3E" transform="matrix(1.00, 0.00, -0.00, -1.00, 453.8, 423.9)">“</text><text xml:space="preserve" font-family="ArialMT,Arial" font-size="24.0" fill="#4E5B3E" transform="matrix(1.00, 0.00, -0.00, -1.00, 461.8, 423.9)">I</text><text xml:space="preserve" font-family="ArialMT,Arial" font-size="24.0" fill="#4E5B3E" transform="matrix(1.00, 0.00, -0.00, -1.00, 468.5, 423.9)"> </text><text xml:space="preserve" font-family="ArialMT,Arial" font-size="24.0" fill="#4E5B3E" transform="matrix(1.00, 0.00, -0.00, -1.00, 475.1, 423.9)">h</text><text xml:space="preserve" font-family="ArialMT,Arial" font-size="24.0" fill="#4E5B3E" transform="matrix(1.00, 0.00, -0.00, -1.00, 488.5, 423.9)">a</text><text xml:space="preserve" font-family="ArialMT,Arial" font-size="24.0" fill="#4E5B3E" transform="matrix(1.00, 0.00, -0.00, -1.00, 501.9, 423.9)">d</text><text xml:space="preserve" font-family="ArialMT,Arial" font-size="24.0" fill="#4E5B3E" transform="matrix(1.00, 0.00, -0.00, -1.00, 515.2, 423.9)"> </text><text xml:space="preserve" font-family="ArialMT,Arial" font-size="24.0" fill="#4E5B3E" transform="matrix(1.00, 0.00, -0.00, -1.00, 521.9, 423.9)">o</text><text xml:space="preserve" font-family="ArialMT,Arial" font-size="24.0" fill="#4E5B3E" transform="matrix(1.00, 0.00, -0.00, -1.00, 535.2, 423.9)">n</text><text xml:space="preserve" font-family="ArialMT,Arial" font-size="24.0" fill="#4E5B3E" transform="matrix(1.00, 0.00, -0.00, -1.00, 548.6, 423.9)">e</text><text xml:space="preserve" font-family="ArialMT,Arial" font-size="24.0" fill="#4E5B3E" transform="matrix(1.00, 0.00, -0.00, -1.00, 561.9, 423.9)"> </text><text xml:space="preserve" font-family="ArialMT,Arial" font-size="24.0" fill="#4E5B3E" transform="matrix(1.00, 0.00, -0.00, -1.00, 568.6, 423.9)">t</text><text xml:space="preserve" font-family="ArialMT,Arial" font-size="24.0" fill="#4E5B3E" transform="matrix(1.00, 0.00, -0.00, -1.00, 575.3, 423.9)">h</text><text xml:space="preserve" font-family="ArialMT,Arial" font-size="24.0" fill="#4E5B3E" transform="matrix(1.00, 0.00, -0.00, -1.00, 588.6, 423.9)">a</text><text xml:space="preserve" font-family="ArialMT,Arial" font-size="24.0" fill="#4E5B3E" transform="matrix(1.00, 0.00, -0.00, -1.00, 602.0, 423.9)">t</text><text xml:space="preserve" font-family="ArialMT,Arial" font-size="24.0" fill="#4E5B3E" transform="matrix(1.00, 0.00, -0.00, -1.00, 608.6, 423.9)"> </text><text xml:space="preserve" font-family="ArialMT,Arial" font-size="24.0" fill="#4E5B3E" transform="matrix(1.00, 0.00, -0.00, -1.00, 615.3, 423.9)">w</text><text xml:space="preserve" font-family="ArialMT,Arial" font-size="24.0" fill="#4E5B3E" transform="matrix(1.00, 0.00, -0.00, -1.00, 632.6, 423.9)">o</text><text xml:space="preserve" font-family="ArialMT,Arial" font-size="24.0" fill="#4E5B3E" transform="matrix(1.00, 0.00, -0.00, -1.00, 646.0, 423.9)">r</text><text xml:space="preserve" font-family="ArialMT,Arial" font-size="24.0" fill="#4E5B3E" transform="matrix(1.00, 0.00, -0.00, -1.00, 654.0, 423.9)">k</text><text xml:space="preserve" font-family="ArialMT,Arial" font-size="24.0" fill="#4E5B3E" transform="matrix(1.00, 0.00, -0.00, -1.00, 666.0, 423.9)">e</text><text xml:space="preserve" font-family="ArialMT,Arial" font-size="24.0" fill="#4E5B3E" transform="matrix(1.00, 0.00, -0.00, -1.00, 679.3, 423.9)">d</text><text xml:space="preserve" font-family="ArialMT,Arial" font-size="24.0" fill="#4E5B3E" transform="matrix(1.00, 0.00, -0.00, -1.00, 692.7, 423.9)"> </text><text xml:space="preserve" font-family="ArialMT,Arial" font-size="24.0" fill="#4E5B3E" transform="matrix(1.00, 0.00, -0.00, -1.00, 699.3, 423.9)">l</text><text xml:space="preserve" font-family="ArialMT,Arial" font-size="24.0" fill="#4E5B3E" transform="matrix(1.00, 0.00, -0.00, -1.00, 704.7, 423.9)">a</text><text xml:space="preserve" font-family="ArialMT,Arial" font-size="24.0" fill="#4E5B3E" transform="matrix(1.00, 0.00, -0.00, -1.00, 718.0, 423.9)">s</text><text xml:space="preserve" font-family="ArialMT,Arial" font-size="24.0" fill="#4E5B3E" transform="matrix(1.00, 0.00, -0.00, -1.00, 730.0, 423.9)">t</text><text xml:space="preserve" font-family="ArialMT,Arial" font-size="24.0" fill="#4E5B3E" transform="matrix(1.00, 0.00, -0.00, -1.00, 736.7, 423.9)"> </text><text xml:space="preserve" font-family="ArialMT,Arial" font-size="24.0" fill="#4E5B3E" transform="matrix(1.00, 0.00, -0.00, -1.00, 743.3, 423.9)">y</text><text xml:space="preserve" font-family="ArialMT,Arial" font-size="24.0" fill="#4E5B3E" transform="matrix(1.00, 0.00, -0.00, -1.00, 755.3, 423.9)">e</text><text xml:space="preserve" font-family="ArialMT,Arial" font-size="24.0" fill="#4E5B3E" transform="matrix(1.00, 0.00, -0.00, -1.00, 768.7, 423.9)">a</text><text xml:space="preserve" font-family="ArialMT,Arial" font-size="24.0" fill="#4E5B3E" transform="matrix(1.00, 0.00, -0.00, -1.00, 782.1, 423.9)">r</text><text xml:space="preserve" font-family="ArialMT,Arial" font-size="24.0" fill="#4E5B3E" transform="matrix(1.00, 0.00, -0.00, -1.00, 788.7, 423.9)">.</text><text xml:space="preserve" font-family="ArialMT,Arial" font-size="24.0" fill="#4E5B3E" transform="matrix(1.00, 0.00, -0.00, -1.00, 795.4, 423.9)"> </text><text xml:space="preserve" font-family="ArialMT,Arial" font-size="24.0" fill="#4E5B3E" transform="matrix(1.00, 0.00, -0.00, -1.00, 802.0, 423.9)">W</text><text xml:space="preserve" font-family="ArialMT,Arial" font-size="24.0" fill="#4E5B3E" transform="matrix(1.00, 0.00, -0.00, -1.00, 824.7, 423.9)">h</text><text xml:space="preserve" font-family="ArialMT,Arial" font-size="24.0" fill="#4E5B3E" transform="matrix(1.00, 0.00, -0.00, -1.00, 838.0, 423.9)">e</text><text xml:space="preserve" font-family="ArialMT,Arial" font-size="24.0" fill="#4E5B3E" transform="matrix(1.00, 0.00, -0.00, -1.00, 851.4, 423.9)">r</text><text xml:space="preserve" font-family="ArialMT,Arial" font-size="24.0" fill="#4E5B3E" transform="matrix(1.00, 0.00, -0.00, -1.00, 859.4, 423.9)">e</text><text xml:space="preserve" font-family="ArialMT,Arial" font-size="24.0" fill="#4E5B3E" transform="matrix(1.00, 0.00, -0.00, -1.00, 872.7, 423.9)"> </text><text xml:space="preserve" font-family="ArialMT,Arial" font-size="24.0" fill="#4E5B3E" transform="matrix(1.00, 0.00, -0.00, -1.00, 879.4, 423.9)">i</text><text xml:space="preserve" font-family="ArialMT,Arial" font-size="24.0" fill="#4E5B3E" transform="matrix(1.00, 0.00, -0.00, -1.00, 884.7, 423.9)">s</text><text xml:space="preserve" font-family="ArialMT,Arial" font-size="24.0" fill="#4E5B3E" transform="matrix(1.00, 0.00, -0.00, -1.00, 896.7, 423.9)"> </text><text xml:space="preserve" font-family="ArialMT,Arial" font-size="24.0" fill="#4E5B3E" transform="matrix(1.00, 0.00, -0.00, -1.00, 903.4, 423.9)">i</text><text xml:space="preserve" font-family="ArialMT,Arial" font-size="24.0" fill="#4E5B3E" transform="matrix(1.00, 0.00, -0.00, -1.00, 908.7, 423.9)">t</text><text xml:space="preserve" font-family="ArialMT,Arial" font-size="24.0" fill="#4E5B3E" transform="matrix(1.00, 0.00, -0.00, -1.00, 915.4, 423.9)">?</text><text xml:space="preserve" font-family="ArialMT,Arial" font-size="24.0" fill="#4E5B3E" transform="matrix(1.00, 0.00, -0.00, -1.00, 928.8, 423.9)">”</text><text xml:space="preserve" font-family="ArialMT,Arial" font-size="24.0" fill="#4E5B3E" transform="matrix(1.00, 0.00, -0.00, -1.00, 936.8, 423.9)"> </text><image xlink:href="../../A5D24786-5AC6-4031-B5CB-C459423D39FF/assets/89D89735BB5CF96B12C08A25EC93FA0B.png" width="14.00" height="14.00" transform="matrix(1.00, 0.00, -0.00, -1.00, 136.0, 388.0)"></image><image xlink:href="../../99A5FB03-DE1B-4B4A-AE6D-D0C074086E95/assets/2EAA803481B4829669A1AED6584C7A6E.png" width="132.00" height="132.00" transform="matrix(0.07, 0.00, -0.00, -0.07, 137.0, 385.9)"></image><image xlink:href="A6056A09068494C3819D8F1567D5C767.png" width="730.00" height="23.00" transform="matrix(1.00, 0.00, -0.00, -1.00, 171.0, 394.0)"></image><text xml:space="preserve" font-family="ArialMT,Arial" font-size="24.0" fill="#4E5B3E" transform="matrix(1.00, 0.00, -0.00, -1.00, 171.0, 373.9)">D</text><text xml:space="preserve" font-family="ArialMT,Arial" font-size="24.0" fill="#4E5B3E" transform="matrix(1.00, 0.00, -0.00, -1.00, 188.3, 373.9)">i</text><text xml:space="preserve" font-family="ArialMT,Arial" font-size="24.0" fill="#4E5B3E" transform="matrix(1.00, 0.00, -0.00, -1.00, 193.7, 373.9)">s</text><text xml:space="preserve" font-family="ArialMT,Arial" font-size="24.0" fill="#4E5B3E" transform="matrix(1.00, 0.00, -0.00, -1.00, 205.7, 373.9)">t</text><text xml:space="preserve" font-family="ArialMT,Arial" font-size="24.0" fill="#4E5B3E" transform="matrix(1.00, 0.00, -0.00, -1.00, 212.3, 373.9)">r</text><text xml:space="preserve" font-family="ArialMT,Arial" font-size="24.0" fill="#4E5B3E" transform="matrix(1.00, 0.00, -0.00, -1.00, 220.3, 373.9)">i</text><text xml:space="preserve" font-family="ArialMT,Arial" font-size="24.0" fill="#4E5B3E" transform="matrix(1.00, 0.00, -0.00, -1.00, 225.7, 373.9)">c</text><text xml:space="preserve" font-family="ArialMT,Arial" font-size="24.0" fill="#4E5B3E" transform="matrix(1.00, 0.00, -0.00, -1.00, 237.7, 373.9)">t</text><text xml:space="preserve" font-family="ArialMT,Arial" font-size="24.0" fill="#4E5B3E" transform="matrix(1.00, 0.00, -0.00, -1.00, 244.3, 373.9)"> </text><text xml:space="preserve" font-family="ArialMT,Arial" font-size="24.0" fill="#4E5B3E" transform="matrix(1.00, 0.00, -0.00, -1.00, 251.0, 373.9)">a</text><text xml:space="preserve" font-family="ArialMT,Arial" font-size="24.0" fill="#4E5B3E" transform="matrix(1.00, 0.00, -0.00, -1.00, 264.3, 373.9)">d</text><text xml:space="preserve" font-family="ArialMT,Arial" font-size="24.0" fill="#4E5B3E" transform="matrix(1.00, 0.00, -0.00, -1.00, 277.7, 373.9)">m</text><text xml:space="preserve" font-family="ArialMT,Arial" font-size="24.0" fill="#4E5B3E" transform="matrix(1.00, 0.00, -0.00, -1.00, 297.7, 373.9)">i</text><text xml:space="preserve" font-family="ArialMT,Arial" font-size="24.0" fill="#4E5B3E" transform="matrix(1.00, 0.00, -0.00, -1.00, 303.0, 373.9)">n</text><text xml:space="preserve" font-family="ArialMT,Arial" font-size="24.0" fill="#4E5B3E" transform="matrix(1.00, 0.00, -0.00, -1.00, 316.4, 373.9)">i</text><text xml:space="preserve" font-family="ArialMT,Arial" font-size="24.0" fill="#4E5B3E" transform="matrix(1.00, 0.00, -0.00, -1.00, 321.7, 373.9)">s</text><text xml:space="preserve" font-family="ArialMT,Arial" font-size="24.0" fill="#4E5B3E" transform="matrix(1.00, 0.00, -0.00, -1.00, 333.7, 373.9)">t</text><text xml:space="preserve" font-family="ArialMT,Arial" font-size="24.0" fill="#4E5B3E" transform="matrix(1.00, 0.00, -0.00, -1.00, 340.4, 373.9)">r</text><text xml:space="preserve" font-family="ArialMT,Arial" font-size="24.0" fill="#4E5B3E" transform="matrix(1.00, 0.00, -0.00, -1.00, 348.4, 373.9)">a</text><text xml:space="preserve" font-family="ArialMT,Arial" font-size="24.0" fill="#4E5B3E" transform="matrix(1.00, 0.00, -0.00, -1.00, 361.7, 373.9)">t</text><text xml:space="preserve" font-family="ArialMT,Arial" font-size="24.0" fill="#4E5B3E" transform="matrix(1.00, 0.00, -0.00, -1.00, 368.4, 373.9)">i</text><text xml:space="preserve" font-family="ArialMT,Arial" font-size="24.0" fill="#4E5B3E" transform="matrix(1.00, 0.00, -0.00, -1.00, 373.7, 373.9)">o</text><text xml:space="preserve" font-family="ArialMT,Arial" font-size="24.0" fill="#4E5B3E" transform="matrix(1.00, 0.00, -0.00, -1.00, 387.1, 373.9)">n</text><text xml:space="preserve" font-family="ArialMT,Arial" font-size="24.0" fill="#4E5B3E" transform="matrix(1.00, 0.00, -0.00, -1.00, 400.4, 373.9)"> </text><text xml:space="preserve" font-family="ArialMT,Arial" font-size="24.0" fill="#4E5B3E" transform="matrix(1.00, 0.00, -0.00, -1.00, 407.1, 373.9)">i</text><text xml:space="preserve" font-family="ArialMT,Arial" font-size="24.0" fill="#4E5B3E" transform="matrix(1.00, 0.00, -0.00, -1.00, 412.4, 373.9)">s</text><text xml:space="preserve" font-family="ArialMT,Arial" font-size="24.0" fill="#4E5B3E" transform="matrix(1.00, 0.00, -0.00, -1.00, 424.4, 373.9)"> </text><text xml:space="preserve" font-family="ArialMT,Arial" font-size="24.0" fill="#4E5B3E" transform="matrix(1.00, 0.00, -0.00, -1.00, 431.1, 373.9)">f</text><text xml:space="preserve" font-family="ArialMT,Arial" font-size="24.0" fill="#4E5B3E" transform="matrix(1.00, 0.00, -0.00, -1.00, 437.8, 373.9)">r</text><text xml:space="preserve" font-family="ArialMT,Arial" font-size="24.0" fill="#4E5B3E" transform="matrix(1.00, 0.00, -0.00, -1.00, 445.7, 373.9)">e</text><text xml:space="preserve" font-family="ArialMT,Arial" font-size="24.0" fill="#4E5B3E" transform="matrix(1.00, 0.00, -0.00, -1.00, 459.1, 373.9)">a</text><text xml:space="preserve" font-family="ArialMT,Arial" font-size="24.0" fill="#4E5B3E" transform="matrix(1.00, 0.00, -0.00, -1.00, 472.5, 373.9)">k</text><text xml:space="preserve" font-family="ArialMT,Arial" font-size="24.0" fill="#4E5B3E" transform="matrix(1.00, 0.00, -0.00, -1.00, 484.5, 373.9)">e</text><text xml:space="preserve" font-family="ArialMT,Arial" font-size="24.0" fill="#4E5B3E" transform="matrix(1.00, 0.00, -0.00, -1.00, 497.8, 373.9)">d</text><text xml:space="preserve" font-family="ArialMT,Arial" font-size="24.0" fill="#4E5B3E" transform="matrix(1.00, 0.00, -0.00, -1.00, 511.2, 373.9)"> </text><text xml:space="preserve" font-family="ArialMT,Arial" font-size="24.0" fill="#4E5B3E" transform="matrix(1.00, 0.00, -0.00, -1.00, 517.8, 373.9)">a</text><text xml:space="preserve" font-family="ArialMT,Arial" font-size="24.0" fill="#4E5B3E" transform="matrix(1.00, 0.00, -0.00, -1.00, 531.2, 373.9)">b</text><text xml:space="preserve" font-family="ArialMT,Arial" font-size="24.0" fill="#4E5B3E" transform="matrix(1.00, 0.00, -0.00, -1.00, 544.5, 373.9)">o</text><text xml:space="preserve" font-family="ArialMT,Arial" font-size="24.0" fill="#4E5B3E" transform="matrix(1.00, 0.00, -0.00, -1.00, 557.9, 373.9)">u</text><text xml:space="preserve" font-family="ArialMT,Arial" font-size="24.0" fill="#4E5B3E" transform="matrix(1.00, 0.00, -0.00, -1.00, 571.2, 373.9)">t</text><text xml:space="preserve" font-family="ArialMT,Arial" font-size="24.0" fill="#4E5B3E" transform="matrix(1.00, 0.00, -0.00, -1.00, 577.9, 373.9)"> </text><text xml:space="preserve" font-family="ArialMT,Arial" font-size="24.0" fill="#4E5B3E" transform="matrix(1.00, 0.00, -0.00, -1.00, 584.6, 373.9)">t</text><text xml:space="preserve" font-family="ArialMT,Arial" font-size="24.0" fill="#4E5B3E" transform="matrix(1.00, 0.00, -0.00, -1.00, 591.2, 373.9)">h</text><text xml:space="preserve" font-family="ArialMT,Arial" font-size="24.0" fill="#4E5B3E" transform="matrix(1.00, 0.00, -0.00, -1.00, 604.6, 373.9)">e</text><text xml:space="preserve" font-family="ArialMT,Arial" font-size="24.0" fill="#4E5B3E" transform="matrix(1.00, 0.00, -0.00, -1.00, 617.9, 373.9)"> </text><text xml:space="preserve" font-family="ArialMT,Arial" font-size="24.0" fill="#4E5B3E" transform="matrix(1.00, 0.00, -0.00, -1.00, 624.6, 373.9)">a</text><text xml:space="preserve" font-family="ArialMT,Arial" font-size="24.0" fill="#4E5B3E" transform="matrix(1.00, 0.00, -0.00, -1.00, 637.9, 373.9)">m</text><text xml:space="preserve" font-family="ArialMT,Arial" font-size="24.0" fill="#4E5B3E" transform="matrix(1.00, 0.00, -0.00, -1.00, 657.9, 373.9)">o</text><text xml:space="preserve" font-family="ArialMT,Arial" font-size="24.0" fill="#4E5B3E" transform="matrix(1.00, 0.00, -0.00, -1.00, 671.3, 373.9)">u</text><text xml:space="preserve" font-family="ArialMT,Arial" font-size="24.0" fill="#4E5B3E" transform="matrix(1.00, 0.00, -0.00, -1.00, 684.6, 373.9)">n</text><text xml:space="preserve" font-family="ArialMT,Arial" font-size="24.0" fill="#4E5B3E" transform="matrix(1.00, 0.00, -0.00, -1.00, 698.0, 373.9)">t</text><text xml:space="preserve" font-family="ArialMT,Arial" font-size="24.0" fill="#4E5B3E" transform="matrix(1.00, 0.00, -0.00, -1.00, 704.7, 373.9)"> </text><text xml:space="preserve" font-family="ArialMT,Arial" font-size="24.0" fill="#4E5B3E" transform="matrix(1.00, 0.00, -0.00, -1.00, 711.3, 373.9)">o</text><text xml:space="preserve" font-family="ArialMT,Arial" font-size="24.0" fill="#4E5B3E" transform="matrix(1.00, 0.00, -0.00, -1.00, 724.7, 373.9)">f</text><text xml:space="preserve" font-family="ArialMT,Arial" font-size="24.0" fill="#4E5B3E" transform="matrix(1.00, 0.00, -0.00, -1.00, 731.3, 373.9)"> </text><text xml:space="preserve" font-family="ArialMT,Arial" font-size="24.0" fill="#4E5B3E" transform="matrix(1.00, 0.00, -0.00, -1.00, 738.0, 373.9)">u</text><text xml:space="preserve" font-family="ArialMT,Arial" font-size="24.0" fill="#4E5B3E" transform="matrix(1.00, 0.00, -0.00, -1.00, 751.3, 373.9)">n</text><text xml:space="preserve" font-family="ArialMT,Arial" font-size="24.0" fill="#4E5B3E" transform="matrix(1.00, 0.00, -0.00, -1.00, 764.7, 373.9)">k</text><text xml:space="preserve" font-family="ArialMT,Arial" font-size="24.0" fill="#4E5B3E" transform="matrix(1.00, 0.00, -0.00, -1.00, 776.7, 373.9)">n</text><text xml:space="preserve" font-family="ArialMT,Arial" font-size="24.0" fill="#4E5B3E" transform="matrix(1.00, 0.00, -0.00, -1.00, 790.1, 373.9)">o</text><text xml:space="preserve" font-family="ArialMT,Arial" font-size="24.0" fill="#4E5B3E" transform="matrix(1.00, 0.00, -0.00, -1.00, 803.4, 373.9)">w</text><text xml:space="preserve" font-family="ArialMT,Arial" font-size="24.0" fill="#4E5B3E" transform="matrix(1.00, 0.00, -0.00, -1.00, 820.7, 373.9)">n</text><text xml:space="preserve" font-family="ArialMT,Arial" font-size="24.0" fill="#4E5B3E" transform="matrix(1.00, 0.00, -0.00, -1.00, 834.1, 373.9)"> </text><text xml:space="preserve" font-family="ArialMT,Arial" font-size="24.0" fill="#4E5B3E" transform="matrix(1.00, 0.00, -0.00, -1.00, 840.8, 373.9)">v</text><text xml:space="preserve" font-family="ArialMT,Arial" font-size="24.0" fill="#4E5B3E" transform="matrix(1.00, 0.00, -0.00, -1.00, 852.8, 373.9)">i</text><text xml:space="preserve" font-family="ArialMT,Arial" font-size="24.0" fill="#4E5B3E" transform="matrix(1.00, 0.00, -0.00, -1.00, 858.1, 373.9)">d</text><text xml:space="preserve" font-family="ArialMT,Arial" font-size="24.0" fill="#4E5B3E" transform="matrix(1.00, 0.00, -0.00, -1.00, 871.4, 373.9)">e</text><text xml:space="preserve" font-family="ArialMT,Arial" font-size="24.0" fill="#4E5B3E" transform="matrix(1.00, 0.00, -0.00, -1.00, 884.8, 373.9)">o</text><text xml:space="preserve" font-family="ArialMT,Arial" font-size="24.0" fill="#4E5B3E" transform="matrix(1.00, 0.00, -0.00, -1.00, 898.2, 373.9)"> </text><image xlink:href="../../175F7D50-A2BC-45FE-B845-30B060AD2BC1/assets/BC730A83D65BBC2A57BD4FF35BE2CE46.png" width="16.00" height="17.00" transform="matrix(1.00, 0.00, -0.00, -1.00, 102.0, 337.0)"></image><image xlink:href="../../99A5FB03-DE1B-4B4A-AE6D-D0C074086E95/assets/2EAA803481B4829669A1AED6584C7A6E.png" width="132.00" height="132.00" transform="matrix(0.09, 0.00, -0.00, -0.09, 103.0, 334.6)"></image><image xlink:href="E71CCA86500C52A9E2A99C6D8DB6922A.png" width="734.00" height="33.00" transform="matrix(1.00, 0.00, -0.00, -1.00, 135.0, 344.0)"></image><text xml:space="preserve" font-family="ArialMT,Arial" font-size="30.0" fill="#4E5B3E" transform="matrix(1.00, 0.00, -0.00, -1.00, 137.0, 319.3)">A</text><text xml:space="preserve" font-family="ArialMT,Arial" font-size="30.0" fill="#4E5B3E" transform="matrix(1.00, 0.00, -0.00, -1.00, 157.0, 319.3)">s</text><text xml:space="preserve" font-family="ArialMT,Arial" font-size="30.0" fill="#4E5B3E" transform="matrix(1.00, 0.00, -0.00, -1.00, 172.0, 319.3)"> </text><text xml:space="preserve" font-family="ArialMT,Arial" font-size="30.0" fill="#4E5B3E" transform="matrix(1.00, 0.00, -0.00, -1.00, 180.3, 319.3)">t</text><text xml:space="preserve" font-family="ArialMT,Arial" font-size="30.0" fill="#4E5B3E" transform="matrix(1.00, 0.00, -0.00, -1.00, 188.7, 319.3)">h</text><text xml:space="preserve" font-family="ArialMT,Arial" font-size="30.0" fill="#4E5B3E" transform="matrix(1.00, 0.00, -0.00, -1.00, 205.4, 319.3)">i</text><text xml:space="preserve" font-family="ArialMT,Arial" font-size="30.0" fill="#4E5B3E" transform="matrix(1.00, 0.00, -0.00, -1.00, 212.0, 319.3)">s</text><text xml:space="preserve" font-family="ArialMT,Arial" font-size="30.0" fill="#4E5B3E" transform="matrix(1.00, 0.00, -0.00, -1.00, 227.0, 319.3)"> </text><text xml:space="preserve" font-family="ArialMT,Arial" font-size="30.0" fill="#4E5B3E" transform="matrix(1.00, 0.00, -0.00, -1.00, 235.4, 319.3)">i</text><text xml:space="preserve" font-family="ArialMT,Arial" font-size="30.0" fill="#4E5B3E" transform="matrix(1.00, 0.00, -0.00, -1.00, 242.0, 319.3)">n</text><text xml:space="preserve" font-family="ArialMT,Arial" font-size="30.0" fill="#4E5B3E" transform="matrix(1.00, 0.00, -0.00, -1.00, 258.7, 319.3)">c</text><text xml:space="preserve" font-family="ArialMT,Arial" font-size="30.0" fill="#4E5B3E" transform="matrix(1.00, 0.00, -0.00, -1.00, 273.7, 319.3)">r</text><text xml:space="preserve" font-family="ArialMT,Arial" font-size="30.0" fill="#4E5B3E" transform="matrix(1.00, 0.00, -0.00, -1.00, 283.7, 319.3)">e</text><text xml:space="preserve" font-family="ArialMT,Arial" font-size="30.0" fill="#4E5B3E" transform="matrix(1.00, 0.00, -0.00, -1.00, 300.4, 319.3)">a</text><text xml:space="preserve" font-family="ArialMT,Arial" font-size="30.0" fill="#4E5B3E" transform="matrix(1.00, 0.00, -0.00, -1.00, 317.1, 319.3)">s</text><text xml:space="preserve" font-family="ArialMT,Arial" font-size="30.0" fill="#4E5B3E" transform="matrix(1.00, 0.00, -0.00, -1.00, 332.1, 319.3)">e</text><text xml:space="preserve" font-family="ArialMT,Arial" font-size="30.0" fill="#4E5B3E" transform="matrix(1.00, 0.00, -0.00, -1.00, 348.8, 319.3)">s</text><text xml:space="preserve" font-family="ArialMT,Arial" font-size="30.0" fill="#4E5B3E" transform="matrix(1.00, 0.00, -0.00, -1.00, 363.8, 319.3)">,</text><text xml:space="preserve" font-family="ArialMT,Arial" font-size="30.0" fill="#4E5B3E" transform="matrix(1.00, 0.00, -0.00, -1.00, 372.1, 319.3)"> </text><text xml:space="preserve" font-family="ArialMT,Arial" font-size="30.0" fill="#4E5B3E" transform="matrix(1.00, 0.00, -0.00, -1.00, 380.4, 319.3)">w</text><text xml:space="preserve" font-family="ArialMT,Arial" font-size="30.0" fill="#4E5B3E" transform="matrix(1.00, 0.00, -0.00, -1.00, 402.1, 319.3)">e</text><text xml:space="preserve" font-family="ArialMT,Arial" font-size="30.0" fill="#4E5B3E" transform="matrix(1.00, 0.00, -0.00, -1.00, 418.8, 319.3)"> </text><text xml:space="preserve" font-family="ArialMT,Arial" font-size="30.0" fill="#4E5B3E" transform="matrix(1.00, 0.00, -0.00, -1.00, 427.1, 319.3)">n</text><text xml:space="preserve" font-family="ArialMT,Arial" font-size="30.0" fill="#4E5B3E" transform="matrix(1.00, 0.00, -0.00, -1.00, 443.8, 319.3)">e</text><text xml:space="preserve" font-family="ArialMT,Arial" font-size="30.0" fill="#4E5B3E" transform="matrix(1.00, 0.00, -0.00, -1.00, 460.5, 319.3)">e</text><text xml:space="preserve" font-family="ArialMT,Arial" font-size="30.0" fill="#4E5B3E" transform="matrix(1.00, 0.00, -0.00, -1.00, 477.2, 319.3)">d</text><text xml:space="preserve" font-family="ArialMT,Arial" font-size="30.0" fill="#4E5B3E" transform="matrix(1.00, 0.00, -0.00, -1.00, 493.9, 319.3)"> </text><text xml:space="preserve" font-family="ArialMT,Arial" font-size="30.0" fill="#4E5B3E" transform="matrix(1.00, 0.00, -0.00, -1.00, 502.2, 319.3)">t</text><text xml:space="preserve" font-family="ArialMT,Arial" font-size="30.0" fill="#4E5B3E" transform="matrix(1.00, 0.00, -0.00, -1.00, 510.6, 319.3)">o</text><text xml:space="preserve" font-family="ArialMT,Arial" font-size="30.0" fill="#4E5B3E" transform="matrix(1.00, 0.00, -0.00, -1.00, 527.2, 319.3)"> </text><text xml:space="preserve" font-family="ArialMT,Arial" font-size="30.0" fill="#4E5B3E" transform="matrix(1.00, 0.00, -0.00, -1.00, 535.6, 319.3)">s</text><text xml:space="preserve" font-family="ArialMT,Arial" font-size="30.0" fill="#4E5B3E" transform="matrix(1.00, 0.00, -0.00, -1.00, 550.6, 319.3)">t</text><text xml:space="preserve" font-family="ArialMT,Arial" font-size="30.0" fill="#4E5B3E" transform="matrix(1.00, 0.00, -0.00, -1.00, 558.9, 319.3)">o</text><text xml:space="preserve" font-family="ArialMT,Arial" font-size="30.0" fill="#4E5B3E" transform="matrix(1.00, 0.00, -0.00, -1.00, 575.6, 319.3)">p</text><text xml:space="preserve" font-family="ArialMT,Arial" font-size="30.0" fill="#4E5B3E" transform="matrix(1.00, 0.00, -0.00, -1.00, 592.3, 319.3)"> </text><text xml:space="preserve" font-family="ArialMT,Arial" font-size="30.0" fill="#4E5B3E" transform="matrix(1.00, 0.00, -0.00, -1.00, 600.6, 319.3)">i</text><text xml:space="preserve" font-family="ArialMT,Arial" font-size="30.0" fill="#4E5B3E" transform="matrix(1.00, 0.00, -0.00, -1.00, 607.3, 319.3)">t</text><text xml:space="preserve" font-family="ArialMT,Arial" font-size="30.0" fill="#4E5B3E" transform="matrix(1.00, 0.00, -0.00, -1.00, 615.6, 319.3)"> </text><text xml:space="preserve" font-family="ArialMT,Arial" font-size="30.0" fill="#4E5B3E" transform="matrix(1.00, 0.00, -0.00, -1.00, 623.9, 319.3)">f</text><text xml:space="preserve" font-family="ArialMT,Arial" font-size="30.0" fill="#4E5B3E" transform="matrix(1.00, 0.00, -0.00, -1.00, 632.3, 319.3)">r</text><text xml:space="preserve" font-family="ArialMT,Arial" font-size="30.0" fill="#4E5B3E" transform="matrix(1.00, 0.00, -0.00, -1.00, 642.3, 319.3)">o</text><text xml:space="preserve" font-family="ArialMT,Arial" font-size="30.0" fill="#4E5B3E" transform="matrix(1.00, 0.00, -0.00, -1.00, 658.9, 319.3)">m</text><text xml:space="preserve" font-family="ArialMT,Arial" font-size="30.0" fill="#4E5B3E" transform="matrix(1.00, 0.00, -0.00, -1.00, 683.9, 319.3)"> </text><text xml:space="preserve" font-family="ArialMT,Arial" font-size="30.0" fill="#4E5B3E" transform="matrix(1.00, 0.00, -0.00, -1.00, 692.3, 319.3)">r</text><text xml:space="preserve" font-family="ArialMT,Arial" font-size="30.0" fill="#4E5B3E" transform="matrix(1.00, 0.00, -0.00, -1.00, 702.3, 319.3)">e</text><text xml:space="preserve" font-family="ArialMT,Arial" font-size="30.0" fill="#4E5B3E" transform="matrix(1.00, 0.00, -0.00, -1.00, 718.9, 319.3)">s</text><text xml:space="preserve" font-family="ArialMT,Arial" font-size="30.0" fill="#4E5B3E" transform="matrix(1.00, 0.00, -0.00, -1.00, 733.9, 319.3)">e</text><text xml:space="preserve" font-family="ArialMT,Arial" font-size="30.0" fill="#4E5B3E" transform="matrix(1.00, 0.00, -0.00, -1.00, 750.6, 319.3)">m</text><text xml:space="preserve" font-family="ArialMT,Arial" font-size="30.0" fill="#4E5B3E" transform="matrix(1.00, 0.00, -0.00, -1.00, 775.6, 319.3)">b</text><text xml:space="preserve" font-family="ArialMT,Arial" font-size="30.0" fill="#4E5B3E" transform="matrix(1.00, 0.00, -0.00, -1.00, 792.3, 319.3)">l</text><text xml:space="preserve" font-family="ArialMT,Arial" font-size="30.0" fill="#4E5B3E" transform="matrix(1.00, 0.00, -0.00, -1.00, 799.0, 319.3)">i</text><text xml:space="preserve" font-family="ArialMT,Arial" font-size="30.0" fill="#4E5B3E" transform="matrix(1.00, 0.00, -0.00, -1.00, 805.7, 319.3)">n</text><text xml:space="preserve" font-family="ArialMT,Arial" font-size="30.0" fill="#4E5B3E" transform="matrix(1.00, 0.00, -0.00, -1.00, 822.4, 319.3)">g</text><text xml:space="preserve" font-family="ArialMT,Arial" font-size="30.0" fill="#4E5B3E" transform="matrix(1.00, 0.00, -0.00, -1.00, 839.0, 319.3)">…</text></g></svg>