<?xml version="1.0" encoding="UTF-8" standalone="no"?><svg xmlns="http://www.w3.org/2000/svg" xmlns:xlink="http://www.w3.org/1999/xlink" clip-rule="evenodd" stroke-miterlimit="10" viewBox="0 0 1024 768"><desc>SVG generated by Keynote</desc><defs></defs><g transform="matrix(1.00, 0.00, -0.00, -1.00, 0.0, 768.0)"><g><clipPath id="clip0x7f8ab8ee9f10"><path d="M 0.0 768.0 L 1024.0 768.0 L 1024.0 0.0 L 0.0 0.0 Z M 0.0 768.0 "></path></clipPath><g clip-path="url(#clip0x7f8ab8ee9f10)"><image xlink:href="../../99A5FB03-DE1B-4B4A-AE6D-D0C074086E95/assets/34988952894DD776A411594AF71579AA.jpeg" width="2048.00" height="1536.00" transform="matrix(0.50, 0.00, -0.00, -0.50, 0.0, 768.0)"></image></g></g><image xlink:href="../../4D8CEEEF-60FF-489F-8404-9D69495BB971/assets/80F5A4A405B0E5BDACFCE61F79125D53.png" width="759.00" height="46.00" transform="matrix(1.00, 0.00, -0.00, -1.00, 130.0, 710.0)"></image><text xml:space="preserve" font-family="ArialMT,Arial" font-size="56.0" fill="#FBF8E6" transform="matrix(1.00, 0.00, -0.00, -1.00, 131.5, 664.7)">T</text><text xml:space="preserve" font-family="ArialMT,Arial" font-size="56.0" fill="#FBF8E6" transform="matrix(1.00, 0.00, -0.00, -1.00, 168.5, 664.7)">E</text><text xml:space="preserve" font-family="ArialMT,Arial" font-size="56.0" fill="#FBF8E6" transform="matrix(1.00, 0.00, -0.00, -1.00, 208.6, 664.7)">C</text><text xml:space="preserve" font-family="ArialMT,Arial" font-size="56.0" fill="#FBF8E6" transform="matrix(1.00, 0.00, -0.00, -1.00, 251.9, 664.7)">H</text><text xml:space="preserve" font-family="ArialMT,Arial" font-size="56.0" fill="#FBF8E6" transform="matrix(1.00, 0.00, -0.00, -1.00, 295.1, 664.7)">N</text><text xml:space="preserve" font-family="ArialMT,Arial" font-size="56.0" fill="#FBF8E6" transform="matrix(1.00, 0.00, -0.00, -1.00, 338.3, 664.7)">O</text><text xml:space="preserve" font-family="ArialMT,Arial" font-size="56.0" fill="#FBF8E6" transform="matrix(1.00, 0.00, -0.00, -1.00, 384.7, 664.7)">L</text><text xml:space="preserve" font-family="ArialMT,Arial" font-size="56.0" fill="#FBF8E6" transform="matrix(1.00, 0.00, -0.00, -1.00, 418.6, 664.7)">O</text><text xml:space="preserve" font-family="ArialMT,Arial" font-size="56.0" fill="#FBF8E6" transform="matrix(1.00, 0.00, -0.00, -1.00, 465.0, 664.7)">G</text><text xml:space="preserve" font-family="ArialMT,Arial" font-size="56.0" fill="#FBF8E6" transform="matrix(1.00, 0.00, -0.00, -1.00, 511.3, 664.7)">Y</text><text xml:space="preserve" font-family="ArialMT,Arial" font-size="56.0" fill="#FBF8E6" transform="matrix(1.00, 0.00, -0.00, -1.00, 550.4, 664.7)"> </text><text xml:space="preserve" font-family="ArialMT,Arial" font-size="56.0" fill="#FBF8E6" transform="matrix(1.00, 0.00, -0.00, -1.00, 568.8, 664.7)">I</text><text xml:space="preserve" font-family="ArialMT,Arial" font-size="56.0" fill="#FBF8E6" transform="matrix(1.00, 0.00, -0.00, -1.00, 587.1, 664.7)">S</text><text xml:space="preserve" font-family="ArialMT,Arial" font-size="56.0" fill="#FBF8E6" transform="matrix(1.00, 0.00, -0.00, -1.00, 627.3, 664.7)"> </text><text xml:space="preserve" font-family="ArialMT,Arial" font-size="56.0" fill="#FBF8E6" transform="matrix(1.00, 0.00, -0.00, -1.00, 645.6, 664.7)">O</text><text xml:space="preserve" font-family="ArialMT,Arial" font-size="56.0" fill="#FBF8E6" transform="matrix(1.00, 0.00, -0.00, -1.00, 692.0, 664.7)">N</text><text xml:space="preserve" font-family="ArialMT,Arial" font-size="56.0" fill="#FBF8E6" transform="matrix(1.00, 0.00, -0.00, -1.00, 735.2, 664.7)"> </text><text xml:space="preserve" font-family="ArialMT,Arial" font-size="56.0" fill="#FBF8E6" transform="matrix(1.00, 0.00, -0.00, -1.00, 753.5, 664.7)">F</text><text xml:space="preserve" font-family="ArialMT,Arial" font-size="56.0" fill="#FBF8E6" transform="matrix(1.00, 0.00, -0.00, -1.00, 790.5, 664.7)">I</text><text xml:space="preserve" font-family="ArialMT,Arial" font-size="56.0" fill="#FBF8E6" transform="matrix(1.00, 0.00, -0.00, -1.00, 808.9, 664.7)">R</text><text xml:space="preserve" font-family="ArialMT,Arial" font-size="56.0" fill="#FBF8E6" transform="matrix(1.00, 0.00, -0.00, -1.00, 852.1, 664.7)">E</text><image xlink:href="../../99A5FB03-DE1B-4B4A-AE6D-D0C074086E95/assets/ABB8D1DF0CCBAB0DEB1325F4A6E5C7F6.png" width="19.00" height="19.00" transform="matrix(1.00, 0.00, -0.00, -1.00, 68.0, 539.0)"></image><image xlink:href="../../99A5FB03-DE1B-4B4A-AE6D-D0C074086E95/assets/2EAA803481B4829669A1AED6584C7A6E.png" width="132.00" height="132.00" transform="matrix(0.11, 0.00, -0.00, -0.11, 69.0, 536.3)"></image><image xlink:href="../../4D8CEEEF-60FF-489F-8404-9D69495BB971/assets/F96CF2A2C131D214D4378F90E571B7C5.png" width="550.00" height="39.00" transform="matrix(1.00, 0.00, -0.00, -1.00, 103.0, 547.0)"></image><text xml:space="preserve" font-family="ArialMT,Arial" font-size="36.0" fill="#4E5B3E" transform="matrix(1.00, 0.00, -0.00, -1.00, 103.0, 517.8)">C</text><text xml:space="preserve" font-family="ArialMT,Arial" font-size="36.0" fill="#4E5B3E" transform="matrix(1.00, 0.00, -0.00, -1.00, 129.0, 517.8)">P</text><text xml:space="preserve" font-family="ArialMT,Arial" font-size="36.0" fill="#4E5B3E" transform="matrix(1.00, 0.00, -0.00, -1.00, 153.0, 517.8)">U</text><text xml:space="preserve" font-family="ArialMT,Arial" font-size="36.0" fill="#4E5B3E" transform="matrix(1.00, 0.00, -0.00, -1.00, 179.0, 517.8)">,</text><text xml:space="preserve" font-family="ArialMT,Arial" font-size="36.0" fill="#4E5B3E" transform="matrix(1.00, 0.00, -0.00, -1.00, 189.0, 517.8)"> </text><text xml:space="preserve" font-family="ArialMT,Arial" font-size="36.0" fill="#4E5B3E" transform="matrix(1.00, 0.00, -0.00, -1.00, 199.0, 517.8)">M</text><text xml:space="preserve" font-family="ArialMT,Arial" font-size="36.0" fill="#4E5B3E" transform="matrix(1.00, 0.00, -0.00, -1.00, 229.0, 517.8)">e</text><text xml:space="preserve" font-family="ArialMT,Arial" font-size="36.0" fill="#4E5B3E" transform="matrix(1.00, 0.00, -0.00, -1.00, 249.0, 517.8)">m</text><text xml:space="preserve" font-family="ArialMT,Arial" font-size="36.0" fill="#4E5B3E" transform="matrix(1.00, 0.00, -0.00, -1.00, 279.0, 517.8)">o</text><text xml:space="preserve" font-family="ArialMT,Arial" font-size="36.0" fill="#4E5B3E" transform="matrix(1.00, 0.00, -0.00, -1.00, 299.0, 517.8)">r</text><text xml:space="preserve" font-family="ArialMT,Arial" font-size="36.0" fill="#4E5B3E" transform="matrix(1.00, 0.00, -0.00, -1.00, 311.0, 517.8)">y</text><text xml:space="preserve" font-family="ArialMT,Arial" font-size="36.0" fill="#4E5B3E" transform="matrix(1.00, 0.00, -0.00, -1.00, 326.4, 517.8)">,</text><text xml:space="preserve" font-family="ArialMT,Arial" font-size="36.0" fill="#4E5B3E" transform="matrix(1.00, 0.00, -0.00, -1.00, 336.4, 517.8)"> </text><text xml:space="preserve" font-family="ArialMT,Arial" font-size="36.0" fill="#4E5B3E" transform="matrix(1.00, 0.00, -0.00, -1.00, 346.4, 517.8)">S</text><text xml:space="preserve" font-family="ArialMT,Arial" font-size="36.0" fill="#4E5B3E" transform="matrix(1.00, 0.00, -0.00, -1.00, 370.4, 517.8)">t</text><text xml:space="preserve" font-family="ArialMT,Arial" font-size="36.0" fill="#4E5B3E" transform="matrix(1.00, 0.00, -0.00, -1.00, 380.4, 517.8)">o</text><text xml:space="preserve" font-family="ArialMT,Arial" font-size="36.0" fill="#4E5B3E" transform="matrix(1.00, 0.00, -0.00, -1.00, 400.4, 517.8)">r</text><text xml:space="preserve" font-family="ArialMT,Arial" font-size="36.0" fill="#4E5B3E" transform="matrix(1.00, 0.00, -0.00, -1.00, 412.4, 517.8)">a</text><text xml:space="preserve" font-family="ArialMT,Arial" font-size="36.0" fill="#4E5B3E" transform="matrix(1.00, 0.00, -0.00, -1.00, 432.4, 517.8)">g</text><text xml:space="preserve" font-family="ArialMT,Arial" font-size="36.0" fill="#4E5B3E" transform="matrix(1.00, 0.00, -0.00, -1.00, 452.4, 517.8)">e</text><text xml:space="preserve" font-family="ArialMT,Arial" font-size="36.0" fill="#4E5B3E" transform="matrix(1.00, 0.00, -0.00, -1.00, 472.5, 517.8)">,</text><text xml:space="preserve" font-family="ArialMT,Arial" font-size="36.0" fill="#4E5B3E" transform="matrix(1.00, 0.00, -0.00, -1.00, 482.5, 517.8)"> </text><text xml:space="preserve" font-family="ArialMT,Arial" font-size="36.0" fill="#4E5B3E" transform="matrix(1.00, 0.00, -0.00, -1.00, 492.5, 517.8)">N</text><text xml:space="preserve" font-family="ArialMT,Arial" font-size="36.0" fill="#4E5B3E" transform="matrix(1.00, 0.00, -0.00, -1.00, 518.5, 517.8)">e</text><text xml:space="preserve" font-family="ArialMT,Arial" font-size="36.0" fill="#4E5B3E" transform="matrix(1.00, 0.00, -0.00, -1.00, 538.5, 517.8)">t</text><text xml:space="preserve" font-family="ArialMT,Arial" font-size="36.0" fill="#4E5B3E" transform="matrix(1.00, 0.00, -0.00, -1.00, 548.5, 517.8)">w</text><text xml:space="preserve" font-family="ArialMT,Arial" font-size="36.0" fill="#4E5B3E" transform="matrix(1.00, 0.00, -0.00, -1.00, 574.5, 517.8)">o</text><text xml:space="preserve" font-family="ArialMT,Arial" font-size="36.0" fill="#4E5B3E" transform="matrix(1.00, 0.00, -0.00, -1.00, 594.5, 517.8)">r</text><text xml:space="preserve" font-family="ArialMT,Arial" font-size="36.0" fill="#4E5B3E" transform="matrix(1.00, 0.00, -0.00, -1.00, 606.5, 517.8)">k</text><text xml:space="preserve" font-family="ArialMT,Arial" font-size="36.0" fill="#4E5B3E" transform="matrix(1.00, 0.00, -0.00, -1.00, 624.5, 517.8)">s</text><text xml:space="preserve" font-family="ArialMT,Arial" font-size="36.0" fill="#4E5B3E" transform="matrix(1.00, 0.00, -0.00, -1.00, 642.5, 517.8)">,</text><text xml:space="preserve" font-family="ArialMT,Arial" font-size="36.0" fill="#4E5B3E" transform="matrix(1.00, 0.00, -0.00, -1.00, 652.5, 517.8)"> </text><image xlink:href="../../4D8CEEEF-60FF-489F-8404-9D69495BB971/assets/D33462763C9113B4641A678BE50AD036.png" width="149.00" height="31.00" transform="matrix(1.00, 0.00, -0.00, -1.00, 662.0, 546.0)"></image><text xml:space="preserve" font-family="Arial-ItalicMT,Arial" font-style="italic" font-size="36.0" fill="#4E5B3E" transform="matrix(1.00, 0.00, -0.00, -1.00, 662.5, 517.8)">b</text><text xml:space="preserve" font-family="Arial-ItalicMT,Arial" font-style="italic" font-size="36.0" fill="#4E5B3E" transform="matrix(1.00, 0.00, -0.00, -1.00, 682.5, 517.8)">l</text><text xml:space="preserve" font-family="Arial-ItalicMT,Arial" font-style="italic" font-size="36.0" fill="#4E5B3E" transform="matrix(1.00, 0.00, -0.00, -1.00, 690.5, 517.8)">a</text><text xml:space="preserve" font-family="Arial-ItalicMT,Arial" font-style="italic" font-size="36.0" fill="#4E5B3E" transform="matrix(1.00, 0.00, -0.00, -1.00, 710.5, 517.8)">h</text><text xml:space="preserve" font-family="Arial-ItalicMT,Arial" font-style="italic" font-size="36.0" fill="#4E5B3E" transform="matrix(1.00, 0.00, -0.00, -1.00, 730.6, 517.8)"> </text><text xml:space="preserve" font-family="Arial-ItalicMT,Arial" font-style="italic" font-size="36.0" fill="#4E5B3E" transform="matrix(1.00, 0.00, -0.00, -1.00, 740.6, 517.8)">b</text><text xml:space="preserve" font-family="Arial-ItalicMT,Arial" font-style="italic" font-size="36.0" fill="#4E5B3E" transform="matrix(1.00, 0.00, -0.00, -1.00, 760.6, 517.8)">l</text><text xml:space="preserve" font-family="Arial-ItalicMT,Arial" font-style="italic" font-size="36.0" fill="#4E5B3E" transform="matrix(1.00, 0.00, -0.00, -1.00, 768.6, 517.8)">a</text><text xml:space="preserve" font-family="Arial-ItalicMT,Arial" font-style="italic" font-size="36.0" fill="#4E5B3E" transform="matrix(1.00, 0.00, -0.00, -1.00, 788.6, 517.8)">h</text><text xml:space="preserve" font-family="ArialMT,Arial" font-size="36.0" fill="#4E5B3E" transform="matrix(1.00, 0.00, -0.00, -1.00, 808.6, 517.8)"> </text><image xlink:href="../../99A5FB03-DE1B-4B4A-AE6D-D0C074086E95/assets/ABB8D1DF0CCBAB0DEB1325F4A6E5C7F6.png" width="19.00" height="19.00" transform="matrix(1.00, 0.00, -0.00, -1.00, 68.0, 445.0)"></image><image xlink:href="../../99A5FB03-DE1B-4B4A-AE6D-D0C074086E95/assets/2EAA803481B4829669A1AED6584C7A6E.png" width="132.00" height="132.00" transform="matrix(0.11, 0.00, -0.00, -0.11, 69.0, 442.3)"></image><image xlink:href="../../4D8CEEEF-60FF-489F-8404-9D69495BB971/assets/10F4533027E9FAD221B337B78840BFE4.png" width="606.00" height="39.00" transform="matrix(1.00, 0.00, -0.00, -1.00, 103.0, 453.0)"></image><text xml:space="preserve" font-family="ArialMT,Arial" font-size="36.0" fill="#4E5B3E" transform="matrix(1.00, 0.00, -0.00, -1.00, 103.0, 423.8)">S</text><text xml:space="preserve" font-family="ArialMT,Arial" font-size="36.0" fill="#4E5B3E" transform="matrix(1.00, 0.00, -0.00, -1.00, 127.0, 423.8)">o</text><text xml:space="preserve" font-family="ArialMT,Arial" font-size="36.0" fill="#4E5B3E" transform="matrix(1.00, 0.00, -0.00, -1.00, 147.0, 423.8)">c</text><text xml:space="preserve" font-family="ArialMT,Arial" font-size="36.0" fill="#4E5B3E" transform="matrix(1.00, 0.00, -0.00, -1.00, 165.0, 423.8)">i</text><text xml:space="preserve" font-family="ArialMT,Arial" font-size="36.0" fill="#4E5B3E" transform="matrix(1.00, 0.00, -0.00, -1.00, 173.0, 423.8)">a</text><text xml:space="preserve" font-family="ArialMT,Arial" font-size="36.0" fill="#4E5B3E" transform="matrix(1.00, 0.00, -0.00, -1.00, 193.1, 423.8)">l</text><text xml:space="preserve" font-family="ArialMT,Arial" font-size="36.0" fill="#4E5B3E" transform="matrix(1.00, 0.00, -0.00, -1.00, 201.1, 423.8)">,</text><text xml:space="preserve" font-family="ArialMT,Arial" font-size="36.0" fill="#4E5B3E" transform="matrix(1.00, 0.00, -0.00, -1.00, 211.1, 423.8)"> </text><text xml:space="preserve" font-family="ArialMT,Arial" font-size="36.0" fill="#4E5B3E" transform="matrix(1.00, 0.00, -0.00, -1.00, 221.1, 423.8)">s</text><text xml:space="preserve" font-family="ArialMT,Arial" font-size="36.0" fill="#4E5B3E" transform="matrix(1.00, 0.00, -0.00, -1.00, 239.1, 423.8)">e</text><text xml:space="preserve" font-family="ArialMT,Arial" font-size="36.0" fill="#4E5B3E" transform="matrix(1.00, 0.00, -0.00, -1.00, 259.1, 423.8)">a</text><text xml:space="preserve" font-family="ArialMT,Arial" font-size="36.0" fill="#4E5B3E" transform="matrix(1.00, 0.00, -0.00, -1.00, 279.1, 423.8)">r</text><text xml:space="preserve" font-family="ArialMT,Arial" font-size="36.0" fill="#4E5B3E" transform="matrix(1.00, 0.00, -0.00, -1.00, 291.1, 423.8)">c</text><text xml:space="preserve" font-family="ArialMT,Arial" font-size="36.0" fill="#4E5B3E" transform="matrix(1.00, 0.00, -0.00, -1.00, 309.1, 423.8)">h</text><text xml:space="preserve" font-family="ArialMT,Arial" font-size="36.0" fill="#4E5B3E" transform="matrix(1.00, 0.00, -0.00, -1.00, 329.1, 423.8)"> </text><text xml:space="preserve" font-family="ArialMT,Arial" font-size="36.0" fill="#4E5B3E" transform="matrix(1.00, 0.00, -0.00, -1.00, 339.1, 423.8)">e</text><text xml:space="preserve" font-family="ArialMT,Arial" font-size="36.0" fill="#4E5B3E" transform="matrix(1.00, 0.00, -0.00, -1.00, 359.2, 423.8)">n</text><text xml:space="preserve" font-family="ArialMT,Arial" font-size="36.0" fill="#4E5B3E" transform="matrix(1.00, 0.00, -0.00, -1.00, 379.2, 423.8)">g</text><text xml:space="preserve" font-family="ArialMT,Arial" font-size="36.0" fill="#4E5B3E" transform="matrix(1.00, 0.00, -0.00, -1.00, 399.2, 423.8)">i</text><text xml:space="preserve" font-family="ArialMT,Arial" font-size="36.0" fill="#4E5B3E" transform="matrix(1.00, 0.00, -0.00, -1.00, 407.2, 423.8)">n</text><text xml:space="preserve" font-family="ArialMT,Arial" font-size="36.0" fill="#4E5B3E" transform="matrix(1.00, 0.00, -0.00, -1.00, 427.3, 423.8)">e</text><text xml:space="preserve" font-family="ArialMT,Arial" font-size="36.0" fill="#4E5B3E" transform="matrix(1.00, 0.00, -0.00, -1.00, 447.3, 423.8)">s</text><text xml:space="preserve" font-family="ArialMT,Arial" font-size="36.0" fill="#4E5B3E" transform="matrix(1.00, 0.00, -0.00, -1.00, 465.3, 423.8)">,</text><text xml:space="preserve" font-family="ArialMT,Arial" font-size="36.0" fill="#4E5B3E" transform="matrix(1.00, 0.00, -0.00, -1.00, 475.3, 423.8)"> </text><text xml:space="preserve" font-family="ArialMT,Arial" font-size="36.0" fill="#4E5B3E" transform="matrix(1.00, 0.00, -0.00, -1.00, 485.3, 423.8)">a</text><text xml:space="preserve" font-family="ArialMT,Arial" font-size="36.0" fill="#4E5B3E" transform="matrix(1.00, 0.00, -0.00, -1.00, 505.3, 423.8)">g</text><text xml:space="preserve" font-family="ArialMT,Arial" font-size="36.0" fill="#4E5B3E" transform="matrix(1.00, 0.00, -0.00, -1.00, 525.3, 423.8)">g</text><text xml:space="preserve" font-family="ArialMT,Arial" font-size="36.0" fill="#4E5B3E" transform="matrix(1.00, 0.00, -0.00, -1.00, 545.4, 423.8)">r</text><text xml:space="preserve" font-family="ArialMT,Arial" font-size="36.0" fill="#4E5B3E" transform="matrix(1.00, 0.00, -0.00, -1.00, 557.4, 423.8)">e</text><text xml:space="preserve" font-family="ArialMT,Arial" font-size="36.0" fill="#4E5B3E" transform="matrix(1.00, 0.00, -0.00, -1.00, 577.4, 423.8)">g</text><text xml:space="preserve" font-family="ArialMT,Arial" font-size="36.0" fill="#4E5B3E" transform="matrix(1.00, 0.00, -0.00, -1.00, 597.4, 423.8)">a</text><text xml:space="preserve" font-family="ArialMT,Arial" font-size="36.0" fill="#4E5B3E" transform="matrix(1.00, 0.00, -0.00, -1.00, 617.4, 423.8)">t</text><text xml:space="preserve" font-family="ArialMT,Arial" font-size="36.0" fill="#4E5B3E" transform="matrix(1.00, 0.00, -0.00, -1.00, 627.4, 423.8)">i</text><text xml:space="preserve" font-family="ArialMT,Arial" font-size="36.0" fill="#4E5B3E" transform="matrix(1.00, 0.00, -0.00, -1.00, 635.4, 423.8)">o</text><text xml:space="preserve" font-family="ArialMT,Arial" font-size="36.0" fill="#4E5B3E" transform="matrix(1.00, 0.00, -0.00, -1.00, 655.5, 423.8)">n</text><text xml:space="preserve" font-family="ArialMT,Arial" font-size="36.0" fill="#4E5B3E" transform="matrix(1.00, 0.00, -0.00, -1.00, 675.5, 423.8)"> </text><text xml:space="preserve" font-family="ArialMT,Arial" font-size="36.0" fill="#4E5B3E" transform="matrix(1.00, 0.00, -0.00, -1.00, 685.5, 423.8)">–</text><text xml:space="preserve" font-family="ArialMT,Arial" font-size="36.0" fill="#4E5B3E" transform="matrix(1.00, 0.00, -0.00, -1.00, 705.5, 423.8)"> </text><image xlink:href="../../4D8CEEEF-60FF-489F-8404-9D69495BB971/assets/B91D59F791536D19D1D30B64AB6DB8CF.png" width="258.00" height="31.00" transform="matrix(1.00, 0.00, -0.00, -1.00, 104.0, 408.0)"></image><text xml:space="preserve" font-family="SourceSansPro-Semibold,Source Sans Pro" font-weight="bold" font-size="36.0" fill="#4E5B3E" transform="matrix(1.00, 0.00, -0.00, -1.00, 103.0, 379.8)">I</text><text xml:space="preserve" font-family="SourceSansPro-Semibold,Source Sans Pro" font-weight="bold" font-size="36.0" fill="#4E5B3E" transform="matrix(1.00, 0.00, -0.00, -1.00, 113.2, 379.8)">n</text><text xml:space="preserve" font-family="SourceSansPro-Semibold,Source Sans Pro" font-weight="bold" font-size="36.0" fill="#4E5B3E" transform="matrix(1.00, 0.00, -0.00, -1.00, 133.3, 379.8)">t</text><text xml:space="preserve" font-family="SourceSansPro-Semibold,Source Sans Pro" font-weight="bold" font-size="36.0" fill="#4E5B3E" transform="matrix(1.00, 0.00, -0.00, -1.00, 145.9, 379.8)">e</text><text xml:space="preserve" font-family="SourceSansPro-Semibold,Source Sans Pro" font-weight="bold" font-size="36.0" fill="#4E5B3E" transform="matrix(1.00, 0.00, -0.00, -1.00, 164.2, 379.8)">r</text><text xml:space="preserve" font-family="SourceSansPro-Semibold,Source Sans Pro" font-weight="bold" font-size="36.0" fill="#4E5B3E" transform="matrix(1.00, 0.00, -0.00, -1.00, 177.3, 379.8)">c</text><text xml:space="preserve" font-family="SourceSansPro-Semibold,Source Sans Pro" font-weight="bold" font-size="36.0" fill="#4E5B3E" transform="matrix(1.00, 0.00, -0.00, -1.00, 193.0, 379.8)">o</text><text xml:space="preserve" font-family="SourceSansPro-Semibold,Source Sans Pro" font-weight="bold" font-size="36.0" fill="#4E5B3E" transform="matrix(1.00, 0.00, -0.00, -1.00, 212.8, 379.8)">n</text><text xml:space="preserve" font-family="SourceSansPro-Semibold,Source Sans Pro" font-weight="bold" font-size="36.0" fill="#4E5B3E" transform="matrix(1.00, 0.00, -0.00, -1.00, 233.0, 379.8)">n</text><text xml:space="preserve" font-family="SourceSansPro-Semibold,Source Sans Pro" font-weight="bold" font-size="36.0" fill="#4E5B3E" transform="matrix(1.00, 0.00, -0.00, -1.00, 253.1, 379.8)">e</text><text xml:space="preserve" font-family="SourceSansPro-Semibold,Source Sans Pro" font-weight="bold" font-size="36.0" fill="#4E5B3E" transform="matrix(1.00, 0.00, -0.00, -1.00, 271.4, 379.8)">c</text><text xml:space="preserve" font-family="SourceSansPro-Semibold,Source Sans Pro" font-weight="bold" font-size="36.0" fill="#4E5B3E" transform="matrix(1.00, 0.00, -0.00, -1.00, 288.0, 379.8)">t</text><text xml:space="preserve" font-family="SourceSansPro-Semibold,Source Sans Pro" font-weight="bold" font-size="36.0" fill="#4E5B3E" transform="matrix(1.00, 0.00, -0.00, -1.00, 301.0, 379.8)">i</text><text xml:space="preserve" font-family="SourceSansPro-Semibold,Source Sans Pro" font-weight="bold" font-size="36.0" fill="#4E5B3E" transform="matrix(1.00, 0.00, -0.00, -1.00, 310.4, 379.8)">o</text><text xml:space="preserve" font-family="SourceSansPro-Semibold,Source Sans Pro" font-weight="bold" font-size="36.0" fill="#4E5B3E" transform="matrix(1.00, 0.00, -0.00, -1.00, 330.2, 379.8)">n</text><text xml:space="preserve" font-family="SourceSansPro-Semibold,Source Sans Pro" font-weight="bold" font-size="36.0" fill="#4E5B3E" transform="matrix(1.00, 0.00, -0.00, -1.00, 350.4, 379.8)">!</text><image xlink:href="../../CFB973E0-1CA5-4505-A6AC-B517D18CDB5D/assets/67DAB4CA75EE7D7CFD8489E13E962814.png" width="20.00" height="21.00" transform="matrix(1.00, 0.00, -0.00, -1.00, 68.0, 283.0)"></image><image xlink:href="../../99A5FB03-DE1B-4B4A-AE6D-D0C074086E95/assets/2EAA803481B4829669A1AED6584C7A6E.png" width="132.00" height="132.00" transform="matrix(0.12, 0.00, -0.00, -0.12, 69.0, 280.6)"></image><image xlink:href="../../CFB973E0-1CA5-4505-A6AC-B517D18CDB5D/assets/EDFD8E12B996EAC02FD9013BDD7D91E2.png" width="23.00" height="29.00" transform="matrix(1.00, 0.00, -0.00, -1.00, 102.0, 287.0)"></image><text xml:space="preserve" font-family="SourceSansPro-Semibold,Source Sans Pro" font-weight="bold" font-size="36.0" fill="#4E5B3E" transform="matrix(1.00, 0.00, -0.00, -1.00, 103.0, 260.9)">T</text><image xlink:href="../../CFB973E0-1CA5-4505-A6AC-B517D18CDB5D/assets/6A3733F386A56CA1A398C8903706FB37.png" width="20.00" height="31.00" transform="matrix(1.00, 0.00, -0.00, -1.00, 124.0, 289.0)"></image><text xml:space="preserve" font-family="SourceSansPro-Semibold,Source Sans Pro" font-weight="bold" font-size="36.0" fill="#4E5B3E" transform="matrix(1.00, 0.00, -0.00, -1.00, 122.7, 260.9)">h</text><image xlink:href="../../CFB973E0-1CA5-4505-A6AC-B517D18CDB5D/assets/3B5E5C27F6970383A62BD1A4782EE215.png" width="20.00" height="24.00" transform="matrix(1.00, 0.00, -0.00, -1.00, 143.0, 282.0)"></image><text xml:space="preserve" font-family="SourceSansPro-Semibold,Source Sans Pro" font-weight="bold" font-size="36.0" fill="#4E5B3E" transform="matrix(1.00, 0.00, -0.00, -1.00, 142.7, 260.9)">e</text><text xml:space="preserve" font-family="SourceSansPro-Semibold,Source Sans Pro" font-weight="bold" font-size="36.0" fill="#4E5B3E" transform="matrix(1.00, 0.00, -0.00, -1.00, 161.0, 260.9)"> </text><image xlink:href="../../CFB973E0-1CA5-4505-A6AC-B517D18CDB5D/assets/ED6D9F79C06EEF9C42F4F29245711284.png" width="10.00" height="31.00" transform="matrix(1.00, 0.00, -0.00, -1.00, 169.0, 289.0)"></image><text xml:space="preserve" font-family="SourceSansPro-Semibold,Source Sans Pro" font-weight="bold" font-size="36.0" fill="#4E5B3E" transform="matrix(1.00, 0.00, -0.00, -1.00, 168.4, 260.9)">i</text><image xlink:href="../../CFB973E0-1CA5-4505-A6AC-B517D18CDB5D/assets/F66B66615CD9008F10EBEEB743301479.png" width="20.00" height="24.00" transform="matrix(1.00, 0.00, -0.00, -1.00, 179.0, 282.0)"></image><text xml:space="preserve" font-family="SourceSansPro-Semibold,Source Sans Pro" font-weight="bold" font-size="36.0" fill="#4E5B3E" transform="matrix(1.00, 0.00, -0.00, -1.00, 177.8, 260.9)">n</text><image xlink:href="../../CFB973E0-1CA5-4505-A6AC-B517D18CDB5D/assets/3AFEBD3D19090D20E53E4B9E4BCB98E8.png" width="17.00" height="28.00" transform="matrix(1.00, 0.00, -0.00, -1.00, 197.0, 286.0)"></image><text xml:space="preserve" font-family="SourceSansPro-Semibold,Source Sans Pro" font-weight="bold" font-size="36.0" fill="#4E5B3E" transform="matrix(1.00, 0.00, -0.00, -1.00, 198.0, 260.9)">t</text><image xlink:href="../../CFB973E0-1CA5-4505-A6AC-B517D18CDB5D/assets/ECCD7A27227ED824DD9E48461D502E8A.png" width="20.00" height="24.00" transform="matrix(1.00, 0.00, -0.00, -1.00, 211.0, 282.0)"></image><text xml:space="preserve" font-family="SourceSansPro-Semibold,Source Sans Pro" font-weight="bold" font-size="36.0" fill="#4E5B3E" transform="matrix(1.00, 0.00, -0.00, -1.00, 210.6, 260.9)">e</text><image xlink:href="../../CFB973E0-1CA5-4505-A6AC-B517D18CDB5D/assets/2DD8B3435730D31CBB8FF4EECAB3B879.png" width="16.00" height="24.00" transform="matrix(1.00, 0.00, -0.00, -1.00, 230.0, 282.0)"></image><text xml:space="preserve" font-family="SourceSansPro-Semibold,Source Sans Pro" font-weight="bold" font-size="36.0" fill="#4E5B3E" transform="matrix(1.00, 0.00, -0.00, -1.00, 228.9, 260.9)">r</text><image xlink:href="../../CFB973E0-1CA5-4505-A6AC-B517D18CDB5D/assets/3901CCFD28BCBF2E1B39BD9BD271FBAB.png" width="20.00" height="24.00" transform="matrix(1.00, 0.00, -0.00, -1.00, 243.0, 282.0)"></image><text xml:space="preserve" font-family="SourceSansPro-Semibold,Source Sans Pro" font-weight="bold" font-size="36.0" fill="#4E5B3E" transform="matrix(1.00, 0.00, -0.00, -1.00, 242.3, 260.9)">n</text><image xlink:href="../../CFB973E0-1CA5-4505-A6AC-B517D18CDB5D/assets/F37DAD3C2824C237338746CFDE79EEDD.png" width="21.00" height="24.00" transform="matrix(1.00, 0.00, -0.00, -1.00, 262.0, 282.0)"></image><text xml:space="preserve" font-family="SourceSansPro-Semibold,Source Sans Pro" font-weight="bold" font-size="36.0" fill="#4E5B3E" transform="matrix(1.00, 0.00, -0.00, -1.00, 262.4, 260.9)">e</text><image xlink:href="../../CFB973E0-1CA5-4505-A6AC-B517D18CDB5D/assets/3FEE623D78BFEF4F823F643BCDEAC104.png" width="17.00" height="28.00" transform="matrix(1.00, 0.00, -0.00, -1.00, 279.0, 286.0)"></image><text xml:space="preserve" font-family="SourceSansPro-Semibold,Source Sans Pro" font-weight="bold" font-size="36.0" fill="#4E5B3E" transform="matrix(1.00, 0.00, -0.00, -1.00, 280.1, 260.9)">t</text><text xml:space="preserve" font-family="SourceSansPro-Semibold,Source Sans Pro" font-weight="bold" font-size="36.0" fill="#4E5B3E" transform="matrix(1.00, 0.00, -0.00, -1.00, 293.1, 260.9)"> </text><image xlink:href="../../CFB973E0-1CA5-4505-A6AC-B517D18CDB5D/assets/559D0064599510037CED438FD0320A11.png" width="10.00" height="31.00" transform="matrix(1.00, 0.00, -0.00, -1.00, 301.0, 289.0)"></image><text xml:space="preserve" font-family="SourceSansPro-Semibold,Source Sans Pro" font-weight="bold" font-size="36.0" fill="#4E5B3E" transform="matrix(1.00, 0.00, -0.00, -1.00, 300.5, 260.9)">i</text><image xlink:href="../../CFB973E0-1CA5-4505-A6AC-B517D18CDB5D/assets/92CA0B5F95098A1950DABC023A0316F0.png" width="19.00" height="24.00" transform="matrix(1.00, 0.00, -0.00, -1.00, 309.0, 282.0)"></image><text xml:space="preserve" font-family="SourceSansPro-Semibold,Source Sans Pro" font-weight="bold" font-size="36.0" fill="#4E5B3E" transform="matrix(1.00, 0.00, -0.00, -1.00, 309.9, 260.9)">s</text><text xml:space="preserve" font-family="SourceSansPro-Semibold,Source Sans Pro" font-weight="bold" font-size="36.0" fill="#4E5B3E" transform="matrix(1.00, 0.00, -0.00, -1.00, 325.4, 260.9)"> </text><image xlink:href="../../CFB973E0-1CA5-4505-A6AC-B517D18CDB5D/assets/4CF7FBC96CF037161DA08C52030E7DBB.png" width="20.00" height="24.00" transform="matrix(1.00, 0.00, -0.00, -1.00, 333.0, 282.0)"></image><text xml:space="preserve" font-family="SourceSansPro-Semibold,Source Sans Pro" font-weight="bold" font-size="36.0" fill="#4E5B3E" transform="matrix(1.00, 0.00, -0.00, -1.00, 332.8, 260.9)">a</text><text xml:space="preserve" font-family="SourceSansPro-Semibold,Source Sans Pro" font-weight="bold" font-size="36.0" fill="#4E5B3E" transform="matrix(1.00, 0.00, -0.00, -1.00, 351.7, 260.9)"> </text><image xlink:href="../../CFB973E0-1CA5-4505-A6AC-B517D18CDB5D/assets/7038BB855B3344C82B980E9D151B7481.png" width="21.00" height="31.00" transform="matrix(1.00, 0.00, -0.00, -1.00, 359.0, 282.0)"></image><text xml:space="preserve" font-family="SourceSansPro-Semibold,Source Sans Pro" font-weight="bold" font-size="36.0" fill="#4E5B3E" transform="matrix(1.00, 0.00, -0.00, -1.00, 359.0, 260.9)">q</text><image xlink:href="../../CFB973E0-1CA5-4505-A6AC-B517D18CDB5D/assets/1F1BDF95A5E49850A72B676B530240E0.png" width="20.00" height="23.00" transform="matrix(1.00, 0.00, -0.00, -1.00, 380.0, 281.0)"></image><text xml:space="preserve" font-family="SourceSansPro-Semibold,Source Sans Pro" font-weight="bold" font-size="36.0" fill="#4E5B3E" transform="matrix(1.00, 0.00, -0.00, -1.00, 379.2, 260.9)">u</text><image xlink:href="../../CFB973E0-1CA5-4505-A6AC-B517D18CDB5D/assets/EFF98792FE3BA7CCB51A377F9D7AD7CB.png" width="19.00" height="24.00" transform="matrix(1.00, 0.00, -0.00, -1.00, 400.0, 282.0)"></image><text xml:space="preserve" font-family="SourceSansPro-Semibold,Source Sans Pro" font-weight="bold" font-size="36.0" fill="#4E5B3E" transform="matrix(1.00, 0.00, -0.00, -1.00, 399.2, 260.9)">a</text><image xlink:href="../../CFB973E0-1CA5-4505-A6AC-B517D18CDB5D/assets/CD62BE2451A46CB21DB656B3BB256380.png" width="20.00" height="24.00" transform="matrix(1.00, 0.00, -0.00, -1.00, 419.0, 282.0)"></image><text xml:space="preserve" font-family="SourceSansPro-Semibold,Source Sans Pro" font-weight="bold" font-size="36.0" fill="#4E5B3E" transform="matrix(1.00, 0.00, -0.00, -1.00, 418.1, 260.9)">n</text><image xlink:href="../../CFB973E0-1CA5-4505-A6AC-B517D18CDB5D/assets/11E6BB7C69F68CB28B2A29EB46C0A095.png" width="17.00" height="28.00" transform="matrix(1.00, 0.00, -0.00, -1.00, 437.0, 286.0)"></image><text xml:space="preserve" font-family="SourceSansPro-Semibold,Source Sans Pro" font-weight="bold" font-size="36.0" fill="#4E5B3E" transform="matrix(1.00, 0.00, -0.00, -1.00, 438.2, 260.9)">t</text><image xlink:href="../../CFB973E0-1CA5-4505-A6AC-B517D18CDB5D/assets/6DE87B4E4CE0DC4441AB80A172F87799.png" width="20.00" height="23.00" transform="matrix(1.00, 0.00, -0.00, -1.00, 452.0, 281.0)"></image><text xml:space="preserve" font-family="SourceSansPro-Semibold,Source Sans Pro" font-weight="bold" font-size="36.0" fill="#4E5B3E" transform="matrix(1.00, 0.00, -0.00, -1.00, 451.1, 260.9)">u</text><image xlink:href="../../CFB973E0-1CA5-4505-A6AC-B517D18CDB5D/assets/40544EEB26D66E5F2E5FEB2387CF418C.png" width="31.00" height="24.00" transform="matrix(1.00, 0.00, -0.00, -1.00, 472.0, 282.0)"></image><text xml:space="preserve" font-family="SourceSansPro-Semibold,Source Sans Pro" font-weight="bold" font-size="36.0" fill="#4E5B3E" transform="matrix(1.00, 0.00, -0.00, -1.00, 471.1, 260.9)">m</text><text xml:space="preserve" font-family="SourceSansPro-Semibold,Source Sans Pro" font-weight="bold" font-size="36.0" fill="#4E5B3E" transform="matrix(1.00, 0.00, -0.00, -1.00, 501.4, 260.9)"> </text><image xlink:href="../../CFB973E0-1CA5-4505-A6AC-B517D18CDB5D/assets/77E0D6F1FADBE2CBC69CA2B9107839C4.png" width="19.00" height="24.00" transform="matrix(1.00, 0.00, -0.00, -1.00, 509.0, 282.0)"></image><text xml:space="preserve" font-family="SourceSansPro-Semibold,Source Sans Pro" font-weight="bold" font-size="36.0" fill="#4E5B3E" transform="matrix(1.00, 0.00, -0.00, -1.00, 508.8, 260.9)">c</text><image xlink:href="../../CFB973E0-1CA5-4505-A6AC-B517D18CDB5D/assets/068C1BBB71F3576A7825EEB026899F75.png" width="20.00" height="31.00" transform="matrix(1.00, 0.00, -0.00, -1.00, 527.0, 289.0)"></image><text xml:space="preserve" font-family="SourceSansPro-Semibold,Source Sans Pro" font-weight="bold" font-size="36.0" fill="#4E5B3E" transform="matrix(1.00, 0.00, -0.00, -1.00, 525.5, 260.9)">h</text><image xlink:href="../../CFB973E0-1CA5-4505-A6AC-B517D18CDB5D/assets/5880699F7567235278BAC77468CFE0BE.png" width="19.00" height="24.00" transform="matrix(1.00, 0.00, -0.00, -1.00, 546.0, 282.0)"></image><text xml:space="preserve" font-family="SourceSansPro-Semibold,Source Sans Pro" font-weight="bold" font-size="36.0" fill="#4E5B3E" transform="matrix(1.00, 0.00, -0.00, -1.00, 545.5, 260.9)">a</text><image xlink:href="../../CFB973E0-1CA5-4505-A6AC-B517D18CDB5D/assets/173A049A8A6AC9A99075361A9CB33E2C.png" width="20.00" height="24.00" transform="matrix(1.00, 0.00, -0.00, -1.00, 566.0, 282.0)"></image><text xml:space="preserve" font-family="SourceSansPro-Semibold,Source Sans Pro" font-weight="bold" font-size="36.0" fill="#4E5B3E" transform="matrix(1.00, 0.00, -0.00, -1.00, 564.4, 260.9)">n</text><image xlink:href="../../CFB973E0-1CA5-4505-A6AC-B517D18CDB5D/assets/A3C5BFF3A981EE9021F77C9B52A28C32.png" width="22.00" height="31.00" transform="matrix(1.00, 0.00, -0.00, -1.00, 584.0, 282.0)"></image><text xml:space="preserve" font-family="SourceSansPro-Semibold,Source Sans Pro" font-weight="bold" font-size="36.0" fill="#4E5B3E" transform="matrix(1.00, 0.00, -0.00, -1.00, 584.5, 260.9)">g</text><image xlink:href="../../CFB973E0-1CA5-4505-A6AC-B517D18CDB5D/assets/DCE751951C02D886DBC4D79B4A9F1780.png" width="20.00" height="24.00" transform="matrix(1.00, 0.00, -0.00, -1.00, 603.0, 282.0)"></image><text xml:space="preserve" font-family="SourceSansPro-Semibold,Source Sans Pro" font-weight="bold" font-size="36.0" fill="#4E5B3E" transform="matrix(1.00, 0.00, -0.00, -1.00, 602.7, 260.9)">e</text><text xml:space="preserve" font-family="SourceSansPro-Semibold,Source Sans Pro" font-weight="bold" font-size="36.0" fill="#4E5B3E" transform="matrix(1.00, 0.00, -0.00, -1.00, 620.9, 260.9)"> </text><image xlink:href="../../CFB973E0-1CA5-4505-A6AC-B517D18CDB5D/assets/2CB1C04B95E4E6B445599F9F577028D7.png" width="10.00" height="31.00" transform="matrix(1.00, 0.00, -0.00, -1.00, 629.0, 289.0)"></image><text xml:space="preserve" font-family="SourceSansPro-Semibold,Source Sans Pro" font-weight="bold" font-size="36.0" fill="#4E5B3E" transform="matrix(1.00, 0.00, -0.00, -1.00, 628.3, 260.9)">i</text><image xlink:href="../../CFB973E0-1CA5-4505-A6AC-B517D18CDB5D/assets/3179ADE4CFCC20EF36E9B8EB486EB648.png" width="20.00" height="24.00" transform="matrix(1.00, 0.00, -0.00, -1.00, 639.0, 282.0)"></image><text xml:space="preserve" font-family="SourceSansPro-Semibold,Source Sans Pro" font-weight="bold" font-size="36.0" fill="#4E5B3E" transform="matrix(1.00, 0.00, -0.00, -1.00, 637.7, 260.9)">n</text><text xml:space="preserve" font-family="SourceSansPro-Semibold,Source Sans Pro" font-weight="bold" font-size="36.0" fill="#4E5B3E" transform="matrix(1.00, 0.00, -0.00, -1.00, 657.9, 260.9)"> </text><image xlink:href="../../CFB973E0-1CA5-4505-A6AC-B517D18CDB5D/assets/0FCC782336D75394E59D7A465CB7C189.png" width="20.00" height="31.00" transform="matrix(1.00, 0.00, -0.00, -1.00, 666.0, 289.0)"></image><text xml:space="preserve" font-family="SourceSansPro-Semibold,Source Sans Pro" font-weight="bold" font-size="36.0" fill="#4E5B3E" transform="matrix(1.00, 0.00, -0.00, -1.00, 665.3, 260.9)">h</text><image xlink:href="../../CFB973E0-1CA5-4505-A6AC-B517D18CDB5D/assets/3726E5234782C35D03A55F694C9AD9AA.png" width="20.00" height="23.00" transform="matrix(1.00, 0.00, -0.00, -1.00, 686.0, 281.0)"></image><text xml:space="preserve" font-family="SourceSansPro-Semibold,Source Sans Pro" font-weight="bold" font-size="36.0" fill="#4E5B3E" transform="matrix(1.00, 0.00, -0.00, -1.00, 685.4, 260.9)">u</text><image xlink:href="../../CFB973E0-1CA5-4505-A6AC-B517D18CDB5D/assets/519E13AC7186CCF2C393DB982F2A6E34.png" width="30.00" height="24.00" transform="matrix(1.00, 0.00, -0.00, -1.00, 707.0, 282.0)"></image><text xml:space="preserve" font-family="SourceSansPro-Semibold,Source Sans Pro" font-weight="bold" font-size="36.0" fill="#4E5B3E" transform="matrix(1.00, 0.00, -0.00, -1.00, 705.4, 260.9)">m</text><image xlink:href="../../CFB973E0-1CA5-4505-A6AC-B517D18CDB5D/assets/7ACE12342F66867B7B8443DD4D4041E0.png" width="20.00" height="24.00" transform="matrix(1.00, 0.00, -0.00, -1.00, 736.0, 282.0)"></image><text xml:space="preserve" font-family="SourceSansPro-Semibold,Source Sans Pro" font-weight="bold" font-size="36.0" fill="#4E5B3E" transform="matrix(1.00, 0.00, -0.00, -1.00, 735.7, 260.9)">a</text><image xlink:href="../../CFB973E0-1CA5-4505-A6AC-B517D18CDB5D/assets/A17B02836877713892D170F5C2F94E37.png" width="20.00" height="24.00" transform="matrix(1.00, 0.00, -0.00, -1.00, 756.0, 282.0)"></image><text xml:space="preserve" font-family="SourceSansPro-Semibold,Source Sans Pro" font-weight="bold" font-size="36.0" fill="#4E5B3E" transform="matrix(1.00, 0.00, -0.00, -1.00, 754.6, 260.9)">n</text><text xml:space="preserve" font-family="SourceSansPro-Semibold,Source Sans Pro" font-weight="bold" font-size="36.0" fill="#4E5B3E" transform="matrix(1.00, 0.00, -0.00, -1.00, 774.7, 260.9)"> </text><image xlink:href="../../CFB973E0-1CA5-4505-A6AC-B517D18CDB5D/assets/9FBE65F44E3A737FF60E327EA3837657.png" width="19.00" height="24.00" transform="matrix(1.00, 0.00, -0.00, -1.00, 781.0, 282.0)"></image><text xml:space="preserve" font-family="SourceSansPro-Semibold,Source Sans Pro" font-weight="bold" font-size="36.0" fill="#4E5B3E" transform="matrix(1.00, 0.00, -0.00, -1.00, 782.1, 260.9)">s</text><image xlink:href="../../CFB973E0-1CA5-4505-A6AC-B517D18CDB5D/assets/3B874585CC214C81E5DA0131705C06B8.png" width="21.00" height="24.00" transform="matrix(1.00, 0.00, -0.00, -1.00, 798.0, 282.0)"></image><text xml:space="preserve" font-family="SourceSansPro-Semibold,Source Sans Pro" font-weight="bold" font-size="36.0" fill="#4E5B3E" transform="matrix(1.00, 0.00, -0.00, -1.00, 797.6, 260.9)">o</text><image xlink:href="../../CFB973E0-1CA5-4505-A6AC-B517D18CDB5D/assets/848FC52775916234FDB16BB92F1FB257.png" width="20.00" height="24.00" transform="matrix(1.00, 0.00, -0.00, -1.00, 817.0, 282.0)"></image><text xml:space="preserve" font-family="SourceSansPro-Semibold,Source Sans Pro" font-weight="bold" font-size="36.0" fill="#4E5B3E" transform="matrix(1.00, 0.00, -0.00, -1.00, 817.4, 260.9)">c</text><image xlink:href="../../CFB973E0-1CA5-4505-A6AC-B517D18CDB5D/assets/7939D345264CFA45E411D60D4B891BE8.png" width="10.00" height="31.00" transform="matrix(1.00, 0.00, -0.00, -1.00, 835.0, 289.0)"></image><text xml:space="preserve" font-family="SourceSansPro-Semibold,Source Sans Pro" font-weight="bold" font-size="36.0" fill="#4E5B3E" transform="matrix(1.00, 0.00, -0.00, -1.00, 834.0, 260.9)">i</text><image xlink:href="../../CFB973E0-1CA5-4505-A6AC-B517D18CDB5D/assets/E37D1AB12792E16F703B912607D983BE.png" width="21.00" height="24.00" transform="matrix(1.00, 0.00, -0.00, -1.00, 843.0, 282.0)"></image><text xml:space="preserve" font-family="SourceSansPro-Semibold,Source Sans Pro" font-weight="bold" font-size="36.0" fill="#4E5B3E" transform="matrix(1.00, 0.00, -0.00, -1.00, 843.4, 260.9)">e</text><image xlink:href="../../CFB973E0-1CA5-4505-A6AC-B517D18CDB5D/assets/3FEE623D78BFEF4F823F643BCDEAC104.png" width="17.00" height="28.00" transform="matrix(1.00, 0.00, -0.00, -1.00, 860.0, 286.0)"></image><text xml:space="preserve" font-family="SourceSansPro-Semibold,Source Sans Pro" font-weight="bold" font-size="36.0" fill="#4E5B3E" transform="matrix(1.00, 0.00, -0.00, -1.00, 861.1, 260.9)">t</text><image xlink:href="../../CFB973E0-1CA5-4505-A6AC-B517D18CDB5D/assets/2BFBE596FB80FD3870CF3DA847614A59.png" width="22.00" height="30.00" transform="matrix(1.00, 0.00, -0.00, -1.00, 873.0, 281.0)"></image><text xml:space="preserve" font-family="SourceSansPro-Semibold,Source Sans Pro" font-weight="bold" font-size="36.0" fill="#4E5B3E" transform="matrix(1.00, 0.00, -0.00, -1.00, 874.1, 260.9)">y</text></g></svg>